  0
SECTION
  2
HEADER
  9
$ACADVER
  1
AC1024
  9
$ACADMAINTVER
 70
   109
  9
$DWGCODEPAGE
  3
ANSI_1256
  9
$INSBASE
 10
0.0
 20
0.0
 30
0.0
  9
$EXTMIN
 10
263180.7561145536
 20
1990583.403966136
 30
-8.576951406134256
  9
$EXTMAX
 10
263891.2363696237
 20
1991559.525594296
 30
0.00000001
  9
$LIMMIN
 10
0.0
 20
0.0
  9
$LIMMAX
 10
12.0
 20
9.0
  9
$ORTHOMODE
 70
     0
  9
$REGENMODE
 70
     1
  9
$FILLMODE
 70
     1
  9
$QTEXTMODE
 70
     0
  9
$MIRRTEXT
 70
     1
  9
$LTSCALE
 40
1.0
  9
$ATTMODE
 70
     1
  9
$TEXTSIZE
 40
0.2
  9
$TRACEWID
 40
0.05
  9
$TEXTSTYLE
  7
Standard
  9
$CLAYER
  8
اسوار
  9
$CELTYPE
  6
ByLayer
  9
$CECOLOR
 62
   256
  9
$CELTSCALE
 40
1.0
  9
$DISPSILH
 70
     0
  9
$DIMSCALE
 40
1.0
  9
$DIMASZ
 40
0.18
  9
$DIMEXO
 40
0.0625
  9
$DIMDLI
 40
0.38
  9
$DIMRND
 40
0.0
  9
$DIMDLE
 40
0.0
  9
$DIMEXE
 40
0.18
  9
$DIMTP
 40
0.0
  9
$DIMTM
 40
0.0
  9
$DIMTXT
 40
0.18
  9
$DIMCEN
 40
0.09
  9
$DIMTSZ
 40
0.0
  9
$DIMTOL
 70
     0
  9
$DIMLIM
 70
     0
  9
$DIMTIH
 70
     1
  9
$DIMTOH
 70
     1
  9
$DIMSE1
 70
     0
  9
$DIMSE2
 70
     0
  9
$DIMTAD
 70
     0
  9
$DIMZIN
 70
     0
  9
$DIMBLK
  1

  9
$DIMASO
 70
     1
  9
$DIMSHO
 70
     1
  9
$DIMPOST
  1

  9
$DIMAPOST
  1

  9
$DIMALT
 70
     0
  9
$DIMALTD
 70
     2
  9
$DIMALTF
 40
25.4
  9
$DIMLFAC
 40
1.0
  9
$DIMTOFL
 70
     0
  9
$DIMTVP
 40
0.0
  9
$DIMTIX
 70
     0
  9
$DIMSOXD
 70
     0
  9
$DIMSAH
 70
     0
  9
$DIMBLK1
  1

  9
$DIMBLK2
  1

  9
$DIMSTYLE
  2
Standard
  9
$DIMCLRD
 70
     0
  9
$DIMCLRE
 70
     0
  9
$DIMCLRT
 70
     0
  9
$DIMTFAC
 40
1.0
  9
$DIMGAP
 40
0.09
  9
$DIMJUST
 70
     0
  9
$DIMSD1
 70
     0
  9
$DIMSD2
 70
     0
  9
$DIMTOLJ
 70
     1
  9
$DIMTZIN
 70
     0
  9
$DIMALTZ
 70
     0
  9
$DIMALTTZ
 70
     0
  9
$DIMUPT
 70
     0
  9
$DIMDEC
 70
     4
  9
$DIMTDEC
 70
     4
  9
$DIMALTU
 70
     2
  9
$DIMALTTD
 70
     2
  9
$DIMTXSTY
  7
Standard
  9
$DIMAUNIT
 70
     0
  9
$DIMADEC
 70
     0
  9
$DIMALTRND
 40
0.0
  9
$DIMAZIN
 70
     0
  9
$DIMDSEP
 70
    46
  9
$DIMATFIT
 70
     3
  9
$DIMFRAC
 70
     0
  9
$DIMLDRBLK
  1

  9
$DIMLUNIT
 70
     2
  9
$DIMLWD
 70
    -2
  9
$DIMLWE
 70
    -2
  9
$DIMTMOVE
 70
     0
  9
$DIMFXL
 40
1.0
  9
$DIMFXLON
 70
     0
  9
$DIMJOGANG
 40
0.7853981633974483
  9
$DIMTFILL
 70
     0
  9
$DIMTFILLCLR
 70
     0
  9
$DIMARCSYM
 70
     0
  9
$DIMLTYPE
  6

  9
$DIMLTEX1
  6

  9
$DIMLTEX2
  6

  9
$DIMTXTDIRECTION
 70
     0
  9
$LUNITS
 70
     2
  9
$LUPREC
 70
     4
  9
$SKETCHINC
 40
0.1
  9
$FILLETRAD
 40
0.5
  9
$AUNITS
 70
     0
  9
$AUPREC
 70
     0
  9
$MENU
  1
.
  9
$ELEVATION
 40
0.0
  9
$PELEVATION
 40
0.0
  9
$THICKNESS
 40
0.0
  9
$LIMCHECK
 70
     0
  9
$CHAMFERA
 40
0.5
  9
$CHAMFERB
 40
0.5
  9
$CHAMFERC
 40
1.0
  9
$CHAMFERD
 40
0.0
  9
$SKPOLY
 70
     0
  9
$TDCREATE
 40
2455347.603969826
  9
$TDUCREATE
 40
2455347.478969827
  9
$TDUPDATE
 40
2458702.496385475
  9
$TDUUPDATE
 40
2458702.371385475
  9
$TDINDWG
 40
5.9547435069
  9
$TDUSRTIMER
 40
5.9547434838
  9
$USRTIMER
 70
     1
  9
$ANGBASE
 50
0.0
  9
$ANGDIR
 70
     0
  9
$PDMODE
 70
     0
  9
$PDSIZE
 40
0.0
  9
$PLINEWID
 40
0.2
  9
$SPLFRAME
 70
     0
  9
$SPLINETYPE
 70
     6
  9
$SPLINESEGS
 70
     8
  9
$HANDSEED
  5
5F
  9
$SURFTAB1
 70
     6
  9
$SURFTAB2
 70
     6
  9
$SURFTYPE
 70
     6
  9
$SURFU
 70
     6
  9
$SURFV
 70
     6
  9
$UCSBASE
  2

  9
$UCSNAME
  2

  9
$UCSORG
 10
0.0
 20
0.0
 30
0.0
  9
$UCSXDIR
 10
1.0
 20
0.0
 30
0.0
  9
$UCSYDIR
 10
0.0
 20
1.0
 30
0.0
  9
$UCSORTHOREF
  2

  9
$UCSORTHOVIEW
 70
     0
  9
$UCSORGTOP
 10
0.0
 20
0.0
 30
0.0
  9
$UCSORGBOTTOM
 10
0.0
 20
0.0
 30
0.0
  9
$UCSORGLEFT
 10
0.0
 20
0.0
 30
0.0
  9
$UCSORGRIGHT
 10
0.0
 20
0.0
 30
0.0
  9
$UCSORGFRONT
 10
0.0
 20
0.0
 30
0.0
  9
$UCSORGBACK
 10
0.0
 20
0.0
 30
0.0
  9
$PUCSBASE
  2

  9
$PUCSNAME
  2

  9
$PUCSORG
 10
0.0
 20
0.0
 30
0.0
  9
$PUCSXDIR
 10
1.0
 20
0.0
 30
0.0
  9
$PUCSYDIR
 10
0.0
 20
1.0
 30
0.0
  9
$PUCSORTHOREF
  2

  9
$PUCSORTHOVIEW
 70
     0
  9
$PUCSORGTOP
 10
0.0
 20
0.0
 30
0.0
  9
$PUCSORGBOTTOM
 10
0.0
 20
0.0
 30
0.0
  9
$PUCSORGLEFT
 10
0.0
 20
0.0
 30
0.0
  9
$PUCSORGRIGHT
 10
0.0
 20
0.0
 30
0.0
  9
$PUCSORGFRONT
 10
0.0
 20
0.0
 30
0.0
  9
$PUCSORGBACK
 10
0.0
 20
0.0
 30
0.0
  9
$USERI1
 70
     0
  9
$USERI2
 70
     0
  9
$USERI3
 70
     0
  9
$USERI4
 70
     0
  9
$USERI5
 70
     0
  9
$USERR1
 40
0.0
  9
$USERR2
 40
0.0
  9
$USERR3
 40
0.0
  9
$USERR4
 40
0.0
  9
$USERR5
 40
0.0
  9
$WORLDVIEW
 70
     1
  9
$SHADEDGE
 70
     3
  9
$SHADEDIF
 70
    70
  9
$TILEMODE
 70
     1
  9
$MAXACTVP
 70
    64
  9
$PINSBASE
 10
0.0
 20
0.0
 30
0.0
  9
$PLIMCHECK
 70
     0
  9
$PEXTMIN
 10
1.000000000000000E+20
 20
1.000000000000000E+20
 30
1.000000000000000E+20
  9
$PEXTMAX
 10
-1.000000000000000E+20
 20
-1.000000000000000E+20
 30
-1.000000000000000E+20
  9
$PLIMMIN
 10
0.0
 20
0.0
  9
$PLIMMAX
 10
12.0
 20
9.0
  9
$UNITMODE
 70
     0
  9
$VISRETAIN
 70
     1
  9
$PLINEGEN
 70
     0
  9
$PSLTSCALE
 70
     1
  9
$TREEDEPTH
 70
  3020
  9
$CMLSTYLE
  2
Standard
  9
$CMLJUST
 70
     0
  9
$CMLSCALE
 40
1.0
  9
$PROXYGRAPHICS
 70
     1
  9
$MEASUREMENT
 70
     0
  9
$CELWEIGHT
370
    -1
  9
$ENDCAPS
280
     0
  9
$JOINSTYLE
280
     0
  9
$LWDISPLAY
290
     0
  9
$INSUNITS
 70
     1
  9
$HYPERLINKBASE
  1

  9
$STYLESHEET
  1

  9
$XEDIT
290
     1
  9
$CEPSNTYPE
380
     0
  9
$PSTYLEMODE
290
     1
  9
$FINGERPRINTGUID
  2
{05129D67-6612-4E24-9D07-CBF825EE4A22}
  9
$VERSIONGUID
  2
{84423DCF-FE08-4F0B-887B-6B314C754805}
  9
$EXTNAMES
290
     1
  9
$PSVPSCALE
 40
0.0
  9
$OLESTARTUP
290
     0
  9
$SORTENTS
280
   127
  9
$INDEXCTL
280
     0
  9
$HIDETEXT
280
     1
  9
$XCLIPFRAME
280
     0
  9
$HALOGAP
280
     0
  9
$OBSCOLOR
 70
   257
  9
$OBSLTYPE
280
     0
  9
$INTERSECTIONDISPLAY
280
     0
  9
$INTERSECTIONCOLOR
 70
   257
  9
$DIMASSOC
280
     2
  9
$PROJECTNAME
  1

  9
$CAMERADISPLAY
290
     0
  9
$LENSLENGTH
 40
50.0
  9
$CAMERAHEIGHT
 40
0.0
  9
$STEPSPERSEC
 40
2.0
  9
$STEPSIZE
 40
6.0
  9
$3DDWFPREC
 40
2.0
  9
$PSOLWIDTH
 40
0.25
  9
$PSOLHEIGHT
 40
4.0
  9
$LOFTANG1
 40
1.570796326794896
  9
$LOFTANG2
 40
1.570796326794896
  9
$LOFTMAG1
 40
0.0
  9
$LOFTMAG2
 40
0.0
  9
$LOFTPARAM
 70
     7
  9
$LOFTNORMALS
280
     1
  9
$LATITUDE
 40
0.0
  9
$LONGITUDE
 40
0.0
  9
$NORTHDIRECTION
 40
0.0
  9
$TIMEZONE
 70
 -8000
  9
$LIGHTGLYPHDISPLAY
280
     1
  9
$TILEMODELIGHTSYNCH
280
     1
  9
$SOLIDHIST
280
     1
  9
$SHOWHIST
280
     1
  9
$DWFFRAME
280
     2
  9
$DGNFRAME
280
     0
  9
$REALWORLDSCALE
290
     0
  9
$INTERFERECOLOR
 62
     1
  9
$CSHADOW
280
     0
  9
$SHADOWPLANELOCATION
 40
0.0
  0
ENDSEC
  0
SECTION
  2
CLASSES
  0
CLASS
  1
ACDBDICTIONARYWDFLT
  2
AcDbDictionaryWithDefault
  3
ObjectDBX Classes
 90
        0
 91
        1
280
     0
281
     0
  0
CLASS
  1
VISUALSTYLE
  2
AcDbVisualStyle
  3
ObjectDBX Classes
 90
     4095
 91
        0
280
     0
281
     0
  0
CLASS
  1
SCALE
  2
AcDbScale
  3
ObjectDBX Classes
 90
     1153
 91
        0
280
     0
281
     0
  0
CLASS
  1
MATERIAL
  2
AcDbMaterial
  3
ObjectDBX Classes
 90
        0
 91
        1
280
     0
281
     0
  0
CLASS
  1
TABLESTYLE
  2
AcDbTableStyle
  3
ObjectDBX Classes
 90
     4095
 91
        1
280
     0
281
     0
  0
CLASS
  1
MLEADERSTYLE
  2
AcDbMLeaderStyle
  3
ACDB_MLEADERSTYLE_CLASS
 90
     4095
 91
        0
280
     0
281
     0
  0
CLASS
  1
DICTIONARYVAR
  2
AcDbDictionaryVar
  3
ObjectDBX Classes
 90
        0
 91
        1
280
     0
281
     0
  0
CLASS
  1
SORTENTSTABLE
  2
AcDbSortentsTable
  3
ObjectDBX Classes
 90
        0
 91
        2
280
     0
281
     0
  0
CLASS
  1
RASTERVARIABLES
  2
AcDbRasterVariables
  3
ISM
 90
        0
 91
        0
280
     0
281
     0
  0
CLASS
  1
IMAGEDEF
  2
AcDbRasterImageDef
  3
ISM
 90
        0
 91
        0
280
     0
281
     0
  0
CLASS
  1
IMAGEDEF_REACTOR
  2
AcDbRasterImageDefReactor
  3
ISM
 90
        1
 91
        0
280
     0
281
     0
  0
CLASS
  1
IMAGE
  2
AcDbRasterImage
  3
ISM
 90
     2175
 91
        0
280
     0
281
     1
  0
CLASS
  1
CELLSTYLEMAP
  2
AcDbCellStyleMap
  3
ObjectDBX Classes
 90
     1152
 91
        1
280
     0
281
     0
  0
ENDSEC
  0
SECTION
  2
TABLES
  0
TABLE
  2
VPORT
  5
23
330
0
100
AcDbSymbolTable
 70
     1
  0
VPORT
  5
24
330
23
100
AcDbSymbolTableRecord
100
AcDbViewportTableRecord
  2
*Active
 70
     0
 10
0.0
 20
0.0
 11
1.0
 21
1.0
 12
263709.8207961177
 22
1990838.551748649
 13
0.0
 23
0.0
 14
0.5
 24
0.5
 15
0.5
 25
0.5
 16
0.0
 26
0.0
 36
1.0
 17
0.0
 27
0.0
 37
0.0
 40
2112.925585252
 41
1.958282208588957
 42
50.0
 43
0.0
 44
0.0
 50
0.0
 51
0.0
 71
     0
 72
  1000
 73
     1
 74
     3
 75
     0
 76
     0
 77
     0
 78
     0
281
     0
 65
     1
110
0.0
120
0.0
130
0.0
111
1.0
121
0.0
131
0.0
112
0.0
122
1.0
132
0.0
 79
     0
146
0.0
 60
     3
 61
     5
292
     1
282
     0
141
0.0
142
0.0
 63
   256
  0
ENDTAB
  0
TABLE
  2
LTYPE
  5
1E
330
0
100
AcDbSymbolTable
 70
     1
  0
LTYPE
  5
1F
330
1E
100
AcDbSymbolTableRecord
100
AcDbLinetypeTableRecord
  2
ByBlock
 70
     0
  3

 72
    65
 73
     0
 40
0.0
  0
LTYPE
  5
20
330
1E
100
AcDbSymbolTableRecord
100
AcDbLinetypeTableRecord
  2
ByLayer
 70
     0
  3

 72
    65
 73
     0
 40
0.0
  0
LTYPE
  5
C
330
1E
100
AcDbSymbolTableRecord
100
AcDbLinetypeTableRecord
  2
Continuous
 70
     0
  3
Solid line
 72
    65
 73
     0
 40
0.0
  0
ENDTAB
  0
TABLE
  2
LAYER
  5
14
102
{ACAD_XDICTIONARY
360
15
102
}
330
0
100
AcDbSymbolTable
 70
     2
  0
LAYER
  5
6
330
14
100
AcDbSymbolTableRecord
100
AcDbLayerTableRecord
  2
0
 70
     0
 62
    -7
  6
Continuous
370
    -3
390
7
347
A
  0
LAYER
  5
2E
330
14
100
AcDbSymbolTableRecord
100
AcDbLayerTableRecord
  2
اسوار
 70
     0
 62
    30
  6
Continuous
370
    -3
390
7
347
0
1001
ZcCmTransparency
1071
 33554687
1001
AcAecLayerStandard
1000

1000

  0
ENDTAB
  0
TABLE
  2
STYLE
  5
1B
330
0
100
AcDbSymbolTable
 70
     1
  0
STYLE
  5
1C
330
1B
100
AcDbSymbolTableRecord
100
AcDbTextStyleTableRecord
  2
Standard
 70
     0
 40
0.0
 41
1.0
 50
0.0
 71
     0
 42
0.2
  3
txt
  4

  0
ENDTAB
  0
TABLE
  2
VIEW
  5
21
330
0
100
AcDbSymbolTable
 70
     0
  0
ENDTAB
  0
TABLE
  2
UCS
  5
22
330
0
100
AcDbSymbolTable
 70
     0
  0
ENDTAB
  0
TABLE
  2
APPID
  5
25
330
0
100
AcDbSymbolTable
 70
     4
  0
APPID
  5
1A
330
25
100
AcDbSymbolTableRecord
100
AcDbRegAppTableRecord
  2
ACAD
 70
     0
  0
APPID
  5
2F
330
25
100
AcDbSymbolTableRecord
100
AcDbRegAppTableRecord
  2
ZcCmTransparency
 70
     0
  0
APPID
  5
30
330
25
100
AcDbSymbolTableRecord
100
AcDbRegAppTableRecord
  2
AcAecLayerStandard
 70
     0
  0
APPID
  5
18
330
25
100
AcDbSymbolTableRecord
100
AcDbRegAppTableRecord
  2
AcLayerTools
 70
     0
  0
ENDTAB
  0
TABLE
  2
DIMSTYLE
  5
26
330
0
100
AcDbSymbolTable
 70
     1
100
AcDbDimStyleTable
 71
     1
340
27
  0
DIMSTYLE
105
27
330
26
100
AcDbSymbolTableRecord
100
AcDbDimStyleTableRecord
  2
Standard
 70
     0
340
1C
  0
ENDTAB
  0
TABLE
  2
BLOCK_RECORD
  5
1
330
0
100
AcDbSymbolTable
 70
     0
  0
BLOCK_RECORD
  5
2
102
{ACAD_XDICTIONARY
360
3
102
}
330
1
100
AcDbSymbolTableRecord
100
AcDbBlockTableRecord
  2
*Model_Space
340
E
 70
     0
280
     1
281
     0
  0
BLOCK_RECORD
  5
10
330
1
100
AcDbSymbolTableRecord
100
AcDbBlockTableRecord
  2
*Paper_Space
340
13
 70
     0
280
     1
281
     0
  0
ENDTAB
  0
ENDSEC
  0
SECTION
  2
BLOCKS
  0
BLOCK
  5
5
330
2
100
AcDbEntity
  8
0
100
AcDbBlockBegin
  2
*Model_Space
 70
     0
 10
0.0
 20
0.0
 30
0.0
  3
*Model_Space
  1

  0
ENDBLK
  5
D
330
2
100
AcDbEntity
  8
0
100
AcDbBlockEnd
  0
BLOCK
  5
11
330
10
100
AcDbEntity
 67
     1
  8
0
100
AcDbBlockBegin
  2
*Paper_Space
 70
     0
 10
0.0
 20
0.0
 30
0.0
  3
*Paper_Space
  1

  0
ENDBLK
  5
12
330
10
100
AcDbEntity
 67
     1
  8
0
100
AcDbBlockEnd
  0
ENDSEC
  0
SECTION
  2
ENTITIES
  0
LWPOLYLINE
  5
33
330
2
100
AcDbEntity
  8
اسوار
100
AcDbPolyline
 90
       10
 70
     1
 43
0.2
 10
263640.4221194796
 20
1991075.285936262
 10
263644.0741061888
 20
1991073.25741313
 10
263645.1553137489
 20
1991072.506302238
 10
263651.341160911
 20
1991071.481478374
 10
263654.3131514586
 20
1991071.615176297
 10
263653.7318116505
 20
1991072.142809248
 10
263652.2717636086
 20
1991073.467971306
 10
263652.1014217454
 20
1991073.293367803
 10
263645.3924895183
 20
1991077.090285975
 10
263642.636718088
 20
1991078.577577478
  0
LWPOLYLINE
  5
34
330
2
100
AcDbEntity
  8
اسوار
100
AcDbPolyline
 90
        9
 70
     1
 43
0.2
 10
263702.8858370582
 20
1991040.398898587
 10
263702.5867953938
 20
1991039.894474686
 10
263700.6268454956
 20
1991038.612565539
 10
263699.7323445982
 20
1991038.90275811
 10
263699.7323445982
 20
1991038.90275811
 10
263696.0580947261
 20
1991032.44789991
 10
263692.4049819419
 20
1991034.076449498
 10
263694.7280303243
 20
1991040.214002696
 10
263696.5047975981
 20
1991043.93525269
  0
LWPOLYLINE
  5
35
330
2
100
AcDbEntity
  8
اسوار
100
AcDbPolyline
 90
        8
 70
     1
 43
0.2
 10
263707.7534408638
 20
1991049.744025713
 10
263702.9643451951
 20
1991053.271060231
 42
0.2170190671272469
 10
263702.4573472056
 20
1991053.377733177
 42
0.0489369059238248
 10
263701.9867403621
 20
1991053.222911668
 10
263700.5020133774
 20
1991051.599285096
 10
263704.6197381286
 20
1991049.044989476
 10
263704.1695400132
 20
1991048.27734519
 10
263706.034058321
 20
1991047.271619932
  0
LWPOLYLINE
  5
36
330
2
100
AcDbEntity
  8
اسوار
100
AcDbPolyline
 90
        8
 70
     1
 43
0.2
 10
263674.7895184563
 20
1991004.966394435
 10
263678.1857440058
 20
1991007.002906744
 10
263675.6067234048
 20
1991008.840280641
 10
263674.7821631398
 20
1991009.42772283
 10
263673.4532641615
 20
1991010.070283727
 10
263672.9918086094
 20
1991010.070283727
 10
263672.2629202078
 20
1991009.948659445
 10
263671.7731372483
 20
1991009.729045813
  0
LWPOLYLINE
  5
37
330
2
100
AcDbEntity
  8
اسوار
100
AcDbPolyline
 90
       13
 70
     1
 43
0.2
 10
263568.3482883509
 20
1990986.123379354
 10
263567.4043636262
 20
1990983.394202026
 10
263567.3379020241
 20
1990982.477437649
 10
263567.6303337359
 20
1990981.348093714
 10
263568.8798098689
 20
1990979.939733067
 10
263571.4718123525
 20
1990978.385221024
 10
263573.9043030165
 20
1990977.508317141
 10
263574.6642710849
 20
1990976.847446928
 10
263576.3789784329
 20
1990975.811107813
 10
263577.7347924671
 20
1990975.385941953
 10
263579.7701088256
 20
1990982.8461629
 10
263578.5649978048
 20
1990983.18203406
 10
263578.4807336493
 20
1990982.86316551
  0
LWPOLYLINE
  5
38
330
2
100
AcDbEntity
  8
اسوار
100
AcDbPolyline
 90
        6
 70
     1
 43
0.2
 10
263595.2088515987
 20
1991054.021496885
 10
263592.7409080912
 20
1991044.032728274
 10
263592.7409080912
 20
1991044.032728274
 10
263597.5151556359
 20
1991044.340188287
 10
263598.0554698375
 20
1991048.034705645
 10
263599.1261283404
 20
1991052.841804272
  0
LWPOLYLINE
  5
39
330
2
100
AcDbEntity
  8
اسوار
100
AcDbPolyline
 90
        6
 70
     1
 43
0.2
 10
263596.3374833367
 20
1991058.459075233
 10
263595.2088515987
 20
1991054.021496885
 10
263599.1261283404
 20
1991052.841804272
 10
263604.6711894812
 20
1991051.356554246
 10
263606.7356323341
 20
1991050.466213712
 10
263608.5678181181
 20
1991053.252286225
  0
LWPOLYLINE
  5
3A
330
2
100
AcDbEntity
  8
اسوار
100
AcDbPolyline
 90
       11
 70
     1
 43
0.2
 10
263597.3099773299
 20
1991063.652694876
 10
263596.9254633382
 20
1991061.026484726
 10
263596.7088396501
 20
1991059.665450128
 10
263596.3374833367
 20
1991058.459075233
 10
263608.5678181181
 20
1991053.252286225
 10
263610.822703916
 20
1991057.713535463
 10
263607.3769317704
 20
1991059.834449901
 10
263604.6060130518
 20
1991061.159359047
 10
263603.8580996433
 20
1991061.653640832
 10
263600.9248183567
 20
1991063.429308782
 10
263600.2204611249
 20
1991062.129753153
  0
LWPOLYLINE
  5
3B
330
2
100
AcDbEntity
  8
اسوار
100
AcDbPolyline
 90
       16
 70
     1
 43
0.2
 10
263587.0895773082
 20
1991058.852578179
 10
263588.8388744982
 20
1991066.499687545
 10
263584.9872612075
 20
1991067.662410739
 10
263581.2648948179
 20
1991068.049985887
 10
263580.74790059
 20
1991063.967533812
 10
263579.8690090778
 20
1991058.670681708
 10
263579.7115442781
 20
1991056.950307464
 10
263577.8667154519
 20
1991046.671796793
 10
263579.2061219126
 20
1991046.671796793
 10
263582.1888308227
 20
1991046.194508885
 10
263582.2782196004
 20
1991046.613061164
 10
263585.3856334166
 20
1991050.17900043
 10
263585.6598413003
 20
1991050.075303514
 10
263586.0587223423
 20
1991051.130072843
 10
263582.1969282839
 20
1991052.590483566
 10
263584.592325025
 20
1991059.694611191
  0
LWPOLYLINE
  5
3C
330
2
100
AcDbEntity
  8
اسوار
100
AcDbPolyline
 90
       10
 70
     1
 43
0.2
 10
263556.1128732275
 20
1991002.426360197
 10
263556.3614242875
 20
1991004.071468805
 10
263547.7900198333
 20
1991006.504008972
 10
263550.3507846891
 20
1991015.527231518
 10
263550.9008597437
 20
1991017.665726895
 10
263546.5138184962
 20
1991018.794184773
 10
263543.2860614609
 20
1991006.208655128
 10
263545.120795212
 20
1991005.52691434
 10
263542.8535647172
 20
1990997.121958869
 10
263554.7869481043
 20
1990993.650333111
  0
LWPOLYLINE
  5
3D
330
2
100
AcDbEntity
  8
اسوار
100
AcDbPolyline
 90
        9
 70
     1
 43
0.2
 10
263533.2842449142
 20
1991014.171509808
 10
263535.4605303578
 20
1991013.322454559
 10
263538.6390456335
 20
1991011.792343782
 10
263541.9557567935
 20
1991010.336614387
 10
263541.1947099799
 20
1991005.496978432
 10
263532.2149844325
 20
1991008.901757985
 10
263532.1110638155
 20
1991008.613967088
 10
263531.558541776
 20
1991008.813481499
 10
263531.47135046
 20
1991009.181462372
  0
LWPOLYLINE
  5
3E
330
2
100
AcDbEntity
  8
اسوار
100
AcDbPolyline
 90
       12
 70
     1
 43
0.2
 10
263527.941710328
 20
1990995.959948281
 10
263522.9406045653
 20
1991009.222313928
 10
263529.0975581054
 20
1991016.505268987
 10
263532.5673293383
 20
1991014.442654201
 10
263533.2842449142
 20
1991014.171509808
 10
263531.47135046
 20
1991009.181462372
 10
263531.558541776
 20
1991008.813481499
 10
263532.1110638154
 20
1991008.613967088
 10
263530.8267200164
 20
1991005.057190153
 10
263531.7498309076
 20
1991004.74349524
 10
263530.1150045342
 20
1990998.627600678
 10
263528.8179781207
 20
1990999.120110629
  0
LWPOLYLINE
  5
3F
330
2
100
AcDbEntity
  8
اسوار
100
AcDbPolyline
 90
       23
 70
     1
 43
0.2
 10
263453.1979781713
 20
1991035.808739764
 10
263455.1007339523
 20
1991035.051598924
 10
263455.5861935619
 20
1991034.82128214
 10
263458.2582082485
 20
1991033.125712543
 10
263460.5783066005
 20
1991031.896486208
 10
263461.1488672544
 20
1991031.562219253
 10
263461.6623187864
 20
1991031.148421312
 10
263462.5637514602
 20
1991030.299326574
 10
263463.4641522867
 20
1991029.449137719
 10
263463.8017036384
 20
1991029.163322168
 10
263464.1684610038
 20
1991028.916096604
 10
263465.1105253514
 20
1991028.281065352
 10
263466.2158701806
 20
1991027.314276491
 10
263466.6691313402
 20
1991026.980230688
 10
263467.4914730072
 20
1991026.706772266
 10
263467.7440847721
 20
1991026.538393575
 10
263469.3979898528
 20
1991025.06874211
 10
263469.0856358272
 20
1991019.360558571
 10
263461.3014876721
 20
1991020.769110239
 10
263450.5201916949
 20
1991024.15500261
 10
263450.7584790766
 20
1991026.798816063
 10
263452.1167174837
 20
1991030.800266185
 10
263453.190231168
 20
1991033.387937403
  0
LWPOLYLINE
  5
40
330
2
100
AcDbEntity
  8
اسوار
100
AcDbPolyline
 90
       16
 70
     1
 43
0.2
 10
263626.6944487597
 20
1991097.484059926
 42
0.1890597090527325
 10
263624.9590795549
 20
1991098.419405109
 42
-0.0164310965114126
 10
263623.1090953247
 20
1991098.705631182
 42
0.0456808174124013
 10
263620.9185300936
 20
1991098.914500436
 42
0.0475231613288649
 10
263620.2417928343
 20
1991098.852602846
 42
-0.0752200121943973
 10
263618.0869582658
 20
1991098.774933651
 42
-0.0389955574674183
 10
263616.0430402155
 20
1991099.172430661
 42
0.0419266677968463
 10
263614.6951624247
 20
1991099.426385398
 42
-0.0558145161084754
 10
263613.9328354545
 20
1991099.592009714
 10
263613.1854711648
 20
1991099.844207057
 10
263611.5198909226
 20
1991095.570279889
 10
263617.0430383632
 20
1991094.319380756
 10
263617.7770723627
 20
1991094.153134517
 10
263621.2114589731
 20
1991092.253460528
 10
263622.5459655021
 20
1991093.518171265
 10
263624.3685673864
 20
1991095.245449588
  0
LWPOLYLINE
  5
41
330
2
100
AcDbEntity
  8
اسوار
100
AcDbPolyline
 90
       10
 70
     0
 43
0.2
 10
263403.6164694267
 20
1991035.438367288
 10
263401.5495735063
 20
1991030.061088542
 10
263400.6584075772
 20
1991028.222705605
 10
263395.9883429371
 20
1991014.160653066
 10
263394.0556294355
 20
1991007.715444804
 10
263389.6278430213
 20
1990989.926023767
 10
263426.2115819927
 20
1990967.027782843
 10
263436.4869160505
 20
1990998.402180004
 10
263441.0532798293
 20
1990997.439759328
 10
263441.4345348066
 20
1990999.248686508
  0
LWPOLYLINE
  5
42
330
2
100
AcDbEntity
  8
اسوار
100
AcDbPolyline
 90
       14
 70
     1
 43
0.2
 10
263481.03724002
 20
1991267.10799531
 10
263479.5056182406
 20
1991269.316733683
 42
0.3836739257987576
 10
263478.2540773779
 20
1991269.612126523
 10
263477.7673670424
 20
1991268.830202844
 10
263477.1264486875
 20
1991267.508336569
 10
263476.8152340587
 20
1991266.257952651
 10
263476.3385821475
 20
1991263.620993485
 10
263476.1701241648
 20
1991261.845171094
 10
263476.2401841045
 20
1991249.089489645
 10
263480.2279952847
 20
1991247.526310188
 10
263486.4265888604
 20
1991244.826687135
 10
263486.6687884082
 20
1991244.403019921
 10
263493.5904178114
 20
1991251.812364858
 10
263491.4842191215
 20
1991253.863681613
  0
LWPOLYLINE
  5
43
330
2
100
AcDbEntity
  8
اسوار
100
AcDbPolyline
 90
       10
 70
     1
 43
0.2
 10
263604.7712695786
 20
1991204.157691414
 10
263601.0477878023
 20
1991199.753424315
 10
263598.6966866472
 20
1991197.973576996
 10
263600.5875879195
 20
1991196.594552702
 10
263603.2260680936
 20
1991194.693094584
 10
263605.6804664108
 20
1991191.932915548
 10
263610.756432788
 20
1991186.092511672
 10
263611.3779958154
 20
1991185.206207301
 10
263611.5947310618
 20
1991184.765766492
 42
0.7387893434521945
 10
263612.3081868364
 20
1991185.270991092
  0
LWPOLYLINE
  5
44
330
2
100
AcDbEntity
  8
اسوار
100
AcDbPolyline
 90
        7
 70
     1
 43
0.2
 10
263694.0180477115
 20
1990979.536380921
 10
263692.8522424421
 20
1990977.532824029
 10
263691.8709201014
 20
1990973.805172369
 10
263688.5671295078
 20
1990972.431827021
 10
263688.5671295078
 20
1990980.769994083
 10
263689.6989172984
 20
1990980.769994083
 10
263689.6219754561
 20
1990979.947740525
  0
LWPOLYLINE
  5
45
330
2
100
AcDbEntity
  8
اسوار
100
AcDbPolyline
 90
        9
 70
     1
 43
0.2
 10
263475.1965731029
 20
1991156.324353746
 10
263479.1173484437
 20
1991154.489059667
 10
263479.1173484437
 20
1991154.489059667
 10
263479.5551971147
 20
1991155.267756251
 10
263480.066632916
 20
1991156.177324642
 42
0.101408398647532
 10
263480.466321155
 20
1991157.424645822
 42
0.0875623540804234
 10
263480.3607422862
 20
1991159.005060332
 42
0.1890128325419251
 10
263479.3841333479
 20
1991160.387592673
 10
263477.9871191073
 20
1991161.060452272
  0
LWPOLYLINE
  5
46
330
2
100
AcDbEntity
  8
اسوار
100
AcDbPolyline
 90
       16
 70
     1
 43
0.2
 10
263482.910383377
 20
1991099.650015633
 10
263477.3604326336
 20
1991100.503396852
 10
263478.7746000212
 20
1991107.090451922
 10
263478.6466877479
 20
1991107.220146712
 42
-0.0888458772941214
 10
263477.6597886569
 20
1991108.658823615
 10
263477.3711763526
 20
1991108.644065468
 42
-0.1189583705791278
 10
263472.9269052796
 20
1991109.479048417
 10
263471.3592118888
 20
1991103.046426842
 10
263470.8286475922
 20
1991100.176887835
 10
263469.2563576605
 20
1991096.697253663
 10
263466.9622457313
 20
1991097.787889439
 10
263466.7139273698
 20
1991096.298789824
 10
263468.8145390725
 20
1991095.413634726
 10
263474.2057265969
 20
1991093.141897828
 10
263480.6221560671
 20
1991091.89890778
 10
263481.8775790249
 20
1991095.195298931
  0
LWPOLYLINE
  5
47
330
2
100
AcDbEntity
  8
اسوار
100
AcDbPolyline
 90
       12
 70
     1
 43
0.2
 10
263455.6091481351
 20
1991201.898542304
 10
263446.3242479217
 20
1991210.613377647
 10
263442.5265696346
 20
1991214.431860393
 10
263442.9755400889
 20
1991214.878384695
 10
263441.2564177081
 20
1991216.743957724
 10
263433.4997005225
 20
1991207.806459743
 10
263435.9997863362
 20
1991204.845917512
 10
263441.6375867285
 20
1991201.277229149
 10
263443.4631753776
 20
1991199.94161834
 10
263446.0556411515
 20
1991196.467896698
 10
263446.6623869272
 20
1991195.199711857
 10
263448.2317761553
 20
1991194.038593152
  0
LWPOLYLINE
  5
48
330
2
100
AcDbEntity
  8
اسوار
100
AcDbPolyline
 90
        8
 70
     1
 43
0.2
 10
263487.1312728753
 20
1991093.403686577
 10
263488.6462255983
 20
1991097.558658683
 10
263489.1274043988
 20
1991097.383215114
 10
263490.4882042003
 20
1991097.703234846
 10
263495.2816881025
 20
1991096.164212179
 10
263495.0474424137
 20
1991095.584551903
 10
263493.6939252176
 20
1991091.029419313
 10
263491.7933207108
 20
1991091.813837087
  0
LWPOLYLINE
  5
49
330
2
100
AcDbEntity
  8
اسوار
100
AcDbPolyline
 90
        4
 70
     1
 43
0.2
 10
263481.877579025
 20
1991095.195298931
 10
263482.910383377
 20
1991099.650015633
 10
263488.6462255983
 20
1991097.558658683
 10
263487.1312728753
 20
1991093.403686577
  0
LWPOLYLINE
  5
4A
330
2
100
AcDbEntity
  8
اسوار
100
AcDbPolyline
 90
        8
 70
     0
 43
0.2
 10
263416.743973429
 20
1991295.475522935
 10
263426.6087300146
 20
1991302.372510137
 10
263446.4277165609
 20
1991316.508357512
 10
263450.0786584779
 20
1991307.218480442
 10
263465.9235293666
 20
1991268.079597642
 10
263447.3740551245
 20
1991244.511868082
 10
263450.2448040596
 20
1991240.255166526
 10
263428.6893903452
 20
1991209.260571076
  0
LWPOLYLINE
  5
4B
330
2
100
AcDbEntity
  8
اسوار
100
AcDbPolyline
 90
        6
 70
     0
 43
0.2
 10
263296.8213229
 20
1991417.000948832
 10
263387.0349871987
 20
1991413.508900397
 10
263404.8353964367
 20
1991389.398174149
 10
263406.5311314598
 20
1991341.726057996
 10
263418.4724146187
 20
1991330.200175129
 10
263412.3849639089
 20
1991315.886639787
  0
LWPOLYLINE
  5
4C
330
2
100
AcDbEntity
  8
اسوار
100
AcDbPolyline
 90
       14
 70
     1
 43
0.2
 10
263482.0586458674
 20
1991139.885343823
 10
263480.0206783326
 20
1991135.625405071
 10
263481.1095307801
 20
1991135.181870338
 10
263480.5614735753
 20
1991132.696955009
 10
263481.0703822504
 20
1991132.481725875
 10
263480.6593417265
 20
1991130.799027412
 10
263479.7712479873
 20
1991129.239772492
 10
263482.2539587948
 20
1991128.693026318
 10
263486.3037597766
 20
1991127.097419047
 10
263487.9767882989
 20
1991132.015735427
 10
263489.1491530311
 20
1991135.701186335
 10
263489.4844648077
 20
1991137.260846906
 10
263485.4394930849
 20
1991138.560876481
 10
263484.0296870777
 20
1991138.791868523
  0
LWPOLYLINE
  5
4D
330
2
100
AcDbEntity
  8
اسوار
100
AcDbPolyline
 90
       12
 70
     1
 43
0.2
 10
263454.4135745545
 20
1991114.956332725
 10
263456.6447975232
 20
1991122.649687144
 10
263455.8186306901
 20
1991122.993360413
 10
263451.9871648557
 20
1991125.114694427
 10
263449.2153480072
 20
1991119.00159383
 10
263448.5622292368
 20
1991116.306211768
 10
263446.7509033199
 20
1991109.259973045
 10
263447.3035124863
 20
1991109.09913756
 10
263448.4415137694
 20
1991108.821542083
 42
0.1314021186637419
 10
263449.1268002464
 20
1991109.048899937
 10
263449.7048677279
 20
1991110.476578438
 10
263451.4273554397
 20
1991115.768738165
  0
LWPOLYLINE
  5
4E
330
2
100
AcDbEntity
  8
اسوار
100
AcDbPolyline
 90
        6
 70
     1
 43
0.2
 10
263450.9359248749
 20
1991110.150634989
 10
263449.7048677279
 20
1991110.476578438
 10
263451.4273554397
 20
1991115.768738165
 10
263455.4296056462
 20
1991114.679919925
 42
-0.4653432991232395
 10
263455.910886971
 20
1991113.641747008
 10
263454.3527839737
 20
1991109.002960247
  0
LWPOLYLINE
  5
4F
330
2
100
AcDbEntity
  8
اسوار
100
AcDbPolyline
 90
       11
 70
     1
 43
0.2
 10
263464.9754590432
 20
1991059.107136727
 10
263462.6272132792
 20
1991053.784011201
 10
263463.2544102436
 20
1991053.465614137
 10
263462.9024257268
 20
1991052.404243157
 10
263468.0895370059
 20
1991050.686002637
 10
263474.7806719968
 20
1991047.380604113
 10
263476.692159498
 20
1991052.488187385
 10
263472.4762102051
 20
1991054.203095746
 10
263473.2883769226
 20
1991056.411014673
 10
263470.6167074132
 20
1991057.197661776
 10
263468.0327218555
 20
1991057.860160182
  0
LWPOLYLINE
  5
50
330
2
100
AcDbEntity
  8
اسوار
100
AcDbPolyline
 90
       17
 70
     1
 43
0.2
 10
263384.0235597761
 20
1991048.2987036
 10
263386.1713193491
 20
1991047.46933027
 10
263390.0763477595
 20
1991045.664223215
 10
263392.0288597229
 20
1991043.322463621
 10
263393.2122356314
 20
1991042.450411675
 10
263396.1188632572
 20
1991040.308463152
 10
263395.5449935249
 20
1991037.210531063
 10
263394.2165000593
 20
1991035.434823284
 10
263391.7114680281
 20
1991035.959405533
 10
263391.7114680281
 20
1991036.436299917
 10
263386.7968353371
 20
1991038.796921163
 10
263383.9100823031
 20
1991039.416883637
 10
263378.4944405158
 20
1991041.705970837
 10
263380.3314663966
 20
1991044.734242422
 10
263381.3334801058
 20
1991045.139602761
 10
263381.8344847187
 20
1991046.021855236
 10
263382.5740655187
 20
1991046.49874962
  0
LWPOLYLINE
  5
51
330
2
100
AcDbEntity
  8
اسوار
100
AcDbPolyline
 90
       19
 70
     1
 43
0.2
 10
263385.0497664701
 20
1991050.810586619
 10
263387.1952529069
 20
1991058.537600652
 42
-0.0425651218346497
 10
263391.7942110848
 20
1991057.047282948
 10
263394.8387430898
 20
1991055.15505677
 10
263397.8530114463
 20
1991053.103186361
 10
263399.6567069623
 20
1991050.852973086
 10
263401.7034532018
 20
1991048.896819998
 42
0.1278307159187254
 10
263400.2646521001
 20
1991046.520179945
 10
263398.8585671233
 20
1991043.382693709
 10
263398.4638439604
 20
1991042.85473151
 10
263397.1181831599
 20
1991043.385927585
 10
263395.8290593384
 20
1991044.041444711
 10
263394.788716158
 20
1991044.832586846
 10
263393.5561382823
 20
1991045.951485297
 10
263392.1313167445
 20
1991047.025176909
 10
263390.8381263852
 20
1991048.021174607
 10
263389.6891075639
 20
1991048.64844982
 10
263387.6810763769
 20
1991049.48823942
 10
263386.1521232149
 20
1991050.127671204
  0
LWPOLYLINE
  5
52
330
2
100
AcDbEntity
  8
اسوار
100
AcDbPolyline
 90
        5
 70
     1
 43
0.2
 10
263588.6509096721
 20
1991228.774784893
 10
263592.2171555926
 20
1991220.664629651
 10
263590.234939296
 20
1991217.952475039
 10
263583.4355471502
 20
1991220.636156508
 10
263581.7832917716
 20
1991221.842445111
  0
LWPOLYLINE
  5
53
330
2
100
AcDbEntity
  8
اسوار
100
AcDbPolyline
 90
        5
 70
     1
 43
0.2
 10
263581.9261143855
 20
1991233.291123105
 10
263587.7205827001
 20
1991231.667579793
 10
263588.6509096721
 20
1991228.774784893
 10
263581.7832917716
 20
1991221.842445111
 10
263576.4241527832
 20
1991225.755077724
  0
LWPOLYLINE
  5
54
330
2
100
AcDbEntity
  8
اسوار
100
AcDbPolyline
 90
        7
 70
     1
 43
0.2
 10
263480.6221560672
 20
1991091.89890778
 10
263474.2057265952
 20
1991093.141897827
 10
263466.7139273697
 20
1991096.298789823
 10
263466.5699764093
 20
1991095.435553942
 10
263465.3245552788
 20
1991092.132051875
 10
263469.9939382867
 20
1991089.227987151
 10
263478.9813761318
 20
1991087.045908242
  0
LWPOLYLINE
  5
55
330
2
100
AcDbEntity
  8
اسوار
100
AcDbPolyline
 90
       10
 70
     1
 43
0.2
 10
263473.9095686438
 20
1991205.248351772
 10
263471.2525988841
 20
1991207.912168989
 10
263470.1953397256
 20
1991210.109755142
 10
263466.7495785479
 20
1991222.01971847
 10
263466.7152753793
 20
1991222.703506365
 10
263474.8926031852
 20
1991223.113733361
 10
263482.2089266428
 20
1991225.422359497
 10
263489.4642208016
 20
1991228.147056682
 10
263489.9298984044
 20
1991218.623843882
 10
263492.211279803
 20
1991212.266093231
  0
LWPOLYLINE
  5
56
330
2
100
AcDbEntity
  8
اسوار
100
AcDbPolyline
 90
       17
 70
     1
 43
0.2
 10
263602.6026487246
 20
1990851.900367721
 10
263599.8571888117
 20
1990853.056854637
 10
263590.2372848789
 20
1990856.62577672
 42
0.0493819097046148
 10
263588.6000993978
 20
1990857.055295614
 42
-0.0161487847183542
 10
263587.3916905302
 20
1990857.287923404
 10
263587.4412185863
 20
1990857.520551193
 10
263584.6025739223
 20
1990858.977410983
 10
263584.255820312
 20
1990857.929893761
 42
-0.006284658254509
 10
263583.9405933583
 20
1990857.01627112
 42
-0.0258330655145662
 10
263583.5934040173
 20
1990856.186927005
 42
0.046345761234318
 10
263582.9072073896
 20
1990854.338667151
 42
-0.0032055546181832
 10
263582.5418493988
 20
1990853.014820997
 42
0.0364257458117204
 10
263582.0164506032
 20
1990850.460630167
 42
-0.0440404915454867
 10
263581.7779694697
 20
1990849.384450785
 42
0.0409175943494398
 10
263581.0820811349
 20
1990846.334310651
 10
263580.816954409
 20
1990845.074618385
 10
263597.2486187596
 20
1990839.079395247
  0
LWPOLYLINE
  5
57
330
2
100
AcDbEntity
  8
اسوار
100
AcDbPolyline
 90
        6
 70
     1
 43
0.2
 10
263605.7022784723
 20
1990871.283896113
 10
263588.6451116995
 20
1990875.694648351
 10
263585.1457804595
 20
1990860.293461226
 10
263600.0632762286
 20
1990854.17247876
 42
0.035069845396106
 10
263601.3834038067
 20
1990853.736083105
 10
263603.1503358057
 20
1990853.157605927
  0
ENDSEC
  0
SECTION
  2
OBJECTS
  0
DICTIONARY
  5
9
330
0
100
AcDbDictionary
281
     1
  3
ACAD_COLOR
350
2C
  3
ACAD_GROUP
350
29
  3
ACAD_LAYOUT
350
F
  3
ACAD_MATERIAL
350
B
  3
ACAD_MLINESTYLE
350
2A
  3
ACAD_PLOTSETTINGS
350
2B
  3
ACAD_PLOTSTYLENAME
350
8
  3
ACAD_TABLESTYLE
350
2D
  3
ACDB_RECOMPOSE_DATA
350
5E
  3
ACDBHEADERROUNDTRIPXREC
350
5B
  3
AcDbVariableDictionary
350
59
  0
DICTIONARY
  5
15
330
14
100
AcDbDictionary
280
     1
281
     1
  3
ACAD_LAYERFILTERS
360
16
  3
ACAD_LAYERSTATES
360
17
  3
ACLYDICTIONARY
360
19
  0
DICTIONARY
  5
3
330
2
100
AcDbDictionary
280
     1
281
     1
  3
ACAD_SORTENTS
360
58
  0
DICTIONARY
  5
2C
102
{ACAD_REACTORS
330
9
102
}
330
9
100
AcDbDictionary
281
     1
  0
DICTIONARY
  5
29
102
{ACAD_REACTORS
330
9
102
}
330
9
100
AcDbDictionary
281
     1
  0
DICTIONARY
  5
F
102
{ACAD_REACTORS
330
9
102
}
330
9
100
AcDbDictionary
281
     1
  3
Layout1
350
13
  3
Model
350
E
  0
DICTIONARY
  5
B
102
{ACAD_REACTORS
330
9
102
}
330
9
100
AcDbDictionary
281
     1
  3
Global
350
A
  0
DICTIONARY
  5
2A
102
{ACAD_REACTORS
330
9
102
}
330
9
100
AcDbDictionary
281
     1
  3
Standard
350
31
  0
DICTIONARY
  5
2B
102
{ACAD_REACTORS
330
9
102
}
330
9
100
AcDbDictionary
281
     1
  0
ACDBDICTIONARYWDFLT
  5
8
102
{ACAD_REACTORS
330
9
102
}
330
9
100
AcDbDictionary
281
     1
  3
Normal
350
7
100
AcDbDictionaryWithDefault
340
7
  0
DICTIONARY
  5
2D
102
{ACAD_REACTORS
330
9
102
}
330
9
100
AcDbDictionary
281
     1
  3
Standard
350
32
  0
XRECORD
  5
5E
102
{ACAD_REACTORS
330
9
102
}
330
9
100
AcDbXrecord
280
     1
 90
        1
330
32
  0
DICTIONARY
  5
5B
102
{ACAD_REACTORS
330
9
102
}
330
9
100
AcDbDictionary
281
     1
  0
DICTIONARY
  5
59
102
{ACAD_REACTORS
330
9
102
}
330
9
100
AcDbDictionary
281
     1
  3
CTABLESTYLE
350
5A
  0
DICTIONARY
  5
16
102
{ACAD_REACTORS
330
15
102
}
330
15
100
AcDbDictionary
281
     1
  0
DICTIONARY
  5
17
102
{ACAD_REACTORS
330
15
102
}
330
15
100
AcDbDictionary
281
     1
1001
AcLayerTools
1000
22
1000
0
  0
DICTIONARY
  5
19
102
{ACAD_REACTORS
330
15
102
}
330
15
100
AcDbDictionary
281
     1
1001
ACAD
1000
<All
  0
SORTENTSTABLE
  5
58
102
{ACAD_REACTORS
330
3
102
}
330
3
100
AcDbSortentsTable
330
2
331
3A
  5
50
331
4F
  5
3B
331
46
  5
44
331
54
  5
36
331
3F
  5
4B
331
36
  5
54
331
4B
  5
3F
331
42
  5
48
331
50
  5
3A
331
47
  5
43
331
3B
  5
4F
331
43
  5
47
331
55
  5
35
331
37
  5
53
331
4C
  5
3E
331
51
  5
39
331
3C
  5
4E
331
33
  5
57
331
48
  5
42
331
56
  5
34
331
38
  5
52
331
4D
  5
3D
331
44
  5
46
331
52
  5
38
331
3D
  5
4D
331
34
  5
56
331
49
  5
41
331
40
  5
4A
331
4E
  5
3C
331
57
  5
33
331
39
  5
51
331
41
  5
49
331
53
  5
37
331
3E
  5
4C
331
35
  5
55
331
4A
  5
40
  0
LAYOUT
  5
13
102
{ACAD_REACTORS
330
F
102
}
330
F
100
AcDbPlotSettings
  1

  2
none_device
  4

  6

 40
0.0
 41
0.0
 42
0.0
 43
0.0
 44
0.0
 45
0.0
 46
0.0
 47
0.0
 48
0.0
 49
0.0
140
0.0
141
0.0
142
1.0
143
1.0
 70
   688
 72
     0
 73
     0
 74
     5
  7

 75
    16
147
1.0
 76
     0
 77
     2
 78
   300
148
0.0
149
0.0
100
AcDbLayout
  1
Layout1
 70
     1
 71
     1
 10
0.0
 20
0.0
 11
12.0
 21
9.0
 12
0.0
 22
0.0
 32
0.0
 14
1.000000000000000E+20
 24
1.000000000000000E+20
 34
1.000000000000000E+20
 15
-1.000000000000000E+20
 25
-1.000000000000000E+20
 35
-1.000000000000000E+20
146
0.0
 13
0.0
 23
0.0
 33
0.0
 16
1.0
 26
0.0
 36
0.0
 17
0.0
 27
1.0
 37
0.0
 76
     0
330
10
  0
LAYOUT
  5
E
102
{ACAD_REACTORS
330
F
102
}
330
F
100
AcDbPlotSettings
  1

  2
none_device
  4

  6

 40
0.0
 41
0.0
 42
0.0
 43
0.0
 44
0.0
 45
0.0
 46
0.0
 47
0.0
 48
0.0
 49
0.0
140
0.0
141
0.0
142
1.0
143
1.0
 70
  1712
 72
     0
 73
     0
 74
     0
  7

 75
     0
147
1.0
 76
     0
 77
     2
 78
   300
148
0.0
149
0.0
100
AcDbLayout
  1
Model
 70
     1
 71
     0
 10
0.0
 20
0.0
 11
12.0
 21
9.0
 12
0.0
 22
0.0
 32
0.0
 14
30.0
 24
49.75
 34
0.0
 15
130.5
 25
163.1318914119703
 35
0.0
146
0.0
 13
0.0
 23
0.0
 33
0.0
 16
1.0
 26
0.0
 36
0.0
 17
0.0
 27
1.0
 37
0.0
 76
     0
330
2
  0
MATERIAL
  5
A
102
{ACAD_REACTORS
330
B
102
}
330
B
100
AcDbMaterial
  1
Global
  2

  0
MLINESTYLE
  5
31
102
{ACAD_REACTORS
330
2A
102
}
330
2A
100
AcDbMlineStyle
  2
STANDARD
 70
     0
  3

 62
   256
 51
90.0
 52
90.0
 71
     2
 49
0.5
 62
   256
  6
BYLAYER
 49
-0.5
 62
   256
  6
BYLAYER
  0
ACDBPLACEHOLDER
  5
7
102
{ACAD_REACTORS
330
8
102
}
330
8
  0
TABLESTYLE
  5
32
102
{ACAD_XDICTIONARY
360
5C
102
}
102
{ACAD_REACTORS
330
2D
102
}
330
2D
100
AcDbTableStyle
280
     0
  3
Standard
 70
     0
 71
     0
 40
0.06
 41
0.06
280
     0
281
     0
  7
Standard
140
0.18
170
     2
 62
     0
 63
   257
283
     0
 90
        4
 91
        0
  1

274
    -2
284
     1
 64
     0
275
    -2
285
     1
 65
     0
276
    -2
286
     1
 66
     0
277
    -2
287
     1
 67
     0
278
    -2
288
     1
 68
     0
279
    -2
289
     1
 69
     0
  7
Standard
140
0.25
170
     5
 62
     0
 63
   257
283
     0
 90
        4
 91
        0
  1

274
    -2
284
     1
 64
     0
275
    -2
285
     1
 65
     0
276
    -2
286
     1
 66
     0
277
    -2
287
     1
 67
     0
278
    -2
288
     1
 68
     0
279
    -2
289
     1
 69
     0
  7
Standard
140
0.18
170
     5
 62
     0
 63
   257
283
     0
 90
        4
 91
        0
  1

274
    -2
284
     1
 64
     0
275
    -2
285
     1
 65
     0
276
    -2
286
     1
 66
     0
277
    -2
287
     1
 67
     0
278
    -2
288
     1
 68
     0
279
    -2
289
     1
 69
     0
  0
DICTIONARYVAR
  5
5A
102
{ACAD_REACTORS
330
59
102
}
330
59
100
DictionaryVariables
280
     0
  1
STANDARD
  0
DICTIONARY
  5
5C
330
32
100
AcDbDictionary
280
     1
281
     1
  3
ACAD_ROUNDTRIP_2008_TABLESTYLE_CELLSTYLEMAP
360
5D
  0
CELLSTYLEMAP
  5
5D
102
{ACAD_REACTORS
330
5C
102
}
330
5C
100
AcDbCellStyleMap
 90
        3
300
CELLSTYLE
  1
TABLEFORMAT_BEGIN
 90
        5
170
     1
 91
        0
 92
        0
 62
   257
 93
        1
300
CONTENTFORMAT
  1
CONTENTFORMAT_BEGIN
 90
        0
 91
        0
 92
        4
 93
        0
300

 40
0.0
140
1.0
 94
        5
 62
     0
340
1C
144
0.25
309
CONTENTFORMAT_END
171
     1
301
MARGIN
  1
CELLMARGIN_BEGIN
 40
0.06
 40
0.06
 40
0.06
 40
0.06
 40
0.18
 40
0.18
309
CELLMARGIN_END
 94
        6
 95
        1
302
GRIDFORMAT
  1
GRIDFORMAT_BEGIN
 90
        0
 91
        1
 62
     0
 92
       -2
340
0
 93
        0
 40
0.045
309
GRIDFORMAT_END
 95
        2
302
GRIDFORMAT
  1
GRIDFORMAT_BEGIN
 90
        0
 91
        1
 62
     0
 92
       -2
340
0
 93
        0
 40
0.045
309
GRIDFORMAT_END
 95
        4
302
GRIDFORMAT
  1
GRIDFORMAT_BEGIN
 90
        0
 91
        1
 62
     0
 92
       -2
340
0
 93
        0
 40
0.045
309
GRIDFORMAT_END
 95
        8
302
GRIDFORMAT
  1
GRIDFORMAT_BEGIN
 90
        0
 91
        1
 62
     0
 92
       -2
340
0
 93
        0
 40
0.045
309
GRIDFORMAT_END
 95
       16
302
GRIDFORMAT
  1
GRIDFORMAT_BEGIN
 90
        0
 91
        1
 62
     0
 92
       -2
340
0
 93
        0
 40
0.045
309
GRIDFORMAT_END
 95
       32
302
GRIDFORMAT
  1
GRIDFORMAT_BEGIN
 90
        0
 91
        1
 62
     0
 92
       -2
340
0
 93
        0
 40
0.045
309
GRIDFORMAT_END
309
TABLEFORMAT_END
  1
CELLSTYLE_BEGIN
 90
        1
 91
        1
300
_TITLE
309
CELLSTYLE_END
300
CELLSTYLE
  1
TABLEFORMAT_BEGIN
 90
        5
170
     1
 91
        0
 92
        0
 62
   257
 93
        1
300
CONTENTFORMAT
  1
CONTENTFORMAT_BEGIN
 90
        0
 91
        0
 92
        4
 93
        0
300

 40
0.0
140
1.0
 94
        5
 62
     0
340
1C
144
0.18
309
CONTENTFORMAT_END
171
     1
301
MARGIN
  1
CELLMARGIN_BEGIN
 40
0.06
 40
0.06
 40
0.06
 40
0.06
 40
0.18
 40
0.18
309
CELLMARGIN_END
 94
        6
 95
        1
302
GRIDFORMAT
  1
GRIDFORMAT_BEGIN
 90
        0
 91
        1
 62
     0
 92
       -2
340
0
 93
        0
 40
0.045
309
GRIDFORMAT_END
 95
        2
302
GRIDFORMAT
  1
GRIDFORMAT_BEGIN
 90
        0
 91
        1
 62
     0
 92
       -2
340
0
 93
        0
 40
0.045
309
GRIDFORMAT_END
 95
        4
302
GRIDFORMAT
  1
GRIDFORMAT_BEGIN
 90
        0
 91
        1
 62
     0
 92
       -2
340
0
 93
        0
 40
0.045
309
GRIDFORMAT_END
 95
        8
302
GRIDFORMAT
  1
GRIDFORMAT_BEGIN
 90
        0
 91
        1
 62
     0
 92
       -2
340
0
 93
        0
 40
0.045
309
GRIDFORMAT_END
 95
       16
302
GRIDFORMAT
  1
GRIDFORMAT_BEGIN
 90
        0
 91
        1
 62
     0
 92
       -2
340
0
 93
        0
 40
0.045
309
GRIDFORMAT_END
 95
       32
302
GRIDFORMAT
  1
GRIDFORMAT_BEGIN
 90
        0
 91
        1
 62
     0
 92
       -2
340
0
 93
        0
 40
0.045
309
GRIDFORMAT_END
309
TABLEFORMAT_END
  1
CELLSTYLE_BEGIN
 90
        2
 91
        1
300
_HEADER
309
CELLSTYLE_END
300
CELLSTYLE
  1
TABLEFORMAT_BEGIN
 90
        5
170
     1
 91
        0
 92
        0
 62
   257
 93
        1
300
CONTENTFORMAT
  1
CONTENTFORMAT_BEGIN
 90
        0
 91
        0
 92
        4
 93
        0
300

 40
0.0
140
1.0
 94
        2
 62
     0
340
1C
144
0.18
309
CONTENTFORMAT_END
171
     1
301
MARGIN
  1
CELLMARGIN_BEGIN
 40
0.06
 40
0.06
 40
0.06
 40
0.06
 40
0.18
 40
0.18
309
CELLMARGIN_END
 94
        6
 95
        1
302
GRIDFORMAT
  1
GRIDFORMAT_BEGIN
 90
        0
 91
        1
 62
     0
 92
       -2
340
0
 93
        0
 40
0.045
309
GRIDFORMAT_END
 95
        2
302
GRIDFORMAT
  1
GRIDFORMAT_BEGIN
 90
        0
 91
        1
 62
     0
 92
       -2
340
0
 93
        0
 40
0.045
309
GRIDFORMAT_END
 95
        4
302
GRIDFORMAT
  1
GRIDFORMAT_BEGIN
 90
        0
 91
        1
 62
     0
 92
       -2
340
0
 93
        0
 40
0.045
309
GRIDFORMAT_END
 95
        8
302
GRIDFORMAT
  1
GRIDFORMAT_BEGIN
 90
        0
 91
        1
 62
     0
 92
       -2
340
0
 93
        0
 40
0.045
309
GRIDFORMAT_END
 95
       16
302
GRIDFORMAT
  1
GRIDFORMAT_BEGIN
 90
        0
 91
        1
 62
     0
 92
       -2
340
0
 93
        0
 40
0.045
309
GRIDFORMAT_END
 95
       32
302
GRIDFORMAT
  1
GRIDFORMAT_BEGIN
 90
        0
 91
        1
 62
     0
 92
       -2
340
0
 93
        0
 40
0.045
309
GRIDFORMAT_END
309
TABLEFORMAT_END
  1
CELLSTYLE_BEGIN
 90
        3
 91
        2
300
_DATA
309
CELLSTYLE_END
  0
ENDSEC
  0
EOF
