  0
SECTION
  2
HEADER
  9
$ACADVER
  1
AC1021
  9
$ACADMAINTVER
 70
    50
  9
$DWGCODEPAGE
  3
ANSI_1256
  9
$INSBASE
 10
0.0
 20
0.0
 30
0.0
  9
$EXTMIN
 10
263180.7561145536
 20
1990583.403966136
 30
-8.576951406134256
  9
$EXTMAX
 10
263891.2363696237
 20
1991559.525594296
 30
0.00000001
  9
$LIMMIN
 10
0.0
 20
0.0
  9
$LIMMAX
 10
12.0
 20
9.0
  9
$ORTHOMODE
 70
     0
  9
$REGENMODE
 70
     1
  9
$FILLMODE
 70
     1
  9
$QTEXTMODE
 70
     0
  9
$MIRRTEXT
 70
     1
  9
$LTSCALE
 40
1.0
  9
$ATTMODE
 70
     1
  9
$TEXTSIZE
 40
0.2
  9
$TRACEWID
 40
0.05
  9
$TEXTSTYLE
  7
Standard
  9
$CLAYER
  8
مباني
  9
$CELTYPE
  6
ByLayer
  9
$CECOLOR
 62
   256
  9
$CELTSCALE
 40
1.0
  9
$DISPSILH
 70
     0
  9
$DIMSCALE
 40
1.0
  9
$DIMASZ
 40
0.18
  9
$DIMEXO
 40
0.0625
  9
$DIMDLI
 40
0.38
  9
$DIMRND
 40
0.0
  9
$DIMDLE
 40
0.0
  9
$DIMEXE
 40
0.18
  9
$DIMTP
 40
0.0
  9
$DIMTM
 40
0.0
  9
$DIMTXT
 40
0.18
  9
$DIMCEN
 40
0.09
  9
$DIMTSZ
 40
0.0
  9
$DIMTOL
 70
     0
  9
$DIMLIM
 70
     0
  9
$DIMTIH
 70
     1
  9
$DIMTOH
 70
     1
  9
$DIMSE1
 70
     0
  9
$DIMSE2
 70
     0
  9
$DIMTAD
 70
     0
  9
$DIMZIN
 70
     0
  9
$DIMBLK
  1

  9
$DIMASO
 70
     1
  9
$DIMSHO
 70
     1
  9
$DIMPOST
  1

  9
$DIMAPOST
  1

  9
$DIMALT
 70
     0
  9
$DIMALTD
 70
     2
  9
$DIMALTF
 40
25.4
  9
$DIMLFAC
 40
1.0
  9
$DIMTOFL
 70
     0
  9
$DIMTVP
 40
0.0
  9
$DIMTIX
 70
     0
  9
$DIMSOXD
 70
     0
  9
$DIMSAH
 70
     0
  9
$DIMBLK1
  1

  9
$DIMBLK2
  1

  9
$DIMSTYLE
  2
Standard
  9
$DIMCLRD
 70
     0
  9
$DIMCLRE
 70
     0
  9
$DIMCLRT
 70
     0
  9
$DIMTFAC
 40
1.0
  9
$DIMGAP
 40
0.09
  9
$DIMJUST
 70
     0
  9
$DIMSD1
 70
     0
  9
$DIMSD2
 70
     0
  9
$DIMTOLJ
 70
     1
  9
$DIMTZIN
 70
     0
  9
$DIMALTZ
 70
     0
  9
$DIMALTTZ
 70
     0
  9
$DIMUPT
 70
     0
  9
$DIMDEC
 70
     4
  9
$DIMTDEC
 70
     4
  9
$DIMALTU
 70
     2
  9
$DIMALTTD
 70
     2
  9
$DIMTXSTY
  7
Standard
  9
$DIMAUNIT
 70
     0
  9
$DIMADEC
 70
     0
  9
$DIMALTRND
 40
0.0
  9
$DIMAZIN
 70
     0
  9
$DIMDSEP
 70
    46
  9
$DIMATFIT
 70
     3
  9
$DIMFRAC
 70
     0
  9
$DIMLDRBLK
  1

  9
$DIMLUNIT
 70
     2
  9
$DIMLWD
 70
    -2
  9
$DIMLWE
 70
    -2
  9
$DIMTMOVE
 70
     0
  9
$DIMFXL
 40
1.0
  9
$DIMFXLON
 70
     0
  9
$DIMJOGANG
 40
0.7853981633974483
  9
$DIMTFILL
 70
     0
  9
$DIMTFILLCLR
 70
     0
  9
$DIMARCSYM
 70
     0
  9
$DIMLTYPE
  6

  9
$DIMLTEX1
  6

  9
$DIMLTEX2
  6

  9
$LUNITS
 70
     2
  9
$LUPREC
 70
     4
  9
$SKETCHINC
 40
0.1
  9
$FILLETRAD
 40
0.5
  9
$AUNITS
 70
     0
  9
$AUPREC
 70
     0
  9
$MENU
  1
.
  9
$ELEVATION
 40
0.0
  9
$PELEVATION
 40
0.0
  9
$THICKNESS
 40
0.0
  9
$LIMCHECK
 70
     0
  9
$CHAMFERA
 40
0.5
  9
$CHAMFERB
 40
0.5
  9
$CHAMFERC
 40
1.0
  9
$CHAMFERD
 40
0.0
  9
$SKPOLY
 70
     0
  9
$TDCREATE
 40
2455347.978969826
  9
$TDUCREATE
 40
2455347.853969827
  9
$TDUPDATE
 40
2458703.562528797
  9
$TDUUPDATE
 40
2458703.437528797
  9
$TDINDWG
 40
6.3042304167
  9
$TDUSRTIMER
 40
6.3042303935
  9
$USRTIMER
 70
     1
  9
$ANGBASE
 50
0.0
  9
$ANGDIR
 70
     0
  9
$PDMODE
 70
     0
  9
$PDSIZE
 40
0.0
  9
$PLINEWID
 40
0.2
  9
$SPLFRAME
 70
     0
  9
$SPLINETYPE
 70
     6
  9
$SPLINESEGS
 70
     8
  9
$HANDSEED
  5
83
  9
$SURFTAB1
 70
     6
  9
$SURFTAB2
 70
     6
  9
$SURFTYPE
 70
     6
  9
$SURFU
 70
     6
  9
$SURFV
 70
     6
  9
$UCSBASE
  2

  9
$UCSNAME
  2

  9
$UCSORG
 10
0.0
 20
0.0
 30
0.0
  9
$UCSXDIR
 10
1.0
 20
0.0
 30
0.0
  9
$UCSYDIR
 10
0.0
 20
1.0
 30
0.0
  9
$UCSORTHOREF
  2

  9
$UCSORTHOVIEW
 70
     0
  9
$UCSORGTOP
 10
0.0
 20
0.0
 30
0.0
  9
$UCSORGBOTTOM
 10
0.0
 20
0.0
 30
0.0
  9
$UCSORGLEFT
 10
0.0
 20
0.0
 30
0.0
  9
$UCSORGRIGHT
 10
0.0
 20
0.0
 30
0.0
  9
$UCSORGFRONT
 10
0.0
 20
0.0
 30
0.0
  9
$UCSORGBACK
 10
0.0
 20
0.0
 30
0.0
  9
$PUCSBASE
  2

  9
$PUCSNAME
  2

  9
$PUCSORG
 10
0.0
 20
0.0
 30
0.0
  9
$PUCSXDIR
 10
1.0
 20
0.0
 30
0.0
  9
$PUCSYDIR
 10
0.0
 20
1.0
 30
0.0
  9
$PUCSORTHOREF
  2

  9
$PUCSORTHOVIEW
 70
     0
  9
$PUCSORGTOP
 10
0.0
 20
0.0
 30
0.0
  9
$PUCSORGBOTTOM
 10
0.0
 20
0.0
 30
0.0
  9
$PUCSORGLEFT
 10
0.0
 20
0.0
 30
0.0
  9
$PUCSORGRIGHT
 10
0.0
 20
0.0
 30
0.0
  9
$PUCSORGFRONT
 10
0.0
 20
0.0
 30
0.0
  9
$PUCSORGBACK
 10
0.0
 20
0.0
 30
0.0
  9
$USERI1
 70
     0
  9
$USERI2
 70
     0
  9
$USERI3
 70
     0
  9
$USERI4
 70
     0
  9
$USERI5
 70
     0
  9
$USERR1
 40
0.0
  9
$USERR2
 40
0.0
  9
$USERR3
 40
0.0
  9
$USERR4
 40
0.0
  9
$USERR5
 40
0.0
  9
$WORLDVIEW
 70
     1
  9
$SHADEDGE
 70
     3
  9
$SHADEDIF
 70
    70
  9
$TILEMODE
 70
     1
  9
$MAXACTVP
 70
    64
  9
$PINSBASE
 10
0.0
 20
0.0
 30
0.0
  9
$PLIMCHECK
 70
     0
  9
$PEXTMIN
 10
1.000000000000000E+20
 20
1.000000000000000E+20
 30
1.000000000000000E+20
  9
$PEXTMAX
 10
-1.000000000000000E+20
 20
-1.000000000000000E+20
 30
-1.000000000000000E+20
  9
$PLIMMIN
 10
0.0
 20
0.0
  9
$PLIMMAX
 10
12.0
 20
9.0
  9
$UNITMODE
 70
     0
  9
$VISRETAIN
 70
     1
  9
$PLINEGEN
 70
     0
  9
$PSLTSCALE
 70
     1
  9
$TREEDEPTH
 70
  3020
  9
$CMLSTYLE
  2
Standard
  9
$CMLJUST
 70
     0
  9
$CMLSCALE
 40
1.0
  9
$PROXYGRAPHICS
 70
     1
  9
$MEASUREMENT
 70
     0
  9
$CELWEIGHT
370
    -1
  9
$ENDCAPS
280
     0
  9
$JOINSTYLE
280
     0
  9
$LWDISPLAY
290
     0
  9
$INSUNITS
 70
     1
  9
$HYPERLINKBASE
  1

  9
$STYLESHEET
  1

  9
$XEDIT
290
     1
  9
$CEPSNTYPE
380
     0
  9
$PSTYLEMODE
290
     1
  9
$FINGERPRINTGUID
  2
{6B8F8CFE-4E52-4044-9C34-C8E0A9404831}
  9
$VERSIONGUID
  2
{AD5C361F-3EA9-4148-8606-51828903586D}
  9
$EXTNAMES
290
     1
  9
$PSVPSCALE
 40
0.0
  9
$OLESTARTUP
290
     0
  9
$SORTENTS
280
   127
  9
$INDEXCTL
280
     0
  9
$HIDETEXT
280
     1
  9
$XCLIPFRAME
290
     0
  9
$HALOGAP
280
     0
  9
$OBSCOLOR
 70
   257
  9
$OBSLTYPE
280
     0
  9
$INTERSECTIONDISPLAY
280
     0
  9
$INTERSECTIONCOLOR
 70
   257
  9
$DIMASSOC
280
     2
  9
$PROJECTNAME
  1

  9
$CAMERADISPLAY
290
     0
  9
$LENSLENGTH
 40
50.0
  9
$CAMERAHEIGHT
 40
0.0
  9
$STEPSPERSEC
 40
2.0
  9
$STEPSIZE
 40
6.0
  9
$3DDWFPREC
 40
2.0
  9
$PSOLWIDTH
 40
0.25
  9
$PSOLHEIGHT
 40
4.0
  9
$LOFTANG1
 40
1.570796326794896
  9
$LOFTANG2
 40
1.570796326794896
  9
$LOFTMAG1
 40
0.0
  9
$LOFTMAG2
 40
0.0
  9
$LOFTPARAM
 70
     7
  9
$LOFTNORMALS
280
     1
  9
$LATITUDE
 40
0.0
  9
$LONGITUDE
 40
0.0
  9
$NORTHDIRECTION
 40
0.0
  9
$TIMEZONE
 70
 -8000
  9
$LIGHTGLYPHDISPLAY
280
     1
  9
$TILEMODELIGHTSYNCH
280
     1
  9
$SOLIDHIST
280
     1
  9
$SHOWHIST
280
     1
  9
$DWFFRAME
280
     2
  9
$DGNFRAME
280
     0
  9
$REALWORLDSCALE
290
     0
  9
$INTERFERECOLOR
 62
     1
  9
$CSHADOW
280
     0
  9
$SHADOWPLANELOCATION
 40
0.0
  0
ENDSEC
  0
SECTION
  2
CLASSES
  0
CLASS
  1
ACDBDICTIONARYWDFLT
  2
AcDbDictionaryWithDefault
  3
ObjectDBX Classes
 90
        0
 91
        1
280
     0
281
     0
  0
CLASS
  1
VISUALSTYLE
  2
AcDbVisualStyle
  3
ObjectDBX Classes
 90
     4095
 91
        0
280
     0
281
     0
  0
CLASS
  1
SCALE
  2
AcDbScale
  3
ObjectDBX Classes
 90
     1153
 91
        0
280
     0
281
     0
  0
CLASS
  1
MATERIAL
  2
AcDbMaterial
  3
ObjectDBX Classes
 90
        0
 91
        1
280
     0
281
     0
  0
CLASS
  1
TABLESTYLE
  2
AcDbTableStyle
  3
ObjectDBX Classes
 90
     4095
 91
        1
280
     0
281
     0
  0
CLASS
  1
MLEADERSTYLE
  2
AcDbMLeaderStyle
  3
ACDB_MLEADERSTYLE_CLASS
 90
     4095
 91
        0
280
     0
281
     0
  0
CLASS
  1
DICTIONARYVAR
  2
AcDbDictionaryVar
  3
ObjectDBX Classes
 90
        0
 91
        1
280
     0
281
     0
  0
CLASS
  1
SORTENTSTABLE
  2
AcDbSortentsTable
  3
ObjectDBX Classes
 90
        0
 91
        2
280
     0
281
     0
  0
CLASS
  1
RASTERVARIABLES
  2
AcDbRasterVariables
  3
ISM
 90
        0
 91
        0
280
     0
281
     0
  0
CLASS
  1
IMAGEDEF
  2
AcDbRasterImageDef
  3
ISM
 90
        0
 91
        0
280
     0
281
     0
  0
CLASS
  1
IMAGEDEF_REACTOR
  2
AcDbRasterImageDefReactor
  3
ISM
 90
        1
 91
        0
280
     0
281
     0
  0
CLASS
  1
IMAGE
  2
AcDbRasterImage
  3
ISM
 90
     2175
 91
        0
280
     0
281
     1
  0
CLASS
  1
CELLSTYLEMAP
  2
AcDbCellStyleMap
  3
ObjectDBX Classes
 90
     1152
 91
        1
280
     0
281
     0
  0
ENDSEC
  0
SECTION
  2
TABLES
  0
TABLE
  2
VPORT
  5
23
330
0
100
AcDbSymbolTable
 70
     1
  0
VPORT
  5
24
330
23
100
AcDbSymbolTableRecord
100
AcDbViewportTableRecord
  2
*Active
 70
     0
 10
0.0
 20
0.0
 11
1.0
 21
1.0
 12
263927.774384174
 22
1991151.51987114
 13
0.0
 23
0.0
 14
0.5
 24
0.5
 15
0.5
 25
0.5
 16
0.0
 26
0.0
 36
1.0
 17
0.0
 27
0.0
 37
0.0
 40
2575.214522572235
 41
2.104903078677308
 42
50.0
 43
0.0
 44
0.0
 50
0.0
 51
0.0
 71
     0
 72
  1000
 73
     1
 74
     3
 75
     0
 76
     0
 77
     0
 78
     0
281
     0
 65
     1
110
0.0
120
0.0
130
0.0
111
1.0
121
0.0
131
0.0
112
0.0
122
1.0
132
0.0
 79
     0
146
0.0
 60
     3
 61
     5
292
     1
282
     0
141
0.0
142
0.0
 63
   256
  0
ENDTAB
  0
TABLE
  2
LTYPE
  5
1E
330
0
100
AcDbSymbolTable
 70
     1
  0
LTYPE
  5
1F
330
1E
100
AcDbSymbolTableRecord
100
AcDbLinetypeTableRecord
  2
ByBlock
 70
     0
  3

 72
    65
 73
     0
 40
0.0
  0
LTYPE
  5
20
330
1E
100
AcDbSymbolTableRecord
100
AcDbLinetypeTableRecord
  2
ByLayer
 70
     0
  3

 72
    65
 73
     0
 40
0.0
  0
LTYPE
  5
C
330
1E
100
AcDbSymbolTableRecord
100
AcDbLinetypeTableRecord
  2
Continuous
 70
     0
  3
Solid line
 72
    65
 73
     0
 40
0.0
  0
ENDTAB
  0
TABLE
  2
LAYER
  5
14
102
{ACAD_XDICTIONARY
360
15
102
}
330
0
100
AcDbSymbolTable
 70
     3
  0
LAYER
  5
6
330
14
100
AcDbSymbolTableRecord
100
AcDbLayerTableRecord
  2
0
 70
     0
 62
    -7
  6
Continuous
370
    -3
390
7
347
A
  0
LAYER
  5
34
330
14
100
AcDbSymbolTableRecord
100
AcDbLayerTableRecord
  2
احواش
 70
     0
 62
     5
  6
Continuous
370
    -3
390
7
347
0
1001
ZcCmTransparency
1071
 33554687
1001
AcAecLayerStandard
1000

1000

  0
LAYER
  5
2E
330
14
100
AcDbSymbolTableRecord
100
AcDbLayerTableRecord
  2
مباني
 70
     0
 62
    -6
  6
Continuous
370
    -3
390
7
347
0
1001
ZcCmTransparency
1071
 33554687
1001
AcAecLayerStandard
1000

1000

  0
ENDTAB
  0
TABLE
  2
STYLE
  5
1B
330
0
100
AcDbSymbolTable
 70
     1
  0
STYLE
  5
1C
330
1B
100
AcDbSymbolTableRecord
100
AcDbTextStyleTableRecord
  2
Standard
 70
     0
 40
0.0
 41
1.0
 50
0.0
 71
     0
 42
0.2
  3
txt
  4

  0
ENDTAB
  0
TABLE
  2
VIEW
  5
21
330
0
100
AcDbSymbolTable
 70
     0
  0
ENDTAB
  0
TABLE
  2
UCS
  5
22
330
0
100
AcDbSymbolTable
 70
     0
  0
ENDTAB
  0
TABLE
  2
APPID
  5
25
330
0
100
AcDbSymbolTable
 70
     4
  0
APPID
  5
1A
330
25
100
AcDbSymbolTableRecord
100
AcDbRegAppTableRecord
  2
ACAD
 70
     0
  0
APPID
  5
2F
330
25
100
AcDbSymbolTableRecord
100
AcDbRegAppTableRecord
  2
ZcCmTransparency
 70
     0
  0
APPID
  5
30
330
25
100
AcDbSymbolTableRecord
100
AcDbRegAppTableRecord
  2
AcAecLayerStandard
 70
     0
  0
APPID
  5
18
330
25
100
AcDbSymbolTableRecord
100
AcDbRegAppTableRecord
  2
AcLayerTools
 70
     0
  0
ENDTAB
  0
TABLE
  2
DIMSTYLE
  5
26
330
0
100
AcDbSymbolTable
 70
     1
100
AcDbDimStyleTable
 71
     1
340
27
  0
DIMSTYLE
105
27
330
26
100
AcDbSymbolTableRecord
100
AcDbDimStyleTableRecord
  2
Standard
 70
     0
340
1C
  0
ENDTAB
  0
TABLE
  2
BLOCK_RECORD
  5
1
330
0
100
AcDbSymbolTable
 70
     0
  0
BLOCK_RECORD
  5
2
102
{ACAD_XDICTIONARY
360
3
102
}
330
1
100
AcDbSymbolTableRecord
100
AcDbBlockTableRecord
  2
*Model_Space
340
E
 70
     0
280
     1
281
     0
  0
BLOCK_RECORD
  5
10
330
1
100
AcDbSymbolTableRecord
100
AcDbBlockTableRecord
  2
*Paper_Space
340
13
 70
     0
280
     1
281
     0
  0
ENDTAB
  0
ENDSEC
  0
SECTION
  2
BLOCKS
  0
BLOCK
  5
5
330
2
100
AcDbEntity
  8
0
100
AcDbBlockBegin
  2
*Model_Space
 70
     0
 10
0.0
 20
0.0
 30
0.0
  3
*Model_Space
  1

  0
ENDBLK
  5
D
330
2
100
AcDbEntity
  8
0
100
AcDbBlockEnd
  0
BLOCK
  5
11
330
10
100
AcDbEntity
 67
     1
  8
0
100
AcDbBlockBegin
  2
*Paper_Space
 70
     0
 10
0.0
 20
0.0
 30
0.0
  3
*Paper_Space
  1

  0
ENDBLK
  5
12
330
10
100
AcDbEntity
 67
     1
  8
0
100
AcDbBlockEnd
  0
ENDSEC
  0
SECTION
  2
ENTITIES
  0
LWPOLYLINE
  5
33
330
2
100
AcDbEntity
  8
احواش
100
AcDbPolyline
 90
       46
 70
     1
 43
0.2
 10
263479.6963657468
 20
1991129.551176961
 10
263480.435799531
 20
1991130.93547512
 10
263480.7772027352
 20
1991132.381968846
 10
263480.2309576086
 20
1991132.5910491
 10
263480.8355752786
 20
1991135.066248766
 10
263479.9276686177
 20
1991135.424086998
 10
263476.8233871385
 20
1991136.269605673
 10
263475.6809355708
 20
1991132.065884847
 10
263471.889117366
 20
1991133.068168258
 10
263473.2564401283
 20
1991137.096967666
 10
263472.2646821983
 20
1991137.194626026
 10
263471.7312430212
 20
1991136.676282177
 10
263470.0352058118
 20
1991136.248260378
 10
263465.9344254313
 20
1991137.560836923
 10
263466.6320034276
 20
1991139.777397615
 10
263465.3846432205
 20
1991140.084761225
 10
263463.1639402944
 20
1991141.438939732
 10
263462.6134442744
 20
1991142.380621324
 10
263463.5225015531
 20
1991144.957245231
 10
263459.8694766153
 20
1991146.850519705
 10
263457.7333281136
 20
1991147.837264596
 10
263455.7171634747
 20
1991142.795020497
 10
263452.1306026932
 20
1991144.172628373
 10
263451.968237743
 20
1991143.517453729
 10
263450.2631616928
 20
1991143.940004556
 10
263450.1508583025
 20
1991142.228031556
 10
263447.0162718955
 20
1991137.772642157
 10
263450.6038767561
 20
1991135.437168719
 10
263451.5569078754
 20
1991136.214508358
 10
263452.8310519071
 20
1991137.880895893
 10
263454.2246417812
 20
1991136.282755575
 10
263454.7837621074
 20
1991135.594292543
 10
263454.891158425
 20
1991134.885566026
 10
263454.7264815854
 20
1991134.291379562
 10
263453.6942975528
 20
1991131.861925008
 10
263453.8876173169
 20
1991131.511141269
 10
263456.1873186751
 20
1991131.008358666
 10
263458.0928695282
 20
1991129.792606397
 10
263459.635459075
 20
1991129.50227675
 10
263461.7589561083
 20
1991128.662989847
 10
263463.6577097935
 20
1991131.249438681
 10
263469.1503647753
 20
1991128.979482934
 10
263471.5803682677
 20
1991128.205959175
 10
263471.2797587246
 20
1991127.015668079
 10
263477.7809366756
 20
1991124.850606816
 10
263479.2105780618
 20
1991129.659474937
  0
LWPOLYLINE
  5
35
330
2
100
AcDbEntity
  8
احواش
100
AcDbPolyline
 90
        5
 70
     1
 43
0.2
 10
263474.9222420478
 20
1991115.511610514
 10
263469.1168184621
 20
1991117.637277077
 10
263468.1512934807
 20
1991115.000324699
 10
263473.9632087432
 20
1991112.862501359
 10
263474.2294196911
 20
1991113.731660101
  0
LWPOLYLINE
  5
36
330
2
100
AcDbEntity
  8
احواش
100
AcDbPolyline
 90
        5
 70
     1
 43
0.2
 10
263469.1168184621
 20
1991117.637277077
 10
263465.749437742
 20
1991118.870249744
 10
263465.6695795575
 20
1991118.899489966
 10
263464.9013597912
 20
1991116.195762653
 10
263468.1512934808
 20
1991115.000324699
  0
LWPOLYLINE
  5
37
330
2
100
AcDbEntity
  8
احواش
100
AcDbPolyline
 90
        5
 70
     1
 43
0.2
 10
263461.7792763107
 20
1991120.513819373
 10
263456.6447975232
 20
1991122.649687144
 10
263456.2317141067
 20
1991122.821523779
 10
263455.2571507569
 20
1991119.743236116
 10
263460.9937460785
 20
1991117.633118055
  0
LWPOLYLINE
  5
38
330
2
100
AcDbEntity
  8
احواش
100
AcDbPolyline
 90
       21
 70
     1
 43
0.2
 10
263478.9813761319
 20
1991087.045908242
 10
263479.441117929
 20
1991088.399564597
 10
263481.8775790249
 20
1991095.19529893
 10
263482.910383377
 20
1991099.650015633
 10
263477.3604326335
 20
1991100.503396852
 10
263478.774600021
 20
1991107.090451922
 10
263478.1439357
 20
1991107.822564939
 10
263477.6597885964
 20
1991108.658823608
 10
263476.2762047595
 20
1991108.620254421
 10
263474.8751105727
 20
1991108.807175086
 10
263473.5307050482
 20
1991109.214686099
 10
263472.9269052795
 20
1991109.479048417
 10
263471.4181410071
 20
1991103.288227126
 10
263470.8286475924
 20
1991100.176887836
 10
263469.2563576602
 20
1991096.697253662
 10
263466.9622457311
 20
1991097.78788944
 10
263466.6314068111
 20
1991095.928041538
 10
263466.1802581111
 20
1991094.266858508
 10
263465.2673904573
 20
1991092.06460986
 10
263465.7935989621
 20
1991091.840335987
 10
263469.993938286
 20
1991089.227987153
  0
LWPOLYLINE
  5
39
330
2
100
AcDbEntity
  8
احواش
100
AcDbPolyline
 90
       14
 70
     1
 43
0.2
 10
263450.6076417288
 20
1991093.768999753
 10
263443.3798509074
 20
1991095.617962299
 10
263442.9226451695
 20
1991094.047064667
 10
263439.5489096344
 20
1991095.028981766
 10
263438.49091801
 20
1991089.986821712
 10
263432.0988932876
 20
1991091.535579235
 10
263431.1903323435
 20
1991087.785770809
 10
263437.3467322197
 20
1991086.649924361
 10
263441.3571451365
 20
1991085.699134485
 10
263445.3732344128
 20
1991084.329400559
 10
263448.4464135669
 20
1991083.28125709
 10
263448.9606559198
 20
1991084.399530037
 10
263450.5192727009
 20
1991089.160268406
 10
263449.666222311
 20
1991089.491383241
  0
LWPOLYLINE
  5
3A
330
2
100
AcDbEntity
  8
احواش
100
AcDbPolyline
 90
       15
 70
     1
 43
0.2
 10
263453.7415379447
 20
1991103.085224502
 10
263449.1455002394
 20
1991104.511963629
 10
263450.8989418042
 20
1991110.16042689
 10
263449.7048677279
 20
1991110.476578438
 10
263448.7979289161
 20
1991108.705098232
 10
263447.3024121676
 20
1991109.095357012
 10
263443.3798509073
 20
1991095.617962299
 10
263450.6076417291
 20
1991093.768999753
 10
263450.8864020915
 20
1991093.692724943
 10
263450.8993104499
 20
1991093.750095648
 10
263450.7557897841
 20
1991094.478515429
 10
263451.6380044219
 20
1991096.998625841
 10
263451.6777627066
 20
1991097.561908973
 42
-0.0908967915956361
 10
263451.9409058747
 20
1991098.584939532
 10
263453.178653759
 20
1991100.942780858
  0
LWPOLYLINE
  5
3B
330
2
100
AcDbEntity
  8
احواش
100
AcDbPolyline
 90
        6
 70
     1
 43
0.2
 10
263510.1150819458
 20
1991138.247618023
 10
263504.7902631703
 20
1991139.468146461
 10
263503.3086272867
 20
1991135.475873132
 10
263509.7927701123
 20
1991132.941349484
 10
263511.3333124129
 20
1991136.065694444
 10
263509.7894415474
 20
1991136.826941492
  0
LWPOLYLINE
  5
3C
330
2
100
AcDbEntity
  8
احواش
100
AcDbPolyline
 90
        8
 70
     1
 43
0.2
 10
263477.8496689283
 20
1991182.461187411
 10
263472.5171895267
 20
1991180.784740861
 42
0.3333108648894918
 10
263472.2427884993
 20
1991180.402591447
 10
263472.2231853819
 20
1991179.559897751
 10
263472.5465888757
 20
1991177.962702881
 10
263473.3121387333
 20
1991176.887730072
 10
263478.0972686334
 20
1991178.782274716
 10
263478.8909353833
 20
1991179.240456959
  0
LWPOLYLINE
  5
3D
330
2
100
AcDbEntity
  8
احواش
100
AcDbPolyline
 90
       14
 70
     1
 43
0.2
 10
263457.4357868845
 20
1991329.413592686
 10
263455.5479446473
 20
1991329.851525383
 10
263452.5128421766
 20
1991331.164009135
 10
263451.5749715089
 20
1991331.507356568
 10
263450.1270025831
 20
1991331.507356568
 10
263450.0933913379
 20
1991329.755244675
 10
263450.2026627365
 20
1991329.159303681
 10
263451.4972173571
 20
1991322.992075877
 10
263455.4754836887
 20
1991324.29489807
 10
263455.6242518064
 20
1991323.837303267
 10
263456.1273014115
 20
1991323.925037221
 10
263456.7925116541
 20
1991324.191538567
 10
263456.931475383
 20
1991325.025195968
 10
263456.931475383
 20
1991327.239604402
  0
LWPOLYLINE
  5
3E
330
2
100
AcDbEntity
  8
احواش
100
AcDbPolyline
 90
        7
 70
     1
 43
0.2
 10
263430.5938443624
 20
1991386.213207058
 10
263427.9643403663
 20
1991386.213207058
 10
263427.9643403663
 20
1991388.711043959
 10
263418.3315087249
 20
1991388.164642667
 10
263419.2220573535
 20
1991381.35822471
 10
263419.6382196348
 20
1991381.370043025
 10
263430.8262364995
 20
1991382.306420229
  0
LWPOLYLINE
  5
3F
330
2
100
AcDbEntity
  8
احواش
100
AcDbPolyline
 90
       15
 70
     1
 43
0.2
 10
263461.1505351282
 20
1991401.892284165
 10
263460.2612801371
 20
1991403.569428902
 10
263456.5801313662
 20
1991402.225344143
 10
263444.6446397114
 20
1991397.970717597
 10
263445.973293104
 20
1991394.72400421
 10
263450.737675486
 20
1991396.673733694
 10
263453.0675136778
 20
1991390.980513108
 10
263450.2553499553
 20
1991389.958519241
 10
263451.5231191093
 20
1991386.391425194
 10
263452.0302648998
 20
1991384.964480293
 10
263452.5087468952
 20
1991385.130740913
 10
263453.8573315236
 20
1991381.249644666
 10
263453.5451561756
 20
1991381.124852471
 10
263455.7311252718
 20
1991374.90037463
 10
263467.9630539956
 20
1991379.340229961
  0
LWPOLYLINE
  5
40
330
2
100
AcDbEntity
  8
احواش
100
AcDbPolyline
 90
       13
 70
     1
 43
0.2
 10
263439.0027383864
 20
1991123.703832046
 10
263438.6357436627
 20
1991122.853384477
 10
263432.0266648131
 20
1991125.705408698
 10
263431.8977217861
 20
1991125.349293206
 10
263427.1686573061
 20
1991127.308041222
 10
263426.5214338806
 20
1991124.924859987
 10
263434.2986916455
 20
1991122.210978718
 10
263433.702040297
 20
1991119.767165658
 10
263438.4234946391
 20
1991118.256496334
 10
263438.7211869975
 20
1991118.149375269
 10
263439.2133851846
 20
1991119.634159493
 10
263448.5622292367
 20
1991116.306211768
 10
263449.2153480072
 20
1991119.00159383
  0
LWPOLYLINE
  5
41
330
2
100
AcDbEntity
  8
احواش
100
AcDbPolyline
 90
       19
 70
     1
 43
0.2
 10
263490.5478888327
 20
1991146.39555932
 10
263486.9793713319
 20
1991149.483834224
 10
263486.2526093185
 20
1991150.803957182
 10
263485.5946534953
 20
1991151.295225139
 10
263484.1895689027
 20
1991152.190741746
 10
263479.5551971148
 20
1991155.267756251
 10
263479.1173484437
 20
1991154.489059667
 10
263476.3103693297
 20
1991149.496958078
 10
263476.3103693297
 20
1991149.496958078
 10
263479.0088053337
 20
1991148.433194832
 10
263478.2417915264
 20
1991146.680964799
 10
263483.4647696584
 20
1991144.454169704
 10
263482.0586458674
 20
1991139.885343823
 10
263484.0296870781
 20
1991138.791868523
 10
263485.4394930817
 20
1991138.560876481
 10
263489.4844648078
 20
1991137.260846906
 10
263489.8109055444
 20
1991138.779244949
 10
263490.2203950077
 20
1991140.417531829
 10
263491.1487855954
 20
1991144.131840146
 42
0.257683733124239
  0
LWPOLYLINE
  5
42
330
2
100
AcDbEntity
  8
احواش
100
AcDbPolyline
 90
       11
 70
     1
 43
0.2
 10
263654.5553019002
 20
1990894.829221059
 10
263649.9365345257
 20
1990895.845454408
 10
263649.2870943362
 20
1990893.181141326
 10
263645.4935753789
 20
1990894.72564635
 10
263644.2675128623
 20
1990887.258566898
 10
263642.1649227576
 20
1990887.603803203
 10
263643.2308015935
 20
1990879.788449415
 10
263652.2876049911
 20
1990878.907418596
 10
263652.2561424998
 20
1990881.265796087
 42
-0.0873771009980214
 10
263652.8382190466
 20
1990884.85053071
 10
263653.5618890786
 20
1990887.884975163
  0
LWPOLYLINE
  5
43
330
2
100
AcDbEntity
  8
احواش
100
AcDbPolyline
 90
       21
 70
     1
 43
0.2
 10
263650.8441776964
 20
1991025.88480239
 10
263650.1932165896
 20
1991026.516307287
 10
263647.2601470692
 20
1991029.431497475
 10
263648.8159888235
 20
1991030.996881464
 10
263646.5396399453
 20
1991033.43926141
 10
263645.5716607375
 20
1991034.868914824
 10
263641.8071907746
 20
1991030.861173275
 10
263640.4304117552
 20
1991029.395422575
 42
0.1066517160492355
 10
263641.4481024683
 20
1991028.146719643
 10
263642.6293419934
 20
1991027.202239974
 10
263640.2312947739
 20
1991024.621969647
 10
263640.7827664724
 20
1991024.109443824
 10
263639.2041150215
 20
1991022.410833613
 42
0.0006368390621396
 10
263639.1863870079
 20
1991022.433985241
 10
263638.9287123424
 20
1991022.151224582
 10
263643.2954916453
 20
1991018.20740666
 10
263644.3955550888
 20
1991019.047824163
 10
263647.2281127758
 20
1991016.557408769
 10
263650.3376686556
 20
1991013.823453563
 10
263654.9561457176
 20
1991018.900037767
 10
263649.1951549062
 20
1991024.18497443
  0
LWPOLYLINE
  5
44
330
2
100
AcDbEntity
  8
احواش
100
AcDbPolyline
 90
       16
 70
     1
 43
0.2
 10
263620.0903186784
 20
1990954.645073396
 10
263613.3911224098
 20
1990956.082085108
 10
263613.2455295442
 20
1990955.403346601
 10
263608.5936368068
 20
1990956.40120128
 10
263608.3090934596
 20
1990956.984934156
 10
263605.3854288024
 20
1990960.284772628
 10
263603.6074459817
 20
1990962.458449351
 10
263603.2895815374
 20
1990963.279734621
 10
263605.2070434592
 20
1990969.287446652
 10
263608.3319527798
 20
1990968.425673285
 10
263611.3818057452
 20
1990967.855192925
 10
263611.4518565245
 20
1990968.229692369
 10
263614.9614348241
 20
1990967.572109681
 10
263617.8068329786
 20
1990966.863520397
 10
263617.1415181282
 20
1990964.191894265
 10
263621.4654635296
 20
1990963.400264464
  0
LWPOLYLINE
  5
45
330
2
100
AcDbEntity
  8
احواش
100
AcDbPolyline
 90
       41
 70
     1
 43
0.2
 10
263508.8276535864
 20
1991015.214986101
 10
263497.7562442698
 20
1991018.815016659
 10
263491.8624154511
 20
1991020.809057594
 10
263488.8076734787
 20
1991010.033182048
 10
263493.4887930469
 20
1991008.699385701
 10
263493.0980280861
 20
1991007.217393009
 10
263487.4694906672
 20
1991008.716436427
 10
263485.5607034578
 20
1991002.062504119
 10
263491.197595416
 20
1991000.215147065
 10
263491.4017129314
 20
1991000.770956473
 10
263495.4070558258
 20
1990999.526792384
 10
263493.5959946332
 20
1990994.406284879
 10
263492.4938091462
 20
1990990.631936648
 10
263499.3824582116
 20
1990989.157836341
 10
263500.298879985
 20
1990992.956605424
 10
263503.1295959266
 20
1990992.349196781
 10
263503.1295959266
 20
1990992.349196781
 10
263503.1295959266
 20
1990992.349196781
 10
263503.1295959266
 20
1990992.349196781
 10
263503.1295959266
 20
1990992.349196781
 10
263503.1295959266
 20
1990992.349196781
 10
263503.1295959266
 20
1990992.349196781
 10
263503.1295959266
 20
1990992.349196781
 10
263503.1295959266
 20
1990992.349196781
 10
263503.1295959266
 20
1990992.349196781
 42
0.4031843997961417
 10
263503.1295959266
 20
1990992.349196781
 42
0.4534182499303194
 10
263503.1295959251
 20
1990992.349196782
 42
0.6582718394196739
 10
263503.1295959251
 20
1990992.349196782
 42
0.7226221744599214
 10
263503.129595925
 20
1990992.349196782
 42
0.8799235107108659
 10
263503.129595925
 20
1990992.349196782
 10
263503.129595925
 20
1990992.349196782
 10
263503.1295959266
 20
1990992.349196781
 10
263504.1326564264
 20
1990996.816392996
 42
1.129755066900138
 10
263504.1326564264
 20
1990996.816392996
 42
1.548561374813012
 10
263504.1326564264
 20
1990996.816392996
 10
263504.1326564264
 20
1990996.816392996
 42
0.3909823273409836
 10
263504.1326564264
 20
1990996.816392996
 42
0.4804655971464087
 10
263504.1326564264
 20
1990996.816392996
 42
0.7233854378834508
 10
263504.1326564264
 20
1990996.816392996
 10
263506.2111280671
 20
1991003.558748227
 10
263505.7519006892
 20
1991003.695542007
  0
LWPOLYLINE
  5
46
330
2
100
AcDbEntity
  8
احواش
100
AcDbPolyline
 90
        7
 70
     1
 43
0.2
 10
263491.5786539341
 20
1991075.848596889
 10
263490.919704719
 20
1991074.309728354
 10
263492.5463927548
 20
1991073.916406842
 10
263496.9562411299
 20
1991072.850137099
 10
263498.6232260668
 20
1991078.750318094
 10
263497.2898629547
 20
1991080.365696912
 10
263494.2559835506
 20
1991081.516399402
  0
LWPOLYLINE
  5
47
330
2
100
AcDbEntity
  8
احواش
100
AcDbPolyline
 90
       13
 70
     1
 43
0.2
 10
263508.9004550912
 20
1991075.949986919
 10
263509.9042475823
 20
1991079.985557407
 10
263503.6463778605
 20
1991082.090275499
 10
263498.4146602738
 20
1991083.335973121
 10
263497.2883055177
 20
1991080.366287623
 10
263498.6232260668
 20
1991078.750318094
 10
263496.9528625112
 20
1991072.850954025
 10
263500.6433949018
 20
1991072.744056182
 10
263504.1606271622
 20
1991072.350220036
 10
263504.206618762
 20
1991072.959135196
 10
263504.9209427399
 20
1991074.496137992
 10
263507.6089089545
 20
1991073.224831549
 10
263508.8897763578
 20
1991075.927454849
  0
LWPOLYLINE
  5
48
330
2
100
AcDbEntity
  8
احواش
100
AcDbPolyline
 90
       12
 70
     1
 43
0.2
 10
263497.4276678485
 20
1991085.224121931
 10
263502.0028541493
 20
1991082.980892994
 10
263502.4334405054
 20
1991083.946337697
 10
263507.7578061401
 20
1991081.571681553
 10
263508.2175928673
 20
1991082.65138254
 10
263512.0346520983
 20
1991080.778632226
 10
263515.330856154
 20
1991087.019099812
 10
263510.9083558985
 20
1991088.970056019
 10
263511.1854584163
 20
1991089.627473409
 10
263505.1766780063
 20
1991092.015102339
 10
263504.6248309598
 20
1991090.686961974
 10
263500.8708813404
 20
1991092.246741397
  0
LWPOLYLINE
  5
49
330
2
100
AcDbEntity
  8
احواش
100
AcDbPolyline
 90
       12
 70
     1
 43
0.2
 10
263536.4074934853
 20
1991120.773476314
 10
263528.012637994
 20
1991127.545686638
 10
263523.547285799
 20
1991129.87962919
 10
263523.0976044262
 20
1991128.91019242
 10
263521.3855654182
 20
1991129.917541268
 10
263518.9136711542
 20
1991126.519776372
 10
263520.0772595048
 20
1991125.418117017
 10
263524.67239933
 20
1991122.422283393
 10
263524.0571896539
 20
1991121.478648052
 10
263524.5357991742
 20
1991121.334884977
 10
263523.4047221941
 20
1991117.569354715
 10
263529.957470008
 20
1991113.624631861
  0
LWPOLYLINE
  5
4A
330
2
100
AcDbEntity
  8
احواش
100
AcDbPolyline
 90
       10
 70
     1
 43
0.2
 10
263726.6915163407
 20
1991068.083055017
 10
263728.0121905762
 20
1991057.660552941
 10
263732.5997830729
 20
1991048.071851391
 10
263737.6739433011
 20
1991047.099084111
 10
263741.913992542
 20
1991041.609898441
 10
263743.304174532
 20
1991040.289715399
 10
263744.9175064493
 20
1991041.98858965
 10
263744.4123934716
 20
1991042.521671548
 10
263749.8356213468
 20
1991054.584009191
 10
263726.9153328344
 20
1991071.059926184
  0
LWPOLYLINE
  5
4B
330
2
100
AcDbEntity
  8
احواش
100
AcDbPolyline
 90
       26
 70
     1
 43
0.2
 10
263681.3312241896
 20
1991036.935770753
 10
263680.7903084282
 20
1991038.126147571
 10
263676.3653325476
 20
1991040.197955587
 10
263675.3400835206
 20
1991038.860722222
 10
263672.8973874389
 20
1991040.554452718
 10
263673.0167802021
 20
1991040.726640817
 10
263671.2915188699
 20
1991042.430127477
 10
263671.4514750394
 20
1991042.755369056
 10
263668.9724346021
 20
1991044.485239596
 10
263668.4916994973
 20
1991043.796308409
 10
263663.3891897652
 20
1991042.890139424
 10
263663.0244350304
 20
1991043.870265051
 10
263653.0654431615
 20
1991039.953909228
 10
263656.1404621237
 20
1991032.863289982
 10
263656.9298241739
 20
1991031.043117224
 10
263655.6739195362
 20
1991030.282237236
 10
263653.8287665115
 20
1991029.153335869
 10
263656.9660061972
 20
1991024.025618375
 10
263658.5281780124
 20
1991022.33609522
 10
263665.5253388364
 20
1991028.398499183
 10
263665.7172161195
 20
1991028.087143398
 10
263668.8846527716
 20
1991030.479451803
 10
263671.2340306977
 20
1991027.103265073
 10
263674.3318034544
 20
1991030.105589726
 10
263678.7698861011
 20
1991032.504323059
 10
263680.9700093557
 20
1991034.966239443
  0
LWPOLYLINE
  5
4C
330
2
100
AcDbEntity
  8
احواش
100
AcDbPolyline
 90
       14
 70
     1
 43
0.2
 10
263482.0586458674
 20
1991139.885343823
 10
263480.0206783326
 20
1991135.625405071
 10
263481.1095307801
 20
1991135.181870338
 10
263480.5614735753
 20
1991132.696955009
 10
263481.0703822504
 20
1991132.481725875
 10
263480.6593417265
 20
1991130.799027412
 10
263479.7712479873
 20
1991129.239772492
 10
263482.2539587948
 20
1991128.693026318
 10
263486.3037597766
 20
1991127.097419047
 10
263487.9767882989
 20
1991132.015735427
 10
263489.1491530311
 20
1991135.701186335
 10
263489.4844648077
 20
1991137.260846906
 10
263485.4394930849
 20
1991138.560876481
 10
263484.0296870777
 20
1991138.791868523
  0
LWPOLYLINE
  5
4D
330
2
100
AcDbEntity
  8
احواش
100
AcDbPolyline
 90
        6
 70
     1
 43
0.2
 10
263450.9359248749
 20
1991110.150634989
 10
263449.7048677279
 20
1991110.476578438
 10
263451.4273554397
 20
1991115.768738165
 10
263455.4296056462
 20
1991114.679919925
 42
-0.4653432991232395
 10
263455.910886971
 20
1991113.641747008
 10
263454.3527839737
 20
1991109.002960247
  0
LWPOLYLINE
  5
4E
330
2
100
AcDbEntity
  8
احواش
100
AcDbPolyline
 90
       38
 70
     1
 43
0.2
 10
263420.2959362716
 20
1991304.941476379
 10
263412.8717311349
 20
1991316.207417234
 10
263405.0697212431
 20
1991311.065927263
 10
263401.8717919427
 20
1991314.511469774
 10
263392.8624902594
 20
1991306.482857949
 10
263393.6554837694
 20
1991305.637908926
 10
263390.8870122579
 20
1991303.227426805
 10
263390.146209925
 20
1991304.078248363
 10
263389.6391047827
 20
1991303.625680605
 42
0.0281405971830712
 10
263388.9640614668
 20
1991302.951314333
 42
0.1214855809740466
 10
263388.5970254388
 20
1991302.25961062
 42
-0.0125198737779851
 10
263388.0726974519
 20
1991300.373145507
 42
0.1491605774822257
 10
263388.0726974519
 20
1991299.576637907
 42
-0.0946800556719596
 10
263388.1461025117
 20
1991298.895413855
 42
0.1133975866031491
 10
263388.3243742419
 20
1991297.669211046
 42
0.0600284557367461
 10
263388.6359873406
 20
1991297.085161329
 42
-0.1385875942674629
 10
263388.912371087
 20
1991296.29023144
 42
-0.0296028949727213
 10
263388.912371087
 20
1991294.906824014
 42
-0.0632188329393573
 10
263388.7865300098
 20
1991294.236079622
 42
0.2128721351311173
 10
263388.912371087
 20
1991293.072759631
 42
0.0710059284750122
 10
263391.692499219
 20
1991289.556490053
 42
0.1046258106716634
 10
263393.5408326188
 20
1991288.419404412
 42
0.0031977871853642
 10
263396.8650937277
 20
1991287.256084421
 42
0.1251184640703287
 10
263402.4600087241
 20
1991286.800268956
 42
-0.0357738428317456
 10
263404.6079864705
 20
1991287.007405502
 42
0.0289997700663122
 10
263407.7922608473
 20
1991287.27103317
 42
0.1561903440588238
 10
263408.2141253696
 20
1991287.475057618
 42
0.0023313905418159
 10
263410.0994563358
 20
1991289.285009315
 42
-0.0007768027680721
 10
263412.0686742009
 20
1991291.187294662
 42
-0.1275194281484346
 10
263413.5448379391
 20
1991292.018605804
 10
263413.6871152267
 20
1991291.674066029
 10
263417.2307654132
 20
1991293.598526891
 10
263416.9658753131
 20
1991294.086288357
 42
-0.24618024172291
 10
263416.9628562561
 20
1991294.290973428
 42
0.2022471265763509
 10
263416.9998109082
 20
1991294.826465385
 42
0.1472387549054316
 10
263414.4080554801
 20
1991298.437056762
 10
263413.3144359567
 20
1991299.985422346
 10
263415.9145328688
 20
1991301.477573545
  0
LWPOLYLINE
  5
4F
330
2
100
AcDbEntity
  8
احواش
100
AcDbPolyline
 90
       15
 70
     1
 43
0.2
 10
263443.999081333
 20
1991347.942057558
 10
263433.3295721963
 20
1991345.915181502
 10
263423.3856273382
 20
1991343.608294356
 42
0.0280614392972187
 10
263421.4514866205
 20
1991343.043601603
 42
0.0238818788373771
 10
263419.8637743373
 20
1991342.394807459
 10
263414.4755598117
 20
1991339.394827558
 10
263415.5705880973
 20
1991337.428065277
 42
0.0426126628502299
 10
263419.5610702994
 20
1991331.509195006
 42
0.0251618923720597
 10
263424.3013130822
 20
1991326.198303603
 10
263427.6480184158
 20
1991327.067059444
 10
263427.879568358
 20
1991327.126060636
 10
263427.9773326971
 20
1991326.840451655
 42
0.247220858041584
 10
263428.4817323154
 20
1991326.364609042
 42
0.1238851309906314
 10
263434.4137398258
 20
1991326.21605858
 10
263445.2776511381
 20
1991329.226957032
  0
LWPOLYLINE
  5
50
330
2
100
AcDbEntity
  8
احواش
100
AcDbPolyline
 90
       22
 70
     1
 43
0.2
 10
263444.4750501695
 20
1991371.512962281
 10
263440.3611482371
 20
1991370.571261498
 10
263440.2359717038
 20
1991371.118106092
 10
263426.8932530547
 20
1991368.655098389
 10
263426.9991743334
 20
1991368.131809197
 10
263426.9991743334
 20
1991368.131809197
 10
263409.6397466878
 20
1991366.679173381
 10
263411.0824479324
 20
1991355.764727184
 10
263418.7920444748
 20
1991356.133369935
 10
263418.6829721736
 20
1991358.414449473
 10
263422.6798699929
 20
1991358.805525093
 10
263422.9419074966
 20
1991356.127431458
 10
263427.2443291566
 20
1991356.896114752
 10
263427.8761888499
 20
1991353.359512809
 10
263443.0770174382
 20
1991355.344657143
 10
263442.2706453677
 20
1991358.66382317
 10
263442.4760208641
 20
1991358.713717952
 10
263442.2362682799
 20
1991359.70058079
 10
263444.8257980178
 20
1991360.329691972
 42
0.1492473709785189
 10
263445.7572301474
 20
1991360.881248437
 10
263448.6469348038
 20
1991363.799679725
 10
263446.0373806336
 20
1991366.591772479
  0
LWPOLYLINE
  5
51
330
2
100
AcDbEntity
  8
احواش
100
AcDbPolyline
 90
       11
 70
     1
 43
0.2
 10
263432.0544679269
 20
1991060.051753825
 10
263434.394358387
 20
1991059.266948572
 10
263434.8690538015
 20
1991058.871577515
 10
263442.2594328091
 20
1991055.036366504
 10
263443.1874046935
 20
1991056.542743342
 10
263442.3788964014
 20
1991057.731094261
 10
263445.5215778782
 20
1991066.235536638
 10
263441.1111397853
 20
1991068.269244443
 10
263431.8635731118
 20
1991070.61523347
 10
263431.0102671298
 20
1991068.611017915
 10
263434.52938436
 20
1991067.430696983
  0
LWPOLYLINE
  5
52
330
2
100
AcDbEntity
  8
احواش
100
AcDbPolyline
 90
       12
 70
     1
 43
0.2
 10
263429.0789484187
 20
1991053.437202564
 10
263431.7764317382
 20
1991052.491496225
 10
263434.1413632527
 20
1991051.863915378
 10
263435.4084327207
 20
1991054.885314697
 10
263435.8382482652
 20
1991055.658213189
 10
263436.2249941616
 20
1991056.353663421
 10
263436.7414186567
 20
1991057.899920405
 10
263434.8690538015
 20
1991058.871577515
 10
263434.394358387
 20
1991059.266948572
 10
263432.0544679269
 20
1991060.051753825
 10
263430.3988470615
 20
1991055.115533719
 10
263429.7074272744
 20
1991055.343486496
  0
LWPOLYLINE
  5
53
330
2
100
AcDbEntity
  8
احواش
100
AcDbPolyline
 90
       19
 70
     1
 43
0.2
 10
263526.2123125071
 20
1991282.538549618
 10
263515.7782811774
 20
1991277.230526258
 10
263511.0577978394
 20
1991275.085309117
 10
263507.8000393759
 20
1991272.7067184
 10
263506.0414121485
 20
1991271.422689997
 10
263507.078715402
 20
1991268.888412603
 10
263508.0689288569
 20
1991268.93057563
 10
263510.8939746711
 20
1991268.989265022
 10
263512.2052768192
 20
1991268.498988474
 10
263511.961128679
 20
1991268.041564156
 10
263516.2961780516
 20
1991265.727751355
 10
263517.4552660523
 20
1991264.319415565
 10
263518.2734462987
 20
1991262.411348025
 10
263522.0306301023
 20
1991262.626553172
 10
263522.1194886578
 20
1991264.269570926
 10
263526.5920748067
 20
1991264.950460154
 10
263528.7786612019
 20
1991265.874975511
 10
263530.7503852956
 20
1991266.418455353
 10
263534.5787249243
 20
1991268.485825307
  0
LWPOLYLINE
  5
54
330
2
100
AcDbEntity
  8
احواش
100
AcDbPolyline
 90
        4
 70
     1
 43
0.2
 10
263450.5192727008
 20
1991089.160268406
 10
263448.9606559201
 20
1991084.399530037
 10
263454.6002845743
 20
1991082.333440913
 10
263456.4357723679
 20
1991086.986694204
  0
LWPOLYLINE
  5
55
330
2
100
AcDbEntity
  8
احواش
100
AcDbPolyline
 90
       11
 70
     1
 43
0.2
 10
263501.9312145884
 20
1991330.092768983
 10
263488.0007199003
 20
1991324.794838082
 10
263488.640901818
 20
1991323.208016186
 10
263491.252869572
 20
1991316.604801802
 10
263492.277172096
 20
1991315.12035536
 10
263495.6774368667
 20
1991309.330493105
 10
263498.5102557628
 20
1991310.422572096
 10
263508.2227963958
 20
1991315.599828802
 10
263504.5401220116
 20
1991324.174659332
 10
263504.5401220116
 20
1991324.174659332
 10
263505.187627448
 20
1991324.660025669
  0
LWPOLYLINE
  5
56
330
2
100
AcDbEntity
  8
احواش
100
AcDbPolyline
 90
        6
 70
     1
 43
0.2
 10
263492.7045853798
 20
1991275.740158793
 42
0.2644596695249477
 10
263472.5469169379
 20
1991274.11341757
 10
263464.4523257171
 20
1991287.520152722
 10
263486.4618972219
 20
1991298.96210654
 10
263500.531072353
 20
1991280.238909814
 10
263493.1980452596
 20
1991276.372943084
  0
LWPOLYLINE
  5
57
330
2
100
AcDbEntity
  8
احواش
100
AcDbPolyline
 90
       22
 70
     1
 43
0.2
 10
263546.3652042524
 20
1991208.675457478
 10
263548.1577070757
 20
1991203.198183753
 10
263548.799410976
 20
1991202.343032298
 10
263551.3706043231
 20
1991195.192905135
 10
263551.839800488
 20
1991192.183864828
 10
263552.9345724465
 20
1991189.99547532
 10
263554.2598511361
 20
1991186.785058913
 10
263557.9843636786
 20
1991181.809840963
 10
263557.9843636786
 20
1991181.023818618
 10
263566.192833571
 20
1991172.524980408
 10
263566.192833571
 20
1991172.524980408
 10
263596.1486602646
 20
1991211.561722026
 10
263590.234939296
 20
1991217.952475039
 10
263583.4355471502
 20
1991220.636156508
 10
263576.4241527832
 20
1991225.755077724
 10
263575.7743282225
 20
1991224.865012011
 10
263575.388808374
 20
1991225.037515289
 10
263571.3809370245
 20
1991221.822739559
 10
263566.5113452683
 20
1991218.614945372
 10
263565.5890728625
 20
1991219.831693423
 10
263551.4202815104
 20
1991210.681200354
 10
263550.9142972331
 20
1991211.436004011
  0
LWPOLYLINE
  5
58
330
2
100
AcDbEntity
  8
احواش
100
AcDbPolyline
 90
       16
 70
     1
 43
0.2
 10
263443.799282643
 20
1991190.109627098
 42
1.135736414806441
 10
263442.5906156477
 20
1991189.045412746
 10
263441.007835491
 20
1991187.636054575
 10
263444.7777293019
 20
1991182.717668751
 10
263445.2957271049
 20
1991183.1778684
 10
263451.2527427527
 20
1991180.819346972
 10
263458.505579361
 20
1991178.709325876
 10
263460.9387877948
 20
1991177.898690634
 10
263460.9387877948
 20
1991178.447061255
 10
263458.5532926996
 20
1991182.166448714
 10
263455.2135962933
 20
1991183.5016132
 10
263454.1162713316
 20
1991184.049983821
 10
263453.3247421473
 20
1991185.191241275
 10
263450.4757378655
 20
1991187.808628851
 10
263449.6987411611
 20
1991187.405952383
 10
263446.1590676867
 20
1991192.29557425
  0
LWPOLYLINE
  5
59
330
2
100
AcDbEntity
  8
احواش
100
AcDbPolyline
 90
       13
 70
     1
 43
0.2
 10
263420.2742418929
 20
1991072.805069219
 10
263421.265479572
 20
1991075.368346287
 10
263422.4173080593
 20
1991078.21253698
 42
0.2720485511146315
 10
263422.2065134586
 20
1991081.583424745
 10
263419.0094824714
 20
1991084.357383482
 10
263417.2177488222
 20
1991085.059650977
 10
263413.5991286337
 20
1991085.164994178
 10
263410.7885585057
 20
1991083.795570432
 10
263408.9265518069
 20
1991081.021606962
 10
263408.9968166738
 20
1991078.598784339
 10
263410.7182936388
 20
1991077.05379017
 10
263413.2478124818
 20
1991075.43857351
 10
263417.4285352402
 20
1991073.577563937
  0
LWPOLYLINE
  5
5A
330
2
100
AcDbEntity
  8
احواش
100
AcDbPolyline
 90
       12
 70
     1
 43
0.2
 10
263453.8021933705
 20
1991064.634288461
 10
263451.6629661802
 20
1991065.892276651
 10
263446.5298423052
 20
1991067.680574045
 10
263445.5215778782
 20
1991066.235536638
 10
263442.3788964014
 20
1991057.731094261
 10
263443.9959129855
 20
1991055.354392422
 10
263446.564127829
 20
1991053.186838678
 10
263452.0239461038
 20
1991050.581970546
 10
263452.9370947962
 20
1991051.969967563
 10
263453.3175659172
 20
1991053.300919458
 10
263455.2998864876
 20
1991058.320421958
 10
263451.8184538943
 20
1991060.170189796
  0
LWPOLYLINE
  5
5B
330
2
100
AcDbEntity
  8
احواش
100
AcDbPolyline
 90
       18
 70
     1
 43
0.2
 10
263517.3855903399
 20
1991033.873079145
 10
263509.6387066991
 20
1991036.673870674
 10
263509.0177214017
 20
1991036.089726153
 10
263495.9770056075
 20
1991038.645363756
 10
263493.2373549627
 20
1991031.087973605
 10
263492.1414947048
 20
1991026.889420366
 10
263494.1505691167
 20
1991026.487823079
 10
263493.1535512436
 20
1991023.250307173
 10
263498.1687179406
 20
1991022.106727339
 10
263501.3832353632
 20
1991022.28926984
 10
263501.8215827394
 20
1991024.151235529
 10
263505.2360364213
 20
1991023.306761285
 10
263505.4210709497
 20
1991024.054909414
 10
263508.1159286871
 20
1991023.388408075
 10
263508.0314520792
 20
1991023.092473881
 10
263512.6705862005
 20
1991021.814652712
 10
263517.3855903399
 20
1991033.873079145
 10
263515.1938739154
 20
1991034.676280819
  0
LWPOLYLINE
  5
5C
330
2
100
AcDbEntity
  8
احواش
100
AcDbPolyline
 90
       10
 70
     1
 43
0.2
 10
263512.5374699951
 20
1991068.67799278
 10
263515.9193223316
 20
1991067.152724722
 10
263521.295203797
 20
1991064.480192127
 10
263519.0277676945
 20
1991059.919174708
 10
263509.7495086745
 20
1991056.306069033
 10
263502.8938598779
 20
1991061.453797111
 42
0.1578126735681017
 10
263503.9784367597
 20
1991064.6097459
 10
263508.690085991
 20
1991067.953512145
 10
263511.2271247377
 20
1991066.69959862
 10
263512.5374699951
 20
1991068.67799278
  0
LWPOLYLINE
  5
5D
330
2
100
AcDbEntity
  8
احواش
100
AcDbPolyline
 90
        7
 70
     1
 43
0.2
 10
263404.190321737
 20
1991140.266024881
 10
263409.5053225419
 20
1991138.92700753
 10
263409.3955106735
 20
1991137.917253947
 10
263412.1628270356
 20
1991136.841651396
 10
263411.4819770863
 20
1991133.000207633
 10
263406.8038933007
 20
1991133.592886203
 10
263403.5282357179
 20
1991133.9354736
  0
LWPOLYLINE
  5
5E
330
2
100
AcDbEntity
  8
احواش
100
AcDbPolyline
 90
       15
 70
     1
 43
0.2
 10
263423.825665728
 20
1991039.347049062
 10
263425.368407921
 20
1991043.165115307
 10
263426.1765070779
 20
1991044.633601232
 10
263429.6906177894
 20
1991055.292500451
 10
263430.3988470615
 20
1991055.115533719
 10
263434.5434513708
 20
1991067.472637661
 10
263424.7046843681
 20
1991070.642655784
 10
263423.6042908929
 20
1991067.860801987
 10
263417.858945395
 20
1991069.394966482
 10
263417.2896420469
 20
1991068.847854905
 10
263410.632317983
 20
1991070.334743704
 10
263409.4836301974
 20
1991065.966456138
 10
263408.811224797
 20
1991062.354215248
 10
263408.4913138576
 20
1991058.68836084
 42
0.2520919985180472
 10
263412.721419226
 20
1991048.87114698
  0
LWPOLYLINE
  5
5F
330
2
100
AcDbEntity
  8
احواش
100
AcDbPolyline
 90
       18
 70
     1
 43
0.2
 10
263539.2283656357
 20
1991127.723813017
 10
263541.6166019363
 20
1991127.950478869
 42
0.5564008433915433
 10
263550.592140344
 20
1991126.568392983
 10
263552.6077716717
 20
1991124.249338087
 10
263556.1533121436
 20
1991127.359873462
 10
263556.704834479
 20
1991126.729892153
 10
263559.5018704168
 20
1991129.210441487
 10
263550.9531883001
 20
1991138.77828883
 10
263548.1167526494
 20
1991142.006942448
 10
263550.3633545513
 20
1991144.062867235
 10
263540.1964775412
 20
1991162.74108389
 10
263539.4195381156
 20
1991164.434825159
 10
263523.4450861546
 20
1991156.266211567
 42
0.1359347548746921
 10
263520.0087193002
 20
1991153.110156531
 10
263521.1232115719
 20
1991150.665759757
 10
263522.26866719
 20
1991147.23122872
 10
263526.9005514369
 20
1991137.827222808
 42
-0.051431247903713
 10
263529.6831203566
 20
1991133.321169282
 42
-0.2039870136455526
  0
LWPOLYLINE
  5
60
330
2
100
AcDbEntity
  8
احواش
100
AcDbPolyline
 90
       14
 70
     1
 43
0.2
 10
263455.5434328508
 20
1991200.393165433
 10
263461.2644020779
 20
1991204.798774671
 10
263460.8892578962
 20
1991205.392437757
 10
263465.422270548
 20
1991208.891932644
 10
263473.706733199
 20
1991197.268619638
 10
263476.3952828663
 20
1991190.519597504
 10
263467.985763972
 20
1991184.473543386
 10
263467.644496179
 20
1991184.800989587
 10
263462.8376657513
 20
1991181.178600609
 10
263460.349780499
 20
1991184.417260316
 10
263460.7644225859
 20
1991184.739594607
 10
263459.0450240274
 20
1991187.730004844
 10
263457.895419779
 20
1991190.525532999
 10
263454.4655008942
 20
1991198.094051019
  0
LWPOLYLINE
  5
61
330
2
100
AcDbEntity
  8
احواش
100
AcDbPolyline
 90
       23
 70
     1
 43
0.2
 10
263453.7672131619
 20
1991230.291471431
 10
263451.4589807693
 20
1991227.676784156
 10
263453.4971094512
 20
1991225.755003636
 10
263451.5431743289
 20
1991223.214221853
 10
263449.9356222175
 20
1991224.621296994
 10
263444.958247903
 20
1991220.232670654
 10
263444.5682528575
 20
1991220.713812678
 10
263440.5623691635
 20
1991217.497131703
 10
263442.9755400889
 20
1991214.878384695
 10
263442.5265696347
 20
1991214.431860393
 10
263446.3242479217
 20
1991210.613377647
 10
263455.6091481351
 20
1991201.898542304
 10
263461.559781275
 20
1991206.923142246
 10
263464.4888533013
 20
1991209.850647597
 10
263463.4550588423
 20
1991216.153395303
 10
263462.9037083437
 20
1991217.944343316
 10
263463.4550588423
 20
1991221.767322674
 10
263462.9864510499
 20
1991221.849671225
 10
263464.9097715211
 20
1991232.16121672
 10
263457.630475364
 20
1991239.921316427
 10
263454.8014499306
 20
1991237.629942197
 10
263455.3113632235
 20
1991237.000382147
 10
263450.9594596498
 20
1991233.326121059
  0
LWPOLYLINE
  5
62
330
2
100
AcDbEntity
  8
احواش
100
AcDbPolyline
 90
       11
 70
     1
 43
0.2
 10
263572.3961649313
 20
1991168.767944682
 10
263571.2302116433
 20
1991166.74576323
 10
263572.6019189873
 20
1991165.957454725
 10
263572.1444941213
 20
1991165.255694497
 10
263571.4280497528
 20
1991165.704905951
 10
263564.9889616392
 20
1991155.435247018
 10
263574.7623488486
 20
1991148.751766189
 10
263578.2601923473
 20
1991155.058234229
 10
263578.2601923473
 20
1991155.503798671
 10
263580.4206222085
 20
1991159.239695704
 10
263582.4292302065
 20
1991163.416158868
  0
LWPOLYLINE
  5
63
330
2
100
AcDbEntity
  8
احواش
100
AcDbPolyline
 90
       21
 70
     1
 43
0.2
 10
263551.4202815104
 20
1991210.681200354
 10
263550.9142972331
 20
1991211.436004011
 10
263546.3652042524
 20
1991208.675457478
 10
263543.1762577754
 20
1991215.136882639
 10
263540.8773765868
 20
1991223.350424236
 10
263544.401977523
 20
1991225.389891514
 10
263543.940893598
 20
1991226.186735303
 10
263547.6946888512
 20
1991228.402737354
 10
263546.9990445756
 20
1991232.574372603
 10
263547.3680599131
 20
1991234.624712156
 10
263547.0639170415
 20
1991241.362762618
 10
263549.5235392392
 20
1991247.993671244
 10
263558.7168955774
 20
1991240.150572687
 10
263562.3098962993
 20
1991236.952303507
 10
263561.3684930727
 20
1991235.666746259
 10
263575.388808374
 20
1991225.037515289
 10
263571.3809370245
 20
1991221.822739559
 10
263566.5113452683
 20
1991218.614945372
 10
263565.5890728625
 20
1991219.831693423
 10
263551.4202815104
 20
1991210.681200354
 10
263550.9493372109
 20
1991211.457267478
  0
LWPOLYLINE
  5
64
330
2
100
AcDbEntity
  8
احواش
100
AcDbPolyline
 90
       15
 70
     1
 43
0.2
 10
263489.4642208016
 20
1991228.147056682
 10
263501.992298463
 20
1991233.551021839
 10
263505.3770733777
 20
1991234.605457297
 42
0.0463763297989456
 10
263510.6765352304
 20
1991221.557743852
 10
263512.1271565579
 20
1991214.528191486
 10
263510.1929947879
 20
1991214.484257465
 10
263501.0057427459
 20
1991210.749808806
 10
263499.6268182582
 20
1991210.476974838
 10
263498.0794692037
 20
1991209.988602888
 10
263496.9393241596
 20
1991209.581623895
 10
263494.2211043219
 20
1991209.165188138
 10
263492.0188887376
 20
1991208.305358062
 10
263490.7220651121
 20
1991211.696614365
 10
263492.211279803
 20
1991212.266093231
 10
263489.9298984044
 20
1991218.623843882
  0
LWPOLYLINE
  5
65
330
2
100
AcDbEntity
  8
احواش
100
AcDbPolyline
 90
       17
 70
     1
 43
0.2
 10
263492.9678167403
 20
1991304.618907685
 10
263493.845828908
 20
1991302.522546747
 10
263495.2116283406
 20
1991299.353631472
 10
263499.0768097229
 20
1991292.750592219
 10
263505.0971349404
 20
1991286.820000989
 10
263507.1613689503
 20
1991288.388704006
 10
263514.667345645
 20
1991278.669094484
 10
263515.7782811774
 20
1991277.230526258
 10
263526.2123125071
 20
1991282.538549618
 10
263528.7299827967
 20
1991283.85478584
 10
263529.6766232908
 20
1991286.846966312
 10
263530.0538540616
 20
1991287.146401142
 10
263529.6953453142
 20
1991290.148919031
 10
263524.5687430531
 20
1991298.124941434
 10
263521.8792605578
 20
1991301.402560517
 10
263520.0013221371
 20
1991302.976768302
 10
263509.6377411402
 20
1991314.954469165
  0
LWPOLYLINE
  5
66
330
2
100
AcDbEntity
  8
احواش
100
AcDbPolyline
 90
       13
 70
     1
 43
0.2
 10
263477.5149456713
 20
1991246.734527592
 10
263477.8638103367
 20
1991248.015454194
 10
263480.2279952847
 20
1991247.526310188
 10
263486.4265888604
 20
1991244.826687135
 10
263494.3226349862
 20
1991231.014539696
 10
263481.9915558891
 20
1991225.951799229
 10
263482.2089266428
 20
1991225.422359497
 10
263474.8926031852
 20
1991223.113733361
 10
263470.5523293372
 20
1991222.895997501
 10
263465.9236901956
 20
1991222.663795396
 10
263466.9971871274
 20
1991228.962912699
 10
263468.2092090308
 20
1991233.427673357
 10
263474.5118374868
 20
1991248.318978016
  0
LWPOLYLINE
  5
67
330
2
100
AcDbEntity
  8
احواش
100
AcDbPolyline
 90
       20
 70
     1
 43
0.2
 10
263481.03724002
 20
1991267.10799531
 10
263491.4842191215
 20
1991253.863681613
 10
263494.0014851973
 20
1991252.250884168
 10
263503.2160849893
 20
1991240.889005963
 10
263512.5471501324
 20
1991246.020833919
 10
263516.8117046784
 20
1991247.675388615
 10
263515.347328228
 20
1991250.891693184
 10
263518.1676194065
 20
1991252.283017676
 10
263513.5461844708
 20
1991260.775863592
 10
263518.2734462987
 20
1991262.411348025
 10
263517.4552660523
 20
1991264.319415565
 10
263516.2961780516
 20
1991265.727751355
 10
263511.9552788906
 20
1991268.044686453
 10
263512.2052768192
 20
1991268.498988474
 10
263510.8939746711
 20
1991268.989265022
 10
263508.0689288569
 20
1991268.93057563
 10
263506.0689372448
 20
1991265.523312842
 10
263505.0686000987
 20
1991266.131521462
 10
263503.285296391
 20
1991263.685704455
 10
263487.9606410232
 20
1991274.202435793
  0
LWPOLYLINE
  5
68
330
2
100
AcDbEntity
  8
احواش
100
AcDbPolyline
 90
       14
 70
     1
 43
0.2
 10
263529.6766232908
 20
1991286.846966312
 10
263530.8626160174
 20
1991285.238267337
 10
263543.9362835548
 20
1991276.592404931
 10
263547.3460075297
 20
1991277.968265896
 10
263547.8140172027
 20
1991278.271880186
 10
263558.5240047299
 20
1991285.99128
 10
263555.2255014719
 20
1991291.17115931
 10
263555.9104740797
 20
1991291.631457973
 10
263551.5312880534
 20
1991298.860346409
 10
263551.3271378072
 20
1991299.906460814
 10
263548.3426852498
 20
1991303.265491789
 10
263545.8424790455
 20
1991301.905695201
 10
263529.6953453142
 20
1991290.148919031
 10
263530.0538540616
 20
1991287.146401142
  0
LWPOLYLINE
  5
69
330
2
100
AcDbEntity
  8
احواش
100
AcDbPolyline
 90
       14
 70
     1
 43
0.2
 10
263467.8180513003
 20
1991359.138600684
 10
263467.3824614948
 20
1991365.917806751
 10
263467.758333937
 20
1991366.26602245
 10
263467.4832151115
 20
1991369.275455616
 10
263471.3650401107
 20
1991369.764296159
 10
263471.3507831868
 20
1991369.959414491
 10
263477.3383638847
 20
1991370.488000541
 10
263484.0596112211
 20
1991371.751219635
 10
263485.9935193272
 20
1991362.784712708
 10
263486.3719693207
 20
1991361.860100817
 10
263486.3719693207
 20
1991359.275391595
 10
263480.9114964298
 20
1991358.939013753
 10
263476.761843393
 20
1991359.420413627
 10
263473.4864856201
 20
1991359.854682645
  0
LWPOLYLINE
  5
6A
330
2
100
AcDbEntity
  8
احواش
100
AcDbPolyline
 90
       16
 70
     1
 43
0.2
 10
263576.5467036833
 20
1990730.760363499
 10
263581.6170334582
 20
1990710.802468278
 10
263577.9288574107
 20
1990709.178143356
 10
263578.7508285803
 20
1990707.269585665
 42
-0.2180630776226053
 10
263578.7354876271
 20
1990706.594933987
 42
-0.1996373739548154
 10
263578.2694579912
 20
1990706.182416621
 10
263563.3566730291
 20
1990699.37955804
 42
-0.1351754179393362
 10
263562.8842202556
 20
1990699.303674374
 42
-0.0305958889641434
 10
263562.6395558277
 20
1990699.345833526
 10
263560.5303918449
 20
1990698.325609665
 10
263551.7070642924
 20
1990716.240626886
 42
-0.1218825758759576
 10
263551.4898822933
 20
1990717.234833423
 10
263550.9966044858
 20
1990729.471487324
 10
263555.5671179405
 20
1990729.200591854
 10
263563.0333913846
 20
1990728.914939278
 42
0.0740019857054031
 10
263564.5220737664
 20
1990729.078596032
  0
LWPOLYLINE
  5
6B
330
2
100
AcDbEntity
  8
احواش
100
AcDbPolyline
 90
       42
 70
     1
 43
0.2
 10
263597.4060989464
 20
1991086.183493521
 10
263597.9622434847
 20
1991087.711590835
 10
263597.9622434847
 20
1991087.711590835
 10
263585.436950151
 20
1991093.02588226
 10
263584.1222500706
 20
1991093.597642578
 42
0.0104601156382553
 10
263583.3110751211
 20
1991091.623984539
 42
-0.0725435243401356
 10
263582.4390731428
 20
1991090.079088725
 42
0.0290613529043669
 10
263581.3817285949
 20
1991088.535525564
 42
-0.4205590417147749
 10
263581.1745652426
 20
1991088.486558981
 42
0.3932402327708647
 10
263580.9961403676
 20
1991088.453125787
 42
0.002772108370188
 10
263580.7233309238
 20
1991088.079501925
 42
0.030789097561176
 10
263580.1074673909
 20
1991087.104968262
 42
0.0121170093066046
 10
263579.8986823861
 20
1991086.701761622
 42
-0.358801308790723
 10
263579.7082970424
 20
1991086.61485072
 42
0.131114621616519
 10
263579.417470803
 20
1991086.61485072
 42
-0.0106902893410529
 10
263578.9270593893
 20
1991086.495170359
 42
0.0797359021351603
 10
263577.6896263428
 20
1991086.005055065
 42
0.189274659091401
 10
263577.425497538
 20
1991085.665023955
 42
0.0181920679232008
 10
263577.2829374087
 20
1991085.106518599
 42
0.2205557501534928
 10
263577.3570704638
 20
1991084.775973375
 42
0.0385556670121861
 10
263577.8075648425
 20
1991084.274459737
 42
-0.2716586290424532
 10
263577.9740712199
 20
1991083.691946395
 42
-0.005726135818569
 10
263577.4587849086
 20
1991081.782245153
 42
-0.0034307904380985
 10
263577.129144933
 20
1991080.643877261
 10
263578.6823875319
 20
1991080.291212805
 42
0.0716363783323724
 10
263579.3050197781
 20
1991080.241147289
 42
-0.0057931724166604
 10
263580.7005814915
 20
1991080.312670097
 42
-0.0198121808681517
 10
263581.7554877134
 20
1991080.312670097
 42
-0.0796810959726563
 10
263582.750275047
 20
1991080.112419267
 42
-0.0627690989645719
 10
263583.4598811968
 20
1991079.740239579
 42
0.0446551243383135
 10
263584.3769513268
 20
1991079.216172808
 42
-0.036206132628116
 10
263585.3144802116
 20
1991078.701197799
 42
-0.0494319445789313
 10
263586.2324180659
 20
1991077.968771067
 42
0.0081679910716344
 10
263587.5958097678
 20
1991076.683506689
 42
-0.0229104861297823
 10
263588.5418752765
 20
1991075.737462143
 42
0.0522917675279041
 10
263588.8472619472
 20
1991075.465969418
 42
0.0001878078781092
 10
263590.4031423511
 20
1991074.35086667
 42
0.0524656135124907
 10
263591.1925888694
 20
1991073.902378253
 42
0.1121362703635572
 10
263592.0046209406
 20
1991073.747502809
 42
0.0060043925690629
 10
263592.4184668854
 20
1991073.76692055
 10
263593.6845033799
 20
1991077.90286428
 10
263594.103811317
 20
1991077.774511675
  0
LWPOLYLINE
  5
6C
330
2
100
AcDbEntity
  8
احواش
100
AcDbPolyline
 90
       71
 70
     1
 43
0.2
 10
263600.2969631553
 20
1990948.473101554
 42
0.0177234082775031
 10
263600.2969631553
 20
1990948.473101554
 42
0.322208972530187
 10
263600.2969631553
 20
1990948.473101554
 42
-0.0154595016525551
 10
263600.2969631553
 20
1990948.473101554
 42
-0.7835643907853932
 10
263600.2969631553
 20
1990948.473101554
 10
263600.2969631553
 20
1990948.473101554
 10
263600.2969631553
 20
1990948.473101554
 10
263600.2969631553
 20
1990948.473101554
 10
263600.2969631553
 20
1990948.473101554
 10
263601.9346492461
 20
1990953.107469062
 10
263592.2407242572
 20
1990957.696972396
 10
263590.7562101877
 20
1990958.336548041
 10
263587.8143567722
 20
1990959.529325978
 10
263583.6852586845
 20
1990949.310191552
 10
263580.7139393634
 20
1990944.005188578
 10
263579.8126424058
 20
1990945.339391153
 10
263579.236386831
 20
1990945.882475485
 10
263578.8083127753
 20
1990946.19515911
 10
263578.1497378145
 20
1990946.409102784
 10
263577.672272127
 20
1990946.655958277
 10
263577.1948064396
 20
1990946.820528606
 10
263576.7996601383
 20
1990947.100300412
 10
263576.1904768092
 20
1990947.297784806
 10
263575.6142245463
 20
1990947.561097332
 10
263574.8897907646
 20
1990947.626925464
 10
263574.3135385018
 20
1990947.758581727
 10
263573.7208223619
 20
1990947.840866891
 10
263573.1116390327
 20
1990947.840866891
 10
263572.5156042838
 20
1990947.413527885
 10
263571.1789666425
 20
1990946.194226477
 10
263570.1417092576
 20
1990945.568859228
 10
263568.2483070731
 20
1990944.614346827
 10
263567.9451154152
 20
1990944.033324492
 10
263567.1379753951
 20
1990942.486559049
 10
263575.5415889249
 20
1990936.261143749
 10
263575.5415889249
 20
1990936.261143749
 10
263575.7608984112
 20
1990936.436119406
 10
263576.3809446941
 20
1990936.009078705
 42
-0.0506426917589861
 10
263577.8210594315
 20
1990934.785420611
 42
-0.0904513016767992
 10
263578.1961872478
 20
1990934.21889026
 42
0.1885583353807223
 10
263579.655040374
 20
1990932.735911543
 10
263579.2652491546
 20
1990931.923614246
 10
263582.5164087194
 20
1990930.24068536
 10
263582.2832922924
 20
1990929.790340306
 10
263586.178691809
 20
1990927.237033326
 10
263585.810974815
 20
1990926.676033567
 10
263588.7268672139
 20
1990924.875676867
 10
263588.6464312476
 20
1990924.675806082
 10
263590.2194003436
 20
1990923.524859039
 10
263590.5681798279
 20
1990924.0015268
 10
263590.9309763412
 20
1990923.337714673
 42
0.0321973605828239
 10
263591.626342405
 20
1990922.239724739
 42
0.0647170227267977
 10
263592.1225742191
 20
1990921.715714665
 42
0.045504261607192
 10
263593.040141571
 20
1990921.098132407
 42
0.0349369565523495
 10
263594.1168706703
 20
1990920.602199002
 42
0.0535379212420786
 10
263594.5236900935
 20
1990920.496234646
 10
263594.3354797519
 20
1990919.552670568
 10
263601.1665307739
 20
1990917.134730429
 10
263601.476270614
 20
1990920.98554998
 10
263601.2532592383
 20
1990921.307483245
 10
263601.6249421369
 20
1990925.913606962
 10
263599.6047281578
 20
1990926.076624509
 10
263600.5475747868
 20
1990931.696109669
 10
263601.5491531239
 20
1990936.925997719
 10
263596.7539642611
 20
1990938.15860356
 10
263600.2969631553
 20
1990948.473101554
 10
263600.2969631553
 20
1990948.473101554
 10
263600.2969631553
 20
1990948.473101554
 10
263600.2969631553
 20
1990948.473101554
 42
0.0706944691924063
 10
263600.2969631553
 20
1990948.473101554
 42
0.4883710235630909
 10
263600.2969631553
 20
1990948.473101554
 42
0.0440626722131548
  0
LWPOLYLINE
  5
6D
330
2
100
AcDbEntity
  8
احواش
100
AcDbPolyline
 90
       26
 70
     1
 43
0.2
 10
263614.6675808661
 20
1991014.632625022
 10
263614.6675808661
 20
1991014.632625022
 10
263608.1841065009
 20
1991016.98362821
 10
263599.3713622874
 20
1991019.34711293
 10
263593.1274073668
 20
1991020.363691473
 10
263589.0853185415
 20
1991020.947820627
 10
263588.0726744459
 20
1991018.213160799
 10
263592.5579381693
 20
1991016.765367863
 10
263591.9669473804
 20
1991014.932126155
 10
263594.8131674803
 20
1991013.859727319
 10
263595.357943643
 20
1991015.547145162
 10
263600.9212343769
 20
1991013.751058799
 10
263600.9212343769
 20
1991013.303359187
 10
263605.387729322
 20
1991011.407218199
 10
263604.7948318796
 20
1991009.695426093
 10
263605.6044943416
 20
1991009.32855539
 10
263603.2363922579
 20
1991003.610625278
 10
263609.5674407621
 20
1991000.995381845
 10
263609.5674407621
 20
1991000.995381845
 10
263609.5674407621
 20
1991000.995381845
 10
263609.5674407621
 20
1991000.995381845
 42
0.0386058474159395
 10
263610.2530537474
 20
1991002.81838486
 42
0.0225513372015935
 10
263610.6326493193
 20
1991003.83578807
 42
0.0207266123868662
 10
263610.8994224966
 20
1991004.797600553
 10
263612.7757400338
 20
1991009.495622474
 10
263614.6675808661
 20
1991014.632625022
  0
LWPOLYLINE
  5
6E
330
2
100
AcDbEntity
  8
احواش
100
AcDbPolyline
 90
       28
 70
     1
 43
0.2
 10
263567.1509793917
 20
1990782.945739344
 42
0.008744003459031
 10
263567.6175687083
 20
1990784.808705579
 42
0.0533755638153531
 10
263567.8104745578
 20
1990786.391621341
 42
0.0656179756839347
 10
263567.7190944436
 20
1990787.172931506
 42
0.1259584662070138
 10
263567.2114459028
 20
1990788.106445066
 10
263566.8154836105
 20
1990788.53261547
 10
263565.9395543786
 20
1990789.432156304
 10
263565.1092391841
 20
1990788.274503449
 10
263562.8438088841
 20
1990789.07358967
 10
263559.3277834198
 20
1990789.770229477
 10
263559.4465265239
 20
1990790.212655942
 10
263557.0192582639
 20
1990791.223885318
 42
-0.005993347499735
 10
263553.0418222133
 20
1990784.525050426
 42
0.1264670896266825
 10
263552.1907620287
 20
1990781.736308111
 42
-0.1025770420230587
 10
263550.8244056004
 20
1990776.363715002
 42
-0.0208508597694699
 10
263548.1624786877
 20
1990771.434711179
 42
0.12688401123529
 10
263547.9879720188
 20
1990770.837862263
 42
0.2775936398813765
 10
263548.4443610879
 20
1990770.021026661
 10
263555.5219523088
 20
1990765.971252685
 10
263559.7803123143
 20
1990763.937028135
 42
0.2302488554102005
 10
263560.7087632768
 20
1990764.079781603
 42
0.0839893316105468
 10
263562.5388734123
 20
1990765.864188709
 42
0.1289345008871518
 10
263563.1914260536
 20
1990767.526850178
 42
-0.0605551997615714
 10
263563.6372523542
 20
1990769.360477814
 42
0.0563367626447571
 10
263564.7808868246
 20
1990773.897582669
 42
-0.1625156468329447
 10
263565.2558339876
 20
1990774.864504702
 42
0.1396603158434875
 10
263566.3760237801
 20
1990776.908835394
 42
0.0527131384874449
 10
263566.7550171054
 20
1990780.094463451
 42
-0.0625338459870662
  0
LWPOLYLINE
  5
6F
330
2
100
AcDbEntity
  8
احواش
100
AcDbPolyline
 90
       41
 70
     1
 43
0.2
 10
263594.457598207
 20
1990779.612921635
 42
0.0533707514663158
 10
263594.2416896571
 20
1990781.599723503
 42
-0.0868605476455128
 10
263594.044080967
 20
1990786.34710218
 42
-0.0831684672498191
 10
263594.4799950504
 20
1990787.768162361
 42
-0.0976002907454263
 10
263595.0093203587
 20
1990788.452759647
 42
0.0824389795121953
 10
263595.6320568919
 20
1990789.209967438
 10
263595.9887030341
 20
1990789.8274781
 10
263594.2092370194
 20
1990790.355540275
 10
263588.4756418796
 20
1990792.833953882
 10
263588.7784159454
 20
1990793.492224243
 10
263586.5382634151
 20
1990794.603301164
 42
-0.0115878550269268
 10
263586.3331648679
 20
1990794.305610015
 42
-0.0672014142501157
 10
263585.3948216342
 20
1990793.319646824
 10
263583.0407481169
 20
1990789.511619125
 42
-0.2476316636688063
 10
263580.1517609883
 20
1990786.384699635
 42
-0.031447951119764
 10
263576.6648356722
 20
1990785.395007882
 42
0.1532280341549671
 10
263573.972928772
 20
1990783.861678959
 42
0.0560318868819506
 10
263571.9209260075
 20
1990781.088218336
 42
0.0473579928507366
 10
263570.6206477164
 20
1990778.255979385
 42
-0.038156917121126
 10
263570.1983356184
 20
1990777.28968435
 42
0.0581196122204372
 10
263569.7195099777
 20
1990776.063153354
 42
-0.0766701408041583
 10
263569.2860838806
 20
1990775.063539739
 42
0.0818973711235776
 10
263568.9304508106
 20
1990774.219419577
 42
-0.0035591443161233
 10
263568.1949156298
 20
1990771.245031684
 42
-0.0594871414500047
 10
263567.4790360379
 20
1990769.390416444
 42
0.0695747720058491
 10
263567.2526789384
 20
1990768.766995363
 42
-0.1001411187560775
 10
263566.3388182035
 20
1990766.658492805
 42
0.1415939429432711
 10
263566.1244590582
 20
1990766.027069063
 42
-0.0003165751764606
 10
263566.0564193351
 20
1990764.567811396
 42
0.1289176034763355
 10
263566.2879709131
 20
1990763.47713688
 10
263567.3132497365
 20
1990761.436631105
 10
263571.8007428569
 20
1990758.282611423
 10
263578.665350527
 20
1990753.691854353
 10
263580.8869882746
 20
1990760.314788682
 10
263589.4382173005
 20
1990758.345978758
 10
263590.4742873304
 20
1990760.7814713
 42
0.1319444318458944
 10
263590.6787590887
 20
1990763.192663706
 42
-0.1425869846901183
 10
263590.9706083324
 20
1990765.948999847
 42
-0.0465789671823208
 10
263592.6217771247
 20
1990769.10636127
 42
0.08194584713209
 10
263593.7162179963
 20
1990771.614774446
 42
0.0456143849912054
 10
263594.3250148534
 20
1990775.467592144
 42
0.0167911735436887
  0
LWPOLYLINE
  5
70
330
2
100
AcDbEntity
  8
احواش
100
AcDbPolyline
 90
       40
 70
     1
 43
0.2
 10
263609.9496078305
 20
1991087.760963112
 10
263611.4084480041
 20
1991086.937030114
 10
263611.9781074944
 20
1991087.766936056
 10
263612.5819631412
 20
1991087.417290965
 10
263613.0842185617
 20
1991088.118895874
 10
263615.0652466929
 20
1991087.108776078
 10
263616.9198840834
 20
1991086.191661139
 42
0.0090191662376108
 10
263617.5330560222
 20
1991085.902093319
 42
0.1513377395627047
 10
263618.0788487215
 20
1991085.834750503
 42
0.2248455359341602
 10
263618.4561883552
 20
1991086.104117276
 10
263619.7229657359
 20
1991087.989675692
 42
0.0150067438630044
 10
263621.2103048468
 20
1991090.655474555
 42
-0.0735505098670339
 10
263621.355909159
 20
1991090.881097487
 42
0.0545122836804836
 10
263621.5672737817
 20
1991091.182861444
 42
0.2123435083708538
 10
263621.5912100977
 20
1991091.468422314
 42
0.043771795512196
 10
263621.3133104622
 20
1991092.086838641
 42
-0.1685772474202629
 10
263621.2915847996
 20
1991092.209140255
 10
263617.7770723624
 20
1991094.153134517
 10
263611.5198909227
 20
1991095.570279889
 10
263608.7528867629
 20
1991091.014922938
 10
263606.67959708
 20
1991091.916016173
 10
263606.9390860718
 20
1991092.513064102
 10
263600.3927964683
 20
1991095.358212715
 10
263598.723178475
 20
1991091.516654895
 10
263599.2741064202
 20
1991091.316147006
 10
263597.4177060637
 20
1991086.215385959
 10
263594.1154184347
 20
1991077.806404111
 10
263593.6961104976
 20
1991077.934756716
 10
263592.4300740032
 20
1991073.798812987
 42
0.0118314444919832
 10
263593.2435750762
 20
1991073.866125583
 42
-0.0146291258980132
 10
263595.2519660716
 20
1991074.021001027
 42
-0.0082164440833376
 10
263596.3829396499
 20
1991074.056381718
 42
0.0071778874401443
 10
263597.9149060565
 20
1991074.101122035
 42
-0.0549956269037064
 10
263599.3524109493
 20
1991074.005633939
 42
0.002259337750333
 10
263600.3448543118
 20
1991073.833546367
 42
-0.0206720780809661
 10
263601.0203351629
 20
1991073.690624351
 42
0.1255782410192856
 10
263601.4736999131
 20
1991073.690624351
 10
263603.0165643246
 20
1991077.362016914
 42
-0.0515276785984368
 10
263604.8003313687
 20
1991080.621012819
 10
263606.5422942823
 20
1991079.868935631
  0
LWPOLYLINE
  5
71
330
2
100
AcDbEntity
  8
احواش
100
AcDbPolyline
 90
       19
 70
     1
 43
0.2
 10
263658.902796819
 20
1990902.337892395
 42
-0.0640185093713594
 10
263658.3437944517
 20
1990904.197487668
 42
-0.0132748519202899
 10
263658.0346435223
 20
1990906.430019128
 42
-0.1094791395926073
 10
263658.1942073748
 20
1990907.915051164
 42
0.0910459683805987
 10
263658.3238508324
 20
1990908.812052719
 10
263658.2900569257
 20
1990909.699642549
 10
263655.9614159002
 20
1990908.195330862
 10
263652.6524144217
 20
1990908.765915312
 42
0.0526889930909804
 10
263652.6524144195
 20
1990906.759152137
 42
-0.0812604866449323
 10
263652.5434535522
 20
1990904.845727172
 10
263652.1687921499
 20
1990903.162769039
 10
263652.4081280173
 20
1990903.036248552
 10
263651.2044197406
 20
1990899.43796861
 10
263649.9365345255
 20
1990895.845454408
 10
263654.5553019003
 20
1990894.829221059
 10
263654.7914365839
 20
1990895.978848151
 10
263660.37992575
 20
1990895.960179767
 10
263659.6610069414
 20
1990899.401459278
 42
-0.0339123053862763
 10
263659.4014319959
 20
1990900.613659194
 42
0.0692912382086715
  0
LWPOLYLINE
  5
72
330
2
100
AcDbEntity
  8
احواش
100
AcDbPolyline
 90
       32
 70
     1
 43
0.2
 10
263658.3299441643
 20
1990919.210074874
 42
0.053398204335154
 10
263658.5228450478
 20
1990922.154899437
 42
-0.0978968325987276
 10
263658.9297524877
 20
1990924.778168005
 42
0.066048382442881
 10
263659.3805150327
 20
1990926.821202001
 42
-0.0654862840528633
 10
263659.6094743375
 20
1990927.864485296
 42
0.1142944377372407
 10
263659.6998264813
 20
1990928.618751361
 42
-0.0159655547448519
 10
263659.6568900937
 20
1990929.179263563
 42
0.0304939218977369
 10
263659.3691775618
 20
1990931.896444864
 42
-0.051236182780155
 10
263659.3510813097
 20
1990932.178461731
 42
0.1090261502083881
 10
263659.2604163053
 20
1990932.679860756
 42
-0.094541547293535
 10
263659.0211841492
 20
1990933.81583889
 42
0.0552074989607488
 10
263658.9029656644
 20
1990934.724728555
 42
0.0493432349796859
 10
263658.6309607191
 20
1990935.497970885
 10
263658.3770867883
 20
1990936.041657495
 10
263656.8241771185
 20
1990935.397195343
 10
263655.6980817748
 20
1990935.659791578
 10
263654.9723742497
 20
1990932.808718689
 10
263655.3768779683
 20
1990932.661955425
 10
263654.9868821815
 20
1990930.503824745
 42
-0.0176425662000551
 10
263654.3460538304
 20
1990927.556033583
 42
-0.0329882203265948
 10
263653.6958071885
 20
1990925.562494016
 10
263652.5549093357
 20
1990922.095944621
 10
263648.0694992809
 20
1990923.088289802
 10
263647.1390485393
 20
1990919.560671584
 10
263646.128918456
 20
1990916.511390784
 10
263649.6069352664
 20
1990915.476698697
 10
263648.4165729767
 20
1990909.985119578
 10
263652.6524144217
 20
1990908.765915312
 10
263655.9614159004
 20
1990908.195330862
 10
263658.2900569257
 20
1990909.699642549
 42
-0.053318238202328
 10
263658.3415994617
 20
1990915.455188094
 42
0.0720234809851432
 10
263658.3299441643
 20
1990915.866809432
 42
-0.0862663825428191
  0
LWPOLYLINE
  5
73
330
2
100
AcDbEntity
  8
احواش
100
AcDbPolyline
 90
       25
 70
     1
 43
0.2
 10
263445.4438994827
 20
1991045.572921629
 10
263444.3946969948
 20
1991042.310680134
 10
263445.3613937453
 20
1991041.999771013
 10
263444.4979299703
 20
1991039.887341922
 10
263447.7258125997
 20
1991038.567932086
 10
263446.7389676345
 20
1991035.660620902
 10
263445.0875918823
 20
1991036.42538841
 10
263444.9134140984
 20
1991036.049283298
 10
263443.837937287
 20
1991036.547346636
 10
263444.0402964245
 20
1991036.984304234
 10
263442.4869107121
 20
1991037.70369164
 10
263441.2337599086
 20
1991033.876348612
 42
-0.0387604293250766
 10
263441.0120168519
 20
1991033.342829238
 42
0.1975521222496192
 10
263440.8546389335
 20
1991031.411384232
 42
-0.1556280483406493
 10
263440.8546389335
 20
1991031.103104918
 42
0.0705766522135852
 10
263440.5961964558
 20
1991029.577956883
 42
-0.026077389794893
 10
263440.5458401043
 20
1991028.942530064
 42
-0.0935648371263433
 10
263440.0925920266
 20
1991027.564721867
 10
263441.8267521806
 20
1991026.684973717
 10
263440.280147752
 20
1991023.110588188
 10
263434.7194449374
 20
1991025.610669294
 10
263424.3831287054
 20
1991029.422758083
 10
263428.2258158382
 20
1991039.448535345
 10
263427.9186780976
 20
1991039.582029042
 10
263433.2855981501
 20
1991050.983801216
  0
LWPOLYLINE
  5
74
330
2
100
AcDbEntity
  8
احواش
100
AcDbPolyline
 90
       10
 70
     1
 43
0.2
 10
263624.5650342116
 20
1990986.962963663
 10
263620.7426238157
 20
1990988.255066993
 10
263621.2166466558
 20
1990989.657361833
 10
263611.6652915871
 20
1990992.886041229
 10
263610.1941771843
 20
1990988.534064993
 10
263607.6486167761
 20
1990980.937837985
 10
263617.1376196442
 20
1990977.883992666
 10
263616.5585532169
 20
1990976.050563158
 10
263620.6793960726
 20
1990974.903223949
 10
263620.6793960726
 20
1990974.903223949
  0
LWPOLYLINE
  5
75
330
2
100
AcDbEntity
  8
احواش
100
AcDbPolyline
 90
       33
 70
     1
 43
0.2
 10
263526.229504365
 20
1990986.899022393
 10
263524.7795376538
 20
1990982.219640297
 10
263522.5007368173
 20
1990975.119577246
 10
263519.387586714
 20
1990964.578964963
 10
263524.4131980601
 20
1990963.050746042
 10
263524.131050293
 20
1990961.832903829
 10
263528.1306243821
 20
1990960.389107105
 10
263532.5911628373
 20
1990958.624935537
 10
263533.5627032952
 20
1990958.376335856
 10
263539.1610629071
 20
1990956.548966716
 10
263539.9650375896
 20
1990956.286540108
 10
263542.1241630242
 20
1990956.286540108
 10
263541.4936098867
 20
1990954.919939446
 10
263544.4777248005
 20
1990953.438965943
 10
263544.9630490722
 20
1990954.205851735
 10
263551.7047367995
 20
1990949.778574726
 10
263553.8929551186
 20
1990953.407592773
 10
263547.0087328953
 20
1990958.160191467
 10
263546.5738795331
 20
1990957.324634823
 10
263543.372143492
 20
1990958.870802757
 10
263541.9905105297
 20
1990959.433046402
 10
263542.2531098203
 20
1990961.348986569
 10
263542.8653314433
 20
1990962.316374035
 42
0.0654180572777344
 10
263543.1218018898
 20
1990962.870349268
 42
0.0323248856829787
 10
263543.4692803541
 20
1990964.300767794
 42
-0.0095039076491347
 10
263544.1629771464
 20
1990967.856264242
 42
0.0334102728464677
 10
263544.6304467611
 20
1990971.059887335
 10
263545.6726284902
 20
1990975.120655189
 10
263546.0963779251
 20
1990974.911103803
 10
263547.5787317731
 20
1990979.998015401
 10
263543.148150192
 20
1990981.792490551
 10
263539.0284049331
 20
1990983.310565105
 10
263538.8771649641
 20
1990982.900130622
  0
LWPOLYLINE
  5
76
330
2
100
AcDbEntity
  8
احواش
100
AcDbPolyline
 90
       21
 70
     1
 43
0.2
 10
263587.0563848511
 20
1990959.915350925
 10
263582.9912836799
 20
1990950.374857153
 10
263582.5145021498
 20
1990950.618739787
 10
263580.9821274409
 20
1990947.284894432
 10
263576.7771429695
 20
1990950.002711774
 42
0.0292679519606893
 10
263576.3034872316
 20
1990950.270944233
 42
0.2048964718551863
 10
263575.9233597842
 20
1990950.290940503
 10
263572.1788896301
 20
1990949.567949575
 42
0.0377000195514658
 10
263571.4671417959
 20
1990949.373953164
 42
0.1700983586675888
 10
263571.0133454772
 20
1990949.00815846
 10
263570.3152300254
 20
1990948.388378535
 42
-0.3037019414183898
 10
263570.1344986739
 20
1990948.363585834
 10
263565.5624299829
 20
1990950.177355338
 10
263565.9769165984
 20
1990957.491197988
 10
263562.6662115072
 20
1990958.573068906
 10
263563.3789739966
 20
1990961.295603296
 10
263559.1080942214
 20
1990962.313979997
 10
263562.5683791154
 20
1990970.516085717
 10
263572.4170144574
 20
1990966.677232174
 10
263572.6055829548
 20
1990967.161007434
 10
263575.4935715147
 20
1990965.767548112
  0
LWPOLYLINE
  5
77
330
2
100
AcDbEntity
  8
احواش
100
AcDbPolyline
 90
       50
 70
     1
 43
0.2
 10
263577.9193664201
 20
1990915.874355406
 42
-0.0294591503548502
 10
263577.3360297372
 20
1990917.339619083
 42
0.0852706898287616
 10
263576.6869695873
 20
1990918.556174449
 42
-0.0155787122167735
 10
263575.1021273896
 20
1990920.734034002
 42
-0.0157257810797889
 10
263573.6430040716
 20
1990923.028224651
 10
263573.1326287104
 20
1990923.813240218
 10
263572.5590007123
 20
1990924.553296547
 10
263572.1141730852
 20
1990924.960212428
 10
263571.5802185626
 20
1990925.240113696
 10
263571.5345999958
 20
1990925.372333079
 10
263571.8809410644
 20
1990925.987663354
 10
263571.9126956127
 20
1990926.259311219
 10
263571.759076075
 20
1990926.485589702
 10
263570.8038306979
 20
1990927.140717839
 10
263569.8270745389
 20
1990927.763320451
 10
263569.6830895421
 20
1990927.784870801
 10
263569.5676828675
 20
1990927.696116104
 10
263569.3314307629
 20
1990927.3412855
 10
263569.0452582224
 20
1990927.025334409
 10
263568.5359601326
 20
1990926.514651892
 10
263567.7628839094
 20
1990925.655779667
 10
263566.5152647827
 20
1990924.453603483
 10
263566.4273346877
 20
1990924.298961141
 10
263566.3693558289
 20
1990924.103827032
 10
263566.4672159532
 20
1990923.809281541
 10
263566.8032128555
 20
1990923.571292567
 10
263567.4212315656
 20
1990923.449190311
 10
263569.1992327846
 20
1990922.903614041
 10
263571.6983440568
 20
1990921.873904966
 10
263571.5137340215
 20
1990919.730237741
 10
263570.8322049906
 20
1990919.858434681
 10
263565.5966091314
 20
1990920.724052579
 10
263565.786803918
 20
1990921.874425092
 10
263563.0499147957
 20
1990922.481129774
 10
263562.7754420958
 20
1990921.242963381
 10
263558.9131495156
 20
1990921.925583585
 10
263556.4563094368
 20
1990905.298070715
 10
263554.5498297495
 20
1990893.700785488
 10
263560.7384813476
 20
1990892.7754796
 10
263565.1124058901
 20
1990892.231310311
 42
-0.0289191444298716
 10
263568.0027491852
 20
1990891.700581891
 42
0.0393643007319831
 10
263574.2595626895
 20
1990890.686157649
 42
-0.0310755781811518
 10
263578.743863713
 20
1990890.035113183
 42
0.0425999087230924
 10
263581.7283490011
 20
1990889.671737585
 42
0.3806688462077339
 10
263581.8789761898
 20
1990889.796423898
 10
263582.3359883107
 20
1990895.658874082
 42
0.056302170198846
 10
263582.2148106684
 20
1990899.150922274
 42
0.0198958895749038
 10
263581.6452045603
 20
1990902.162027995
 42
-0.0093945701776575
 10
263580.400991905
 20
1990908.058554565
 42
0.0296320879954795
 10
263579.3402845373
 20
1990912.240252641
 42
0.0325403158390683
  0
LWPOLYLINE
  5
78
330
2
100
AcDbEntity
  8
احواش
100
AcDbPolyline
 90
       12
 70
     1
 43
0.2
 10
263528.5897394574
 20
1990953.424112884
 10
263538.2050532186
 20
1990949.750096962
 10
263538.632558514
 20
1990950.55550879
 10
263548.8458641783
 20
1990945.480337585
 10
263551.0918114641
 20
1990943.901706002
 10
263550.6862605567
 20
1990943.324721499
 10
263555.7209054093
 20
1990939.631027448
 10
263548.2622329182
 20
1990929.483442567
 10
263547.7378444244
 20
1990929.706451535
 10
263532.9598017704
 20
1990899.847875435
 10
263509.8534699104
 20
1990909.934911643
 10
263525.6087645487
 20
1990946.54065381
  0
LWPOLYLINE
  5
79
330
2
100
AcDbEntity
  8
احواش
100
AcDbPolyline
 90
       55
 70
     1
 43
0.2
 10
263604.1286036397
 20
1990909.098715753
 42
0.0838425186050739
 10
263603.5845111982
 20
1990909.692365993
 42
-0.0126706996471662
 10
263602.3599533945
 20
1990910.696825525
 42
0.0207630111655838
 10
263601.010404809
 20
1990911.76775824
 42
-0.0304983758248132
 10
263599.1232199344
 20
1990913.326121978
 42
0.0371121157867954
 10
263597.410915779
 20
1990914.702434423
 42
-0.0310435485547044
 10
263596.5656917006
 20
1990915.365102295
 10
263594.1830360031
 20
1990912.83989842
 10
263592.4001887689
 20
1990914.667367834
 42
-0.1696878100237582
 10
263592.1441847366
 20
1990915.215606569
 42
-0.201249243066579
 10
263592.3514922677
 20
1990915.894177226
 42
0.3851425264121583
 10
263592.337435623
 20
1990916.232107315
 42
-0.2059272818167003
 10
263591.6848078148
 20
1990917.911434699
 42
0.3482216443552132
 10
263591.403641972
 20
1990918.293306639
 42
-0.2013944722626937
 10
263588.0036144996
 20
1990920.950792568
 42
-0.2490460184032438
 10
263587.9945726133
 20
1990921.366669866
 10
263588.0036144996
 20
1990921.800625697
 10
263586.7933273301
 20
1990922.177567507
 10
263585.6065408757
 20
1990923.443470127
 10
263585.3511178199
 20
1990923.697446989
 10
263585.5347630922
 20
1990923.882137975
 10
263581.5326842173
 20
1990928.747207138
 10
263580.363547858
 20
1990927.624136217
 10
263579.8414014249
 20
1990928.633764027
 10
263578.4442376931
 20
1990928.054415341
 10
263579.187112528
 20
1990926.493411059
 10
263577.8537493284
 20
1990925.351212907
 10
263582.0252583636
 20
1990920.439763775
 10
263581.1874990805
 20
1990919.728218094
 10
263583.9171155613
 20
1990913.537001991
 42
-0.0321029420825821
 10
263584.3317167347
 20
1990912.404939851
 42
-0.0282921854046561
 10
263585.5571009914
 20
1990907.178793881
 42
0.0171066954704039
 10
263586.2931923658
 20
1990903.690251094
 42
-0.0593171503182152
 10
263586.559244757
 20
1990901.549864702
 10
263586.8251744075
 20
1990898.924988653
 42
0.0334602112454228
 10
263587.1045236902
 20
1990897.276491289
 10
263588.4093538062
 20
1990893.64226736
 42
0.0404304252206943
 10
263589.1952205603
 20
1990891.908274033
 42
0.0181004626620321
 10
263591.7359497058
 20
1990887.693966076
 42
0.2256073401626903
 10
263592.2148341905
 20
1990887.401492422
 42
0.0071985421817681
 10
263594.5693413911
 20
1990887.188782411
 42
-0.1017682721746086
 10
263599.1896552965
 20
1990885.8674994
 10
263599.6552347068
 20
1990885.681378663
 10
263602.1693618876
 20
1990888.340243359
 10
263605.1129418444
 20
1990892.081309037
 10
263604.82029567
 20
1990892.63967125
 10
263605.6184282952
 20
1990893.424038111
 42
-0.0323306503725398
 10
263606.7890293583
 20
1990894.434405441
 42
-0.0386737039221482
 10
263607.4940510111
 20
1990894.886414737
 42
-0.0190611607832599
 10
263610.2667434088
 20
1990896.241840982
 42
0.4419651776500558
 10
263610.3304539309
 20
1990896.432862603
 42
-0.0381102843515755
 10
263609.2954320666
 20
1990898.664903442
 42
0.04977533176203
 10
263607.8340586679
 20
1990901.633263271
 10
263607.3840345763
 20
1990902.845648915
 10
263605.3419429582
 20
1990907.224660795
  0
LWPOLYLINE
  5
7A
330
2
100
AcDbEntity
  8
احواش
100
AcDbPolyline
 90
       24
 70
     1
 43
0.2
 10
263625.2609321509
 20
1990902.876073663
 10
263624.339297996
 20
1990902.786211612
 10
263623.7214303083
 20
1990907.743903685
 10
263623.3230881648
 20
1990907.848668933
 10
263621.7647333754
 20
1990912.365285734
 10
263618.5646256921
 20
1990913.140602883
 10
263618.4712528731
 20
1990912.827009056
 10
263614.127219737
 20
1990913.762542873
 10
263613.1190944159
 20
1990910.092746808
 10
263608.8416439305
 20
1990910.074317316
 10
263608.8985709923
 20
1990906.986351714
 42
0.0653662701507778
 10
263609.0644998349
 20
1990905.880837066
 42
0.094097238590822
 10
263609.3631521129
 20
1990905.288753605
 10
263610.4170514721
 20
1990903.203526167
 42
-0.0381553234587587
 10
263611.1982704511
 20
1990901.312123839
 42
-0.0273737215076514
 10
263612.2438316364
 20
1990897.392600012
 42
0.0106414831760131
 10
263613.1814056959
 20
1990893.337856944
 10
263614.0974101516
 20
1990893.688455987
 10
263616.4690519313
 20
1990892.910774047
 10
263622.8935208284
 20
1990891.458236789
 10
263623.0908221526
 20
1990892.527590192
 10
263623.6300786169
 20
1990892.618425735
 42
-0.0635475309124983
 10
263625.7507732744
 20
1990892.703203069
 42
0.0435121587046332
 10
263626.9504802106
 20
1990892.703203069
  0
LWPOLYLINE
  5
7B
330
2
100
AcDbEntity
  8
احواش
100
AcDbPolyline
 90
       24
 70
     1
 43
0.2
 10
263606.8964436948
 20
1990822.937227341
 10
263607.4288921506
 20
1990823.567903688
 10
263611.1560558886
 20
1990820.946654208
 10
263609.503596152
 20
1990818.59701597
 10
263608.7895197567
 20
1990819.099213488
 10
263607.9885480923
 20
1990817.962885636
 10
263608.2520388607
 20
1990817.777156985
 10
263605.4089838404
 20
1990811.420817126
 10
263607.1376681018
 20
1990810.647613588
 10
263606.2652954808
 20
1990808.66312423
 10
263604.5115529186
 20
1990809.434061594
 10
263602.222991319
 20
1990804.079892189
 10
263601.6181728417
 20
1990802.664898341
 10
263595.7729187456
 20
1990804.342688972
 10
263590.3327471396
 20
1990806.029929632
 10
263585.197274829
 20
1990807.580221327
 10
263585.2572131252
 20
1990807.956774576
 10
263583.4882116728
 20
1990808.238357416
 10
263586.3560928004
 20
1990820.335347421
 10
263590.5550548028
 20
1990829.257022225
 10
263593.7836382911
 20
1990831.576084024
 10
263597.3079201019
 20
1990829.084785232
 10
263600.3486942009
 20
1990827.259266979
 10
263600.4883729337
 20
1990827.506249746
  0
ENDSEC
  0
SECTION
  2
OBJECTS
  0
DICTIONARY
  5
9
330
0
100
AcDbDictionary
281
     1
  3
ACAD_COLOR
350
2C
  3
ACAD_GROUP
350
29
  3
ACAD_LAYOUT
350
F
  3
ACAD_MATERIAL
350
B
  3
ACAD_MLINESTYLE
350
2A
  3
ACAD_PLOTSETTINGS
350
2B
  3
ACAD_PLOTSTYLENAME
350
8
  3
ACAD_TABLESTYLE
350
2D
  3
ACDB_RECOMPOSE_DATA
350
82
  3
ACDBHEADERROUNDTRIPXREC
350
7F
  3
AcDbVariableDictionary
350
7D
  0
DICTIONARY
  5
15
330
14
100
AcDbDictionary
280
     1
281
     1
  3
ACAD_LAYERFILTERS
360
16
  3
ACAD_LAYERSTATES
360
17
  3
ACLYDICTIONARY
360
19
  0
DICTIONARY
  5
3
330
2
100
AcDbDictionary
280
     1
281
     1
  3
ACAD_SORTENTS
360
7C
  0
DICTIONARY
  5
2C
102
{ACAD_REACTORS
330
9
102
}
330
9
100
AcDbDictionary
281
     1
  0
DICTIONARY
  5
29
102
{ACAD_REACTORS
330
9
102
}
330
9
100
AcDbDictionary
281
     1
  0
DICTIONARY
  5
F
102
{ACAD_REACTORS
330
9
102
}
330
9
100
AcDbDictionary
281
     1
  3
Layout1
350
13
  3
Model
350
E
  0
DICTIONARY
  5
B
102
{ACAD_REACTORS
330
9
102
}
330
9
100
AcDbDictionary
281
     1
  3
Global
350
A
  0
DICTIONARY
  5
2A
102
{ACAD_REACTORS
330
9
102
}
330
9
100
AcDbDictionary
281
     1
  3
Standard
350
31
  0
DICTIONARY
  5
2B
102
{ACAD_REACTORS
330
9
102
}
330
9
100
AcDbDictionary
281
     1
  0
ACDBDICTIONARYWDFLT
  5
8
102
{ACAD_REACTORS
330
9
102
}
330
9
100
AcDbDictionary
281
     1
  3
Normal
350
7
100
AcDbDictionaryWithDefault
340
7
  0
DICTIONARY
  5
2D
102
{ACAD_REACTORS
330
9
102
}
330
9
100
AcDbDictionary
281
     1
  3
Standard
350
32
  0
XRECORD
  5
82
102
{ACAD_REACTORS
330
9
102
}
330
9
100
AcDbXrecord
280
     1
 90
        1
330
32
  0
DICTIONARY
  5
7F
102
{ACAD_REACTORS
330
9
102
}
330
9
100
AcDbDictionary
281
     1
  0
DICTIONARY
  5
7D
102
{ACAD_REACTORS
330
9
102
}
330
9
100
AcDbDictionary
281
     1
  3
CTABLESTYLE
350
7E
  0
DICTIONARY
  5
16
102
{ACAD_REACTORS
330
15
102
}
330
15
100
AcDbDictionary
281
     1
  0
DICTIONARY
  5
17
102
{ACAD_REACTORS
330
15
102
}
330
15
100
AcDbDictionary
281
     1
1001
AcLayerTools
1000
22
1000
0
  0
DICTIONARY
  5
19
102
{ACAD_REACTORS
330
15
102
}
330
15
100
AcDbDictionary
281
     1
1001
ACAD
1000
<All
  0
SORTENTSTABLE
  5
7C
102
{ACAD_REACTORS
330
3
102
}
330
3
100
AcDbSortentsTable
330
2
331
66
  5
49
331
79
  5
36
331
6F
  5
40
331
51
  5
5E
331
5A
  5
55
331
3C
  5
73
331
33
  5
7B
331
48
  5
67
331
67
  5
48
331
7A
  5
35
331
49
  5
66
331
40
  5
6F
331
52
  5
5D
331
5B
  5
54
331
70
  5
3F
331
3D
  5
72
331
41
  5
6E
331
68
  5
47
331
7B
  5
33
331
71
  5
3E
331
53
  5
5C
331
5C
  5
53
331
3E
  5
71
331
35
  5
7A
331
4A
  5
65
331
60
  5
4F
331
69
  5
46
331
4B
  5
64
331
42
  5
6D
331
54
  5
5B
331
36
  5
79
331
5D
  5
52
331
72
  5
3D
331
3F
  5
70
331
43
  5
6C
331
6A
  5
45
331
73
  5
3C
331
55
  5
5A
331
5E
  5
51
331
37
  5
78
331
4C
  5
63
331
61
  5
4E
331
62
  5
4D
331
6B
  5
44
331
74
  5
3B
331
56
  5
59
331
38
  5
77
331
4D
  5
62
331
44
  5
6B
331
5F
  5
50
331
63
  5
4C
331
45
  5
6A
331
6C
  5
43
331
75
  5
3A
331
57
  5
58
331
39
  5
76
331
4E
  5
61
331
64
  5
4B
331
6D
  5
42
331
76
  5
39
331
58
  5
57
331
3A
  5
75
331
4F
  5
60
331
46
  5
69
331
65
  5
4A
331
78
  5
37
331
47
  5
68
331
6E
  5
41
331
77
  5
38
331
59
  5
56
331
3B
  5
74
331
50
  5
5F
  0
LAYOUT
  5
13
102
{ACAD_REACTORS
330
F
102
}
330
F
100
AcDbPlotSettings
  1

  2
none_device
  4

  6

 40
0.0
 41
0.0
 42
0.0
 43
0.0
 44
0.0
 45
0.0
 46
0.0
 47
0.0
 48
0.0
 49
0.0
140
0.0
141
0.0
142
1.0
143
1.0
 70
   688
 72
     0
 73
     0
 74
     5
  7

 75
    16
147
1.0
 76
     0
 77
     2
 78
   300
148
0.0
149
0.0
100
AcDbLayout
  1
Layout1
 70
     1
 71
     1
 10
0.0
 20
0.0
 11
12.0
 21
9.0
 12
0.0
 22
0.0
 32
0.0
 14
1.000000000000000E+20
 24
1.000000000000000E+20
 34
1.000000000000000E+20
 15
-1.000000000000000E+20
 25
-1.000000000000000E+20
 35
-1.000000000000000E+20
146
0.0
 13
0.0
 23
0.0
 33
0.0
 16
1.0
 26
0.0
 36
0.0
 17
0.0
 27
1.0
 37
0.0
 76
     0
330
10
  0
LAYOUT
  5
E
102
{ACAD_REACTORS
330
F
102
}
330
F
100
AcDbPlotSettings
  1

  2
none_device
  4

  6

 40
0.0
 41
0.0
 42
0.0
 43
0.0
 44
0.0
 45
0.0
 46
0.0
 47
0.0
 48
0.0
 49
0.0
140
0.0
141
0.0
142
1.0
143
1.0
 70
  1712
 72
     0
 73
     0
 74
     0
  7

 75
     0
147
1.0
 76
     0
 77
     2
 78
   300
148
0.0
149
0.0
100
AcDbLayout
  1
Model
 70
     1
 71
     0
 10
0.0
 20
0.0
 11
12.0
 21
9.0
 12
0.0
 22
0.0
 32
0.0
 14
30.0
 24
49.75
 34
0.0
 15
130.5
 25
163.1318914119703
 35
0.0
146
0.0
 13
0.0
 23
0.0
 33
0.0
 16
1.0
 26
0.0
 36
0.0
 17
0.0
 27
1.0
 37
0.0
 76
     0
330
2
  0
MATERIAL
  5
A
102
{ACAD_REACTORS
330
B
102
}
330
B
100
AcDbMaterial
  1
Global
  2

  0
MLINESTYLE
  5
31
102
{ACAD_REACTORS
330
2A
102
}
330
2A
100
AcDbMlineStyle
  2
STANDARD
 70
     0
  3

 62
   256
 51
90.0
 52
90.0
 71
     2
 49
0.5
 62
   256
  6
BYLAYER
 49
-0.5
 62
   256
  6
BYLAYER
  0
ACDBPLACEHOLDER
  5
7
102
{ACAD_REACTORS
330
8
102
}
330
8
  0
TABLESTYLE
  5
32
102
{ACAD_XDICTIONARY
360
80
102
}
102
{ACAD_REACTORS
330
2D
102
}
330
2D
100
AcDbTableStyle
  3
Standard
 70
     0
 71
     0
 40
0.06
 41
0.06
280
     0
281
     0
  7
Standard
140
0.18
170
     2
 62
     0
 63
   257
283
     0
 90
        4
 91
        0
  1

274
    -2
284
     1
 64
     0
275
    -2
285
     1
 65
     0
276
    -2
286
     1
 66
     0
277
    -2
287
     1
 67
     0
278
    -2
288
     1
 68
     0
279
    -2
289
     1
 69
     0
  7
Standard
140
0.25
170
     5
 62
     0
 63
   257
283
     0
 90
        4
 91
        0
  1

274
    -2
284
     1
 64
     0
275
    -2
285
     1
 65
     0
276
    -2
286
     1
 66
     0
277
    -2
287
     1
 67
     0
278
    -2
288
     1
 68
     0
279
    -2
289
     1
 69
     0
  7
Standard
140
0.18
170
     5
 62
     0
 63
   257
283
     0
 90
        4
 91
        0
  1

274
    -2
284
     1
 64
     0
275
    -2
285
     1
 65
     0
276
    -2
286
     1
 66
     0
277
    -2
287
     1
 67
     0
278
    -2
288
     1
 68
     0
279
    -2
289
     1
 69
     0
  0
DICTIONARYVAR
  5
7E
102
{ACAD_REACTORS
330
7D
102
}
330
7D
100
DictionaryVariables
280
     0
  1
STANDARD
  0
DICTIONARY
  5
80
330
32
100
AcDbDictionary
280
     1
281
     1
  3
ACAD_ROUNDTRIP_2008_TABLESTYLE_CELLSTYLEMAP
360
81
  0
CELLSTYLEMAP
  5
81
102
{ACAD_REACTORS
330
80
102
}
330
80
100
AcDbCellStyleMap
 90
        3
300
CELLSTYLE
  1
TABLEFORMAT_BEGIN
 90
        5
170
     1
 91
        0
 92
        0
 62
   257
 93
        1
300
CONTENTFORMAT
  1
CONTENTFORMAT_BEGIN
 90
        0
 91
        0
 92
        4
 93
        0
300

 40
0.0
140
1.0
 94
        5
 62
     0
340
1C
144
0.25
309
CONTENTFORMAT_END
171
     1
301
MARGIN
  1
CELLMARGIN_BEGIN
 40
0.06
 40
0.06
 40
0.06
 40
0.06
 40
0.18
 40
0.18
309
CELLMARGIN_END
 94
        6
 95
        1
302
GRIDFORMAT
  1
GRIDFORMAT_BEGIN
 90
        0
 91
        1
 62
     0
 92
       -2
340
0
 93
        0
 40
0.045
309
GRIDFORMAT_END
 95
        2
302
GRIDFORMAT
  1
GRIDFORMAT_BEGIN
 90
        0
 91
        1
 62
     0
 92
       -2
340
0
 93
        0
 40
0.045
309
GRIDFORMAT_END
 95
        4
302
GRIDFORMAT
  1
GRIDFORMAT_BEGIN
 90
        0
 91
        1
 62
     0
 92
       -2
340
0
 93
        0
 40
0.045
309
GRIDFORMAT_END
 95
        8
302
GRIDFORMAT
  1
GRIDFORMAT_BEGIN
 90
        0
 91
        1
 62
     0
 92
       -2
340
0
 93
        0
 40
0.045
309
GRIDFORMAT_END
 95
       16
302
GRIDFORMAT
  1
GRIDFORMAT_BEGIN
 90
        0
 91
        1
 62
     0
 92
       -2
340
0
 93
        0
 40
0.045
309
GRIDFORMAT_END
 95
       32
302
GRIDFORMAT
  1
GRIDFORMAT_BEGIN
 90
        0
 91
        1
 62
     0
 92
       -2
340
0
 93
        0
 40
0.045
309
GRIDFORMAT_END
309
TABLEFORMAT_END
  1
CELLSTYLE_BEGIN
 90
        1
 91
        1
300
_TITLE
309
CELLSTYLE_END
300
CELLSTYLE
  1
TABLEFORMAT_BEGIN
 90
        5
170
     1
 91
        0
 92
        0
 62
   257
 93
        1
300
CONTENTFORMAT
  1
CONTENTFORMAT_BEGIN
 90
        0
 91
        0
 92
        4
 93
        0
300

 40
0.0
140
1.0
 94
        5
 62
     0
340
1C
144
0.18
309
CONTENTFORMAT_END
171
     1
301
MARGIN
  1
CELLMARGIN_BEGIN
 40
0.06
 40
0.06
 40
0.06
 40
0.06
 40
0.18
 40
0.18
309
CELLMARGIN_END
 94
        6
 95
        1
302
GRIDFORMAT
  1
GRIDFORMAT_BEGIN
 90
        0
 91
        1
 62
     0
 92
       -2
340
0
 93
        0
 40
0.045
309
GRIDFORMAT_END
 95
        2
302
GRIDFORMAT
  1
GRIDFORMAT_BEGIN
 90
        0
 91
        1
 62
     0
 92
       -2
340
0
 93
        0
 40
0.045
309
GRIDFORMAT_END
 95
        4
302
GRIDFORMAT
  1
GRIDFORMAT_BEGIN
 90
        0
 91
        1
 62
     0
 92
       -2
340
0
 93
        0
 40
0.045
309
GRIDFORMAT_END
 95
        8
302
GRIDFORMAT
  1
GRIDFORMAT_BEGIN
 90
        0
 91
        1
 62
     0
 92
       -2
340
0
 93
        0
 40
0.045
309
GRIDFORMAT_END
 95
       16
302
GRIDFORMAT
  1
GRIDFORMAT_BEGIN
 90
        0
 91
        1
 62
     0
 92
       -2
340
0
 93
        0
 40
0.045
309
GRIDFORMAT_END
 95
       32
302
GRIDFORMAT
  1
GRIDFORMAT_BEGIN
 90
        0
 91
        1
 62
     0
 92
       -2
340
0
 93
        0
 40
0.045
309
GRIDFORMAT_END
309
TABLEFORMAT_END
  1
CELLSTYLE_BEGIN
 90
        2
 91
        1
300
_HEADER
309
CELLSTYLE_END
300
CELLSTYLE
  1
TABLEFORMAT_BEGIN
 90
        5
170
     1
 91
        0
 92
        0
 62
   257
 93
        1
300
CONTENTFORMAT
  1
CONTENTFORMAT_BEGIN
 90
        0
 91
        0
 92
        4
 93
        0
300

 40
0.0
140
1.0
 94
        2
 62
     0
340
1C
144
0.18
309
CONTENTFORMAT_END
171
     1
301
MARGIN
  1
CELLMARGIN_BEGIN
 40
0.06
 40
0.06
 40
0.06
 40
0.06
 40
0.18
 40
0.18
309
CELLMARGIN_END
 94
        6
 95
        1
302
GRIDFORMAT
  1
GRIDFORMAT_BEGIN
 90
        0
 91
        1
 62
     0
 92
       -2
340
0
 93
        0
 40
0.045
309
GRIDFORMAT_END
 95
        2
302
GRIDFORMAT
  1
GRIDFORMAT_BEGIN
 90
        0
 91
        1
 62
     0
 92
       -2
340
0
 93
        0
 40
0.045
309
GRIDFORMAT_END
 95
        4
302
GRIDFORMAT
  1
GRIDFORMAT_BEGIN
 90
        0
 91
        1
 62
     0
 92
       -2
340
0
 93
        0
 40
0.045
309
GRIDFORMAT_END
 95
        8
302
GRIDFORMAT
  1
GRIDFORMAT_BEGIN
 90
        0
 91
        1
 62
     0
 92
       -2
340
0
 93
        0
 40
0.045
309
GRIDFORMAT_END
 95
       16
302
GRIDFORMAT
  1
GRIDFORMAT_BEGIN
 90
        0
 91
        1
 62
     0
 92
       -2
340
0
 93
        0
 40
0.045
309
GRIDFORMAT_END
 95
       32
302
GRIDFORMAT
  1
GRIDFORMAT_BEGIN
 90
        0
 91
        1
 62
     0
 92
       -2
340
0
 93
        0
 40
0.045
309
GRIDFORMAT_END
309
TABLEFORMAT_END
  1
CELLSTYLE_BEGIN
 90
        3
 91
        2
300
_DATA
309
CELLSTYLE_END
  0
ENDSEC
  0
EOF
