  0
SECTION
  2
HEADER
  9
$ACADVER
  1
AC1021
  9
$ACADMAINTVER
 70
    50
  9
$DWGCODEPAGE
  3
ANSI_1256
  9
$INSBASE
 10
0.0
 20
0.0
 30
0.0
  9
$EXTMIN
 10
263180.7561145536
 20
1990583.403966136
 30
-8.576951406134256
  9
$EXTMAX
 10
263891.2363696237
 20
1991559.525594296
 30
0.00000001
  9
$LIMMIN
 10
0.0
 20
0.0
  9
$LIMMAX
 10
12.0
 20
9.0
  9
$ORTHOMODE
 70
     0
  9
$REGENMODE
 70
     1
  9
$FILLMODE
 70
     1
  9
$QTEXTMODE
 70
     0
  9
$MIRRTEXT
 70
     1
  9
$LTSCALE
 40
1.0
  9
$ATTMODE
 70
     1
  9
$TEXTSIZE
 40
0.2
  9
$TRACEWID
 40
0.05
  9
$TEXTSTYLE
  7
Standard
  9
$CLAYER
  8
مباني
  9
$CELTYPE
  6
ByLayer
  9
$CECOLOR
 62
   256
  9
$CELTSCALE
 40
1.0
  9
$DISPSILH
 70
     0
  9
$DIMSCALE
 40
1.0
  9
$DIMASZ
 40
0.18
  9
$DIMEXO
 40
0.0625
  9
$DIMDLI
 40
0.38
  9
$DIMRND
 40
0.0
  9
$DIMDLE
 40
0.0
  9
$DIMEXE
 40
0.18
  9
$DIMTP
 40
0.0
  9
$DIMTM
 40
0.0
  9
$DIMTXT
 40
0.18
  9
$DIMCEN
 40
0.09
  9
$DIMTSZ
 40
0.0
  9
$DIMTOL
 70
     0
  9
$DIMLIM
 70
     0
  9
$DIMTIH
 70
     1
  9
$DIMTOH
 70
     1
  9
$DIMSE1
 70
     0
  9
$DIMSE2
 70
     0
  9
$DIMTAD
 70
     0
  9
$DIMZIN
 70
     0
  9
$DIMBLK
  1

  9
$DIMASO
 70
     1
  9
$DIMSHO
 70
     1
  9
$DIMPOST
  1

  9
$DIMAPOST
  1

  9
$DIMALT
 70
     0
  9
$DIMALTD
 70
     2
  9
$DIMALTF
 40
25.4
  9
$DIMLFAC
 40
1.0
  9
$DIMTOFL
 70
     0
  9
$DIMTVP
 40
0.0
  9
$DIMTIX
 70
     0
  9
$DIMSOXD
 70
     0
  9
$DIMSAH
 70
     0
  9
$DIMBLK1
  1

  9
$DIMBLK2
  1

  9
$DIMSTYLE
  2
Standard
  9
$DIMCLRD
 70
     0
  9
$DIMCLRE
 70
     0
  9
$DIMCLRT
 70
     0
  9
$DIMTFAC
 40
1.0
  9
$DIMGAP
 40
0.09
  9
$DIMJUST
 70
     0
  9
$DIMSD1
 70
     0
  9
$DIMSD2
 70
     0
  9
$DIMTOLJ
 70
     1
  9
$DIMTZIN
 70
     0
  9
$DIMALTZ
 70
     0
  9
$DIMALTTZ
 70
     0
  9
$DIMUPT
 70
     0
  9
$DIMDEC
 70
     4
  9
$DIMTDEC
 70
     4
  9
$DIMALTU
 70
     2
  9
$DIMALTTD
 70
     2
  9
$DIMTXSTY
  7
Standard
  9
$DIMAUNIT
 70
     0
  9
$DIMADEC
 70
     0
  9
$DIMALTRND
 40
0.0
  9
$DIMAZIN
 70
     0
  9
$DIMDSEP
 70
    46
  9
$DIMATFIT
 70
     3
  9
$DIMFRAC
 70
     0
  9
$DIMLDRBLK
  1

  9
$DIMLUNIT
 70
     2
  9
$DIMLWD
 70
    -2
  9
$DIMLWE
 70
    -2
  9
$DIMTMOVE
 70
     0
  9
$DIMFXL
 40
1.0
  9
$DIMFXLON
 70
     0
  9
$DIMJOGANG
 40
0.7853981633974483
  9
$DIMTFILL
 70
     0
  9
$DIMTFILLCLR
 70
     0
  9
$DIMARCSYM
 70
     0
  9
$DIMLTYPE
  6

  9
$DIMLTEX1
  6

  9
$DIMLTEX2
  6

  9
$LUNITS
 70
     2
  9
$LUPREC
 70
     4
  9
$SKETCHINC
 40
0.1
  9
$FILLETRAD
 40
0.5
  9
$AUNITS
 70
     0
  9
$AUPREC
 70
     0
  9
$MENU
  1
.
  9
$ELEVATION
 40
0.0
  9
$PELEVATION
 40
0.0
  9
$THICKNESS
 40
0.0
  9
$LIMCHECK
 70
     0
  9
$CHAMFERA
 40
0.5
  9
$CHAMFERB
 40
0.5
  9
$CHAMFERC
 40
1.0
  9
$CHAMFERD
 40
0.0
  9
$SKPOLY
 70
     0
  9
$TDCREATE
 40
2455347.978969826
  9
$TDUCREATE
 40
2455347.853969827
  9
$TDUPDATE
 40
2458703.562528797
  9
$TDUUPDATE
 40
2458703.437528797
  9
$TDINDWG
 40
6.2972561921
  9
$TDUSRTIMER
 40
6.2972561690
  9
$USRTIMER
 70
     1
  9
$ANGBASE
 50
0.0
  9
$ANGDIR
 70
     0
  9
$PDMODE
 70
     0
  9
$PDSIZE
 40
0.0
  9
$PLINEWID
 40
0.2
  9
$SPLFRAME
 70
     0
  9
$SPLINETYPE
 70
     6
  9
$SPLINESEGS
 70
     8
  9
$HANDSEED
  5
106
  9
$SURFTAB1
 70
     6
  9
$SURFTAB2
 70
     6
  9
$SURFTYPE
 70
     6
  9
$SURFU
 70
     6
  9
$SURFV
 70
     6
  9
$UCSBASE
  2

  9
$UCSNAME
  2

  9
$UCSORG
 10
0.0
 20
0.0
 30
0.0
  9
$UCSXDIR
 10
1.0
 20
0.0
 30
0.0
  9
$UCSYDIR
 10
0.0
 20
1.0
 30
0.0
  9
$UCSORTHOREF
  2

  9
$UCSORTHOVIEW
 70
     0
  9
$UCSORGTOP
 10
0.0
 20
0.0
 30
0.0
  9
$UCSORGBOTTOM
 10
0.0
 20
0.0
 30
0.0
  9
$UCSORGLEFT
 10
0.0
 20
0.0
 30
0.0
  9
$UCSORGRIGHT
 10
0.0
 20
0.0
 30
0.0
  9
$UCSORGFRONT
 10
0.0
 20
0.0
 30
0.0
  9
$UCSORGBACK
 10
0.0
 20
0.0
 30
0.0
  9
$PUCSBASE
  2

  9
$PUCSNAME
  2

  9
$PUCSORG
 10
0.0
 20
0.0
 30
0.0
  9
$PUCSXDIR
 10
1.0
 20
0.0
 30
0.0
  9
$PUCSYDIR
 10
0.0
 20
1.0
 30
0.0
  9
$PUCSORTHOREF
  2

  9
$PUCSORTHOVIEW
 70
     0
  9
$PUCSORGTOP
 10
0.0
 20
0.0
 30
0.0
  9
$PUCSORGBOTTOM
 10
0.0
 20
0.0
 30
0.0
  9
$PUCSORGLEFT
 10
0.0
 20
0.0
 30
0.0
  9
$PUCSORGRIGHT
 10
0.0
 20
0.0
 30
0.0
  9
$PUCSORGFRONT
 10
0.0
 20
0.0
 30
0.0
  9
$PUCSORGBACK
 10
0.0
 20
0.0
 30
0.0
  9
$USERI1
 70
     0
  9
$USERI2
 70
     0
  9
$USERI3
 70
     0
  9
$USERI4
 70
     0
  9
$USERI5
 70
     0
  9
$USERR1
 40
0.0
  9
$USERR2
 40
0.0
  9
$USERR3
 40
0.0
  9
$USERR4
 40
0.0
  9
$USERR5
 40
0.0
  9
$WORLDVIEW
 70
     1
  9
$SHADEDGE
 70
     3
  9
$SHADEDIF
 70
    70
  9
$TILEMODE
 70
     1
  9
$MAXACTVP
 70
    64
  9
$PINSBASE
 10
0.0
 20
0.0
 30
0.0
  9
$PLIMCHECK
 70
     0
  9
$PEXTMIN
 10
1.000000000000000E+20
 20
1.000000000000000E+20
 30
1.000000000000000E+20
  9
$PEXTMAX
 10
-1.000000000000000E+20
 20
-1.000000000000000E+20
 30
-1.000000000000000E+20
  9
$PLIMMIN
 10
0.0
 20
0.0
  9
$PLIMMAX
 10
12.0
 20
9.0
  9
$UNITMODE
 70
     0
  9
$VISRETAIN
 70
     1
  9
$PLINEGEN
 70
     0
  9
$PSLTSCALE
 70
     1
  9
$TREEDEPTH
 70
  3020
  9
$CMLSTYLE
  2
Standard
  9
$CMLJUST
 70
     0
  9
$CMLSCALE
 40
1.0
  9
$PROXYGRAPHICS
 70
     1
  9
$MEASUREMENT
 70
     0
  9
$CELWEIGHT
370
    -1
  9
$ENDCAPS
280
     0
  9
$JOINSTYLE
280
     0
  9
$LWDISPLAY
290
     0
  9
$INSUNITS
 70
     1
  9
$HYPERLINKBASE
  1

  9
$STYLESHEET
  1

  9
$XEDIT
290
     1
  9
$CEPSNTYPE
380
     0
  9
$PSTYLEMODE
290
     1
  9
$FINGERPRINTGUID
  2
{8CFDCAD1-3E54-4479-BDD9-D03C5065CBB0}
  9
$VERSIONGUID
  2
{AD5C361F-3EA9-4148-8606-51828903586D}
  9
$EXTNAMES
290
     1
  9
$PSVPSCALE
 40
0.0
  9
$OLESTARTUP
290
     0
  9
$SORTENTS
280
   127
  9
$INDEXCTL
280
     0
  9
$HIDETEXT
280
     1
  9
$XCLIPFRAME
290
     0
  9
$HALOGAP
280
     0
  9
$OBSCOLOR
 70
   257
  9
$OBSLTYPE
280
     0
  9
$INTERSECTIONDISPLAY
280
     0
  9
$INTERSECTIONCOLOR
 70
   257
  9
$DIMASSOC
280
     2
  9
$PROJECTNAME
  1

  9
$CAMERADISPLAY
290
     0
  9
$LENSLENGTH
 40
50.0
  9
$CAMERAHEIGHT
 40
0.0
  9
$STEPSPERSEC
 40
2.0
  9
$STEPSIZE
 40
6.0
  9
$3DDWFPREC
 40
2.0
  9
$PSOLWIDTH
 40
0.25
  9
$PSOLHEIGHT
 40
4.0
  9
$LOFTANG1
 40
1.570796326794896
  9
$LOFTANG2
 40
1.570796326794896
  9
$LOFTMAG1
 40
0.0
  9
$LOFTMAG2
 40
0.0
  9
$LOFTPARAM
 70
     7
  9
$LOFTNORMALS
280
     1
  9
$LATITUDE
 40
0.0
  9
$LONGITUDE
 40
0.0
  9
$NORTHDIRECTION
 40
0.0
  9
$TIMEZONE
 70
 -8000
  9
$LIGHTGLYPHDISPLAY
280
     1
  9
$TILEMODELIGHTSYNCH
280
     1
  9
$SOLIDHIST
280
     1
  9
$SHOWHIST
280
     1
  9
$DWFFRAME
280
     2
  9
$DGNFRAME
280
     0
  9
$REALWORLDSCALE
290
     0
  9
$INTERFERECOLOR
 62
     1
  9
$CSHADOW
280
     0
  9
$SHADOWPLANELOCATION
 40
0.0
  0
ENDSEC
  0
SECTION
  2
CLASSES
  0
CLASS
  1
ACDBDICTIONARYWDFLT
  2
AcDbDictionaryWithDefault
  3
ObjectDBX Classes
 90
        0
 91
        1
280
     0
281
     0
  0
CLASS
  1
VISUALSTYLE
  2
AcDbVisualStyle
  3
ObjectDBX Classes
 90
     4095
 91
        0
280
     0
281
     0
  0
CLASS
  1
SCALE
  2
AcDbScale
  3
ObjectDBX Classes
 90
     1153
 91
        0
280
     0
281
     0
  0
CLASS
  1
MATERIAL
  2
AcDbMaterial
  3
ObjectDBX Classes
 90
        0
 91
        1
280
     0
281
     0
  0
CLASS
  1
TABLESTYLE
  2
AcDbTableStyle
  3
ObjectDBX Classes
 90
     4095
 91
        1
280
     0
281
     0
  0
CLASS
  1
MLEADERSTYLE
  2
AcDbMLeaderStyle
  3
ACDB_MLEADERSTYLE_CLASS
 90
     4095
 91
        0
280
     0
281
     0
  0
CLASS
  1
DICTIONARYVAR
  2
AcDbDictionaryVar
  3
ObjectDBX Classes
 90
        0
 91
        1
280
     0
281
     0
  0
CLASS
  1
SORTENTSTABLE
  2
AcDbSortentsTable
  3
ObjectDBX Classes
 90
        0
 91
        2
280
     0
281
     0
  0
CLASS
  1
RASTERVARIABLES
  2
AcDbRasterVariables
  3
ISM
 90
        0
 91
        0
280
     0
281
     0
  0
CLASS
  1
IMAGEDEF
  2
AcDbRasterImageDef
  3
ISM
 90
        0
 91
        0
280
     0
281
     0
  0
CLASS
  1
IMAGEDEF_REACTOR
  2
AcDbRasterImageDefReactor
  3
ISM
 90
        1
 91
        0
280
     0
281
     0
  0
CLASS
  1
IMAGE
  2
AcDbRasterImage
  3
ISM
 90
     2175
 91
        0
280
     0
281
     1
  0
CLASS
  1
CELLSTYLEMAP
  2
AcDbCellStyleMap
  3
ObjectDBX Classes
 90
     1152
 91
        1
280
     0
281
     0
  0
ENDSEC
  0
SECTION
  2
TABLES
  0
TABLE
  2
VPORT
  5
23
330
0
100
AcDbSymbolTable
 70
     1
  0
VPORT
  5
24
330
23
100
AcDbSymbolTableRecord
100
AcDbViewportTableRecord
  2
*Active
 70
     0
 10
0.0
 20
0.0
 11
1.0
 21
1.0
 12
263927.774384174
 22
1991151.51987114
 13
0.0
 23
0.0
 14
0.5
 24
0.5
 15
0.5
 25
0.5
 16
0.0
 26
0.0
 36
1.0
 17
0.0
 27
0.0
 37
0.0
 40
2575.214522572235
 41
2.104903078677308
 42
50.0
 43
0.0
 44
0.0
 50
0.0
 51
0.0
 71
     0
 72
  1000
 73
     1
 74
     3
 75
     0
 76
     0
 77
     0
 78
     0
281
     0
 65
     1
110
0.0
120
0.0
130
0.0
111
1.0
121
0.0
131
0.0
112
0.0
122
1.0
132
0.0
 79
     0
146
0.0
 60
     3
 61
     5
292
     1
282
     0
141
0.0
142
0.0
 63
   256
  0
ENDTAB
  0
TABLE
  2
LTYPE
  5
1E
330
0
100
AcDbSymbolTable
 70
     1
  0
LTYPE
  5
1F
330
1E
100
AcDbSymbolTableRecord
100
AcDbLinetypeTableRecord
  2
ByBlock
 70
     0
  3

 72
    65
 73
     0
 40
0.0
  0
LTYPE
  5
20
330
1E
100
AcDbSymbolTableRecord
100
AcDbLinetypeTableRecord
  2
ByLayer
 70
     0
  3

 72
    65
 73
     0
 40
0.0
  0
LTYPE
  5
C
330
1E
100
AcDbSymbolTableRecord
100
AcDbLinetypeTableRecord
  2
Continuous
 70
     0
  3
Solid line
 72
    65
 73
     0
 40
0.0
  0
ENDTAB
  0
TABLE
  2
LAYER
  5
14
102
{ACAD_XDICTIONARY
360
15
102
}
330
0
100
AcDbSymbolTable
 70
     2
  0
LAYER
  5
6
330
14
100
AcDbSymbolTableRecord
100
AcDbLayerTableRecord
  2
0
 70
     0
 62
    -7
  6
Continuous
370
    -3
390
7
347
A
  0
LAYER
  5
2E
330
14
100
AcDbSymbolTableRecord
100
AcDbLayerTableRecord
  2
مباني
 70
     0
 62
     6
  6
Continuous
370
    -3
390
7
347
0
1001
ZcCmTransparency
1071
 33554687
1001
AcAecLayerStandard
1000

1000

  0
ENDTAB
  0
TABLE
  2
STYLE
  5
1B
330
0
100
AcDbSymbolTable
 70
     1
  0
STYLE
  5
1C
330
1B
100
AcDbSymbolTableRecord
100
AcDbTextStyleTableRecord
  2
Standard
 70
     0
 40
0.0
 41
1.0
 50
0.0
 71
     0
 42
0.2
  3
txt
  4

  0
ENDTAB
  0
TABLE
  2
VIEW
  5
21
330
0
100
AcDbSymbolTable
 70
     0
  0
ENDTAB
  0
TABLE
  2
UCS
  5
22
330
0
100
AcDbSymbolTable
 70
     0
  0
ENDTAB
  0
TABLE
  2
APPID
  5
25
330
0
100
AcDbSymbolTable
 70
     4
  0
APPID
  5
1A
330
25
100
AcDbSymbolTableRecord
100
AcDbRegAppTableRecord
  2
ACAD
 70
     0
  0
APPID
  5
2F
330
25
100
AcDbSymbolTableRecord
100
AcDbRegAppTableRecord
  2
ZcCmTransparency
 70
     0
  0
APPID
  5
30
330
25
100
AcDbSymbolTableRecord
100
AcDbRegAppTableRecord
  2
AcAecLayerStandard
 70
     0
  0
APPID
  5
18
330
25
100
AcDbSymbolTableRecord
100
AcDbRegAppTableRecord
  2
AcLayerTools
 70
     0
  0
ENDTAB
  0
TABLE
  2
DIMSTYLE
  5
26
330
0
100
AcDbSymbolTable
 70
     1
100
AcDbDimStyleTable
 71
     1
340
27
  0
DIMSTYLE
105
27
330
26
100
AcDbSymbolTableRecord
100
AcDbDimStyleTableRecord
  2
Standard
 70
     0
340
1C
  0
ENDTAB
  0
TABLE
  2
BLOCK_RECORD
  5
1
330
0
100
AcDbSymbolTable
 70
     0
  0
BLOCK_RECORD
  5
2
102
{ACAD_XDICTIONARY
360
3
102
}
330
1
100
AcDbSymbolTableRecord
100
AcDbBlockTableRecord
  2
*Model_Space
340
E
 70
     0
280
     1
281
     0
  0
BLOCK_RECORD
  5
10
330
1
100
AcDbSymbolTableRecord
100
AcDbBlockTableRecord
  2
*Paper_Space
340
13
 70
     0
280
     1
281
     0
  0
ENDTAB
  0
ENDSEC
  0
SECTION
  2
BLOCKS
  0
BLOCK
  5
5
330
2
100
AcDbEntity
  8
0
100
AcDbBlockBegin
  2
*Model_Space
 70
     0
 10
0.0
 20
0.0
 30
0.0
  3
*Model_Space
  1

  0
ENDBLK
  5
D
330
2
100
AcDbEntity
  8
0
100
AcDbBlockEnd
  0
BLOCK
  5
11
330
10
100
AcDbEntity
 67
     1
  8
0
100
AcDbBlockBegin
  2
*Paper_Space
 70
     0
 10
0.0
 20
0.0
 30
0.0
  3
*Paper_Space
  1

  0
ENDBLK
  5
12
330
10
100
AcDbEntity
 67
     1
  8
0
100
AcDbBlockEnd
  0
ENDSEC
  0
SECTION
  2
ENTITIES
  0
LWPOLYLINE
  5
33
330
2
100
AcDbEntity
  8
مباني
100
AcDbPolyline
 90
       12
 70
     1
 43
0.2
 10
263478.2417915259
 20
1991146.680964798
 10
263479.0088053336
 20
1991148.433194832
 10
263476.3103693215
 20
1991149.496958087
 10
263475.7650958915
 20
1991149.700815197
 10
263474.6384812093
 20
1991147.141165258
 10
263476.4399330931
 20
1991146.4819778
 10
263476.3743515135
 20
1991146.340199236
 10
263475.7857874057
 20
1991144.408677641
 10
263476.5118863779
 20
1991144.181790129
 10
263476.0260754828
 20
1991142.627069077
 10
263482.0586458671
 20
1991139.885343823
 10
263483.4647696585
 20
1991144.454169704
  0
LWPOLYLINE
  5
34
330
2
100
AcDbEntity
  8
مباني
100
AcDbPolyline
 90
       23
 70
     1
 43
0.2
 10
263452.7842757484
 20
1991164.697976953
 10
263454.0661015602
 20
1991165.983018237
 10
263451.2383862214
 20
1991169.042084435
 10
263448.538664074
 20
1991170.928724867
 10
263444.2660900722
 20
1991173.049154459
 10
263441.0782921707
 20
1991174.166782306
 10
263439.4741399632
 20
1991169.534524749
 10
263440.8981626454
 20
1991168.747416185
 10
263444.7617293264
 20
1991167.381603674
 10
263447.5146286497
 20
1991165.495048069
 10
263446.1890337683
 20
1991163.351526951
 10
263446.1925598533
 20
1991163.349355392
 10
263444.7287171961
 20
1991160.164294575
 10
263442.0703381048
 20
1991156.318422283
 10
263441.6953670744
 20
1991155.472678338
 10
263448.1124556285
 20
1991152.482249164
 10
263451.7449088682
 20
1991150.467769983
 10
263452.8993608963
 20
1991149.306117662
 10
263453.2352081656
 20
1991149.0713249
 10
263455.4537463583
 20
1991153.075555116
 10
263448.2349304215
 20
1991157.565556875
 10
263450.3076078203
 20
1991160.815080671
 10
263450.5096030848
 20
1991161.131766914
  0
LWPOLYLINE
  5
35
330
2
100
AcDbEntity
  8
مباني
100
AcDbPolyline
 90
       14
 70
     0
 43
0.2
 10
263248.308188274
 20
1991166.808430105
 10
263248.5101835387
 20
1991167.125116347
 10
263250.784856202
 20
1991170.691326386
 10
263252.066682014
 20
1991171.976367671
 10
263249.238966675
 20
1991175.035433869
 10
263246.5392445284
 20
1991176.922074302
 10
263242.2666705282
 20
1991179.042503893
 10
263239.0788726247
 20
1991180.160131739
 10
263237.4747204172
 20
1991175.527874182
 10
263238.8987431004
 20
1991174.740765618
 10
263242.7623097799
 20
1991173.374953108
 10
263245.5152091036
 20
1991171.488397503
 10
263244.1896142221
 20
1991169.344876384
 10
263244.193140307
 20
1991169.342704826
  0
LWPOLYLINE
  5
36
330
2
100
AcDbEntity
  8
مباني
100
AcDbPolyline
 90
       11
 70
     0
 43
0.2
 10
263244.1931403072
 20
1991169.342704826
 10
263242.7292976498
 20
1991166.157644008
 10
263240.0709185589
 20
1991162.311771717
 10
263239.6959475283
 20
1991161.466027771
 10
263246.1130360824
 20
1991158.475598598
 10
263249.7454893231
 20
1991156.461119416
 10
263250.8999413519
 20
1991155.299467095
 10
263251.2357886196
 20
1991155.064674334
 10
263253.4543268123
 20
1991159.06890455
 10
263246.2355108754
 20
1991163.558906309
 10
263248.3081882742
 20
1991166.808430104
  0
LWPOLYLINE
  5
37
330
2
100
AcDbEntity
  8
مباني
100
AcDbPolyline
 90
       12
 70
     1
 43
0.2
 10
263441.7988613466
 20
1991161.148957983
 42
-0.0309787805258362
 10
263440.1108145417
 20
1991162.652146017
 10
263438.0174330483
 20
1991163.799418834
 10
263433.1360062054
 20
1991166.474673364
 10
263432.902155017
 20
1991166.120166241
 42
0.1351091717319625
 10
263430.8068017562
 20
1991162.184290304
 10
263430.546028915
 20
1991161.021515422
 10
263436.9322525406
 20
1991157.737892808
 10
263437.4386255451
 20
1991158.722723169
 10
263442.0751566116
 20
1991156.323252877
 10
263444.5137660885
 20
1991159.85118486
 10
263443.0732228823
 20
1991160.418605517
 42
-0.0727195065208228
  0
LWPOLYLINE
  5
38
330
2
100
AcDbEntity
  8
مباني
100
AcDbPolyline
 90
       13
 70
     1
 43
0.2
 10
263430.5460289151
 20
1991161.021515422
 10
263436.9322525406
 20
1991157.737892808
 10
263437.438625545
 20
1991158.722723169
 10
263442.0751566118
 20
1991156.323252877
 10
263439.7223967577
 20
1991152.190455161
 10
263438.6601618453
 20
1991149.180509895
 10
263437.455807321
 20
1991147.043332399
 10
263437.2647437841
 20
1991146.118681998
 10
263430.8220247851
 20
1991148.373946946
 10
263431.0808178958
 20
1991149.284515134
 10
263426.5139361117
 20
1991150.736295183
 10
263428.0765590436
 20
1991156.153197891
 10
263429.7093772295
 20
1991160.23073735
  0
LWPOLYLINE
  5
39
330
2
100
AcDbEntity
  8
مباني
100
AcDbPolyline
 90
        7
 70
     1
 43
0.2
 10
263497.8991475976
 20
1991102.544585681
 10
263488.2468801415
 20
1991107.143786177
 42
0.0035484242057712
 10
263485.9255047035
 20
1991103.250224603
 10
263491.7156014019
 20
1991100.263383236
 10
263490.394940018
 20
1991097.703234846
 10
263490.4882042001
 20
1991097.703234845
 10
263495.2816880988
 20
1991096.164212182
  0
LWPOLYLINE
  5
3A
330
2
100
AcDbEntity
  8
مباني
100
AcDbPolyline
 90
        9
 70
     1
 43
0.2
 10
263502.163601823
 20
1991102.692361392
 10
263500.9119049611
 20
1991103.758742562
 10
263498.5753881291
 20
1991104.547583752
 10
263497.899147597
 20
1991102.544585679
 10
263495.2816880999
 20
1991096.164212184
 10
263495.0474424138
 20
1991095.584551903
 10
263493.6939252175
 20
1991091.029419312
 10
263497.0467655883
 20
1991089.385510618
 10
263499.4230274214
 20
1991094.232024681
  0
LWPOLYLINE
  5
3B
330
2
100
AcDbEntity
  8
مباني
100
AcDbPolyline
 90
       11
 70
     1
 43
0.2
 10
263505.5637939519
 20
1991104.646993101
 10
263501.7347292796
 20
1991106.19591609
 10
263500.9119049618
 20
1991103.758742561
 10
263502.1636018229
 20
1991102.692361392
 10
263499.423027421
 20
1991094.23202468
 10
263497.0467655885
 20
1991089.385510618
 10
263498.9987569488
 20
1991088.428442814
 10
263500.8708813405
 20
1991092.246741397
 10
263501.3579276939
 20
1991092.044371905
 10
263502.9003446561
 20
1991096.720917063
 10
263504.1571616626
 20
1991100.53153484
  0
LWPOLYLINE
  5
3C
330
2
100
AcDbEntity
  8
مباني
100
AcDbPolyline
 90
       11
 70
     1
 43
0.2
 10
263514.9798811069
 20
1991100.792425894
 10
263512.7460478882
 20
1991093.973060678
 10
263511.267326187
 20
1991094.897744514
 10
263508.1437736278
 20
1991096.284042082
 10
263506.5638070984
 20
1991093.283175701
 10
263506.1173379305
 20
1991093.499318835
 10
263505.176678022
 20
1991092.015102376
 10
263504.6248309598
 20
1991090.686961974
 10
263501.357927694
 20
1991092.044371904
 10
263505.3623878548
 20
1991104.057728662
 10
263507.3926481636
 20
1991103.229325551
  0
LWPOLYLINE
  5
3D
330
2
100
AcDbEntity
  8
مباني
100
AcDbPolyline
 90
       17
 70
     1
 43
0.2
 10
263520.677517518
 20
1991110.584192858
 10
263513.0994930476
 20
1991112.860412656
 10
263512.9918514174
 20
1991112.471479603
 10
263509.7712006313
 20
1991113.362831203
 10
263503.2853094023
 20
1991115.259720634
 10
263502.7026797858
 20
1991112.56151089
 10
263502.6172290725
 20
1991110.659994688
 10
263502.0524288404
 20
1991108.595579809
 10
263501.7347292796
 20
1991106.19591609
 10
263505.5637939518
 20
1991104.646993101
 10
263505.3623878546
 20
1991104.057728662
 10
263507.392648145
 20
1991103.229325559
 10
263514.9798811078
 20
1991100.792425894
 10
263516.0308457384
 20
1991104.24771907
 10
263516.4843721218
 20
1991104.019487466
 10
263517.0296673267
 20
1991106.289633439
 10
263518.7827684575
 20
1991105.725871499
  0
LWPOLYLINE
  5
3E
330
2
100
AcDbEntity
  8
مباني
100
AcDbPolyline
 90
       16
 70
     1
 43
0.2
 10
263472.6977568769
 20
1991071.834303412
 10
263468.8824899805
 20
1991073.259451704
 10
263468.5575290988
 20
1991072.389498381
 10
263463.7267869401
 20
1991074.193965572
 10
263459.3635930036
 20
1991061.396068284
 10
263456.7353722011
 20
1991062.361808381
 10
263456.8900080978
 20
1991062.797161662
 10
263453.8021933853
 20
1991064.634288452
 10
263451.8184538942
 20
1991060.170189796
 10
263455.2998864876
 20
1991058.320421958
 10
263455.2014858934
 20
1991058.045045967
 10
263457.2440030108
 20
1991057.159142591
 10
263456.7815412101
 20
1991056.080652759
 10
263462.4851712904
 20
1991053.461461815
 10
263464.9754590433
 20
1991059.107136727
 10
263468.0327218555
 20
1991057.860160182
  0
LWPOLYLINE
  5
3F
330
2
100
AcDbEntity
  8
مباني
100
AcDbPolyline
 90
       11
 70
     1
 43
0.2
 10
263475.3079110788
 20
1991062.018366994
 10
263476.1539901931
 20
1991064.161303507
 10
263470.8479342223
 20
1991065.902614068
 10
263469.8844782746
 20
1991063.206389488
 10
263469.9191225568
 20
1991063.194172175
 10
263468.0327218556
 20
1991057.860160181
 10
263470.6167074087
 20
1991057.197661774
 10
263473.2883769225
 20
1991056.411014673
 10
263474.2830082097
 20
1991059.114973351
 10
263477.3210935828
 20
1991057.926343686
 10
263478.324314082
 20
1991061.049409824
  0
LWPOLYLINE
  5
40
330
2
100
AcDbEntity
  8
مباني
100
AcDbPolyline
 90
       10
 70
     1
 43
0.2
 10
263480.2897583235
 20
1991066.403339799
 10
263480.7348557602
 20
1991068.517584224
 10
263477.7077065333
 20
1991069.253631652
 10
263472.4279895388
 20
1991070.717299128
 10
263470.8479342223
 20
1991065.902614068
 10
263476.1539901929
 20
1991064.161303507
 10
263475.3079110787
 20
1991062.018366993
 10
263478.3243140817
 20
1991061.049409824
 10
263478.6705209053
 20
1991061.702235791
 10
263478.769420471
 20
1991061.670466348
  0
LWPOLYLINE
  5
41
330
2
100
AcDbEntity
  8
مباني
100
AcDbPolyline
 90
       11
 70
     1
 43
0.2
 10
263482.8910216548
 20
1991055.656250624
 10
263478.5646400458
 20
1991057.439814825
 10
263474.2830082097
 20
1991059.114973351
 10
263473.2883769226
 20
1991056.411014673
 10
263472.4762102051
 20
1991054.203095746
 10
263476.6921594979
 20
1991052.488187385
 10
263474.7806719967
 20
1991047.380604112
 10
263476.4581014738
 20
1991046.717788251
 10
263477.5503858908
 20
1991050.109847842
 10
263480.905244845
 20
1991049.01814751
 10
263481.4261570505
 20
1991050.935108198
  0
LWPOLYLINE
  5
42
330
2
100
AcDbEntity
  8
مباني
100
AcDbPolyline
 90
       11
 70
     1
 43
0.2
 10
263481.7634630551
 20
1991040.011649358
 10
263481.8024699983
 20
1991041.649192755
 10
263478.9716322104
 20
1991042.817340518
 10
263478.9514282236
 20
1991042.768379067
 10
263475.0339839199
 20
1991044.016745223
 10
263472.5035486144
 20
1991037.561354955
 10
263476.2929826953
 20
1991036.326019449
 10
263479.8909824911
 20
1991035.137997476
 10
263484.7282198474
 20
1991033.34449824
 10
263486.1876924366
 20
1991037.28083408
 10
263481.4182970639
 20
1991039.113258785
  0
LWPOLYLINE
  5
43
330
2
100
AcDbEntity
  8
مباني
100
AcDbPolyline
 90
       12
 70
     1
 43
0.2
 10
263476.4581014738
 20
1991046.717788251
 10
263474.7806719961
 20
1991047.380604113
 10
263471.1015898191
 20
1991049.393858655
 10
263468.0895370078
 20
1991050.686002635
 10
263462.9024257269
 20
1991052.404243157
 10
263461.7591610056
 20
1991048.421933203
 10
263466.2390666426
 20
1991046.616763073
 10
263463.9239686127
 20
1991041.595437241
 10
263464.4647552387
 20
1991041.311934525
 10
263467.1985552532
 20
1991039.923364789
 10
263472.5035486143
 20
1991037.561354955
 10
263475.0339839202
 20
1991044.016745225
  0
LWPOLYLINE
  5
44
330
2
100
AcDbEntity
  8
مباني
100
AcDbPolyline
 90
       12
 70
     1
 43
0.2
 10
263470.8286475921
 20
1991100.176887835
 10
263463.1283937689
 20
1991102.941073128
 10
263462.5675968121
 20
1991101.425129244
 10
263463.1019701586
 20
1991101.22744716
 10
263462.5606871749
 20
1991099.444134633
 10
263462.0479135279
 20
1991098.358175481
 10
263460.1208156121
 20
1991094.276940745
 10
263465.2673904573
 20
1991092.06460986
 10
263466.1802581111
 20
1991094.266858508
 10
263466.6314068111
 20
1991095.928041538
 10
263466.9622457311
 20
1991097.78788944
 10
263469.2563576602
 20
1991096.697253662
  0
LWPOLYLINE
  5
45
330
2
100
AcDbEntity
  8
مباني
100
AcDbPolyline
 90
       12
 70
     1
 43
0.2
 10
263467.9135838594
 20
1991085.296082433
 10
263464.153118796
 20
1991087.301438041
 10
263463.6907043108
 20
1991086.022024732
 10
263459.8976779997
 20
1991087.761730587
 10
263459.5653333895
 20
1991086.935853179
 10
263458.5813980387
 20
1991084.490770722
 10
263462.2817096801
 20
1991082.114548668
 10
263462.7637180761
 20
1991081.805018258
 10
263465.3101190107
 20
1991080.557196027
 10
263467.8700470545
 20
1991079.625376939
 10
263468.6914920879
 20
1991081.641958145
 10
263467.0128419248
 20
1991082.399172286
  0
LWPOLYLINE
  5
46
330
2
100
AcDbEntity
  8
مباني
100
AcDbPolyline
 90
        6
 70
     1
 43
0.2
 10
263478.9813761319
 20
1991087.045908242
 10
263469.9939382866
 20
1991089.227987153
 10
263467.9135838594
 20
1991085.296082433
 10
263467.0128419247
 20
1991082.399172286
 10
263468.6914920847
 20
1991081.641958146
 10
263476.1950521348
 20
1991078.585417642
  0
LWPOLYLINE
  5
47
330
2
100
AcDbEntity
  8
مباني
100
AcDbPolyline
 90
       10
 70
     1
 43
0.2
 10
263471.3592118885
 20
1991103.046426842
 10
263471.4181410052
 20
1991103.288227126
 10
263469.0118902716
 20
1991103.874654188
 10
263468.6523986989
 20
1991104.023075819
 10
263468.9810635318
 20
1991106.239747293
 10
263466.4594320717
 20
1991107.106030649
 10
263465.8042776607
 20
1991105.198966449
 10
263464.2075360446
 20
1991105.858205813
 10
263463.1283937688
 20
1991102.941073127
 10
263470.8286475923
 20
1991100.176887835
  0
LWPOLYLINE
  5
48
330
2
100
AcDbEntity
  8
مباني
100
AcDbPolyline
 90
        4
 70
     1
 43
0.2
 10
263469.9939382866
 20
1991089.227987152
 10
263465.7935989621
 20
1991091.840335987
 10
263464.153118796
 20
1991087.301438041
 10
263467.9135838592
 20
1991085.296082433
  0
LWPOLYLINE
  5
49
330
2
100
AcDbEntity
  8
مباني
100
AcDbPolyline
 90
        8
 70
     1
 43
0.2
 10
263458.5610395435
 20
1991094.922905155
 10
263456.7601931438
 20
1991094.995787148
 10
263451.4697692881
 20
1991096.51804992
 10
263450.7557897841
 20
1991094.478515429
 10
263450.8993104499
 20
1991093.750095647
 10
263450.8824268517
 20
1991093.675057143
 10
263456.9746606363
 20
1991091.164230319
 10
263457.0065000903
 20
1991091.245853474
  0
LWPOLYLINE
  5
4A
330
2
100
AcDbEntity
  8
مباني
100
AcDbPolyline
 90
        6
 70
     1
 43
0.2
 10
263456.9746606363
 20
1991091.164230319
 10
263450.8824268517
 20
1991093.675057143
 10
263449.9829947079
 20
1991089.677565437
 10
263455.6334381383
 20
1991087.595929439
 10
263456.0192634705
 20
1991088.562982544
 10
263455.9689710928
 20
1991088.586059417
  0
LWPOLYLINE
  5
4B
330
2
100
AcDbEntity
  8
مباني
100
AcDbPolyline
 90
        8
 70
     1
 43
0.2
 10
263463.1019697798
 20
1991101.2274473
 10
263462.567596812
 20
1991101.425129244
 10
263462.3914774318
 20
1991100.949044104
 10
263453.9203091718
 20
1991103.765661596
 10
263453.7415379446
 20
1991103.085224502
 10
263453.178653759
 20
1991100.942780857
 10
263462.0479135279
 20
1991098.358175481
 10
263462.560687175
 20
1991099.444134633
  0
LWPOLYLINE
  5
4C
330
2
100
AcDbEntity
  8
مباني
100
AcDbPolyline
 90
        9
 70
     1
 43
0.2
 10
263462.047913528
 20
1991098.358175481
 10
263453.1786537589
 20
1991100.942780857
 10
263451.9409058747
 20
1991098.584939532
 42
0.0908967915956361
 10
263451.6777627066
 20
1991097.561908973
 10
263451.6380044219
 20
1991096.998625842
 10
263451.4697692881
 20
1991096.51804992
 10
263456.7601931435
 20
1991094.995787148
 10
263458.5610395442
 20
1991094.922905155
 10
263460.120815612
 20
1991094.276940745
  0
LWPOLYLINE
  5
4D
330
2
100
AcDbEntity
  8
مباني
100
AcDbPolyline
 90
       11
 70
     1
 43
0.2
 10
263512.9908273952
 20
1991124.311001605
 10
263508.5629980084
 20
1991125.174319159
 10
263505.5302005039
 20
1991125.828956663
 10
263504.2664351594
 20
1991119.803401561
 10
263503.2853094025
 20
1991115.259720634
 10
263509.7712010258
 20
1991113.362831099
 10
263512.9918514174
 20
1991112.471479603
 10
263513.0994930475
 20
1991112.860412656
 10
263512.3702973818
 20
1991113.079441984
 10
263513.8705613545
 20
1991117.398763737
 10
263511.0502310738
 20
1991118.310941729
  0
LWPOLYLINE
  5
4E
330
2
100
AcDbEntity
  8
مباني
100
AcDbPolyline
 90
        7
 70
     1
 43
0.2
 10
263518.542139282
 20
1991133.42011785
 10
263512.4971841297
 20
1991138.426120855
 10
263509.7927701123
 20
1991132.941349484
 10
263510.5868913031
 20
1991132.63094316
 10
263508.5629980168
 20
1991125.174319158
 10
263512.9908273933
 20
1991124.311001606
 10
263515.1117400385
 20
1991123.963180021
  0
LWPOLYLINE
  5
4F
330
2
100
AcDbEntity
  8
مباني
100
AcDbPolyline
 90
       12
 70
     1
 43
0.2
 10
263502.021437752
 20
1991134.053632625
 10
263498.9029465697
 20
1991135.398426693
 10
263494.3152891331
 20
1991137.376772677
 10
263492.6005075029
 20
1991133.40030407
 10
263493.4441525333
 20
1991133.073777625
 10
263492.8537191608
 20
1991131.548277355
 10
263494.011706265
 20
1991131.100087181
 10
263491.9444954006
 20
1991124.489134584
 10
263490.8263601455
 20
1991121.320933406
 10
263497.4554685673
 20
1991119.373635128
 10
263498.0646709886
 20
1991121.352141244
 10
263499.7792193028
 20
1991127.070321445
  0
LWPOLYLINE
  5
50
330
2
100
AcDbEntity
  8
مباني
100
AcDbPolyline
 90
       16
 70
     1
 43
0.2
 10
263494.3152891331
 20
1991137.376772677
 10
263493.0602271018
 20
1991137.729197891
 10
263493.1985225036
 20
1991138.221697578
 42
0.215661253028868
 10
263490.5200415902
 20
1991140.342635229
 10
263490.2203950077
 20
1991140.417531829
 10
263489.8109055449
 20
1991138.779244951
 10
263489.4844648078
 20
1991137.260846906
 10
263489.1491530311
 20
1991135.701186335
 10
263487.9767882991
 20
1991132.015735425
 10
263486.0910898726
 20
1991126.472218784
 10
263487.0215992162
 20
1991126.134826974
 10
263491.944495401
 20
1991124.506591951
 10
263494.0117062295
 20
1991131.100087194
 10
263492.8537191607
 20
1991131.548277355
 10
263493.4441525333
 20
1991133.073777625
 10
263492.6005075031
 20
1991133.400304071
  0
LWPOLYLINE
  5
51
330
2
100
AcDbEntity
  8
مباني
100
AcDbPolyline
 90
        6
 70
     1
 43
0.2
 10
263478.8595692045
 20
1991175.650008994
 10
263474.947214542
 20
1991173.444972647
 10
263476.7758276317
 20
1991169.436606107
 10
263476.4868145772
 20
1991169.306621608
 10
263478.0381731558
 20
1991166.673917236
 10
263481.5681173968
 20
1991169.114158217
  0
LWPOLYLINE
  5
52
330
2
100
AcDbEntity
  8
مباني
100
AcDbPolyline
 90
        4
 70
     1
 43
0.2
 10
263478.0972686341
 20
1991178.782274716
 10
263473.3121387334
 20
1991176.887730072
 10
263474.947214542
 20
1991173.444972647
 10
263478.8595692045
 20
1991175.650008993
  0
LWPOLYLINE
  5
53
330
2
100
AcDbEntity
  8
مباني
100
AcDbPolyline
 90
        7
 70
     1
 43
0.2
 10
263490.0492942302
 20
1991160.487529579
 10
263488.0339907689
 20
1991162.694608114
 10
263483.6549274834
 20
1991159.652562858
 10
263485.0410363839
 20
1991157.851580356
 10
263484.6483075742
 20
1991157.505239023
 10
263485.5608343811
 20
1991156.362310732
 10
263486.1196147718
 20
1991156.810478459
  0
LWPOLYLINE
  5
54
330
2
100
AcDbEntity
  8
مباني
100
AcDbPolyline
 90
        6
 70
     1
 43
0.2
 10
263490.0492942301
 20
1991160.487529579
 10
263486.1196147738
 20
1991156.810478462
 10
263487.3050183458
 20
1991155.681167729
 10
263487.6746473859
 20
1991156.177590937
 10
263491.8583895613
 20
1991152.387886323
 10
263494.4535254966
 20
1991155.664194297
  0
LWPOLYLINE
  5
55
330
2
100
AcDbEntity
  8
مباني
100
AcDbPolyline
 90
        4
 70
     1
 43
0.2
 10
263482.9473944906
 20
1991169.527530068
 10
263478.1220350669
 20
1991166.33746257
 10
263480.0108945806
 20
1991164.317644853
 10
263484.6021027168
 20
1991167.114223504
  0
LWPOLYLINE
  5
56
330
2
100
AcDbEntity
  8
مباني
100
AcDbPolyline
 90
        7
 70
     1
 43
0.2
 10
263484.6315049797
 20
1991167.07134182
 10
263484.6021027166
 20
1991167.114223503
 10
263480.0108945809
 20
1991164.317644853
 10
263480.0803438744
 20
1991164.243380509
 10
263481.3061513073
 20
1991162.255459013
 10
263481.3353860892
 20
1991162.223061247
 10
263486.3199653944
 20
1991164.60880943
  0
LWPOLYLINE
  5
57
330
2
100
AcDbEntity
  8
مباني
100
AcDbPolyline
 90
        5
 70
     1
 43
0.2
 10
263486.3712772146
 20
1991164.533973788
 10
263486.3199653944
 20
1991164.60880943
 10
263481.3353860897
 20
1991162.223061247
 10
263483.6549274834
 20
1991159.652562858
 10
263487.7620068041
 20
1991162.505666444
  0
LWPOLYLINE
  5
58
330
2
100
AcDbEntity
  8
مباني
100
AcDbPolyline
 90
        6
 70
     1
 43
0.2
 10
263479.7485537691
 20
1991117.867347958
 10
263476.4076412426
 20
1991119.030825536
 10
263474.9222420472
 20
1991115.511610512
 10
263474.2294196905
 20
1991113.731660099
 10
263475.0485573131
 20
1991113.287193772
 10
263478.3970828542
 20
1991112.076991805
  0
LWPOLYLINE
  5
59
330
2
100
AcDbEntity
  8
مباني
100
AcDbPolyline
 90
        8
 70
     1
 43
0.2
 10
263482.8340633071
 20
1991123.524767521
 10
263480.766447857
 20
1991124.109301028
 10
263478.1205882291
 20
1991124.857309372
 10
263477.965158902
 20
1991124.444674563
 10
263476.4076412428
 20
1991119.030825536
 10
263479.7485537863
 20
1991117.867347952
 10
263480.4247250437
 20
1991117.657993403
 10
263481.2207598592
 20
1991120.229018813
  0
LWPOLYLINE
  5
5A
330
2
100
AcDbEntity
  8
مباني
100
AcDbPolyline
 90
        7
 70
     1
 43
0.2
 10
263477.9651589011
 20
1991124.44467456
 10
263470.8517704354
 20
1991126.865483348
 10
263469.5755276947
 20
1991122.473299196
 10
263466.0208667272
 20
1991123.506181721
 10
263465.749437742
 20
1991118.870249744
 10
263474.9222420484
 20
1991115.511610514
 10
263476.4076412427
 20
1991119.030825536
  0
LWPOLYLINE
  5
5B
330
2
100
AcDbEntity
  8
مباني
100
AcDbPolyline
 90
        8
 70
     1
 43
0.2
 10
263482.0586458671
 20
1991139.885343823
 10
263476.0260754827
 20
1991142.627069077
 10
263474.8896983259
 20
1991141.11057859
 10
263473.6535468969
 20
1991137.415348554
 10
263472.2684270329
 20
1991133.222653466
 10
263475.4690674224
 20
1991132.413193612
 10
263476.6764721251
 20
1991136.565536441
 10
263480.0206783327
 20
1991135.625405071
  0
LWPOLYLINE
  5
5C
330
2
100
AcDbEntity
  8
مباني
100
AcDbPolyline
 90
        4
 70
     1
 43
0.2
 10
263451.2252844461
 20
1991123.434406067
 10
263441.14298636
 20
1991128.663491053
 10
263439.0027383862
 20
1991123.703832046
 10
263449.2153480072
 20
1991119.00159383
  0
LWPOLYLINE
  5
5D
330
2
100
AcDbEntity
  8
مباني
100
AcDbPolyline
 90
       20
 70
     1
 43
0.2
 10
263454.5453178848
 20
1991134.641226945
 42
0.2298190421721959
 10
263454.2314123144
 20
1991135.786836557
 10
263453.3674318686
 20
1991136.773433739
 10
263452.8255169377
 20
1991137.392305019
 10
263452.1204923836
 20
1991136.361659588
 10
263451.5841189879
 20
1991135.781496927
 10
263450.6256851687
 20
1991135.025527402
 10
263446.6160798079
 20
1991137.700329122
 10
263445.1579949199
 20
1991138.438312478
 10
263445.122826038
 20
1991138.369935338
 10
263444.0015861005
 20
1991136.1899633
 10
263444.840533422
 20
1991135.749286269
 10
263443.53913983
 20
1991133.32133695
 10
263443.7274385132
 20
1991133.220407867
 10
263444.754163118
 20
1991132.151905191
 10
263447.6341716545
 20
1991129.959918416
 10
263452.3986086203
 20
1991125.718078917
 10
263455.9423489585
 20
1991130.639315972
 10
263453.3309313996
 20
1991131.29463607
 10
263453.1863637362
 20
1991131.778207452
  0
LWPOLYLINE
  5
5E
330
2
100
AcDbEntity
  8
مباني
100
AcDbPolyline
 90
       17
 70
     1
 43
0.2
 10
263441.4888339101
 20
1991143.01888829
 10
263441.1050434984
 20
1991143.167832631
 10
263442.6765785223
 20
1991147.330552478
 10
263441.5770844273
 20
1991147.882461728
 10
263441.4759975703
 20
1991147.681080065
 10
263438.5523325543
 20
1991148.989162306
 10
263437.455807321
 20
1991147.043332399
 10
263437.1939656576
 20
1991145.749362077
 10
263437.0177198742
 20
1991144.471099768
 10
263436.5057846939
 20
1991143.849744379
 10
263435.771342967
 20
1991139.946229354
 10
263434.5806222374
 20
1991138.044322756
 10
263437.9875099658
 20
1991136.453269342
 10
263437.8354973107
 20
1991136.061075166
 10
263439.4586255973
 20
1991136.061075167
 10
263440.2097872232
 20
1991138.539697782
 10
263439.6667329301
 20
1991138.932865296
  0
LWPOLYLINE
  5
5F
330
2
100
AcDbEntity
  8
مباني
100
AcDbPolyline
 90
       14
 70
     1
 43
0.2
 10
263451.0246234914
 20
1991148.025082139
 10
263448.378693275
 20
1991149.110372134
 10
263443.4122810363
 20
1991151.538475529
 10
263441.5770844271
 20
1991147.882461728
 10
263442.6765785223
 20
1991147.330552478
 10
263441.1050434984
 20
1991143.167832631
 10
263441.48883391
 20
1991143.01888829
 10
263443.4277479002
 20
1991142.266419606
 10
263445.0924762945
 20
1991142.12533687
 10
263448.776716045
 20
1991140.852284833
 10
263448.7932862957
 20
1991140.876457665
 10
263449.7840450183
 20
1991142.28225863
 10
263450.0060177345
 20
1991144.334142835
 10
263450.4708724359
 20
1991146.009335674
  0
LWPOLYLINE
  5
60
330
2
100
AcDbEntity
  8
مباني
100
AcDbPolyline
 90
        7
 70
     1
 43
0.2
 10
263448.7767160452
 20
1991140.852284833
 10
263445.0924762941
 20
1991142.125336869
 10
263443.4277478984
 20
1991142.266419607
 10
263442.4492390799
 20
1991139.745059616
 10
263445.122826038
 20
1991138.369935338
 10
263445.1579949198
 20
1991138.438312478
 10
263446.6160798068
 20
1991137.700329121
  0
LWPOLYLINE
  5
61
330
2
100
AcDbEntity
  8
مباني
100
AcDbPolyline
 90
       14
 70
     1
 43
0.2
 10
263445.1228260378
 20
1991138.369935338
 10
263442.4492390799
 20
1991139.745059616
 10
263443.4277478986
 20
1991142.266419607
 10
263441.4888339101
 20
1991143.018888291
 10
263439.6667329302
 20
1991138.932865296
 10
263440.2097872233
 20
1991138.539697782
 10
263439.4586255973
 20
1991136.061075167
 10
263437.8354973105
 20
1991136.061075166
 10
263436.1828885598
 20
1991131.797328004
 10
263441.112646581
 20
1991129.811294712
 10
263443.1794047161
 20
1991133.514156862
 10
263443.5391398302
 20
1991133.321336951
 10
263444.840533422
 20
1991135.749286269
 10
263444.0015861004
 20
1991136.189963301
  0
LWPOLYLINE
  5
62
330
2
100
AcDbEntity
  8
مباني
100
AcDbPolyline
 90
        5
 70
     1
 43
0.2
 10
263440.9029811529
 20
1991168.752246779
 10
263439.4775412964
 20
1991169.540138666
 10
263435.9174690553
 20
1991170.691236901
 10
263433.1360062056
 20
1991166.474673364
 10
263438.0174330483
 20
1991163.799418834
  0
LWPOLYLINE
  5
63
330
2
100
AcDbEntity
  8
مباني
100
AcDbPolyline
 90
        5
 70
     1
 43
0.2
 10
263445.9845209426
 20
1991177.941703195
 10
263445.8786892378
 20
1991177.998606712
 10
263437.6163403543
 20
1991180.692195778
 10
263436.1656791642
 20
1991175.895642641
 10
263444.2709085797
 20
1991173.053985055
  0
LWPOLYLINE
  5
64
330
2
100
AcDbEntity
  8
مباني
100
AcDbPolyline
 90
        5
 70
     1
 43
0.2
 10
263450.8821131095
 20
1991175.283045062
 10
263450.8289538765
 20
1991175.336951883
 10
263445.9845209426
 20
1991177.941703194
 10
263444.2709085798
 20
1991173.053985055
 10
263448.5434825836
 20
1991170.933555462
  0
LWPOLYLINE
  5
65
330
2
100
AcDbEntity
  8
مباني
100
AcDbPolyline
 90
        6
 70
     1
 43
0.2
 10
263453.6664384879
 20
1991172.742639056
 10
263451.6890183751
 20
1991174.475944339
 10
263451.6079199419
 20
1991174.547031076
 10
263450.8821131095
 20
1991175.283045063
 10
263448.5434825835
 20
1991170.933555462
 10
263451.2432047284
 20
1991169.04691503
  0
LWPOLYLINE
  5
66
330
2
100
AcDbEntity
  8
مباني
100
AcDbPolyline
 90
        5
 70
     1
 43
0.2
 10
263457.0652355047
 20
1991169.763427514
 10
263453.666438488
 20
1991172.742639056
 10
263451.2432047285
 20
1991169.046915029
 10
263454.0709200675
 20
1991165.987848831
 10
263454.6704382698
 20
1991166.588870931
  0
LWPOLYLINE
  5
67
330
2
100
AcDbEntity
  8
مباني
100
AcDbPolyline
 90
        5
 70
     1
 43
0.2
 10
263441.0831106781
 20
1991174.1716129
 10
263436.1656791642
 20
1991175.895642641
 10
263434.7150179742
 20
1991171.099089505
 10
263435.9174690795
 20
1991170.691236893
 10
263439.4790597162
 20
1991169.539647707
  0
LWPOLYLINE
  5
68
330
2
100
AcDbEntity
  8
مباني
100
AcDbPolyline
 90
       10
 70
     1
 43
0.2
 10
263447.5194471567
 20
1991165.499878664
 10
263444.766547833
 20
1991167.386434269
 10
263440.9029811529
 20
1991168.752246779
 10
263438.0174330483
 20
1991163.799418834
 10
263440.1108145417
 20
1991162.652146017
 42
0.0309787805258362
 10
263441.7988613466
 20
1991161.148957983
 42
0.0727195065208228
 10
263443.0732228823
 20
1991160.418605517
 10
263444.5137660884
 20
1991159.85118486
 10
263444.7335357041
 20
1991160.169125173
 10
263446.1938522761
 20
1991163.356357546
  0
LWPOLYLINE
  5
69
330
2
100
AcDbEntity
  8
مباني
100
AcDbPolyline
 90
        6
 70
     1
 43
0.2
 10
263461.4958797603
 20
1991172.087700608
 10
263460.520811497
 20
1991174.752070079
 10
263453.0020251827
 20
1991177.759047586
 10
263451.6890183751
 20
1991174.475944339
 10
263457.0652355025
 20
1991169.763427516
 10
263457.9616904219
 20
1991169.027871537
  0
LWPOLYLINE
  5
6A
330
2
100
AcDbEntity
  8
مباني
100
AcDbPolyline
 90
        6
 70
     1
 43
0.2
 10
263465.914550116
 20
1991168.54919755
 10
263462.3328480234
 20
1991170.326982727
 10
263462.0348433504
 20
1991170.614985118
 10
263461.4958797606
 20
1991172.087700608
 10
263457.9616904253
 20
1991169.02787154
 10
263463.1629118128
 20
1991164.760183997
  0
LWPOLYLINE
  5
6B
330
2
100
AcDbEntity
  8
مباني
100
AcDbPolyline
 90
        8
 70
     1
 43
0.2
 10
263471.5649680823
 20
1991165.942701187
 10
263466.6148176194
 20
1991169.562832403
 10
263465.9145501158
 20
1991168.54919755
 10
263463.1629118128
 20
1991164.760183997
 10
263464.7897836619
 20
1991163.548977392
 10
263462.5945338931
 20
1991160.613775792
 10
263466.0125369145
 20
1991158.702345141
 10
263467.8957460627
 20
1991161.236587405
  0
LWPOLYLINE
  5
6C
330
2
100
AcDbEntity
  8
مباني
100
AcDbPolyline
 90
        6
 70
     1
 43
0.2
 10
263526.9005514369
 20
1991137.827222808
 10
263521.8285441676
 20
1991134.30686849
 10
263526.3080998074
 20
1991131.549876915
 10
263528.0746241269
 20
1991133.086984026
 42
-0.2134834261189456
 10
263528.5981125912
 20
1991133.321169282
 10
263529.6831203566
 20
1991133.321169282
 42
0.0514312479129105
  0
LWPOLYLINE
  5
6D
330
2
100
AcDbEntity
  8
مباني
100
AcDbPolyline
 90
       12
 70
     1
 43
0.2
 10
263536.8811439476
 20
1991130.198330735
 42
0.0132126203389141
 10
263536.293475484
 20
1991130.658530622
 10
263535.1893181895
 20
1991131.399176522
 42
0.0941926206381565
 10
263529.6831203566
 20
1991133.321169282
 10
263528.5981125912
 20
1991133.321169282
 42
0.2134834261189456
 10
263528.0746241269
 20
1991133.086984026
 10
263526.3080998076
 20
1991131.549876915
 10
263528.520783824
 20
1991130.188056305
 10
263530.0353447889
 20
1991129.554392528
 10
263534.7199092811
 20
1991125.858022882
 10
263537.8899209777
 20
1991123.323372486
 10
263539.2283656357
 20
1991127.723813017
  0
LWPOLYLINE
  5
6E
330
2
100
AcDbEntity
  8
مباني
100
AcDbPolyline
 90
        6
 70
     1
 43
0.2
 10
263546.5982922985
 20
1991316.097484528
 10
263541.6710639121
 20
1991312.629231914
 10
263541.6895653357
 20
1991312.60526841
 10
263542.4271925525
 20
1991313.099884196
 10
263546.1860212529
 20
1991307.460130124
 10
263550.6778627239
 20
1991311.207677609
  0
LWPOLYLINE
  5
6F
330
2
100
AcDbEntity
  8
مباني
100
AcDbPolyline
 90
        6
 70
     1
 43
0.2
 10
263547.3856631942
 20
1991316.754388793
 10
263544.3830038155
 20
1991320.381348845
 10
263543.8754606354
 20
1991319.961167961
 10
263538.9102077564
 20
1991316.205161481
 10
263541.671063912
 20
1991312.629231913
 10
263546.5982922958
 20
1991316.097484526
  0
LWPOLYLINE
  5
70
330
2
100
AcDbEntity
  8
مباني
100
AcDbPolyline
 90
        4
 70
     1
 43
0.2
 10
263543.8754606351
 20
1991319.961167959
 10
263541.4002484919
 20
1991322.9510161
 10
263536.6835057713
 20
1991319.089241279
 10
263538.9102077567
 20
1991316.20516148
  0
LWPOLYLINE
  5
71
330
2
100
AcDbEntity
  8
مباني
100
AcDbPolyline
 90
        4
 70
     1
 43
0.2
 10
263541.4002484919
 20
1991322.951016099
 10
263539.646176286
 20
1991325.069787834
 10
263534.6840886877
 20
1991321.678936019
 10
263536.6835057712
 20
1991319.089241279
  0
LWPOLYLINE
  5
72
330
2
100
AcDbEntity
  8
مباني
100
AcDbPolyline
 90
        5
 70
     1
 43
0.2
 10
263539.6461762861
 20
1991325.069787834
 10
263537.6318345681
 20
1991328.363746225
 10
263532.6554183452
 20
1991325.320537534
 10
263534.5779148359
 20
1991321.816455033
 10
263534.6840886876
 20
1991321.678936019
  0
LWPOLYLINE
  5
73
330
2
100
AcDbEntity
  8
مباني
100
AcDbPolyline
 90
        5
 70
     1
 43
0.2
 10
263537.631834568
 20
1991328.363746225
 10
263535.6174928497
 20
1991331.657704616
 10
263535.2858715253
 20
1991331.456652664
 10
263530.9010665395
 20
1991328.518147252
 10
263532.6554183453
 20
1991325.320537534
  0
LWPOLYLINE
  5
74
330
2
100
AcDbEntity
  8
مباني
100
AcDbPolyline
 90
        4
 70
     1
 43
0.2
 10
263533.6070631482
 20
1991333.961751795
 10
263529.3940650313
 20
1991331.264918253
 10
263530.9010665398
 20
1991328.518147251
 10
263535.2858715281
 20
1991331.456652663
  0
LWPOLYLINE
  5
75
330
2
100
AcDbEntity
  8
مباني
100
AcDbPolyline
 90
        7
 70
     1
 43
0.2
 10
263538.0752104687
 20
1991336.95610961
 10
263535.8542924331
 20
1991340.270138722
 10
263534.3176779768
 20
1991339.255156432
 10
263529.6845175269
 20
1991336.155160219
 10
263527.5315919403
 20
1991334.659597722
 10
263529.3940650312
 20
1991331.264918253
 10
263533.6070631486
 20
1991333.961751788
  0
LWPOLYLINE
  5
76
330
2
100
AcDbEntity
  8
مباني
100
AcDbPolyline
 90
        4
 70
     1
 43
0.2
 10
263534.3176779558
 20
1991339.255156404
 10
263532.5292960045
 20
1991341.962645542
 10
263527.9958238782
 20
1991338.968144247
 10
263529.68451753
 20
1991336.155160225
  0
LWPOLYLINE
  5
77
330
2
100
AcDbEntity
  8
مباني
100
AcDbPolyline
 90
        9
 70
     1
 43
0.2
 10
263491.7933207108
 20
1991091.813837087
 10
263487.1312728753
 20
1991093.403686577
 10
263481.8775790251
 20
1991095.195298931
 10
263480.622156067
 20
1991091.89890778
 10
263479.441117929
 20
1991088.399564597
 10
263482.8733993432
 20
1991087.486308557
 10
263481.8563039984
 20
1991085.157250582
 10
263488.6653926467
 20
1991082.775342168
 10
263490.02723721
 20
1991086.823064068
  0
LWPOLYLINE
  5
78
330
2
100
AcDbEntity
  8
مباني
100
AcDbPolyline
 90
        7
 70
     1
 43
0.2
 10
263455.9689710928
 20
1991088.586059417
 10
263459.5653333895
 20
1991086.935853179
 10
263459.8976779997
 20
1991087.761730587
 10
263463.6907043108
 20
1991086.022024732
 10
263465.7935989621
 20
1991091.840335987
 10
263458.5610395437
 20
1991094.922905155
 10
263457.00650009
 20
1991091.245853474
  0
LWPOLYLINE
  5
79
330
2
100
AcDbEntity
  8
مباني
100
AcDbPolyline
 90
       13
 70
     1
 43
0.2
 10
263464.2075360433
 20
1991105.858205809
 10
263464.4583498969
 20
1991106.607287976
 10
263462.4802014049
 20
1991107.269627929
 10
263462.1998970695
 20
1991106.593024315
 10
263455.4322067109
 20
1991108.48392697
 10
263455.4907918597
 20
1991108.717395111
 10
263454.3527839707
 20
1991109.002960246
 10
263450.9359248789
 20
1991110.150634989
 10
263450.8989418042
 20
1991110.160426891
 10
263449.1455002394
 20
1991104.511963629
 10
263453.7415379446
 20
1991103.085224502
 10
263453.9203091719
 20
1991103.765661597
 10
263462.3914774318
 20
1991100.949044105
  0
LWPOLYLINE
  5
7A
330
2
100
AcDbEntity
  8
مباني
100
AcDbPolyline
 90
       11
 70
     1
 43
0.2
 10
263486.0910898728
 20
1991126.472218784
 10
263486.3037597767
 20
1991127.097419046
 10
263485.0803723777
 20
1991127.534576982
 10
263482.2539587958
 20
1991128.693026317
 10
263479.7712479873
 20
1991129.239772492
 10
263479.3836794864
 20
1991129.32512339
 10
263478.1205882293
 20
1991124.857309371
 10
263480.766447857
 20
1991124.109301028
 10
263482.8340633073
 20
1991123.524767522
 10
263485.7344220306
 20
1991122.422587963
 10
263487.073599948
 20
1991126.115972116
  0
LWPOLYLINE
  5
7B
330
2
100
AcDbEntity
  8
مباني
100
AcDbPolyline
 90
       14
 70
     1
 43
0.2
 10
263470.8517704352
 20
1991126.865483348
 10
263471.1864608099
 20
1991127.950388937
 10
263468.9821225635
 20
1991128.677335601
 10
263463.7890767611
 20
1991130.762710661
 10
263461.9083480384
 20
1991128.220965144
 10
263459.4747713843
 20
1991129.136337733
 10
263457.9308917948
 20
1991129.293259153
 10
263456.5025306436
 20
1991125.073094688
 10
263455.8186306901
 20
1991122.993360413
 10
263456.6447975232
 20
1991122.649687144
 10
263465.5897213733
 20
1991118.928730188
 10
263465.749437742
 20
1991118.870249745
 10
263466.0208667272
 20
1991123.506181721
 10
263469.5755276948
 20
1991122.473299196
  0
LWPOLYLINE
  5
7C
330
2
100
AcDbEntity
  8
مباني
100
AcDbPolyline
 90
       13
 70
     1
 43
0.2
 10
263474.8896983259
 20
1991141.11057859
 10
263471.7391427999
 20
1991142.38084616
 10
263469.6696250589
 20
1991143.001488097
 10
263463.902718134
 20
1991145.056953762
 10
263462.9333460924
 20
1991142.295973595
 10
263463.377069504
 20
1991141.591353675
 10
263465.6062749805
 20
1991140.322232219
 10
263467.0030500337
 20
1991139.941496729
 10
263466.3372851704
 20
1991137.693620766
 10
263469.9813352031
 20
1991136.544008946
 10
263471.5565674393
 20
1991136.927897926
 42
-0.0400536583291414
 10
263472.1693062044
 20
1991137.525345835
 10
263473.6227933162
 20
1991137.417627674
  0
LWPOLYLINE
  5
7D
330
2
100
AcDbEntity
  8
مباني
100
AcDbPolyline
 90
       28
 70
     1
 43
0.2
 10
263669.1649676542
 20
1991044.722500241
 10
263671.8740566977
 20
1991042.831498845
 10
263671.6781427069
 20
1991042.464895571
 10
263673.3792094652
 20
1991040.773259566
 10
263673.2638675781
 20
1991040.629135241
 10
263675.2904370046
 20
1991039.209176241
 10
263676.2987480333
 20
1991040.530035722
 10
263681.2313517205
 20
1991038.268783673
 10
263681.3241113345
 20
1991037.90449962
 10
263684.2515475106
 20
1991036.344546846
 10
263682.6548948119
 20
1991032.763291539
 10
263689.1770024187
 20
1991029.59833197
 10
263689.0936444171
 20
1991029.2345221
 10
263692.4212472307
 20
1991027.727801298
 10
263694.5750001971
 20
1991032.723460261
 10
263691.994858884
 20
1991033.884949684
 10
263694.3514937591
 20
1991040.036565198
 10
263691.0205973668
 20
1991041.318492324
 10
263692.4901839268
 20
1991044.694020112
 10
263689.4227579644
 20
1991046.445933399
 10
263686.9368199823
 20
1991040.945668503
 10
263685.4527784171
 20
1991041.616406252
 10
263687.1589207793
 20
1991044.927668179
 10
263681.6233224872
 20
1991048.123768689
 10
263682.9274717648
 20
1991050.694558133
 10
263677.8427003
 20
1991053.435005809
 10
263676.7180605799
 20
1991051.428735516
 10
263674.4697711169
 20
1991052.874448661
  0
LWPOLYLINE
  5
7E
330
2
100
AcDbEntity
  8
مباني
100
AcDbPolyline
 90
        6
 70
     1
 43
0.2
 10
263456.7724842514
 20
1991146.171649506
 42
0.3345364243127644
 10
263456.5057820791
 20
1991147.149854775
 42
0.0276831805890886
 10
263455.6422581304
 20
1991147.74520249
 10
263453.2400266729
 20
1991149.076155495
 10
263452.1056127175
 20
1991144.577218423
 10
263455.5834120509
 20
1991143.190193336
  0
LWPOLYLINE
  5
7F
330
2
100
AcDbEntity
  8
مباني
100
AcDbPolyline
 90
       15
 70
     1
 43
0.2
 10
263613.4608132894
 20
1991047.420076032
 10
263614.4204013267
 20
1991049.487967496
 10
263612.5097569121
 20
1991050.568479685
 10
263611.8988097571
 20
1991050.787266309
 10
263609.5555912499
 20
1991052.182913819
 10
263608.8784536852
 20
1991052.720140958
 10
263608.5678181181
 20
1991053.252286224
 10
263606.7356323336
 20
1991050.466213711
 10
263604.2083327885
 20
1991045.390952869
 10
263610.8651542834
 20
1991042.592594324
 10
263615.232748335
 20
1991040.376715415
 10
263617.7579083367
 20
1991038.38807525
 10
263620.377440235
 20
1991041.426668718
 10
263617.5906050969
 20
1991044.306342678
 10
263617.9286359232
 20
1991044.907399713
  0
LWPOLYLINE
  5
80
330
2
100
AcDbEntity
  8
مباني
100
AcDbPolyline
 90
        5
 70
     0
 43
0.2
 10
263723.7728712397
 20
1991042.600929688
 10
263730.0445942043
 20
1991040.133232577
 10
263728.8462292074
 20
1991037.426396629
 10
263726.6022202237
 20
1991033.140666158
 10
263719.9917857063
 20
1991035.650411987
  0
LWPOLYLINE
  5
81
330
2
100
AcDbEntity
  8
مباني
100
AcDbPolyline
 90
        4
 70
     1
 43
0.2
 10
263734.2948579096
 20
1991041.806746391
 10
263732.1189703835
 20
1991036.270107032
 10
263728.8462292074
 20
1991037.426396629
 10
263731.2429592012
 20
1991042.840068525
  0
LWPOLYLINE
  5
82
330
2
100
AcDbEntity
  8
مباني
100
AcDbPolyline
 90
        8
 70
     1
 43
0.2
 10
263640.4304117551
 20
1991029.395422575
 10
263637.0056299202
 20
1991032.608958198
 10
263634.876853719
 20
1991034.973165645
 10
263630.5871679296
 20
1991031.110653062
 10
263632.6157508463
 20
1991029.412517844
 10
263631.627466543
 20
1991028.398833836
 10
263635.1818232402
 20
1991025.513735965
 10
263636.3708721544
 20
1991025.043988018
  0
LWPOLYLINE
  5
83
330
2
100
AcDbEntity
  8
مباني
100
AcDbPolyline
 90
        8
 70
     1
 43
0.2
 10
263642.6293419935
 20
1991027.202239974
 10
263641.4481024683
 20
1991028.146719643
 42
-0.1066517160492355
 10
263640.4304117552
 20
1991029.395422575
 10
263636.3708721543
 20
1991025.043988019
 42
-0.0844445984821472
 10
263639.1863870079
 20
1991022.433985241
 42
-0.0006368390629125
 10
263639.2041150215
 20
1991022.410833613
 10
263640.7827664724
 20
1991024.109443824
 10
263640.2312947738
 20
1991024.621969648
  0
LWPOLYLINE
  5
84
330
2
100
AcDbEntity
  8
مباني
100
AcDbPolyline
 90
       17
 70
     1
 43
0.2
 10
263623.149105628
 20
1991022.323087969
 10
263622.7071304355
 20
1991022.515313229
 10
263623.8062613919
 20
1991025.042497302
 10
263624.5904538164
 20
1991026.454640918
 10
263623.5205535076
 20
1991027.564678235
 10
263624.5429303134
 20
1991029.030982335
 10
263625.5721621049
 20
1991030.40613789
 10
263627.3275209987
 20
1991031.968671697
 10
263629.0828798925
 20
1991033.531205504
 10
263630.5871679294
 20
1991031.110653062
 10
263632.6157508463
 20
1991029.412517844
 10
263631.627466543
 20
1991028.398833836
 10
263630.6216678476
 20
1991027.195189419
 10
263630.9970979024
 20
1991026.137631227
 10
263629.2394109255
 20
1991023.732544755
 10
263629.730539208
 20
1991022.833404937
 10
263628.2062195976
 20
1991020.123631836
  0
LWPOLYLINE
  5
85
330
2
100
AcDbEntity
  8
مباني
100
AcDbPolyline
 90
       21
 70
     1
 43
0.2
 10
263650.8441776964
 20
1991025.88480239
 10
263650.1932165896
 20
1991026.516307287
 10
263647.2601470692
 20
1991029.431497475
 10
263648.8159888235
 20
1991030.996881464
 10
263646.5396399453
 20
1991033.43926141
 10
263645.5716607375
 20
1991034.868914824
 10
263641.8071907746
 20
1991030.861173275
 10
263640.4304117552
 20
1991029.395422575
 42
0.1066517160492355
 10
263641.4481024683
 20
1991028.146719643
 10
263642.6293419934
 20
1991027.202239974
 10
263640.2312947739
 20
1991024.621969647
 10
263640.7827664724
 20
1991024.109443824
 10
263639.2041150215
 20
1991022.410833613
 42
0.0006368390621396
 10
263639.1863870079
 20
1991022.433985241
 10
263638.9287123424
 20
1991022.151224582
 10
263643.2954916453
 20
1991018.20740666
 10
263644.3955550888
 20
1991019.047824163
 10
263644.3955550888
 20
1991019.047824163
 10
263644.3955550888
 20
1991019.047824163
 10
263644.3955550888
 20
1991019.047824163
 10
263649.1951549062
 20
1991024.18497443
  0
LWPOLYLINE
  5
86
330
2
100
AcDbEntity
  8
مباني
100
AcDbPolyline
 90
        7
 70
     1
 43
0.2
 10
263650.0699250368
 20
1991007.774623153
 10
263649.4944775884
 20
1991008.064799992
 10
263644.5393340918
 20
1991009.760546323
 10
263643.9717786322
 20
1991007.874340734
 10
263644.4155619019
 20
1991007.813494831
 10
263643.0156951559
 20
1991004.004899649
 10
263648.1952047021
 20
1991002.247943765
  0
LWPOLYLINE
  5
87
330
2
100
AcDbEntity
  8
مباني
100
AcDbPolyline
 90
       10
 70
     1
 43
0.2
 10
263635.2047727598
 20
1991008.554539986
 10
263638.2705580035
 20
1991008.656019404
 10
263644.4155619019
 20
1991007.813494831
 10
263643.0156951559
 20
1991004.004899649
 10
263642.6078407683
 20
1991001.518092087
 10
263641.8397591755
 20
1991000.142534701
 10
263638.1542642757
 20
1991000.631115772
 10
263638.0429219654
 20
1991002.381828996
 10
263637.5229800709
 20
1991002.996033869
 10
263634.8029249606
 20
1991003.045169508
  0
LWPOLYLINE
  5
88
330
2
100
AcDbEntity
  8
مباني
100
AcDbPolyline
 90
        4
 70
     1
 43
0.2
 10
263632.3775464483
 20
1991008.941190253
 10
263635.2047727598
 20
1991008.554539986
 10
263634.8029249606
 20
1991003.045169508
 10
263631.8561498878
 20
1991003.098400664
  0
LWPOLYLINE
  5
89
330
2
100
AcDbEntity
  8
مباني
100
AcDbPolyline
 90
        6
 70
     1
 43
0.2
 10
263631.8561498878
 20
1991003.098400664
 10
263628.3372268207
 20
1991003.398000679
 10
263628.760608857
 20
1991006.411926285
 10
263629.2527979688
 20
1991009.387041568
 10
263632.3775464483
 20
1991008.941190253
 10
263631.8561498878
 20
1991003.098400664
  0
LWPOLYLINE
  5
8A
330
2
100
AcDbEntity
  8
مباني
100
AcDbPolyline
 90
        6
 70
     1
 43
0.2
 10
263628.2133480497
 20
1991002.516146071
 10
263625.3937724558
 20
1991002.626295601
 10
263622.4670972043
 20
1991002.714066443
 10
263622.4670972043
 20
1991004.549233484
 10
263623.0111037696
 20
1991007.394486662
 10
263628.760608857
 20
1991006.411926285
  0
LWPOLYLINE
  5
8B
330
2
100
AcDbEntity
  8
مباني
100
AcDbPolyline
 90
        7
 70
     1
 43
0.2
 10
263648.7181516243
 20
1990987.231111035
 10
263651.6505831057
 20
1990994.780999032
 10
263652.3614741809
 20
1990998.955640155
 10
263644.6305163496
 20
1991000.37679697
 10
263641.8397591755
 20
1991000.142534701
 10
263641.9230496314
 20
1990998.399910224
 10
263641.1380050323
 20
1990988.709706783
  0
LWPOLYLINE
  5
8C
330
2
100
AcDbEntity
  8
مباني
100
AcDbPolyline
 90
        7
 70
     1
 43
0.2
 10
263648.7181516243
 20
1990987.231111035
 10
263641.1380050297
 20
1990988.709706783
 10
263638.7207336997
 20
1990988.861577789
 10
263638.5092872519
 20
1990985.582171625
 10
263638.5092872519
 20
1990982.996736479
 10
263642.3761991494
 20
1990983.263004214
 10
263646.9390037829
 20
1990981.418310837
  0
LWPOLYLINE
  5
8D
330
2
100
AcDbEntity
  8
مباني
100
AcDbPolyline
 90
       19
 70
     1
 43
0.2
 10
263626.8803813973
 20
1990984.71648265
 10
263626.4385083028
 20
1990984.959006738
 10
263625.9730518728
 20
1990985.1178734
 10
263626.6144740636
 20
1990986.688523358
 10
263627.1712783507
 20
1990989.874075006
 10
263630.2898691819
 20
1990989.998742737
 10
263630.3065884199
 20
1990995.059636032
 10
263630.3065884199
 20
1990995.059636032
 10
263634.5572778977
 20
1990994.501275367
 10
263634.5181323526
 20
1990994.102808529
 10
263641.4936724687
 20
1990993.423375847
 10
263641.1380050281
 20
1990988.709706783
 10
263638.7207336997
 20
1990988.861577789
 10
263638.5092872519
 20
1990985.582171625
 10
263632.3520383579
 20
1990986.03842449
 10
263631.6849628287
 20
1990984.449931773
 10
263628.562086072
 20
1990985.156875422
 10
263627.8624072972
 20
1990985.061571436
 10
263627.18705397
 20
1990984.855340689
  0
LWPOLYLINE
  5
8E
330
2
100
AcDbEntity
  8
مباني
100
AcDbPolyline
 90
       11
 70
     1
 43
0.2
 10
263650.7556035669
 20
1990895.665240683
 10
263649.7912413745
 20
1990891.684110914
 10
263649.3434179524
 20
1990891.826534028
 10
263648.9159533019
 20
1990888.774566832
 10
263649.7098195363
 20
1990888.55075523
 10
263649.3230624929
 20
1990886.55680243
 10
263649.6691086172
 20
1990886.495761064
 10
263649.5876867789
 20
1990885.458091543
 10
263652.8382190466
 20
1990884.85053071
 10
263653.5618890784
 20
1990887.884975162
 10
263654.5553019002
 20
1990894.829221059
  0
LWPOLYLINE
  5
8F
330
2
100
AcDbEntity
  8
مباني
100
AcDbPolyline
 90
        5
 70
     1
 43
0.2
 10
263526.6315335937
 20
1990863.269613256
 10
263525.3406311528
 20
1990859.197017872
 10
263535.2980581214
 20
1990856.069417655
 10
263535.7411223336
 20
1990857.487492712
 10
263536.2899706227
 20
1990860.095999305
  0
LWPOLYLINE
  5
90
330
2
100
AcDbEntity
  8
مباني
100
AcDbPolyline
 90
       15
 70
     1
 43
0.2
 10
263613.2455295442
 20
1990955.403346601
 10
263612.2615368203
 20
1990950.701082573
 10
263614.0671283476
 20
1990949.716651768
 10
263616.1736501401
 20
1990949.11505429
 10
263618.8820357751
 20
1990948.103278247
 10
263619.3471113267
 20
1990947.529026007
 10
263622.8762200821
 20
1990946.68132139
 10
263623.671947652
 20
1990946.107239946
 10
263626.5187411384
 20
1990945.053672971
 10
263627.326862156
 20
1990947.961621465
 10
263624.5388431547
 20
1990949.334818491
 10
263625.0625441522
 20
1990951.340414591
 10
263619.7418635019
 20
1990952.426549546
 10
263620.0903186784
 20
1990954.645073396
 10
263613.3911224098
 20
1990956.082085107
  0
LWPOLYLINE
  5
91
330
2
100
AcDbEntity
  8
مباني
100
AcDbPolyline
 90
       10
 70
     1
 43
0.2
 10
263620.0903186784
 20
1990954.645073396
 10
263613.3911224098
 20
1990956.082085108
 10
263613.2455295442
 20
1990955.403346601
 10
263608.5936368068
 20
1990956.40120128
 10
263611.3827446676
 20
1990967.860212512
 10
263611.4518565245
 20
1990968.229692369
 10
263614.9435269369
 20
1990967.576569281
 10
263617.8068329785
 20
1990966.863520396
 10
263617.1415181282
 20
1990964.191894265
 10
263621.4654635296
 20
1990963.400264464
  0
LWPOLYLINE
  5
92
330
2
100
AcDbEntity
  8
مباني
100
AcDbPolyline
 90
       23
 70
     1
 43
0.2
 10
263618.4461538564
 20
1990973.236787112
 10
263624.4017156512
 20
1990972.376048026
 10
263624.3679538204
 20
1990971.489786255
 10
263625.0279545646
 20
1990971.263422315
 10
263625.6344807055
 20
1990970.918505432
 10
263626.7208721742
 20
1990970.228031126
 10
263627.5723309545
 20
1990969.775202946
 10
263628.5109946498
 20
1990969.355668655
 10
263629.6632506774
 20
1990968.944264397
 10
263630.7940592579
 20
1990968.593364532
 10
263630.5158333683
 20
1990967.183979704
 10
263629.7820664129
 20
1990963.604142449
 10
263632.7353557306
 20
1990962.998800374
 10
263632.0157684278
 20
1990958.180620857
 10
263633.257289173
 20
1990957.607896786
 10
263631.9327733967
 20
1990952.625748636
 10
263626.1491600489
 20
1990953.849762647
 10
263625.0625441522
 20
1990951.340414591
 10
263619.7418635019
 20
1990952.426549546
 10
263621.4654635296
 20
1990963.400264464
 10
263617.1415181282
 20
1990964.191894265
 10
263617.8068329785
 20
1990966.863520396
 10
263617.0802563424
 20
1990967.072609887
  0
LWPOLYLINE
  5
93
330
2
100
AcDbEntity
  8
مباني
100
AcDbPolyline
 90
       10
 70
     1
 43
0.2
 10
263608.9615511842
 20
1990979.2313323
 10
263604.8556668725
 20
1990969.384347699
 10
263608.3319527798
 20
1990968.425673285
 10
263611.3827446676
 20
1990967.860212512
 10
263611.4837668328
 20
1990968.22372349
 10
263614.9386407573
 20
1990967.577483249
 10
263617.0802563424
 20
1990967.072609887
 10
263618.6858536581
 20
1990974.318531565
 10
263614.6089638799
 20
1990975.411708363
 10
263615.0692784627
 20
1990977.071687768
  0
LWPOLYLINE
  5
94
330
2
100
AcDbEntity
  8
مباني
100
AcDbPolyline
 90
       18
 70
     1
 43
0.2
 10
263611.2603020445
 20
1991032.683534704
 10
263614.2617041518
 20
1991038.3036911
 10
263615.2327483335
 20
1991040.376715415
 10
263617.7579083367
 20
1991038.38807525
 10
263620.3774402351
 20
1991041.426668718
 10
263623.6875852056
 20
1991038.006251721
 10
263624.338636976
 20
1991038.464562361
 10
263627.3994376824
 20
1991036.055248704
 10
263627.9350783856
 20
1991035.405116126
 10
263627.221882908
 20
1991034.817518242
 10
263629.0828798925
 20
1991033.531205504
 10
263625.5721621049
 20
1991030.40613789
 10
263624.5429303134
 20
1991029.030982335
 10
263622.5404146153
 20
1991030.165815319
 10
263619.2610129658
 20
1991025.363716952
 10
263617.6757767212
 20
1991026.572625946
 10
263615.1788249891
 20
1991028.555552072
 10
263615.7475680406
 20
1991029.312654411
  0
LWPOLYLINE
  5
95
330
2
100
AcDbEntity
  8
مباني
100
AcDbPolyline
 90
       11
 70
     1
 43
0.2
 10
263608.2355077779
 20
1991023.464984818
 10
263608.2466459833
 20
1991022.49605594
 10
263609.1471713812
 20
1991021.890799845
 10
263614.100056102
 20
1991019.780162345
 10
263615.9553108437
 20
1991023.656367773
 10
263617.6757767212
 20
1991026.572625946
 10
263615.1788249891
 20
1991028.555552072
 10
263615.7312070899
 20
1991029.324944926
 10
263611.2603020445
 20
1991032.683534704
 10
263609.1756577638
 20
1991027.190744245
 10
263609.5959585909
 20
1991026.803793849
  0
LWPOLYLINE
  5
96
330
2
100
AcDbEntity
  8
مباني
100
AcDbPolyline
 90
       11
 70
     1
 43
0.2
 10
263606.3091883335
 20
1991030.995514508
 10
263604.8392857949
 20
1991027.886261198
 10
263604.3468996153
 20
1991026.743161493
 10
263604.217268524
 20
1991025.975366636
 10
263604.6232946959
 20
1991025.344662031
 10
263605.8808818801
 20
1991024.421706323
 10
263608.2355077779
 20
1991023.464984818
 10
263609.5959585909
 20
1991026.803793849
 10
263609.1756577638
 20
1991027.190744245
 10
263611.2603020445
 20
1991032.683534704
 10
263607.6706402555
 20
1991034.260259457
  0
LWPOLYLINE
  5
97
330
2
100
AcDbEntity
  8
مباني
100
AcDbPolyline
 90
        4
 70
     1
 43
0.2
 10
263595.8694402465
 20
1990978.0298026
 10
263591.3333787686
 20
1990979.225273559
 10
263592.803727552
 20
1990984.804323744
 10
263597.4299018311
 20
1990983.370261459
  0
LWPOLYLINE
  5
98
330
2
100
AcDbEntity
  8
مباني
100
AcDbPolyline
 90
        6
 70
     1
 43
0.2
 10
263598.7514326173
 20
1991067.823736348
 10
263601.192413447
 20
1991066.420571104
 10
263599.9647932877
 20
1991063.896170563
 10
263600.9248183567
 20
1991063.429308782
 10
263600.2204611249
 20
1991062.129753153
 10
263596.867122806
 20
1991063.884423233
  0
LWPOLYLINE
  5
99
330
2
100
AcDbEntity
  8
مباني
100
AcDbPolyline
 90
       11
 70
     1
 43
0.2
 10
263597.2724841382
 20
1991068.673890138
 10
263594.6006982969
 20
1991070.476925176
 10
263593.5467948755
 20
1991071.143779969
 10
263592.5992459152
 20
1991071.414387255
 10
263590.6558029499
 20
1991071.491703623
 10
263589.7632395638
 20
1991071.130738844
 10
263589.3110145604
 20
1991070.210972137
 10
263588.2447931061
 20
1991066.679028554
 10
263588.8388744982
 20
1991066.499687545
 10
263588.8410206644
 20
1991066.831596885
 10
263595.5016139018
 20
1991064.739807553
  0
LWPOLYLINE
  5
9A
330
2
100
AcDbEntity
  8
مباني
100
AcDbPolyline
 90
       14
 70
     1
 43
0.2
 10
263573.7559757702
 20
1991078.44764173
 10
263576.1870919605
 20
1991077.349175799
 10
263580.3488295866
 20
1991075.5439384
 10
263583.9525109953
 20
1991073.987720651
 10
263589.7632395638
 20
1991071.130738844
 10
263589.3110145604
 20
1991070.210972137
 10
263588.244793106
 20
1991066.679028554
 10
263584.9872612075
 20
1991067.662410739
 10
263581.2648948179
 20
1991068.049985887
 10
263577.2571744283
 20
1991069.643753897
 10
263574.6185027648
 20
1991070.549888509
 10
263574.3749592629
 20
1991069.909471042
 10
263571.7170582146
 20
1991070.837696687
 10
263572.0240030446
 20
1991073.838047724
  0
LWPOLYLINE
  5
9B
330
2
100
AcDbEntity
  8
مباني
100
AcDbPolyline
 90
        9
 70
     1
 43
0.2
 10
263574.3749592629
 20
1991069.909471042
 10
263574.6185027648
 20
1991070.549888509
 10
263577.2571744283
 20
1991069.643753897
 10
263581.2648948179
 20
1991068.049985887
 10
263579.8690090778
 20
1991058.670681708
 10
263579.7451318007
 20
1991057.317266359
 10
263573.0218809283
 20
1991059.235549192
 10
263573.6779420926
 20
1991061.641696392
 10
263572.5826819151
 20
1991061.976210362
  0
LWPOLYLINE
  5
9C
330
2
100
AcDbEntity
  8
مباني
100
AcDbPolyline
 90
       15
 70
     1
 43
0.2
 10
263572.0430210832
 20
1991079.323878163
 10
263573.7559757702
 20
1991078.44764173
 10
263572.0240030446
 20
1991073.838047724
 10
263571.7170582146
 20
1991070.837696687
 10
263574.3749592629
 20
1991069.909471042
 10
263572.5826819151
 20
1991061.976210362
 10
263573.6779420926
 20
1991061.641696392
 10
263573.0218809283
 20
1991059.235549192
 10
263568.3240521692
 20
1991060.632718247
 10
263567.7402595486
 20
1991057.811643982
 10
263560.6579880963
 20
1991059.870668471
 10
263561.6102479741
 20
1991065.148084897
 10
263563.1286701976
 20
1991072.277820777
 10
263565.3487140957
 20
1991081.440990935
 10
263569.7937522885
 20
1991080.35639236
  0
LWPOLYLINE
  5
9D
330
2
100
AcDbEntity
  8
مباني
100
AcDbPolyline
 90
        6
 70
     1
 43
0.2
 10
263593.8940197731
 20
1991056.558230418
 10
263595.9031083574
 20
1991064.452118482
 10
263595.5016139018
 20
1991064.739807553
 10
263588.8410206644
 20
1991066.831596885
 10
263588.8388744982
 20
1991066.499687545
 10
263587.0895773082
 20
1991058.852578179
  0
LWPOLYLINE
  5
9E
330
2
100
AcDbEntity
  8
مباني
100
AcDbPolyline
 90
       10
 70
     1
 43
0.2
 10
263491.7933207108
 20
1991091.813837087
 10
263493.6939252176
 20
1991091.029419313
 10
263498.9987569488
 20
1991088.428442814
 10
263497.4276678485
 20
1991085.224121931
 10
263498.7924679752
 20
1991084.554955926
 10
263498.4146602738
 20
1991083.335973121
 10
263497.2898629547
 20
1991080.365696912
 10
263494.2559835506
 20
1991081.516399402
 10
263489.0034319379
 20
1991083.611669225
 10
263490.027237211
 20
1991086.823064069
  0
LWPOLYLINE
  5
9F
330
2
100
AcDbEntity
  8
مباني
100
AcDbPolyline
 90
        8
 70
     1
 43
0.2
 10
263494.2559835505
 20
1991081.516399402
 10
263493.1405781269
 20
1991081.939455039
 10
263489.0034319379
 20
1991083.611669225
 10
263488.6653926467
 20
1991082.775342168
 10
263483.8745774054
 20
1991084.451232103
 10
263482.0772696985
 20
1991080.088650352
 10
263486.6932222035
 20
1991078.005050273
 10
263491.5786539341
 20
1991075.84859689
  0
LWPOLYLINE
  5
A0
330
2
100
AcDbEntity
  8
مباني
100
AcDbPolyline
 90
        5
 70
     1
 43
0.2
 10
263492.4989947032
 20
1991077.796922449
 10
263497.7773328343
 20
1991075.756335927
 10
263496.9562411299
 20
1991072.850137099
 10
263490.919704719
 20
1991074.309728354
 10
263491.5956561145
 20
1991075.841092044
  0
LWPOLYLINE
  5
A1
330
2
100
AcDbEntity
  8
مباني
100
AcDbPolyline
 90
        4
 70
     1
 43
0.2
 10
263517.5632714878
 20
1991080.242881163
 10
263514.0702874768
 20
1991081.1719852
 10
263512.1917262969
 20
1991073.146850096
 10
263514.4995008554
 20
1991072.628126577
  0
LWPOLYLINE
  5
A2
330
2
100
AcDbEntity
  8
مباني
100
AcDbPolyline
 90
        7
 70
     1
 43
0.2
 10
263517.0058156641
 20
1991078.928421709
 10
263514.4995008554
 20
1991072.628126577
 10
263518.7710672146
 20
1991071.200906526
 10
263525.8865323853
 20
1991068.985600679
 10
263527.9279604255
 20
1991073.846158256
 10
263521.7570149106
 20
1991076.352065937
 10
263521.9579452523
 20
1991076.825155377
  0
LWPOLYLINE
  5
A3
330
2
100
AcDbEntity
  8
مباني
100
AcDbPolyline
 90
        6
 70
     1
 43
0.2
 10
263518.7836792533
 20
1991083.120555873
 10
263517.0058156641
 20
1991078.928421709
 10
263521.9579452524
 20
1991076.825155377
 10
263521.7570149106
 20
1991076.352065937
 10
263527.9279604255
 20
1991073.846158256
 10
263529.8675920507
 20
1991078.413321399
  0
LWPOLYLINE
  5
A4
330
2
100
AcDbEntity
  8
مباني
100
AcDbPolyline
 90
        5
 70
     1
 43
0.2
 10
263520.9746033874
 20
1991087.808055647
 10
263519.742388109
 20
1991085.072982196
 10
263518.7836792533
 20
1991083.120555873
 10
263530.3895336295
 20
1991078.191657674
 10
263532.1693531531
 20
1991083.059004928
  0
LWPOLYLINE
  5
A5
330
2
100
AcDbEntity
  8
مباني
100
AcDbPolyline
 90
       51
 70
     1
 43
0.2
 10
263545.308741703
 20
1991111.11652182
 10
263546.7809048785
 20
1991110.015507346
 10
263550.0958871824
 20
1991107.959095129
 10
263548.9445915315
 20
1991105.487562516
 10
263549.0336971747
 20
1991105.037552672
 10
263548.0226806466
 20
1991103.159077768
 10
263547.1540231679
 20
1991101.139017997
 10
263546.8761939978
 20
1991098.74374327
 10
263546.0894087872
 20
1991096.655284447
 10
263545.4270647874
 20
1991094.224055047
 10
263544.989892709
 20
1991092.14800361
 10
263544.9009725369
 20
1991090.703472549
 10
263545.0014283526
 20
1991089.339046764
 10
263545.1540977845
 20
1991088.702588411
 10
263540.8594997953
 20
1991090.914651715
 10
263536.564901806
 20
1991093.126715018
 10
263536.8865498068
 20
1991093.751176739
 10
263539.0734752589
 20
1991097.762693926
 10
263537.2707399661
 20
1991099.195252121
 10
263535.4680046733
 20
1991100.627810315
 10
263534.0231194204
 20
1991099.513376186
 10
263532.1589688029
 20
1991096.002850956
 10
263530.6240858295
 20
1991096.70841738
 10
263529.4572343276
 20
1991097.36465497
 10
263528.1228424542
 20
1991098.261237988
 10
263527.0169831152
 20
1991099.153121464
 10
263525.8149768362
 20
1991097.731738475
 10
263526.1212560713
 20
1991097.511211963
 42
-0.3000815663507126
 10
263526.7816240377
 20
1991095.109362052
 10
263526.091159413
 20
1991092.026923246
 10
263521.0277357984
 20
1991094.419263742
 10
263519.3712578102
 20
1991090.509712907
 10
263515.4589566563
 20
1991093.001963177
 10
263515.2667661927
 20
1991092.638856751
 10
263512.746047891
 20
1991093.973060677
 10
263513.49878822
 20
1991096.228231528
 10
263514.880575981
 20
1991100.465936958
 10
263516.0308457383
 20
1991104.24771907
 10
263516.4843721218
 20
1991104.019487466
 10
263517.0296673266
 20
1991106.289633439
 10
263518.7827684575
 20
1991105.725871499
 10
263520.677517518
 20
1991110.584192858
 10
263521.2544858083
 20
1991110.410885115
 10
263523.4047221941
 20
1991117.569354715
 10
263529.9919029919
 20
1991113.401792996
 10
263535.0750281534
 20
1991119.073163383
 10
263538.8630682961
 20
1991115.823457855
 10
263537.0911033521
 20
1991114.155859051
 10
263538.9520730148
 20
1991112.580330413
 10
263542.5676242674
 20
1991109.474000407
 10
263544.2058829419
 20
1991111.944418573
  0
LWPOLYLINE
  5
A6
330
2
100
AcDbEntity
  8
مباني
100
AcDbPolyline
 90
        8
 70
     1
 43
0.2
 10
263595.5016139018
 20
1991064.739807553
 10
263595.9031083574
 20
1991064.452118482
 10
263596.867122806
 20
1991063.884423233
 10
263596.867122806
 20
1991063.884423233
 10
263596.867122806
 20
1991063.884423233
 10
263596.867122806
 20
1991063.884423233
 10
263598.7514326173
 20
1991067.823736348
 10
263597.2724841382
 20
1991068.673890138
  0
LWPOLYLINE
  5
A7
330
2
100
AcDbEntity
  8
مباني
100
AcDbPolyline
 90
       10
 70
     1
 43
0.2
 10
263449.7784169762
 20
1991075.770610824
 10
263446.5545832969
 20
1991076.741710602
 42
0.2317213770552151
 10
263445.7200471829
 20
1991076.604613608
 42
0.10762947233217
 10
263445.0341278383
 20
1991075.850583509
 42
0.1225457896283839
 10
263444.3939346273
 20
1991073.622764654
 42
0.2285125796562562
 10
263444.7597573663
 20
1991072.78876187
 42
0.0750466421380994
 10
263445.4914074014
 20
1991072.331774136
 42
0.1313670503715695
 10
263446.9199320955
 20
1991072.119875512
 42
0.1442788875671219
 10
263448.0928798768
 20
1991072.616561933
 42
0.0923329053598259
 10
263448.7998303262
 20
1991073.456711102
  0
LWPOLYLINE
  5
A8
330
2
100
AcDbEntity
  8
مباني
100
AcDbPolyline
 90
        4
 70
     1
 43
0.2
 10
263481.03724002
 20
1991267.10799531
 10
263490.5036224392
 20
1991255.106847695
 10
263502.2864891532
 20
1991264.371148084
 10
263487.9606410232
 20
1991274.202435793
  0
LWPOLYLINE
  5
A9
330
2
100
AcDbEntity
  8
مباني
100
AcDbPolyline
 90
        5
 70
     1
 43
0.2
 10
263516.8117046784
 20
1991247.675388615
 10
263515.347328228
 20
1991250.891693184
 10
263512.8063291785
 20
1991250.135755117
 10
263510.9082569159
 20
1991249.139633817
 10
263512.5455005438
 20
1991246.01992669
  0
LWPOLYLINE
  5
AA
330
2
100
AcDbEntity
  8
مباني
100
AcDbPolyline
 90
       14
 70
     1
 43
0.2
 10
263624.817005042
 20
1991056.876411169
 10
263628.2908741939
 20
1991055.67722541
 10
263632.1739499086
 20
1991053.31740196
 10
263629.4446233946
 20
1991049.961813087
 10
263628.5413180894
 20
1991050.519818737
 10
263624.0584930469
 20
1991044.983387922
 10
263620.3774402351
 20
1991041.426668718
 10
263617.5906050969
 20
1991044.306342678
 10
263617.9286359233
 20
1991044.907399713
 10
263613.4608132895
 20
1991047.420076032
 10
263614.4204013267
 20
1991049.487967496
 10
263615.2185549028
 20
1991049.773472183
 10
263617.8301463611
 20
1991053.638555686
 10
263620.4951259874
 20
1991051.8378603
  0
LWPOLYLINE
  5
AB
330
2
100
AcDbEntity
  8
مباني
100
AcDbPolyline
 90
       18
 70
     1
 43
0.2
 10
263609.5195612469
 20
1991063.940042555
 10
263607.3769317704
 20
1991059.834449901
 10
263609.6680538143
 20
1991058.46364401
 10
263610.822703916
 20
1991057.713535463
 10
263608.5678181181
 20
1991053.252286225
 10
263608.8784536847
 20
1991052.720140959
 10
263609.5555912503
 20
1991052.182913819
 10
263611.8988097573
 20
1991050.787266309
 10
263612.5097569098
 20
1991050.568479687
 10
263614.4204013267
 20
1991049.487967496
 10
263615.2185549028
 20
1991049.773472183
 10
263617.8301463612
 20
1991053.638555686
 10
263620.4951259874
 20
1991051.8378603
 10
263624.817005042
 20
1991056.876411169
 10
263623.3025914861
 20
1991057.83575553
 10
263619.9754384479
 20
1991059.914642915
 10
263617.2523420338
 20
1991061.117729191
 10
263613.2244936
 20
1991062.406618316
  0
LWPOLYLINE
  5
AC
330
2
100
AcDbEntity
  8
مباني
100
AcDbPolyline
 90
        7
 70
     1
 43
0.2
 10
263643.398028865
 20
1991069.936112872
 10
263652.413842537
 20
1991068.24839146
 10
263648.4444939591
 20
1991062.160165965
 10
263644.6328391926
 20
1991058.953079329
 10
263640.441252622
 20
1991061.40295368
 10
263640.1075694518
 20
1991061.051919752
 10
263638.5633666924
 20
1991062.095917691
  0
LWPOLYLINE
  5
AD
330
2
100
AcDbEntity
  8
مباني
100
AcDbPolyline
 90
       25
 70
     1
 43
0.2
 10
263643.398028865
 20
1991069.936112872
 10
263638.5633666924
 20
1991062.095917691
 10
263637.0163225375
 20
1991063.135687999
 10
263635.5200052141
 20
1991060.909360752
 10
263633.0593678531
 20
1991062.156449234
 10
263631.2621670745
 20
1991063.933968028
 10
263628.1924040724
 20
1991067.79313437
 10
263627.9741861339
 20
1991067.94741699
 10
263627.1086946301
 20
1991068.542878839
 10
263624.7373607375
 20
1991069.736911535
 10
263623.4066744948
 20
1991068.342728551
 10
263618.8678891097
 20
1991071.882222743
 10
263618.2863734085
 20
1991070.986031861
 10
263611.8221082262
 20
1991075.180530798
 10
263614.8599194594
 20
1991079.546912197
 10
263615.4450919023
 20
1991079.139791687
 10
263618.4482511179
 20
1991082.693634866
 10
263620.5209344252
 20
1991081.139698134
 10
263623.8315350563
 20
1991084.459333137
 10
263627.1616576384
 20
1991081.921931941
 10
263627.1616576384
 20
1991081.921931941
 10
263632.1531510614
 20
1991078.100729365
 10
263631.210464833
 20
1991077.177760711
 10
263637.8119601435
 20
1991073.43066256
 10
263639.1833831549
 20
1991071.957442372
  0
LWPOLYLINE
  5
AE
330
2
100
AcDbEntity
  8
مباني
100
AcDbPolyline
 90
        6
 70
     1
 43
0.2
 10
263467.3824614948
 20
1991365.917806751
 10
263471.3650401107
 20
1991366.290976141
 10
263471.3650401107
 20
1991369.960456218
 10
263483.2816489577
 20
1991370.831180063
 10
263483.9867574198
 20
1991361.181160962
 10
263467.8180513003
 20
1991359.138600684
  0
LWPOLYLINE
  5
AF
330
2
100
AcDbEntity
  8
مباني
100
AcDbPolyline
 90
        4
 70
     1
 43
0.2
 10
263502.5707067383
 20
1991135.764311732
 10
263510.5868913031
 20
1991132.63094316
 10
263508.5629980168
 20
1991125.174319158
 10
263499.7792192996
 20
1991127.070321434
  0
LWPOLYLINE
  5
B0
330
2
100
AcDbEntity
  8
مباني
100
AcDbPolyline
 90
        6
 70
     1
 43
0.2
 10
263569.0870433738
 20
1991275.484977025
 10
263572.6168125978
 20
1991272.074685637
 10
263574.5385786478
 20
1991268.821191141
 42
-0.9635773784147128
 10
263570.2636318201
 20
1991266.077280364
 10
263568.028110664
 20
1991268.390004744
 10
263565.6357138975
 20
1991271.604301703
 42
-0.8142582087537672
  0
LWPOLYLINE
  5
B1
330
2
100
AcDbEntity
  8
مباني
100
AcDbPolyline
 90
        4
 70
     1
 43
0.2
 10
263379.0013812872
 20
1991113.712986656
 10
263382.4143496742
 20
1991112.786259965
 10
263382.970218611
 20
1991115.78634278
 10
263379.6436322648
 20
1991116.603539468
  0
LWPOLYLINE
  5
B2
330
2
100
AcDbEntity
  8
مباني
100
AcDbPolyline
 90
        6
 70
     1
 43
0.2
 10
263383.1738237792
 20
1991074.776435693
 10
263385.5086306338
 20
1991073.624063597
 10
263386.4454317849
 20
1991076.10166394
 10
263386.0134927361
 20
1991076.264983662
 10
263386.3450776572
 20
1991077.141941288
 10
263384.2979905407
 20
1991077.949184431
  0
LWPOLYLINE
  5
B3
330
2
100
AcDbEntity
  8
مباني
100
AcDbPolyline
 90
        8
 70
     1
 43
0.2
 10
263381.6521825363
 20
1991069.136475423
 10
263382.6202644166
 20
1991068.564891142
 10
263384.6582983308
 20
1991066.047216899
 10
263387.8146085611
 20
1991069.05778869
 10
263385.9384123157
 20
1991071.024809514
 10
263385.4942161701
 20
1991070.627897047
 10
263384.27758882
 20
1991071.989459672
 10
263381.6521825363
 20
1991069.136475423
  0
LWPOLYLINE
  5
B4
330
2
100
AcDbEntity
  8
مباني
100
AcDbPolyline
 90
        4
 70
     1
 43
0.2
 10
263377.4052316309
 20
1991065.848754926
 10
263380.4475487851
 20
1991064.299171228
 10
263382.6202644166
 20
1991068.564891142
 10
263379.8917423093
 20
1991070.175891594
  0
LWPOLYLINE
  5
B5
330
2
100
AcDbEntity
  8
مباني
100
AcDbPolyline
 90
        8
 70
     1
 43
0.2
 10
263375.090645377
 20
1991070.806780477
 10
263376.0628706891
 20
1991074.168341249
 10
263376.3991205073
 20
1991074.071091607
 10
263376.7986046431
 20
1991076.505675895
 10
263379.4928510787
 20
1991076.063584522
 10
263378.9269820305
 20
1991072.723920307
 10
263379.3038877505
 20
1991072.586070464
 10
263378.5902529851
 20
1991069.766544532
  0
LWPOLYLINE
  5
B6
330
2
100
AcDbEntity
  8
مباني
100
AcDbPolyline
 90
       11
 70
     1
 43
0.2
 10
263464.4523257171
 20
1991287.520152722
 10
263486.4618972219
 20
1991298.96210654
 10
263500.531072353
 20
1991280.238909814
 10
263493.1980452596
 20
1991276.372943084
 10
263489.0706026206
 20
1991281.768069018
 10
263490.0324979407
 20
1991282.248761352
 10
263484.785790081
 20
1991288.978445034
 10
263474.6421459186
 20
1991283.341242702
 10
263471.8876248527
 20
1991281.24367779
 10
263470.9694526586
 20
1991283.253842666
 10
263468.0811106651
 20
1991281.509946969
  0
LWPOLYLINE
  5
B7
330
2
100
AcDbEntity
  8
مباني
100
AcDbPolyline
 90
        4
 70
     1
 43
0.2
 10
263451.4578463038
 20
1991043.676837047
 10
263452.5177016914
 20
1991046.989927891
 10
263449.7546615814
 20
1991047.873822443
 10
263448.6583800013
 20
1991044.446863909
  0
LWPOLYLINE
  5
B8
330
2
100
AcDbEntity
  8
مباني
100
AcDbPolyline
 90
       11
 70
     1
 43
0.2
 10
263462.4999397285
 20
1991250.167554518
 10
263464.379706848
 20
1991252.532207433
 10
263465.643687182
 20
1991255.123606934
 10
263463.2453625336
 20
1991256.743232464
 10
263463.4035226023
 20
1991257.034636334
 10
263462.5040959363
 20
1991257.519286176
 10
263462.7969476389
 20
1991258.062768517
 10
263461.7841785015
 20
1991258.608492166
 10
263460.9338967981
 20
1991256.688036344
 10
263459.5894868951
 20
1991256.240138969
 10
263457.9432789224
 20
1991252.880499645
  0
LWPOLYLINE
  5
B9
330
2
100
AcDbEntity
  8
مباني
100
AcDbPolyline
 90
        6
 70
     1
 43
0.2
 10
263395.9692809098
 20
1991137.672329775
 10
263394.466666103
 20
1991132.82221993
 10
263396.634372783
 20
1991132.25596361
 10
263396.9152819316
 20
1991133.331322272
 10
263400.0623960707
 20
1991132.50922153
 10
263401.3640188741
 20
1991136.100830524
  0
LWPOLYLINE
  5
BA
330
2
100
AcDbEntity
  8
مباني
100
AcDbPolyline
 90
        4
 70
     1
 43
0.2
 10
263415.8123571603
 20
1991142.12960802
 10
263417.230525179
 20
1991146.948788172
 10
263420.098498975
 20
1991146.104812934
 10
263418.6350193575
 20
1991141.131656134
  0
LWPOLYLINE
  5
BB
330
2
100
AcDbEntity
  8
مباني
100
AcDbPolyline
 90
        4
 70
     1
 43
0.2
 10
263412.088350203
 20
1991144.931515062
 10
263412.5779442995
 20
1991147.916438333
 10
263416.5828292993
 20
1991147.397746276
 10
263416.1617745205
 20
1991144.373674909
  0
LWPOLYLINE
  5
BC
330
2
100
AcDbEntity
  8
مباني
100
AcDbPolyline
 90
        8
 70
     1
 43
0.2
 10
263414.7941938716
 20
1991165.701724325
 10
263417.0200246906
 20
1991165.139946889
 10
263416.909348308
 20
1991164.701433542
 10
263420.5269674574
 20
1991163.788382653
 10
263421.4667720384
 20
1991167.512003198
 10
263418.1216977152
 20
1991168.533082332
 10
263417.6967863833
 20
1991167.141064867
 10
263415.2888229425
 20
1991167.634237985
  0
LWPOLYLINE
  5
BD
330
2
100
AcDbEntity
  8
مباني
100
AcDbPolyline
 90
        4
 70
     1
 43
0.2
 10
263452.6245794474
 20
1991087.161324887
 10
263456.0464336896
 20
1991085.985891878
 10
263454.6002845743
 20
1991082.333440913
 10
263451.3381953975
 20
1991083.528513742
  0
LWPOLYLINE
  5
BE
330
2
100
AcDbEntity
  8
مباني
100
AcDbPolyline
 90
        4
 70
     1
 43
0.2
 10
263515.0650008105
 20
1991357.041701361
 10
263518.2356941199
 20
1991358.609094971
 10
263521.0317862301
 20
1991352.748588929
 10
263518.064836825
 20
1991351.219813151
  0
LWPOLYLINE
  5
BF
330
2
100
AcDbEntity
  8
مباني
100
AcDbPolyline
 90
        9
 70
     1
 43
0.2
 10
263552.6075839667
 20
1991121.228753783
 10
263552.3543661568
 20
1991119.81136795
 10
263555.8266586574
 20
1991117.653398708
 10
263551.3462935139
 20
1991109.905802926
 10
263546.7948206851
 20
1991113.210969521
 10
263546.7948206851
 20
1991113.210969521
 10
263544.7644003447
 20
1991114.689292794
 10
263547.4068377405
 20
1991117.939102381
 10
263549.2728375981
 20
1991121.707886032
  0
LWPOLYLINE
  5
C0
330
2
100
AcDbEntity
  8
مباني
100
AcDbPolyline
 90
        5
 70
     1
 43
0.2
 10
263542.1956580347
 20
1991116.559561459
 10
263545.7238440257
 20
1991122.271090657
 10
263549.2728375981
 20
1991121.707886032
 10
263547.4068377405
 20
1991117.939102381
 10
263544.7644003447
 20
1991114.689292794
  0
LWPOLYLINE
  5
C1
330
2
100
AcDbEntity
  8
مباني
100
AcDbPolyline
 90
        7
 70
     1
 43
0.2
 10
263534.8370773923
 20
1991094.87933086
 10
263536.8865498068
 20
1991093.716092196
 10
263539.0734752589
 20
1991097.762693926
 10
263535.4680046733
 20
1991100.627810315
 10
263534.0231194204
 20
1991099.513376186
 10
263532.1589688029
 20
1991096.002850956
 10
263534.8370773923
 20
1991094.87933086
  0
LWPOLYLINE
  5
C2
330
2
100
AcDbEntity
  8
مباني
100
AcDbPolyline
 90
        7
 70
     1
 43
0.2
 10
263463.1629118128
 20
1991164.760183997
 10
263464.7897836618
 20
1991163.548977391
 10
263462.5945338932
 20
1991160.613775793
 10
263459.2752279985
 20
1991162.769109461
 10
263456.5949019473
 20
1991164.567110016
 10
263454.67043827
 20
1991166.588870932
 10
263457.0652355078
 20
1991169.763427518
  0
LWPOLYLINE
  5
C3
330
2
100
AcDbEntity
  8
مباني
100
AcDbPolyline
 90
        5
 70
     1
 43
0.2
 10
263472.9269052795
 20
1991109.479048417
 10
263474.2294196906
 20
1991113.731660099
 10
263475.0485573133
 20
1991113.287193771
 10
263478.3970828557
 20
1991112.076991805
 42
-0.714738085441942
 10
263477.659788624
 20
1991108.658823611
 42
-0.1403465134222228
  0
LWPOLYLINE
  5
C4
330
2
100
AcDbEntity
  8
مباني
100
AcDbPolyline
 90
        9
 70
     1
 43
0.2
 10
263488.2468801415
 20
1991107.143786177
 10
263485.6092759803
 20
1991108.678906789
 10
263483.3933428476
 20
1991109.801969631
 10
263482.0544072274
 20
1991110.185722568
 10
263480.725544514
 20
1991110.52214301
 10
263479.2745863224
 20
1991110.74370109
 42
-0.4234752524686088
 10
263477.659788624
 20
1991108.658823611
 42
0.0934199758329361
 10
263478.7746000211
 20
1991107.090451922
 42
0.0519308822775384
 10
263485.9255047035
 20
1991103.250224603
 42
-0.0035484242057479
  0
LWPOLYLINE
  5
C5
330
2
100
AcDbEntity
  8
مباني
100
AcDbPolyline
 90
        4
 70
     1
 43
0.2
 10
263482.910383377
 20
1991099.650015633
 10
263477.3604326335
 20
1991100.503396852
 10
263478.7746000211
 20
1991107.090451922
 42
0.0586725616164729
 10
263483.95100221
 20
1991104.210283799
  0
LWPOLYLINE
  5
C6
330
2
100
AcDbEntity
  8
مباني
100
AcDbPolyline
 90
        7
 70
     1
 43
0.2
 10
263490.4882042003
 20
1991097.703234846
 10
263489.1274043988
 20
1991097.383215114
 10
263482.910383377
 20
1991099.650015633
 10
263483.95100221
 20
1991104.210283799
 10
263485.9255047035
 20
1991103.250224603
 10
263491.7156014018
 20
1991100.263383236
 10
263490.3949400181
 20
1991097.703234846
  0
LWPOLYLINE
  5
C7
330
2
100
AcDbEntity
  8
مباني
100
AcDbPolyline
 90
        4
 70
     1
 43
0.2
 10
263507.6174809738
 20
1991073.242918464
 10
263504.0987819593
 20
1991074.878238246
 10
263505.3906480506
 20
1991077.585813744
 10
263508.9004550912
 20
1991075.949986919
  0
LWPOLYLINE
  5
C8
330
2
100
AcDbEntity
  8
مباني
100
AcDbPolyline
 90
        8
 70
     1
 43
0.2
 10
263526.7816240379
 20
1991095.109362053
 42
0.3478459472000428
 10
263525.8149768361
 20
1991097.731738475
 10
263527.0169831116
 20
1991099.153121467
 42
0.0830965278315416
 10
263532.1592090164
 20
1991096.003489591
 10
263534.8858370275
 20
1991094.851655888
 10
263532.6826786354
 20
1991087.568666497
 10
263525.9557438682
 20
1991090.506049715
 10
263526.091159413
 20
1991092.026923246
  0
LWPOLYLINE
  5
C9
330
2
100
AcDbEntity
  8
مباني
100
AcDbPolyline
 90
       11
 70
     1
 43
0.2
 10
263525.9557438682
 20
1991090.506049715
 10
263525.9557438682
 20
1991090.506049715
 10
263526.091159413
 20
1991092.026923246
 10
263521.0277357984
 20
1991094.419263742
 10
263519.3712578111
 20
1991090.509712906
 10
263521.5627987635
 20
1991089.113637217
 10
263520.9746033874
 20
1991087.808055647
 10
263532.1693531531
 20
1991083.059004928
 10
263533.6846010154
 20
1991087.131167088
 10
263532.6826786354
 20
1991087.568666497
 10
263525.9557438682
 20
1991090.506049715
  0
LWPOLYLINE
  5
CA
330
2
100
AcDbEntity
  8
مباني
100
AcDbPolyline
 90
        9
 70
     1
 43
0.2
 10
263510.906316424
 20
1991088.965217427
 10
263507.7578061401
 20
1991081.571681553
 10
263502.4056967791
 20
1991083.958711342
 10
263502.0028541493
 20
1991082.980892994
 10
263497.4276678485
 20
1991085.224121931
 10
263500.8708813404
 20
1991092.246741397
 10
263504.6213517
 20
1991090.688407619
 10
263505.1766780063
 20
1991092.015102339
 10
263511.1854584163
 20
1991089.627473409
  0
LWPOLYLINE
  5
CB
330
2
100
AcDbEntity
  8
مباني
100
AcDbPolyline
 90
       12
 70
     1
 43
0.2
 10
263521.5627987635
 20
1991089.113637217
 10
263515.4589566563
 20
1991093.001963177
 10
263515.2568848165
 20
1991092.644086915
 10
263512.746047891
 20
1991093.973060677
 10
263511.2673261822
 20
1991094.897744516
 10
263508.1437736278
 20
1991096.284042082
 10
263506.5638070986
 20
1991093.283175701
 10
263506.1173379305
 20
1991093.499318835
 10
263505.1766780063
 20
1991092.015102339
 10
263511.1854584163
 20
1991089.627473409
 10
263510.9193241991
 20
1991088.965217427
 10
263519.742388109
 20
1991085.072982196
  0
LWPOLYLINE
  5
CC
330
2
100
AcDbEntity
  8
مباني
100
AcDbPolyline
 90
        4
 70
     1
 43
0.2
 10
263420.2742418929
 20
1991072.805069219
 10
263420.9768905619
 20
1991075.368346287
 10
263418.3618501885
 20
1991076.085184377
 10
263417.4285352402
 20
1991073.577563937
  0
LWPOLYLINE
  5
CD
330
2
100
AcDbEntity
  8
مباني
100
AcDbPolyline
 90
        4
 70
     1
 43
0.2
 10
263486.0704612794
 20
1991064.438946591
 10
263487.3036845652
 20
1991067.712935272
 10
263481.0031685318
 20
1991069.792088938
 10
263480.2897583237
 20
1991066.4033398
  0
LWPOLYLINE
  5
CE
330
2
100
AcDbEntity
  8
مباني
100
AcDbPolyline
 90
        4
 70
     1
 43
0.2
 10
263484.4812336829
 20
1991059.835664314
 10
263486.0704612794
 20
1991064.438946591
 10
263480.2897583237
 20
1991066.4033398
 10
263478.7694204709
 20
1991061.670466348
  0
LWPOLYLINE
  5
CF
330
2
100
AcDbEntity
  8
مباني
100
AcDbPolyline
 90
        6
 70
     1
 43
0.2
 10
263482.8910216547
 20
1991055.656250624
 10
263484.4812336829
 20
1991059.835664314
 10
263478.6705209052
 20
1991061.702235791
 10
263478.3243140818
 20
1991061.049409824
 10
263477.3210935827
 20
1991057.926343685
 10
263478.5700248935
 20
1991057.454054599
  0
LWPOLYLINE
  5
D0
330
2
100
AcDbEntity
  8
مباني
100
AcDbPolyline
 90
       18
 70
     1
 43
0.2
 10
263517.3855903399
 20
1991033.873079145
 10
263513.002157491
 20
1991035.479482494
 10
263511.3948946884
 20
1991031.755551115
 10
263498.6464077508
 20
1991033.654024358
 10
263497.8399614997
 20
1991029.846664724
 10
263493.2373549627
 20
1991031.087973605
 10
263492.1414947048
 20
1991026.889420366
 10
263494.1505691167
 20
1991026.487823079
 10
263493.1535512436
 20
1991023.250307173
 10
263498.1687179406
 20
1991022.106727339
 10
263498.1687179406
 20
1991022.106727339
 10
263501.3832353632
 20
1991022.28926984
 10
263501.8215827394
 20
1991024.151235529
 10
263505.2552738502
 20
1991023.384543775
 10
263506.0589052514
 20
1991026.633858026
 10
263508.8456233069
 20
1991025.944637482
 10
263508.0314520792
 20
1991023.092473881
 10
263512.6705862005
 20
1991021.814652712
  0
LWPOLYLINE
  5
D1
330
2
100
AcDbEntity
  8
مباني
100
AcDbPolyline
 90
        5
 70
     1
 43
0.2
 10
263500.66092366
 20
1991068.138478069
 10
263498.9633892826
 20
1991063.396618785
 42
0.2321732760232873
 10
263499.2680803952
 20
1991060.699414422
 10
263501.8796717449
 20
1991060.003361684
 10
263504.4912630946
 20
1991067.050895664
  0
LWPOLYLINE
  5
D2
330
2
100
AcDbEntity
  8
مباني
100
AcDbPolyline
 90
       10
 70
     1
 43
0.2
 10
263515.8551303835
 20
1991066.866786459
 10
263513.9593209404
 20
1991063.634483506
 10
263514.6284368943
 20
1991063.07719071
 10
263509.7495086745
 20
1991056.306069033
 10
263502.8508112503
 20
1991061.39724213
 42
0.161175598437588
 10
263503.9784367597
 20
1991064.6097459
 10
263508.690085991
 20
1991067.953512145
 10
263511.2271247377
 20
1991066.69959862
 10
263512.5374699951
 20
1991068.67799278
 10
263515.9193223316
 20
1991067.152724722
  0
LWPOLYLINE
  5
D3
330
2
100
AcDbEntity
  8
مباني
100
AcDbPolyline
 90
        8
 70
     1
 43
0.2
 10
263532.6504628829
 20
1991058.4704089
 10
263526.2102831968
 20
1991061.340471535
 10
263523.7290013855
 20
1991056.687067219
 10
263519.6585814576
 20
1991057.244360015
 10
263518.3078007696
 20
1991053.16482889
 10
263531.8419545908
 20
1991049.888085636
 10
263533.1522916656
 20
1991053.733410664
 10
263531.5073966138
 20
1991054.652943778
  0
LWPOLYLINE
  5
D4
330
2
100
AcDbEntity
  8
مباني
100
AcDbPolyline
 90
        4
 70
     1
 43
0.2
 10
263484.0623769745
 20
1991117.738265871
 10
263487.7363858767
 20
1991116.346444389
 10
263486.669737867
 20
1991113.56279669
 10
263483.0846176626
 20
1991114.984234114
  0
LWPOLYLINE
  5
D5
330
2
100
AcDbEntity
  8
مباني
100
AcDbPolyline
 90
        4
 70
     1
 43
0.2
 10
263403.5314341613
 20
1991133.966055593
 10
263406.8038933007
 20
1991133.592886203
 10
263407.9020365327
 20
1991139.322124998
 10
263404.190321737
 20
1991140.266024881
  0
LWPOLYLINE
  5
D6
330
2
100
AcDbEntity
  8
مباني
100
AcDbPolyline
 90
        4
 70
     1
 43
0.2
 10
263446.7509033199
 20
1991109.259973045
 10
263448.5622292368
 20
1991116.306211768
 10
263439.2133851846
 20
1991119.634159493
 10
263436.762686466
 20
1991112.241286275
  0
LWPOLYLINE
  5
D7
330
2
100
AcDbEntity
  8
مباني
100
AcDbPolyline
 90
        9
 70
     1
 43
0.2
 10
263420.1488419761
 20
1991057.167581975
 10
263420.3216442889
 20
1991058.450548186
 10
263418.7823651491
 20
1991058.849405591
 10
263419.4682981313
 20
1991061.554617975
 10
263420.9140965024
 20
1991061.164517718
 10
263423.6042908929
 20
1991067.860801987
 10
263424.7046843681
 20
1991070.642655784
 10
263434.5434513708
 20
1991067.472637661
 10
263430.3988470615
 20
1991055.115533719
  0
LWPOLYLINE
  5
D8
330
2
100
AcDbEntity
  8
مباني
100
AcDbPolyline
 90
       12
 70
     1
 43
0.2
 10
263435.6427647292
 20
1991112.575563908
 10
263447.3024121676
 20
1991109.095357013
 10
263442.9226451695
 20
1991094.047064667
 10
263439.5489096344
 20
1991095.028981765
 10
263438.49091801
 20
1991089.986821712
 10
263431.5267916962
 20
1991091.67419676
 10
263432.6874753238
 20
1991096.789050304
 10
263430.9406668391
 20
1991097.185443278
 10
263431.7574862892
 20
1991100.784970107
 10
263431.5583196491
 20
1991101.527122987
 10
263432.2793636668
 20
1991103.560414551
 10
263433.1911124837
 20
1991103.469880513
  0
LWPOLYLINE
  5
D9
330
2
100
AcDbEntity
  8
مباني
100
AcDbPolyline
 90
       10
 70
     1
 43
0.2
 10
263431.0043752338
 20
1991139.714468783
 10
263429.6022446017
 20
1991136.444574363
 10
263428.1333512994
 20
1991136.978432841
 10
263424.4864598735
 20
1991128.418990104
 10
263431.897721786
 20
1991125.349293205
 10
263432.026664813
 20
1991125.705408698
 10
263438.6357436626
 20
1991122.853384477
 10
263441.5604493016
 20
1991129.630890094
 10
263436.1828885599
 20
1991131.797328004
 10
263437.9875099656
 20
1991136.453269342
  0
LWPOLYLINE
  5
DA
330
2
100
AcDbEntity
  8
مباني
100
AcDbPolyline
 90
       11
 70
     1
 43
0.2
 10
263465.5409279178
 20
1991156.071329486
 10
263465.0148701528
 20
1991156.284444045
 10
263461.551664034
 20
1991150.767898548
 10
263462.1068358547
 20
1991150.550528798
 10
263460.2565222379
 20
1991146.933474194
 10
263463.9027181342
 20
1991145.056953762
 10
263465.6660200657
 20
1991148.483159072
 10
263472.0386401856
 20
1991145.655264899
 10
263475.3366866359
 20
1991153.460521126
 10
263467.7177640977
 20
1991157.485515572
 10
263466.7109807399
 20
1991158.138216479
  0
LWPOLYLINE
  5
DB
330
2
100
AcDbEntity
  8
مباني
100
AcDbPolyline
 90
       11
 70
     1
 43
0.2
 10
263448.2397489288
 20
1991157.570387469
 10
263450.5144215919
 20
1991161.136597508
 10
263452.7890942549
 20
1991164.702807546
 10
263454.0661015602
 20
1991165.983018237
 10
263454.6704382699
 20
1991166.588870932
 10
263456.5949019473
 20
1991164.567110016
 10
263461.9555540497
 20
1991160.971108905
 10
263466.0122679508
 20
1991158.702495551
 10
263463.2258286128
 20
1991154.360794648
 10
263461.5713422884
 20
1991155.416797625
 10
263458.631879375
 20
1991151.106628816
  0
LWPOLYLINE
  5
DC
330
2
100
AcDbEntity
  8
مباني
100
AcDbPolyline
 90
       10
 70
     1
 43
0.2
 10
263442.5906156476
 20
1991189.045412746
 42
-1.135736417531253
 10
263443.799282643
 20
1991190.109627098
 10
263446.1590676867
 20
1991192.29557425
 10
263449.6987411611
 20
1991187.405952383
 10
263450.4757378655
 20
1991187.808628851
 10
263453.3247421473
 20
1991185.191241275
 10
263451.2527427527
 20
1991180.819346972
 10
263445.2957271049
 20
1991183.1778684
 10
263444.7777293019
 20
1991182.717668751
 10
263441.007835491
 20
1991187.636054575
  0
LWPOLYLINE
  5
DD
330
2
100
AcDbEntity
  8
مباني
100
AcDbPolyline
 90
       10
 70
     1
 43
0.2
 10
263531.2590270431
 20
1991136.519123042
 10
263548.562243525
 20
1991144.77965634
 10
263544.9856006005
 20
1991152.025735937
 10
263544.0672722574
 20
1991151.639280315
 10
263539.7627288438
 20
1991160.491185805
 10
263537.5394149134
 20
1991159.621659472
 10
263536.8960745257
 20
1991161.266632823
 10
263524.9728294538
 20
1991155.612161685
 10
263525.7461603075
 20
1991153.728176918
 10
263523.4745111531
 20
1991152.665420408
  0
LWPOLYLINE
  5
DE
330
2
100
AcDbEntity
  8
مباني
100
AcDbPolyline
 90
        9
 70
     1
 43
0.2
 10
263548.8406517969
 20
1991128.877594649
 10
263550.559240268
 20
1991126.611769179
 10
263552.6077716717
 20
1991124.249338087
 10
263556.1533121436
 20
1991127.359873462
 10
263556.704834479
 20
1991126.729892153
 10
263559.5018704168
 20
1991129.210441487
 10
263554.747226982
 20
1991134.531928698
 10
263552.0169559985
 20
1991132.160249909
 10
263552.2888753874
 20
1991131.73748553
  0
LWPOLYLINE
  5
DF
330
2
100
AcDbEntity
  8
مباني
100
AcDbPolyline
 90
        7
 70
     1
 43
0.2
 10
263524.5388025445
 20
1991121.344883661
 10
263524.0571896539
 20
1991121.478648052
 10
263528.012637994
 20
1991127.545686638
 10
263536.4074934853
 20
1991120.773476314
 10
263529.9574700081
 20
1991113.624631861
 10
263523.4047221941
 20
1991117.569354715
 10
263524.5388025445
 20
1991121.344883661
  0
LWPOLYLINE
  5
E0
330
2
100
AcDbEntity
  8
مباني
100
AcDbPolyline
 90
        7
 70
     1
 43
0.2
 10
263512.3702973818
 20
1991113.079441984
 10
263521.254486669
 20
1991110.41088798
 10
263524.5388025445
 20
1991121.344883661
 10
263515.1117400385
 20
1991123.963180021
 10
263512.9908273954
 20
1991124.311001606
 10
263511.0502310737
 20
1991118.310941728
 10
263513.8705613546
 20
1991117.398763737
  0
LWPOLYLINE
  5
E1
330
2
100
AcDbEntity
  8
مباني
100
AcDbPolyline
 90
        6
 70
     1
 43
0.2
 10
263499.2226557172
 20
1991120.950852792
 10
263498.6801777642
 20
1991118.565245025
 10
263498.3851995196
 20
1991114.598493213
 10
263498.8142677112
 20
1991113.177969305
 10
263502.7026797859
 20
1991112.56151089
 10
263504.266435159
 20
1991119.803401562
  0
LWPOLYLINE
  5
E2
330
2
100
AcDbEntity
  8
مباني
100
AcDbPolyline
 90
        4
 70
     1
 43
0.2
 10
263505.530200504
 20
1991125.828956663
 10
263504.266435159
 20
1991119.803401562
 10
263498.0539867965
 20
1991121.21672298
 10
263499.7798686037
 20
1991127.072486925
  0
LWPOLYLINE
  5
E3
330
2
100
AcDbEntity
  8
مباني
100
AcDbPolyline
 90
        6
 70
     1
 43
0.2
 10
263500.4361775513
 20
1991148.029813109
 10
263497.1836896141
 20
1991143.459621828
 10
263500.3279694926
 20
1991141.180678015
 10
263500.5386821361
 20
1991141.4714002
 10
263502.6182506609
 20
1991140.045161993
 10
263506.0807121538
 20
1991144.046499658
  0
LWPOLYLINE
  5
E4
330
2
100
AcDbEntity
  8
مباني
100
AcDbPolyline
 90
       11
 70
     1
 43
0.2
 10
263489.9429334496
 20
1991149.479053642
 10
263490.5678955405
 20
1991150.853239037
 10
263492.5261062733
 20
1991150.228611033
 10
263493.1927346856
 20
1991151.686077953
 10
263499.6923453404
 20
1991148.188154505
 10
263496.9008490922
 20
1991143.524261307
 10
263493.5677152133
 20
1991145.772924014
 10
263493.7808909804
 20
1991146.216225963
 10
263492.4611356149
 20
1991147.262870493
 10
263491.6577987909
 20
1991148.338189048
 10
263491.8012497496
 20
1991148.710965579
  0
LWPOLYLINE
  5
E5
330
2
100
AcDbEntity
  8
مباني
100
AcDbPolyline
 90
        4
 70
     1
 43
0.2
 10
263489.5713241955
 20
1991165.743597046
 10
263492.8246112628
 20
1991167.823746605
 10
263489.7027138505
 20
1991172.677438374
 10
263486.465194851
 20
1991170.905456491
  0
LWPOLYLINE
  5
E6
330
2
100
AcDbEntity
  8
مباني
100
AcDbPolyline
 90
        6
 70
     1
 43
0.2
 10
263471.8241280937
 20
1991187.233149196
 10
263476.3952828663
 20
1991190.519597504
 10
263473.706733199
 20
1991197.268619638
 10
263465.422270548
 20
1991208.891932644
 10
263460.8892578962
 20
1991205.392437757
 10
263461.2644020779
 20
1991204.798774671
  0
LWPOLYLINE
  5
E7
330
2
100
AcDbEntity
  8
مباني
100
AcDbPolyline
 90
        9
 70
     1
 43
0.2
 10
263464.9097715211
 20
1991232.16121672
 10
263462.8515973107
 20
1991230.323493295
 10
263464.2661340919
 20
1991228.710467491
 10
263459.666442416
 20
1991224.498960998
 10
263457.8607087548
 20
1991225.867178195
 10
263450.9594596498
 20
1991233.326121059
 10
263455.3113632235
 20
1991237.000382147
 10
263454.8014499306
 20
1991237.629942197
 10
263457.630475364
 20
1991239.921316427
  0
LWPOLYLINE
  5
E8
330
2
100
AcDbEntity
  8
مباني
100
AcDbPolyline
 90
       15
 70
     1
 43
0.2
 10
263446.4320017307
 20
1991210.505033541
 10
263442.5265696346
 20
1991214.431860393
 10
263442.9755400889
 20
1991214.878384695
 10
263440.5623691635
 20
1991217.497131703
 10
263444.5941503699
 20
1991220.734608098
 10
263444.5941503699
 20
1991220.734608098
 10
263444.5682528575
 20
1991220.713812678
 10
263444.958247903
 20
1991220.232670654
 10
263449.9356222175
 20
1991224.621296994
 10
263455.5218796123
 20
1991219.731698794
 10
263454.5400534973
 20
1991218.547368769
 10
263454.2522760308
 20
1991218.834994142
 10
263452.0156079299
 20
1991216.371404042
 10
263452.0156079299
 20
1991216.371404042
 10
263452.3203072251
 20
1991216.066862035
  0
LWPOLYLINE
  5
E9
330
2
100
AcDbEntity
  8
مباني
100
AcDbPolyline
 90
        4
 70
     1
 43
0.2
 10
263462.9037083437
 20
1991217.944343316
 10
263459.1476023867
 20
1991219.149783633
 10
263460.3192344703
 20
1991222.318381781
 10
263463.4550588423
 20
1991221.767322674
  0
LWPOLYLINE
  5
EA
330
2
100
AcDbEntity
  8
مباني
100
AcDbPolyline
 90
        5
 70
     1
 43
0.2
 10
263461.559781275
 20
1991206.923142246
 10
263464.4888533013
 20
1991209.850647597
 10
263463.4550588423
 20
1991216.153395303
 10
263460.9050505121
 20
1991217.599928416
 10
263456.0807009183
 20
1991214.431335002
  0
LWPOLYLINE
  5
EB
330
2
100
AcDbEntity
  8
مباني
100
AcDbPolyline
 90
        8
 70
     1
 43
0.2
 10
263564.9889616392
 20
1991155.435247018
 10
263574.7623488486
 20
1991148.751766189
 10
263578.2601923473
 20
1991155.058234229
 10
263578.2601923473
 20
1991155.503798671
 10
263580.4206222085
 20
1991159.239695704
 10
263577.4714616474
 20
1991161.021958205
 10
263577.7458031161
 20
1991161.604621219
 10
263571.4359656992
 20
1991165.717531041
  0
LWPOLYLINE
  5
EC
330
2
100
AcDbEntity
  8
مباني
100
AcDbPolyline
 90
        8
 70
     1
 43
0.2
 10
263561.3684930727
 20
1991235.666746259
 10
263562.8867827771
 20
1991237.740085588
 10
263560.3182165845
 20
1991239.837785339
 10
263564.0065202053
 20
1991244.606230277
 10
263566.4899800707
 20
1991242.44322377
 10
263570.6982705152
 20
1991247.989638516
 10
263585.1160042273
 20
1991237.660320192
 10
263575.7743282225
 20
1991224.865012011
  0
LWPOLYLINE
  5
ED
330
2
100
AcDbEntity
  8
مباني
100
AcDbPolyline
 90
       12
 70
     1
 43
0.2
 10
263543.4091211249
 20
1991222.631874362
 10
263548.3978612132
 20
1991226.00480689
 10
263547.9870240829
 20
1991227.090013204
 10
263550.129247431
 20
1991228.468515322
 10
263550.6700681251
 20
1991227.62806778
 10
263556.5559174751
 20
1991231.606811206
 10
263559.0962865817
 20
1991227.980219104
 10
263564.7774715089
 20
1991231.851695336
 10
263571.3809370245
 20
1991221.822739559
 10
263566.5113452683
 20
1991218.614945372
 10
263565.5890728625
 20
1991219.831693423
 10
263551.4202815104
 20
1991210.681200354
  0
LWPOLYLINE
  5
EE
330
2
100
AcDbEntity
  8
مباني
100
AcDbPolyline
 90
        4
 70
     1
 43
0.2
 10
263495.6988509993
 20
1991219.326579969
 10
263505.2179607264
 20
1991223.079819628
 10
263501.6373819221
 20
1991231.721010317
 10
263492.4915181861
 20
1991227.931314311
  0
LWPOLYLINE
  5
EF
330
2
100
AcDbEntity
  8
مباني
100
AcDbPolyline
 90
        4
 70
     1
 43
0.2
 10
263491.6444267397
 20
1991235.699391656
 10
263487.1790292744
 20
1991233.301428126
 10
263485.8559798715
 20
1991235.765160945
 10
263490.3746119233
 20
1991237.920613415
  0
LWPOLYLINE
  5
F0
330
2
100
AcDbEntity
  8
مباني
100
AcDbPolyline
 90
        4
 70
     1
 43
0.2
 10
263494.3226349862
 20
1991231.014539696
 10
263492.2200758884
 20
1991234.692438203
 10
263481.6883785764
 20
1991230.125663839
 10
263483.1985705377
 20
1991226.44736023
  0
LWPOLYLINE
  5
F1
330
2
100
AcDbEntity
  8
مباني
100
AcDbPolyline
 90
       13
 70
     1
 43
0.2
 10
263482.2089266428
 20
1991225.422359497
 10
263474.8926031852
 20
1991223.113733361
 10
263465.9236901956
 20
1991222.663795396
 10
263466.9971871274
 20
1991228.962912699
 10
263468.2092090308
 20
1991233.427673357
 10
263474.5118374868
 20
1991248.318978016
 10
263485.0198595494
 20
1991242.774908674
 10
263480.8444882784
 20
1991232.283528621
 10
263476.3158370072
 20
1991234.263759282
 10
263474.9520914328
 20
1991230.971949917
 10
263475.7754840608
 20
1991228.348792509
 10
263479.9953692336
 20
1991229.763238924
 10
263480.3473562641
 20
1991229.881220048
  0
LWPOLYLINE
  5
F2
330
2
100
AcDbEntity
  8
مباني
100
AcDbPolyline
 90
        8
 70
     1
 43
0.2
 10
263493.2468059842
 20
1991253.181426297
 10
263499.6410888915
 20
1991258.004725871
 10
263500.0633490745
 20
1991257.040065957
 10
263508.6896032116
 20
1991263.370645169
 10
263514.4806491034
 20
1991252.759390839
 10
263504.044700285
 20
1991247.393471541
 10
263506.6358676091
 20
1991242.831357408
 10
263503.2160849893
 20
1991240.889005963
  0
LWPOLYLINE
  5
F3
330
2
100
AcDbEntity
  8
مباني
100
AcDbPolyline
 90
        6
 70
     1
 43
0.2
 10
263454.0251651212
 20
1991315.279894268
 10
263457.436820214
 20
1991316.416508404
 10
263456.1273014094
 20
1991323.92503722
 10
263455.6242518064
 20
1991323.837303267
 10
263455.4754836887
 20
1991324.29489807
 10
263451.4972173571
 20
1991322.992075877
  0
LWPOLYLINE
  5
F4
330
2
100
AcDbEntity
  8
مباني
100
AcDbPolyline
 90
        4
 70
     1
 43
0.2
 10
263525.1773397389
 20
1991297.656326067
 10
263530.2362710498
 20
1991301.181768627
 10
263533.2994739366
 20
1991297.053286414
 10
263527.699068649
 20
1991294.239113989
  0
LWPOLYLINE
  5
F5
330
2
100
AcDbEntity
  8
مباني
100
AcDbPolyline
 90
        4
 70
     1
 43
0.2
 10
263560.4585183561
 20
1991290.179334892
 10
263560.1871144775
 20
1991284.234222053
 10
263567.5602695443
 20
1991284.098590788
 10
263567.5376525544
 20
1991290.201940891
  0
LWPOLYLINE
  5
F6
330
2
100
AcDbEntity
  8
مباني
100
AcDbPolyline
 90
        4
 70
     1
 43
0.2
 10
263546.5717274824
 20
1991285.355860188
 10
263555.9104740797
 20
1991291.631457973
 10
263551.5312880534
 20
1991298.860346409
 10
263542.3344867974
 20
1991293.050921633
  0
LWPOLYLINE
  5
F7
330
2
100
AcDbEntity
  8
مباني
100
AcDbPolyline
 90
        8
 70
     1
 43
0.2
 10
263541.1822231708
 20
1991295.275174973
 10
263542.4106513929
 20
1991293.485542802
 10
263548.6568928455
 20
1991297.314523921
 10
263545.8424790455
 20
1991301.905695201
 10
263541.2238649441
 20
1991298.424636592
 10
263542.0775172061
 20
1991297.072006416
 10
263540.9531975088
 20
1991296.281236621
 10
263541.4937959362
 20
1991295.474899169
  0
LWPOLYLINE
  5
F8
330
2
100
AcDbEntity
  8
مباني
100
AcDbPolyline
 90
        7
 70
     1
 43
0.2
 10
263547.8140172027
 20
1991278.271880186
 10
263546.6985430067
 20
1991280.072843755
 10
263547.4278918342
 20
1991280.716049763
 10
263545.6444718108
 20
1991283.557802833
 10
263546.5717274824
 20
1991285.355860188
 10
263555.3875912033
 20
1991290.947555486
 10
263558.5240047299
 20
1991285.99128
  0
LWPOLYLINE
  5
F9
330
2
100
AcDbEntity
  8
مباني
100
AcDbPolyline
 90
        6
 70
     1
 43
0.2
 10
263539.5337359126
 20
1991280.029965248
 10
263545.7975783585
 20
1991284.232215155
 10
263540.6492182913
 20
1991292.122158682
 10
263535.0449916817
 20
1991287.984058506
 10
263531.7880142155
 20
1991285.657230917
 10
263536.1443950498
 20
1991282.474134826
  0
LWPOLYLINE
  5
FA
330
2
100
AcDbEntity
  8
مباني
100
AcDbPolyline
 90
        7
 70
     1
 43
0.2
 10
263534.5787249243
 20
1991268.485825307
 10
263539.6528024176
 20
1991270.76987852
 10
263542.9451455243
 20
1991274.331449975
 10
263533.6103920858
 20
1991281.609445874
 10
263533.3005295052
 20
1991280.912616882
 10
263528.7299827967
 20
1991283.85478584
 10
263526.2123125071
 20
1991282.538549618
  0
LWPOLYLINE
  5
FB
330
2
100
AcDbEntity
  8
مباني
100
AcDbPolyline
 90
        5
 70
     1
 43
0.2
 10
263502.6761678295
 20
1991295.031024497
 10
263510.4470677025
 20
1991299.882600504
 10
263504.0151770942
 20
1991309.257842458
 10
263495.4286663434
 20
1991303.340627392
 10
263501.2612916427
 20
1991294.134606516
  0
LWPOLYLINE
  5
FC
330
2
100
AcDbEntity
  8
مباني
100
AcDbPolyline
 90
        5
 70
     1
 43
0.2
 10
263505.0971349404
 20
1991286.820000989
 10
263507.1490799339
 20
1991288.40461725
 10
263508.600321744
 20
1991289.454944188
 10
263502.6761678295
 20
1991295.031024497
 10
263499.0768097229
 20
1991292.750592219
  0
LWPOLYLINE
  5
FD
330
2
100
AcDbEntity
  8
مباني
100
AcDbPolyline
 90
        6
 70
     1
 43
0.2
 10
263514.667345645
 20
1991278.669094484
 10
263526.9890309997
 20
1991285.294768136
 10
263516.8290438252
 20
1991300.202535037
 10
263505.7323172268
 20
1991292.064479304
 10
263508.600321744
 20
1991289.454944188
 10
263507.1613689503
 20
1991288.388704006
  0
LWPOLYLINE
  5
FE
330
2
100
AcDbEntity
  8
مباني
100
AcDbPolyline
 90
       11
 70
     1
 43
0.2
 10
263498.5102557628
 20
1991310.422572096
 10
263508.2227963958
 20
1991315.599828802
 10
263504.5401220116
 20
1991324.174659332
 10
263505.187627448
 20
1991324.660025669
 10
263502.0732883071
 20
1991329.855744355
 10
263490.746507572
 20
1991323.665664614
 10
263493.549124113
 20
1991318.50111195
 10
263492.804354453
 20
1991318.096952306
 10
263494.2485978934
 20
1991315.67463781
 10
263495.2995760278
 20
1991316.094803635
 10
263498.364551848
 20
1991310.344904821
  0
ENDSEC
  0
SECTION
  2
OBJECTS
  0
DICTIONARY
  5
9
330
0
100
AcDbDictionary
281
     1
  3
ACAD_COLOR
350
2C
  3
ACAD_GROUP
350
29
  3
ACAD_LAYOUT
350
F
  3
ACAD_MATERIAL
350
B
  3
ACAD_MLINESTYLE
350
2A
  3
ACAD_PLOTSETTINGS
350
2B
  3
ACAD_PLOTSTYLENAME
350
8
  3
ACAD_TABLESTYLE
350
2D
  3
ACDB_RECOMPOSE_DATA
350
105
  3
ACDBHEADERROUNDTRIPXREC
350
102
  3
AcDbVariableDictionary
350
100
  0
DICTIONARY
  5
15
330
14
100
AcDbDictionary
280
     1
281
     1
  3
ACAD_LAYERFILTERS
360
16
  3
ACAD_LAYERSTATES
360
17
  3
ACLYDICTIONARY
360
19
  0
DICTIONARY
  5
3
330
2
100
AcDbDictionary
280
     1
281
     1
  3
ACAD_SORTENTS
360
FF
  0
DICTIONARY
  5
2C
102
{ACAD_REACTORS
330
9
102
}
330
9
100
AcDbDictionary
281
     1
  0
DICTIONARY
  5
29
102
{ACAD_REACTORS
330
9
102
}
330
9
100
AcDbDictionary
281
     1
  0
DICTIONARY
  5
F
102
{ACAD_REACTORS
330
9
102
}
330
9
100
AcDbDictionary
281
     1
  3
Layout1
350
13
  3
Model
350
E
  0
DICTIONARY
  5
B
102
{ACAD_REACTORS
330
9
102
}
330
9
100
AcDbDictionary
281
     1
  3
Global
350
A
  0
DICTIONARY
  5
2A
102
{ACAD_REACTORS
330
9
102
}
330
9
100
AcDbDictionary
281
     1
  3
Standard
350
31
  0
DICTIONARY
  5
2B
102
{ACAD_REACTORS
330
9
102
}
330
9
100
AcDbDictionary
281
     1
  0
ACDBDICTIONARYWDFLT
  5
8
102
{ACAD_REACTORS
330
9
102
}
330
9
100
AcDbDictionary
281
     1
  3
Normal
350
7
100
AcDbDictionaryWithDefault
340
7
  0
DICTIONARY
  5
2D
102
{ACAD_REACTORS
330
9
102
}
330
9
100
AcDbDictionary
281
     1
  3
Standard
350
32
  0
XRECORD
  5
105
102
{ACAD_REACTORS
330
9
102
}
330
9
100
AcDbXrecord
280
     1
 90
        1
330
32
  0
DICTIONARY
  5
102
102
{ACAD_REACTORS
330
9
102
}
330
9
100
AcDbDictionary
281
     1
  0
DICTIONARY
  5
100
102
{ACAD_REACTORS
330
9
102
}
330
9
100
AcDbDictionary
281
     1
  3
CTABLESTYLE
350
101
  0
DICTIONARY
  5
16
102
{ACAD_REACTORS
330
15
102
}
330
15
100
AcDbDictionary
281
     1
  0
DICTIONARY
  5
17
102
{ACAD_REACTORS
330
15
102
}
330
15
100
AcDbDictionary
281
     1
1001
AcLayerTools
1000
22
1000
0
  0
DICTIONARY
  5
19
102
{ACAD_REACTORS
330
15
102
}
330
15
100
AcDbDictionary
281
     1
1001
ACAD
1000
<All
  0
SORTENTSTABLE
  5
FF
102
{ACAD_REACTORS
330
3
102
}
330
3
100
AcDbSortentsTable
330
2
331
61
  5
D0
331
69
  5
C8
331
71
  5
C0
331
3A
  5
F7
331
F5
  5
3C
331
7F
  5
B2
331
BE
  5
73
331
C6
  5
6B
331
FD
  5
34
331
87
  5
AA
331
CE
  5
63
331
8F
  5
A2
331
97
  5
9A
331
D6
  5
5B
331
42
  5
EF
331
4A
  5
E7
331
52
  5
DF
331
5A
  5
D7
331
9F
  5
92
331
DE
  5
53
331
E6
  5
4B
331
A7
  5
8A
331
EE
  5
43
331
AF
  5
82
331
B7
  5
7A
331
62
  5
CF
331
6A
  5
C7
331
33
  5
FE
331
72
  5
BF
331
3B
  5
F6
331
78
  5
B9
331
80
  5
B1
331
BF
  5
72
331
F6
  5
3B
331
88
  5
A9
331
C7
  5
6A
331
FE
  5
33
331
90
  5
A1
331
CF
  5
62
331
D7
  5
5A
331
43
  5
EE
331
4B
  5
E6
331
53
  5
DE
331
5B
  5
D6
331
98
  5
99
331
DF
  5
52
331
A0
  5
91
331
A8
  5
89
331
E7
  5
4A
331
B0
  5
81
331
EF
  5
42
331
63
  5
CE
331
6B
  5
C6
331
34
  5
FD
331
73
  5
BE
331
3C
  5
F5
331
79
  5
B8
331
B8
  5
79
331
F7
  5
3A
331
81
  5
B0
331
C0
  5
71
331
C8
  5
69
331
89
  5
A8
331
91
  5
A0
331
D0
  5
61
331
44
  5
ED
331
4C
  5
E5
331
54
  5
DD
331
5C
  5
D5
331
99
  5
98
331
D8
  5
59
331
A1
  5
90
331
E0
  5
51
331
E8
  5
49
331
A9
  5
88
331
B1
  5
80
331
64
  5
CD
331
6C
  5
C5
331
35
  5
FC
331
74
  5
BD
331
3D
  5
F4
331
B9
  5
78
331
F0
  5
41
331
7A
  5
B7
331
82
  5
AF
331
C1
  5
70
331
F8
  5
39
331
8A
  5
A7
331
C9
  5
68
331
92
  5
9F
331
D1
  5
60
331
45
  5
EC
331
4D
  5
E4
331
55
  5
DC
331
5D
  5
D4
331
D9
  5
58
331
9A
  5
97
331
A2
  5
8F
331
E1
  5
50
331
AA
  5
87
331
E9
  5
48
331
B2
  5
7F
331
65
  5
CC
331
6D
  5
C4
331
75
  5
BC
331
36
  5
FB
331
3E
  5
F3
331
F1
  5
40
331
7B
  5
B6
331
BA
  5
77
331
F9
  5
38
331
83
  5
AE
331
C2
  5
6F
331
CA
  5
67
331
8B
  5
A6
331
93
  5
9E
331
D2
  5
5F
331
46
  5
EB
331
4E
  5
E3
331
56
  5
DB
331
5E
  5
D3
331
9B
  5
96
331
DA
  5
57
331
A3
  5
8E
331
E2
  5
4F
331
EA
  5
47
331
AB
  5
86
331
B3
  5
7E
331
66
  5
CB
331
6E
  5
C3
331
37
  5
FA
331
76
  5
BB
331
3F
  5
F2
331
BB
  5
76
331
F2
  5
3F
331
7C
  5
B5
331
84
  5
AD
331
C3
  5
6E
331
FA
  5
37
331
8C
  5
A5
331
CB
  5
66
331
94
  5
9D
331
D3
  5
5E
331
47
  5
EA
331
4F
  5
E2
331
57
  5
DA
331
5F
  5
D2
331
DB
  5
56
331
9C
  5
95
331
A4
  5
8D
331
E3
  5
4E
331
AC
  5
85
331
EB
  5
46
331
B4
  5
7D
331
67
  5
CA
331
6F
  5
C2
331
77
  5
BA
331
38
  5
F9
331
F3
  5
3E
331
7D
  5
B4
331
BC
  5
75
331
C4
  5
6D
331
FB
  5
36
331
85
  5
AC
331
CC
  5
65
331
8D
  5
A4
331
95
  5
9C
331
D4
  5
5D
331
40
  5
F1
331
48
  5
E9
331
50
  5
E1
331
58
  5
D9
331
9D
  5
94
331
DC
  5
55
331
A5
  5
8C
331
E4
  5
4D
331
EC
  5
45
331
AD
  5
84
331
B5
  5
7C
331
60
  5
D1
331
68
  5
C9
331
70
  5
C1
331
39
  5
F8
331
BD
  5
74
331
F4
  5
3D
331
7E
  5
B3
331
86
  5
AB
331
C5
  5
6C
331
FC
  5
35
331
8E
  5
A3
331
CD
  5
64
331
D5
  5
5C
331
96
  5
9B
331
41
  5
F0
331
49
  5
E8
331
51
  5
E0
331
59
  5
D8
331
DD
  5
54
331
9E
  5
93
331
A6
  5
8B
331
E5
  5
4C
331
AE
  5
83
331
ED
  5
44
331
B6
  5
7B
  0
LAYOUT
  5
13
102
{ACAD_REACTORS
330
F
102
}
330
F
100
AcDbPlotSettings
  1

  2
none_device
  4

  6

 40
0.0
 41
0.0
 42
0.0
 43
0.0
 44
0.0
 45
0.0
 46
0.0
 47
0.0
 48
0.0
 49
0.0
140
0.0
141
0.0
142
1.0
143
1.0
 70
   688
 72
     0
 73
     0
 74
     5
  7

 75
    16
147
1.0
 76
     0
 77
     2
 78
   300
148
0.0
149
0.0
100
AcDbLayout
  1
Layout1
 70
     1
 71
     1
 10
0.0
 20
0.0
 11
12.0
 21
9.0
 12
0.0
 22
0.0
 32
0.0
 14
1.000000000000000E+20
 24
1.000000000000000E+20
 34
1.000000000000000E+20
 15
-1.000000000000000E+20
 25
-1.000000000000000E+20
 35
-1.000000000000000E+20
146
0.0
 13
0.0
 23
0.0
 33
0.0
 16
1.0
 26
0.0
 36
0.0
 17
0.0
 27
1.0
 37
0.0
 76
     0
330
10
  0
LAYOUT
  5
E
102
{ACAD_REACTORS
330
F
102
}
330
F
100
AcDbPlotSettings
  1

  2
none_device
  4

  6

 40
0.0
 41
0.0
 42
0.0
 43
0.0
 44
0.0
 45
0.0
 46
0.0
 47
0.0
 48
0.0
 49
0.0
140
0.0
141
0.0
142
1.0
143
1.0
 70
  1712
 72
     0
 73
     0
 74
     0
  7

 75
     0
147
1.0
 76
     0
 77
     2
 78
   300
148
0.0
149
0.0
100
AcDbLayout
  1
Model
 70
     1
 71
     0
 10
0.0
 20
0.0
 11
12.0
 21
9.0
 12
0.0
 22
0.0
 32
0.0
 14
30.0
 24
49.75
 34
0.0
 15
130.5
 25
163.1318914119703
 35
0.0
146
0.0
 13
0.0
 23
0.0
 33
0.0
 16
1.0
 26
0.0
 36
0.0
 17
0.0
 27
1.0
 37
0.0
 76
     0
330
2
  0
MATERIAL
  5
A
102
{ACAD_REACTORS
330
B
102
}
330
B
100
AcDbMaterial
  1
Global
  2

  0
MLINESTYLE
  5
31
102
{ACAD_REACTORS
330
2A
102
}
330
2A
100
AcDbMlineStyle
  2
STANDARD
 70
     0
  3

 62
   256
 51
90.0
 52
90.0
 71
     2
 49
0.5
 62
   256
  6
BYLAYER
 49
-0.5
 62
   256
  6
BYLAYER
  0
ACDBPLACEHOLDER
  5
7
102
{ACAD_REACTORS
330
8
102
}
330
8
  0
TABLESTYLE
  5
32
102
{ACAD_XDICTIONARY
360
103
102
}
102
{ACAD_REACTORS
330
2D
102
}
330
2D
100
AcDbTableStyle
  3
Standard
 70
     0
 71
     0
 40
0.06
 41
0.06
280
     0
281
     0
  7
Standard
140
0.18
170
     2
 62
     0
 63
   257
283
     0
 90
        4
 91
        0
  1

274
    -2
284
     1
 64
     0
275
    -2
285
     1
 65
     0
276
    -2
286
     1
 66
     0
277
    -2
287
     1
 67
     0
278
    -2
288
     1
 68
     0
279
    -2
289
     1
 69
     0
  7
Standard
140
0.25
170
     5
 62
     0
 63
   257
283
     0
 90
        4
 91
        0
  1

274
    -2
284
     1
 64
     0
275
    -2
285
     1
 65
     0
276
    -2
286
     1
 66
     0
277
    -2
287
     1
 67
     0
278
    -2
288
     1
 68
     0
279
    -2
289
     1
 69
     0
  7
Standard
140
0.18
170
     5
 62
     0
 63
   257
283
     0
 90
        4
 91
        0
  1

274
    -2
284
     1
 64
     0
275
    -2
285
     1
 65
     0
276
    -2
286
     1
 66
     0
277
    -2
287
     1
 67
     0
278
    -2
288
     1
 68
     0
279
    -2
289
     1
 69
     0
  0
DICTIONARYVAR
  5
101
102
{ACAD_REACTORS
330
100
102
}
330
100
100
DictionaryVariables
280
     0
  1
STANDARD
  0
DICTIONARY
  5
103
330
32
100
AcDbDictionary
280
     1
281
     1
  3
ACAD_ROUNDTRIP_2008_TABLESTYLE_CELLSTYLEMAP
360
104
  0
CELLSTYLEMAP
  5
104
102
{ACAD_REACTORS
330
103
102
}
330
103
100
AcDbCellStyleMap
 90
        3
300
CELLSTYLE
  1
TABLEFORMAT_BEGIN
 90
        5
170
     1
 91
        0
 92
        0
 62
   257
 93
        1
300
CONTENTFORMAT
  1
CONTENTFORMAT_BEGIN
 90
        0
 91
        0
 92
        4
 93
        0
300

 40
0.0
140
1.0
 94
        5
 62
     0
340
1C
144
0.25
309
CONTENTFORMAT_END
171
     1
301
MARGIN
  1
CELLMARGIN_BEGIN
 40
0.06
 40
0.06
 40
0.06
 40
0.06
 40
0.18
 40
0.18
309
CELLMARGIN_END
 94
        6
 95
        1
302
GRIDFORMAT
  1
GRIDFORMAT_BEGIN
 90
        0
 91
        1
 62
     0
 92
       -2
340
0
 93
        0
 40
0.045
309
GRIDFORMAT_END
 95
        2
302
GRIDFORMAT
  1
GRIDFORMAT_BEGIN
 90
        0
 91
        1
 62
     0
 92
       -2
340
0
 93
        0
 40
0.045
309
GRIDFORMAT_END
 95
        4
302
GRIDFORMAT
  1
GRIDFORMAT_BEGIN
 90
        0
 91
        1
 62
     0
 92
       -2
340
0
 93
        0
 40
0.045
309
GRIDFORMAT_END
 95
        8
302
GRIDFORMAT
  1
GRIDFORMAT_BEGIN
 90
        0
 91
        1
 62
     0
 92
       -2
340
0
 93
        0
 40
0.045
309
GRIDFORMAT_END
 95
       16
302
GRIDFORMAT
  1
GRIDFORMAT_BEGIN
 90
        0
 91
        1
 62
     0
 92
       -2
340
0
 93
        0
 40
0.045
309
GRIDFORMAT_END
 95
       32
302
GRIDFORMAT
  1
GRIDFORMAT_BEGIN
 90
        0
 91
        1
 62
     0
 92
       -2
340
0
 93
        0
 40
0.045
309
GRIDFORMAT_END
309
TABLEFORMAT_END
  1
CELLSTYLE_BEGIN
 90
        1
 91
        1
300
_TITLE
309
CELLSTYLE_END
300
CELLSTYLE
  1
TABLEFORMAT_BEGIN
 90
        5
170
     1
 91
        0
 92
        0
 62
   257
 93
        1
300
CONTENTFORMAT
  1
CONTENTFORMAT_BEGIN
 90
        0
 91
        0
 92
        4
 93
        0
300

 40
0.0
140
1.0
 94
        5
 62
     0
340
1C
144
0.18
309
CONTENTFORMAT_END
171
     1
301
MARGIN
  1
CELLMARGIN_BEGIN
 40
0.06
 40
0.06
 40
0.06
 40
0.06
 40
0.18
 40
0.18
309
CELLMARGIN_END
 94
        6
 95
        1
302
GRIDFORMAT
  1
GRIDFORMAT_BEGIN
 90
        0
 91
        1
 62
     0
 92
       -2
340
0
 93
        0
 40
0.045
309
GRIDFORMAT_END
 95
        2
302
GRIDFORMAT
  1
GRIDFORMAT_BEGIN
 90
        0
 91
        1
 62
     0
 92
       -2
340
0
 93
        0
 40
0.045
309
GRIDFORMAT_END
 95
        4
302
GRIDFORMAT
  1
GRIDFORMAT_BEGIN
 90
        0
 91
        1
 62
     0
 92
       -2
340
0
 93
        0
 40
0.045
309
GRIDFORMAT_END
 95
        8
302
GRIDFORMAT
  1
GRIDFORMAT_BEGIN
 90
        0
 91
        1
 62
     0
 92
       -2
340
0
 93
        0
 40
0.045
309
GRIDFORMAT_END
 95
       16
302
GRIDFORMAT
  1
GRIDFORMAT_BEGIN
 90
        0
 91
        1
 62
     0
 92
       -2
340
0
 93
        0
 40
0.045
309
GRIDFORMAT_END
 95
       32
302
GRIDFORMAT
  1
GRIDFORMAT_BEGIN
 90
        0
 91
        1
 62
     0
 92
       -2
340
0
 93
        0
 40
0.045
309
GRIDFORMAT_END
309
TABLEFORMAT_END
  1
CELLSTYLE_BEGIN
 90
        2
 91
        1
300
_HEADER
309
CELLSTYLE_END
300
CELLSTYLE
  1
TABLEFORMAT_BEGIN
 90
        5
170
     1
 91
        0
 92
        0
 62
   257
 93
        1
300
CONTENTFORMAT
  1
CONTENTFORMAT_BEGIN
 90
        0
 91
        0
 92
        4
 93
        0
300

 40
0.0
140
1.0
 94
        2
 62
     0
340
1C
144
0.18
309
CONTENTFORMAT_END
171
     1
301
MARGIN
  1
CELLMARGIN_BEGIN
 40
0.06
 40
0.06
 40
0.06
 40
0.06
 40
0.18
 40
0.18
309
CELLMARGIN_END
 94
        6
 95
        1
302
GRIDFORMAT
  1
GRIDFORMAT_BEGIN
 90
        0
 91
        1
 62
     0
 92
       -2
340
0
 93
        0
 40
0.045
309
GRIDFORMAT_END
 95
        2
302
GRIDFORMAT
  1
GRIDFORMAT_BEGIN
 90
        0
 91
        1
 62
     0
 92
       -2
340
0
 93
        0
 40
0.045
309
GRIDFORMAT_END
 95
        4
302
GRIDFORMAT
  1
GRIDFORMAT_BEGIN
 90
        0
 91
        1
 62
     0
 92
       -2
340
0
 93
        0
 40
0.045
309
GRIDFORMAT_END
 95
        8
302
GRIDFORMAT
  1
GRIDFORMAT_BEGIN
 90
        0
 91
        1
 62
     0
 92
       -2
340
0
 93
        0
 40
0.045
309
GRIDFORMAT_END
 95
       16
302
GRIDFORMAT
  1
GRIDFORMAT_BEGIN
 90
        0
 91
        1
 62
     0
 92
       -2
340
0
 93
        0
 40
0.045
309
GRIDFORMAT_END
 95
       32
302
GRIDFORMAT
  1
GRIDFORMAT_BEGIN
 90
        0
 91
        1
 62
     0
 92
       -2
340
0
 93
        0
 40
0.045
309
GRIDFORMAT_END
309
TABLEFORMAT_END
  1
CELLSTYLE_BEGIN
 90
        3
 91
        2
300
_DATA
309
CELLSTYLE_END
  0
ENDSEC
  0
EOF
