  0
SECTION
  2
HEADER
  9
$ACADVER
  1
AC1024
  9
$ACADMAINTVER
 70
   109
  9
$DWGCODEPAGE
  3
ANSI_1256
  9
$INSBASE
 10
0.0
 20
0.0
 30
0.0
  9
$EXTMIN
 10
263180.7561145536
 20
1990583.403966136
 30
-8.576951406134256
  9
$EXTMAX
 10
264827.9160322623
 20
1991559.525594296
 30
0.00000001
  9
$LIMMIN
 10
0.0
 20
0.0
  9
$LIMMAX
 10
12.0
 20
9.0
  9
$ORTHOMODE
 70
     0
  9
$REGENMODE
 70
     1
  9
$FILLMODE
 70
     1
  9
$QTEXTMODE
 70
     0
  9
$MIRRTEXT
 70
     1
  9
$LTSCALE
 40
1.0
  9
$ATTMODE
 70
     1
  9
$TEXTSIZE
 40
0.2
  9
$TRACEWID
 40
0.05
  9
$TEXTSTYLE
  7
Standard
  9
$CLAYER
  8
اسوار
  9
$CELTYPE
  6
ByLayer
  9
$CECOLOR
 62
   256
  9
$CELTSCALE
 40
1.0
  9
$DISPSILH
 70
     0
  9
$DIMSCALE
 40
1.0
  9
$DIMASZ
 40
0.18
  9
$DIMEXO
 40
0.0625
  9
$DIMDLI
 40
0.38
  9
$DIMRND
 40
0.0
  9
$DIMDLE
 40
0.0
  9
$DIMEXE
 40
0.18
  9
$DIMTP
 40
0.0
  9
$DIMTM
 40
0.0
  9
$DIMTXT
 40
0.18
  9
$DIMCEN
 40
0.09
  9
$DIMTSZ
 40
0.0
  9
$DIMTOL
 70
     0
  9
$DIMLIM
 70
     0
  9
$DIMTIH
 70
     1
  9
$DIMTOH
 70
     1
  9
$DIMSE1
 70
     0
  9
$DIMSE2
 70
     0
  9
$DIMTAD
 70
     0
  9
$DIMZIN
 70
     0
  9
$DIMBLK
  1

  9
$DIMASO
 70
     1
  9
$DIMSHO
 70
     1
  9
$DIMPOST
  1

  9
$DIMAPOST
  1

  9
$DIMALT
 70
     0
  9
$DIMALTD
 70
     2
  9
$DIMALTF
 40
25.4
  9
$DIMLFAC
 40
1.0
  9
$DIMTOFL
 70
     0
  9
$DIMTVP
 40
0.0
  9
$DIMTIX
 70
     0
  9
$DIMSOXD
 70
     0
  9
$DIMSAH
 70
     0
  9
$DIMBLK1
  1

  9
$DIMBLK2
  1

  9
$DIMSTYLE
  2
Standard
  9
$DIMCLRD
 70
     0
  9
$DIMCLRE
 70
     0
  9
$DIMCLRT
 70
     0
  9
$DIMTFAC
 40
1.0
  9
$DIMGAP
 40
0.09
  9
$DIMJUST
 70
     0
  9
$DIMSD1
 70
     0
  9
$DIMSD2
 70
     0
  9
$DIMTOLJ
 70
     1
  9
$DIMTZIN
 70
     0
  9
$DIMALTZ
 70
     0
  9
$DIMALTTZ
 70
     0
  9
$DIMUPT
 70
     0
  9
$DIMDEC
 70
     4
  9
$DIMTDEC
 70
     4
  9
$DIMALTU
 70
     2
  9
$DIMALTTD
 70
     2
  9
$DIMTXSTY
  7
Standard
  9
$DIMAUNIT
 70
     0
  9
$DIMADEC
 70
     0
  9
$DIMALTRND
 40
0.0
  9
$DIMAZIN
 70
     0
  9
$DIMDSEP
 70
    46
  9
$DIMATFIT
 70
     3
  9
$DIMFRAC
 70
     0
  9
$DIMLDRBLK
  1

  9
$DIMLUNIT
 70
     2
  9
$DIMLWD
 70
    -2
  9
$DIMLWE
 70
    -2
  9
$DIMTMOVE
 70
     0
  9
$DIMFXL
 40
1.0
  9
$DIMFXLON
 70
     0
  9
$DIMJOGANG
 40
0.7853981633974483
  9
$DIMTFILL
 70
     0
  9
$DIMTFILLCLR
 70
     0
  9
$DIMARCSYM
 70
     0
  9
$DIMLTYPE
  6

  9
$DIMLTEX1
  6

  9
$DIMLTEX2
  6

  9
$DIMTXTDIRECTION
 70
     0
  9
$LUNITS
 70
     2
  9
$LUPREC
 70
     4
  9
$SKETCHINC
 40
0.1
  9
$FILLETRAD
 40
0.5
  9
$AUNITS
 70
     0
  9
$AUPREC
 70
     0
  9
$MENU
  1
.
  9
$ELEVATION
 40
0.0
  9
$PELEVATION
 40
0.0
  9
$THICKNESS
 40
0.0
  9
$LIMCHECK
 70
     0
  9
$CHAMFERA
 40
0.5
  9
$CHAMFERB
 40
0.5
  9
$CHAMFERC
 40
1.0
  9
$CHAMFERD
 40
0.0
  9
$SKPOLY
 70
     0
  9
$TDCREATE
 40
2455347.603969826
  9
$TDUCREATE
 40
2455347.478969827
  9
$TDUPDATE
 40
2458702.496385475
  9
$TDUUPDATE
 40
2458702.371385475
  9
$TDINDWG
 40
5.9569649074
  9
$TDUSRTIMER
 40
5.9569648843
  9
$USRTIMER
 70
     1
  9
$ANGBASE
 50
0.0
  9
$ANGDIR
 70
     0
  9
$PDMODE
 70
     0
  9
$PDSIZE
 40
0.0
  9
$PLINEWID
 40
0.2
  9
$SPLFRAME
 70
     0
  9
$SPLINETYPE
 70
     6
  9
$SPLINESEGS
 70
     8
  9
$HANDSEED
  5
4D
  9
$SURFTAB1
 70
     6
  9
$SURFTAB2
 70
     6
  9
$SURFTYPE
 70
     6
  9
$SURFU
 70
     6
  9
$SURFV
 70
     6
  9
$UCSBASE
  2

  9
$UCSNAME
  2

  9
$UCSORG
 10
0.0
 20
0.0
 30
0.0
  9
$UCSXDIR
 10
1.0
 20
0.0
 30
0.0
  9
$UCSYDIR
 10
0.0
 20
1.0
 30
0.0
  9
$UCSORTHOREF
  2

  9
$UCSORTHOVIEW
 70
     0
  9
$UCSORGTOP
 10
0.0
 20
0.0
 30
0.0
  9
$UCSORGBOTTOM
 10
0.0
 20
0.0
 30
0.0
  9
$UCSORGLEFT
 10
0.0
 20
0.0
 30
0.0
  9
$UCSORGRIGHT
 10
0.0
 20
0.0
 30
0.0
  9
$UCSORGFRONT
 10
0.0
 20
0.0
 30
0.0
  9
$UCSORGBACK
 10
0.0
 20
0.0
 30
0.0
  9
$PUCSBASE
  2

  9
$PUCSNAME
  2

  9
$PUCSORG
 10
0.0
 20
0.0
 30
0.0
  9
$PUCSXDIR
 10
1.0
 20
0.0
 30
0.0
  9
$PUCSYDIR
 10
0.0
 20
1.0
 30
0.0
  9
$PUCSORTHOREF
  2

  9
$PUCSORTHOVIEW
 70
     0
  9
$PUCSORGTOP
 10
0.0
 20
0.0
 30
0.0
  9
$PUCSORGBOTTOM
 10
0.0
 20
0.0
 30
0.0
  9
$PUCSORGLEFT
 10
0.0
 20
0.0
 30
0.0
  9
$PUCSORGRIGHT
 10
0.0
 20
0.0
 30
0.0
  9
$PUCSORGFRONT
 10
0.0
 20
0.0
 30
0.0
  9
$PUCSORGBACK
 10
0.0
 20
0.0
 30
0.0
  9
$USERI1
 70
     0
  9
$USERI2
 70
     0
  9
$USERI3
 70
     0
  9
$USERI4
 70
     0
  9
$USERI5
 70
     0
  9
$USERR1
 40
0.0
  9
$USERR2
 40
0.0
  9
$USERR3
 40
0.0
  9
$USERR4
 40
0.0
  9
$USERR5
 40
0.0
  9
$WORLDVIEW
 70
     1
  9
$SHADEDGE
 70
     3
  9
$SHADEDIF
 70
    70
  9
$TILEMODE
 70
     1
  9
$MAXACTVP
 70
    64
  9
$PINSBASE
 10
0.0
 20
0.0
 30
0.0
  9
$PLIMCHECK
 70
     0
  9
$PEXTMIN
 10
1.000000000000000E+20
 20
1.000000000000000E+20
 30
1.000000000000000E+20
  9
$PEXTMAX
 10
-1.000000000000000E+20
 20
-1.000000000000000E+20
 30
-1.000000000000000E+20
  9
$PLIMMIN
 10
0.0
 20
0.0
  9
$PLIMMAX
 10
12.0
 20
9.0
  9
$UNITMODE
 70
     0
  9
$VISRETAIN
 70
     1
  9
$PLINEGEN
 70
     0
  9
$PSLTSCALE
 70
     1
  9
$TREEDEPTH
 70
  3020
  9
$CMLSTYLE
  2
Standard
  9
$CMLJUST
 70
     0
  9
$CMLSCALE
 40
1.0
  9
$PROXYGRAPHICS
 70
     1
  9
$MEASUREMENT
 70
     0
  9
$CELWEIGHT
370
    -1
  9
$ENDCAPS
280
     0
  9
$JOINSTYLE
280
     0
  9
$LWDISPLAY
290
     0
  9
$INSUNITS
 70
     1
  9
$HYPERLINKBASE
  1

  9
$STYLESHEET
  1

  9
$XEDIT
290
     1
  9
$CEPSNTYPE
380
     0
  9
$PSTYLEMODE
290
     1
  9
$FINGERPRINTGUID
  2
{1214FF47-61E3-4883-9CBE-92BDEC20499F}
  9
$VERSIONGUID
  2
{84423DCF-FE08-4F0B-887B-6B314C754805}
  9
$EXTNAMES
290
     1
  9
$PSVPSCALE
 40
0.0
  9
$OLESTARTUP
290
     0
  9
$SORTENTS
280
   127
  9
$INDEXCTL
280
     0
  9
$HIDETEXT
280
     1
  9
$XCLIPFRAME
280
     0
  9
$HALOGAP
280
     0
  9
$OBSCOLOR
 70
   257
  9
$OBSLTYPE
280
     0
  9
$INTERSECTIONDISPLAY
280
     0
  9
$INTERSECTIONCOLOR
 70
   257
  9
$DIMASSOC
280
     2
  9
$PROJECTNAME
  1

  9
$CAMERADISPLAY
290
     0
  9
$LENSLENGTH
 40
50.0
  9
$CAMERAHEIGHT
 40
0.0
  9
$STEPSPERSEC
 40
2.0
  9
$STEPSIZE
 40
6.0
  9
$3DDWFPREC
 40
2.0
  9
$PSOLWIDTH
 40
0.25
  9
$PSOLHEIGHT
 40
4.0
  9
$LOFTANG1
 40
1.570796326794896
  9
$LOFTANG2
 40
1.570796326794896
  9
$LOFTMAG1
 40
0.0
  9
$LOFTMAG2
 40
0.0
  9
$LOFTPARAM
 70
     7
  9
$LOFTNORMALS
280
     1
  9
$LATITUDE
 40
0.0
  9
$LONGITUDE
 40
0.0
  9
$NORTHDIRECTION
 40
0.0
  9
$TIMEZONE
 70
 -8000
  9
$LIGHTGLYPHDISPLAY
280
     1
  9
$TILEMODELIGHTSYNCH
280
     1
  9
$SOLIDHIST
280
     1
  9
$SHOWHIST
280
     1
  9
$DWFFRAME
280
     2
  9
$DGNFRAME
280
     0
  9
$REALWORLDSCALE
290
     0
  9
$INTERFERECOLOR
 62
     1
  9
$CSHADOW
280
     0
  9
$SHADOWPLANELOCATION
 40
0.0
  0
ENDSEC
  0
SECTION
  2
CLASSES
  0
CLASS
  1
ACDBDICTIONARYWDFLT
  2
AcDbDictionaryWithDefault
  3
ObjectDBX Classes
 90
        0
 91
        1
280
     0
281
     0
  0
CLASS
  1
VISUALSTYLE
  2
AcDbVisualStyle
  3
ObjectDBX Classes
 90
     4095
 91
        0
280
     0
281
     0
  0
CLASS
  1
SCALE
  2
AcDbScale
  3
ObjectDBX Classes
 90
     1153
 91
        0
280
     0
281
     0
  0
CLASS
  1
MATERIAL
  2
AcDbMaterial
  3
ObjectDBX Classes
 90
        0
 91
        1
280
     0
281
     0
  0
CLASS
  1
TABLESTYLE
  2
AcDbTableStyle
  3
ObjectDBX Classes
 90
     4095
 91
        1
280
     0
281
     0
  0
CLASS
  1
MLEADERSTYLE
  2
AcDbMLeaderStyle
  3
ACDB_MLEADERSTYLE_CLASS
 90
     4095
 91
        0
280
     0
281
     0
  0
CLASS
  1
DICTIONARYVAR
  2
AcDbDictionaryVar
  3
ObjectDBX Classes
 90
        0
 91
        1
280
     0
281
     0
  0
CLASS
  1
SORTENTSTABLE
  2
AcDbSortentsTable
  3
ObjectDBX Classes
 90
        0
 91
        2
280
     0
281
     0
  0
CLASS
  1
RASTERVARIABLES
  2
AcDbRasterVariables
  3
ISM
 90
        0
 91
        0
280
     0
281
     0
  0
CLASS
  1
IMAGEDEF
  2
AcDbRasterImageDef
  3
ISM
 90
        0
 91
        0
280
     0
281
     0
  0
CLASS
  1
IMAGEDEF_REACTOR
  2
AcDbRasterImageDefReactor
  3
ISM
 90
        1
 91
        0
280
     0
281
     0
  0
CLASS
  1
IMAGE
  2
AcDbRasterImage
  3
ISM
 90
     2175
 91
        0
280
     0
281
     1
  0
CLASS
  1
CELLSTYLEMAP
  2
AcDbCellStyleMap
  3
ObjectDBX Classes
 90
     1152
 91
        1
280
     0
281
     0
  0
ENDSEC
  0
SECTION
  2
TABLES
  0
TABLE
  2
VPORT
  5
23
330
0
100
AcDbSymbolTable
 70
     1
  0
VPORT
  5
24
330
23
100
AcDbSymbolTableRecord
100
AcDbViewportTableRecord
  2
*Active
 70
     0
 10
0.0
 20
0.0
 11
1.0
 21
1.0
 12
263582.5049386383
 22
1991047.868562408
 13
0.0
 23
0.0
 14
0.5
 24
0.5
 15
0.5
 25
0.5
 16
0.0
 26
0.0
 36
1.0
 17
0.0
 27
0.0
 37
0.0
 40
1352.404833388572
 41
1.958282208588957
 42
50.0
 43
0.0
 44
0.0
 50
0.0
 51
0.0
 71
     0
 72
  1000
 73
     1
 74
     3
 75
     0
 76
     0
 77
     0
 78
     0
281
     0
 65
     1
110
0.0
120
0.0
130
0.0
111
1.0
121
0.0
131
0.0
112
0.0
122
1.0
132
0.0
 79
     0
146
0.0
 60
     3
 61
     5
292
     1
282
     0
141
0.0
142
0.0
 63
   256
  0
ENDTAB
  0
TABLE
  2
LTYPE
  5
1E
330
0
100
AcDbSymbolTable
 70
     1
  0
LTYPE
  5
1F
330
1E
100
AcDbSymbolTableRecord
100
AcDbLinetypeTableRecord
  2
ByBlock
 70
     0
  3

 72
    65
 73
     0
 40
0.0
  0
LTYPE
  5
20
330
1E
100
AcDbSymbolTableRecord
100
AcDbLinetypeTableRecord
  2
ByLayer
 70
     0
  3

 72
    65
 73
     0
 40
0.0
  0
LTYPE
  5
C
330
1E
100
AcDbSymbolTableRecord
100
AcDbLinetypeTableRecord
  2
Continuous
 70
     0
  3
Solid line
 72
    65
 73
     0
 40
0.0
  0
ENDTAB
  0
TABLE
  2
LAYER
  5
14
102
{ACAD_XDICTIONARY
360
15
102
}
330
0
100
AcDbSymbolTable
 70
     3
  0
LAYER
  5
6
330
14
100
AcDbSymbolTableRecord
100
AcDbLayerTableRecord
  2
0
 70
     0
 62
    -7
  6
Continuous
370
    -3
390
7
347
A
  0
LAYER
  5
34
330
14
100
AcDbSymbolTableRecord
100
AcDbLayerTableRecord
  2
الساحات
 70
     0
 62
    70
  6
Continuous
370
    -3
390
7
347
0
1001
ZcCmTransparency
1071
 33554687
1001
AcAecLayerStandard
1000

1000

  0
LAYER
  5
2E
330
14
100
AcDbSymbolTableRecord
100
AcDbLayerTableRecord
  2
اسوار
 70
     0
 62
   -30
  6
Continuous
370
    -3
390
7
347
0
1001
ZcCmTransparency
1071
 33554687
1001
AcAecLayerStandard
1000

1000

  0
ENDTAB
  0
TABLE
  2
STYLE
  5
1B
330
0
100
AcDbSymbolTable
 70
     1
  0
STYLE
  5
1C
330
1B
100
AcDbSymbolTableRecord
100
AcDbTextStyleTableRecord
  2
Standard
 70
     0
 40
0.0
 41
1.0
 50
0.0
 71
     0
 42
0.2
  3
txt
  4

  0
ENDTAB
  0
TABLE
  2
VIEW
  5
21
330
0
100
AcDbSymbolTable
 70
     0
  0
ENDTAB
  0
TABLE
  2
UCS
  5
22
330
0
100
AcDbSymbolTable
 70
     0
  0
ENDTAB
  0
TABLE
  2
APPID
  5
25
330
0
100
AcDbSymbolTable
 70
     4
  0
APPID
  5
1A
330
25
100
AcDbSymbolTableRecord
100
AcDbRegAppTableRecord
  2
ACAD
 70
     0
  0
APPID
  5
2F
330
25
100
AcDbSymbolTableRecord
100
AcDbRegAppTableRecord
  2
ZcCmTransparency
 70
     0
  0
APPID
  5
30
330
25
100
AcDbSymbolTableRecord
100
AcDbRegAppTableRecord
  2
AcAecLayerStandard
 70
     0
  0
APPID
  5
18
330
25
100
AcDbSymbolTableRecord
100
AcDbRegAppTableRecord
  2
AcLayerTools
 70
     0
  0
ENDTAB
  0
TABLE
  2
DIMSTYLE
  5
26
330
0
100
AcDbSymbolTable
 70
     1
100
AcDbDimStyleTable
 71
     1
340
27
  0
DIMSTYLE
105
27
330
26
100
AcDbSymbolTableRecord
100
AcDbDimStyleTableRecord
  2
Standard
 70
     0
340
1C
  0
ENDTAB
  0
TABLE
  2
BLOCK_RECORD
  5
1
330
0
100
AcDbSymbolTable
 70
     0
  0
BLOCK_RECORD
  5
2
102
{ACAD_XDICTIONARY
360
3
102
}
330
1
100
AcDbSymbolTableRecord
100
AcDbBlockTableRecord
  2
*Model_Space
340
E
 70
     0
280
     1
281
     0
  0
BLOCK_RECORD
  5
10
330
1
100
AcDbSymbolTableRecord
100
AcDbBlockTableRecord
  2
*Paper_Space
340
13
 70
     0
280
     1
281
     0
  0
ENDTAB
  0
ENDSEC
  0
SECTION
  2
BLOCKS
  0
BLOCK
  5
5
330
2
100
AcDbEntity
  8
0
100
AcDbBlockBegin
  2
*Model_Space
 70
     0
 10
0.0
 20
0.0
 30
0.0
  3
*Model_Space
  1

  0
ENDBLK
  5
D
330
2
100
AcDbEntity
  8
0
100
AcDbBlockEnd
  0
BLOCK
  5
11
330
10
100
AcDbEntity
 67
     1
  8
0
100
AcDbBlockBegin
  2
*Paper_Space
 70
     0
 10
0.0
 20
0.0
 30
0.0
  3
*Paper_Space
  1

  0
ENDBLK
  5
12
330
10
100
AcDbEntity
 67
     1
  8
0
100
AcDbBlockEnd
  0
ENDSEC
  0
SECTION
  2
ENTITIES
  0
LWPOLYLINE
  5
33
330
2
100
AcDbEntity
  8
الساحات
100
AcDbPolyline
 90
       21
 70
     1
 43
0.2
 10
263590.583626085
 20
1991037.493204143
 10
263589.875884255
 20
1991031.836360344
 10
263589.6019746403
 20
1991029.683215022
 10
263589.2146459792
 20
1991027.722895426
 10
263587.8776085098
 20
1991022.145037744
 10
263589.180793194
 20
1991021.253712888
 10
263599.4412077997
 20
1991019.702009979
 10
263607.9929372634
 20
1991017.382433558
 10
263608.9061031498
 20
1991020.749060131
 10
263609.063785038
 20
1991021.377018156
 10
263607.7991460126
 20
1991022.237730189
 10
263607.8260530909
 20
1991023.30017178
 10
263605.7003843874
 20
1991024.147435925
 10
263604.3819343786
 20
1991025.075391894
 10
263603.7896327988
 20
1991025.918419864
 10
263603.9419560535
 20
1991026.870779344
 10
263605.7991187689
 20
1991030.847005687
 10
263603.6086319292
 20
1991031.934154177
 10
263599.3916359502
 20
1991033.527906456
 10
263600.1038485435
 20
1991036.319401723
 10
263596.0667999965
 20
1991036.986746428
  0
LWPOLYLINE
  5
35
330
2
100
AcDbEntity
  8
الساحات
100
AcDbPolyline
 90
       11
 70
     1
 43
0.2
 10
263541.6775914473
 20
1991039.129288953
 10
263543.4149099758
 20
1991041.325461225
 42
0.1248975527621122
 10
263545.2300154356
 20
1991044.597167547
 10
263533.6819827933
 20
1991046.599482932
 10
263531.5029824313
 20
1991046.9721472
 10
263531.1713201939
 20
1991045.046750757
 10
263531.1713201939
 20
1991044.215669473
 10
263528.1870574712
 20
1991035.401949671
 10
263524.6817138344
 20
1991025.848826916
 10
263531.1509331224
 20
1991030.066043107
 10
263537.7512499516
 20
1991035.73512111
  0
LWPOLYLINE
  5
36
330
2
100
AcDbEntity
  8
الساحات
100
AcDbPolyline
 90
       17
 70
     1
 43
0.2
 10
263632.1511035506
 20
1990893.10557516
 10
263633.2252291733
 20
1990888.480052892
 10
263633.7768566722
 20
1990886.156376759
 10
263635.2446838412
 20
1990881.687929713
 10
263636.1497852132
 20
1990878.413301896
 10
263636.8824415979
 20
1990873.738793659
 10
263637.0186326753
 20
1990871.57616969
 10
263640.0631880954
 20
1990871.555734923
 10
263640.0829591306
 20
1990872.118291585
 10
263643.2894178219
 20
1990872.792983116
 10
263642.8524888349
 20
1990875.00713406
 10
263643.4651894921
 20
1990875.139042022
 10
263642.4568490478
 20
1990879.069562624
 10
263642.8301660563
 20
1990879.829188518
 10
263641.8469006501
 20
1990887.266558323
 10
263641.133455388
 20
1990887.696743048
 42
-0.2056738805312333
 10
263636.6433011734
 20
1990893.953051245
  0
LWPOLYLINE
  5
37
330
2
100
AcDbEntity
  8
الساحات
100
AcDbPolyline
 90
       18
 70
     1
 43
0.2
 10
263680.1722322107
 20
1990979.132248889
 10
263676.8988428191
 20
1990978.763851922
 10
263677.109298666
 20
1990977.050923888
 10
263676.9135916984
 20
1990977.018320573
 10
263677.0576420487
 20
1990975.682953159
 10
263677.4932991644
 20
1990975.665833011
 10
263677.5916314463
 20
1990974.029516531
 10
263677.3297322188
 20
1990974.022468957
 10
263677.4734982533
 20
1990972.039092564
 10
263677.1183345759
 20
1990972.021434444
 10
263677.2156860647
 20
1990970.805405534
 10
263675.4757675997
 20
1990970.531250372
 10
263675.681725042
 20
1990968.865896592
 10
263673.6886426022
 20
1990968.560997641
 10
263674.0027908527
 20
1990965.279023164
 10
263682.0256702152
 20
1990967.390239102
 10
263681.8765875139
 20
1990968.210866642
 10
263681.8765875139
 20
1990968.210866642
  0
LWPOLYLINE
  5
38
330
2
100
AcDbEntity
  8
الساحات
100
AcDbPolyline
 90
       22
 70
     1
 43
0.2
 10
263582.7670301392
 20
1991040.753792609
 10
263578.3442398133
 20
1991041.119272538
 10
263575.9550394081
 20
1991041.32633318
 10
263576.1718241793
 20
1991043.532188843
 10
263576.1718241793
 20
1991043.532188843
 10
263558.5975424175
 20
1991048.255323823
 10
263557.6803877283
 20
1991042.878470637
 10
263565.0014262598
 20
1991041.256311573
 10
263564.4732321166
 20
1991030.462237427
 10
263568.1575537351
 20
1991029.884524334
 10
263568.1922037216
 20
1991030.167514284
 10
263571.5410610077
 20
1991029.701020439
 10
263571.5410610077
 20
1991029.701020439
 10
263571.0949962496
 20
1991026.60117211
 10
263572.7452888023
 20
1991026.269527952
 42
-18.6629113976564
 10
263572.7452888023
 20
1991026.269527952
 10
263573.3278106526
 20
1991030.564894434
 10
263574.2053757415
 20
1991034.070451223
 10
263583.7528837248
 20
1991031.410047556
 10
263584.6613635614
 20
1991034.245148131
 42
-0.042304429737594
 10
263585.6211376018
 20
1991036.718645645
 10
263582.3988023226
 20
1991037.497643461
  0
LWPOLYLINE
  5
39
330
2
100
AcDbEntity
  8
الساحات
100
AcDbPolyline
 90
       23
 70
     1
 43
0.2
 10
263701.6622162943
 20
1991022.947687188
 10
263700.2360270069
 20
1991024.075595211
 10
263699.1976499493
 20
1991024.953951519
 10
263697.9612288028
 20
1991025.81165389
 10
263697.3925884137
 20
1991026.366514616
 10
263697.0421945745
 20
1991027.211991333
 10
263696.769281185
 20
1991029.550798492
 10
263696.713855656
 20
1991032.088859194
 10
263694.9804520391
 20
1991032.842762634
 10
263692.5848446777
 20
1991027.317218086
 10
263689.9986109077
 20
1991028.470361422
 10
263687.9526257266
 20
1991024.419907966
 10
263683.4855590799
 20
1991027.436544532
 10
263681.8814762888
 20
1991025.727511051
 10
263689.0600561029
 20
1991020.788086709
 10
263691.8511998656
 20
1991018.717688081
 10
263698.875937454
 20
1991014.681097728
 10
263698.7165625261
 20
1991014.329276631
 10
263703.9261403634
 20
1991011.551935
 10
263703.6135667818
 20
1991010.872645295
 10
263706.2365015205
 20
1991009.506043242
 10
263706.8099603816
 20
1991010.55699802
 10
263698.030991139
 20
1991018.414071453
  0
LWPOLYLINE
  5
3A
330
2
100
AcDbEntity
  8
الساحات
100
AcDbPolyline
 90
       30
 70
     1
 43
0.2
 10
263639.9421742888
 20
1990969.727677856
 10
263640.7741577278
 20
1990971.802745231
 10
263638.8145713762
 20
1990973.03213005
 10
263636.2848993822
 20
1990973.48944344
 10
263635.0955304082
 20
1990973.689428015
 10
263635.0955304082
 20
1990973.689428015
 10
263635.0955304082
 20
1990973.689428015
 10
263633.1558899717
 20
1990970.881602042
 10
263632.454249429
 20
1990971.114340748
 10
263631.2851630187
 20
1990968.031483568
 10
263630.9805039302
 20
1990968.144813781
 10
263630.2974089629
 20
1990963.901098799
 10
263633.1093801966
 20
1990963.30548427
 10
263632.3926930284
 20
1990958.377855796
 10
263633.7530305084
 20
1990958.001939684
 10
263633.0327065586
 20
1990955.367195815
 10
263636.4528131809
 20
1990954.802633891
 10
263636.4210408962
 20
1990956.323088782
 10
263635.1202254449
 20
1990957.394177548
 10
263636.122491592
 20
1990958.614117486
 10
263635.4786746386
 20
1990959.144450055
 10
263636.0658505641
 20
1990959.927503466
 10
263635.6980792603
 20
1990960.201593172
 10
263636.3006687167
 20
1990961.030403452
 10
263636.0055770063
 20
1990961.242106099
 10
263636.5328658335
 20
1990961.893725695
 10
263635.8502795248
 20
1990962.435297978
 10
263637.952010116
 20
1990965.210048414
 10
263636.0790046409
 20
1990966.478412792
 10
263638.8059492754
 20
1990970.332583983
  0
LWPOLYLINE
  5
3B
330
2
100
AcDbEntity
  8
الساحات
100
AcDbPolyline
 90
       14
 70
     1
 43
0.2
 10
263552.1188937007
 20
1991043.690671472
 10
263533.7139603388
 20
1991046.914586907
 10
263533.6819827993
 20
1991046.599482932
 10
263531.3961789039
 20
1991046.990413309
 10
263532.106024436
 20
1991049.491776682
 10
263536.2615942206
 20
1991061.830679223
 10
263542.0262390166
 20
1991074.611800192
 10
263550.5957468245
 20
1991072.580975818
 42
-0.2835103593775941
 10
263551.9219008884
 20
1991071.255316088
 10
263552.7838983329
 20
1991067.576604044
 10
263554.0950758154
 20
1991061.942296244
 10
263553.9909124233
 20
1991060.699402602
 10
263554.748394272
 20
1991055.972004736
 42
-0.1286784640468134
 10
263554.3699087745
 20
1991052.08510662
  0
LWPOLYLINE
  5
3C
330
2
100
AcDbEntity
  8
الساحات
100
AcDbPolyline
 90
       10
 70
     1
 43
0.2
 10
263547.9291771041
 20
1990979.891461333
 10
263549.9198402957
 20
1990979.176372148
 10
263559.168888027
 20
1990974.249207488
 10
263557.4684930811
 20
1990971.016471207
 42
0.0741181761716692
 10
263555.7436056092
 20
1990963.280712362
 10
263548.4630951583
 20
1990966.847582491
 42
0.2347433264904333
 10
263544.9121746556
 20
1990970.287221347
 10
263544.987191803
 20
1990970.956840449
 10
263545.8875040527
 20
1990974.698260857
 10
263546.284272189
 20
1990974.52389711
  0
LWPOLYLINE
  5
3D
330
2
100
AcDbEntity
  8
الساحات
100
AcDbPolyline
 90
       24
 70
     1
 43
0.2
 10
263609.4647162366
 20
1991000.642361298
 10
263596.9596322301
 20
1991005.854634678
 10
263597.3820739927
 20
1991007.09309663
 10
263592.9110422506
 20
1991008.628769374
 10
263593.2670629877
 20
1991009.78939501
 10
263592.2286680861
 20
1991010.191148554
 10
263592.4138857268
 20
1991010.614204057
 10
263590.5091830496
 20
1991011.409843054
 10
263592.1129157177
 20
1991016.536144745
 10
263585.0878743603
 20
1991018.820375513
 10
263583.8016445759
 20
1991015.416767892
 10
263579.1996787655
 20
1991017.093128991
 10
263577.7614879051
 20
1991017.439510567
 10
263576.280343946
 20
1991017.512797619
 10
263573.3145825846
 20
1991001.846981046
 10
263575.1753749652
 20
1991001.377158939
 10
263573.7511291352
 20
1990995.126452566
 10
263582.3292506756
 20
1990992.598713138
 10
263582.2182361523
 20
1990992.169293175
 10
263591.7936407934
 20
1990989.561087995
 10
263591.0400857962
 20
1990986.054241693
 10
263601.5536421362
 20
1990982.900655026
 10
263603.3547999204
 20
1990988.434737947
 10
263605.378335263
 20
1990994.237748046
 42
0.0760955100727765
  0
LWPOLYLINE
  5
3E
330
2
100
AcDbEntity
  8
الساحات
100
AcDbPolyline
 90
       17
 70
     1
 43
0.2
 10
263688.8675415145
 20
1990946.718623391
 10
263687.3094066141
 20
1990954.519568132
 10
263683.7102135908
 20
1990954.360406696
 10
263681.9139400642
 20
1990959.046171343
 10
263676.0293967821
 20
1990956.761904201
 10
263677.1996373113
 20
1990954.725796823
 42
-0.0491801032621346
 10
263677.79837297
 20
1990953.036073277
 42
-0.1217230857099187
 10
263677.79837297
 20
1990951.559437181
 42
0.1217230857106585
 10
263677.79837297
 20
1990950.637438825
 42
-0.0522397138089129
 10
263678.0154286753
 20
1990949.073074586
 42
0.0502717996986524
 10
263678.2853429175
 20
1990947.070017943
 42
-0.0621997359298719
 10
263678.3172447627
 20
1990946.78160524
 42
0.0295964581339132
 10
263678.4129155361
 20
1990944.661749284
 42
0.0210618198943196
 10
263678.8923023395
 20
1990941.410524569
 42
-0.1032463820966411
 10
263678.8774439458
 20
1990940.549405773
 42
-0.0130668623830938
 10
263678.870830564
 20
1990940.523413414
 10
263689.6672083079
 20
1990938.785082223
  0
LWPOLYLINE
  5
3F
330
2
100
AcDbEntity
  8
الساحات
100
AcDbPolyline
 90
       19
 70
     1
 43
0.2
 10
263665.35599417
 20
1990946.48833161
 10
263664.6350021968
 20
1990946.022197455
 10
263661.6998415679
 20
1990949.516491386
 10
263657.6896656232
 20
1990955.720649162
 10
263654.3076412715
 20
1990958.937060069
 10
263650.5585827821
 20
1990954.729744779
 10
263646.7174245304
 20
1990950.640433482
 10
263654.3238091125
 20
1990943.654868146
 10
263654.3238091125
 20
1990943.654868146
 10
263654.6011383901
 20
1990943.951440187
 10
263658.8084246914
 20
1990940.042577876
 10
263658.5619405794
 20
1990939.67091529
 10
263659.498659349
 20
1990938.983870687
 10
263662.7675635919
 20
1990937.956697272
 10
263664.1634176314
 20
1990937.064490127
 10
263664.468456897
 20
1990936.62825878
 10
263668.3704367838
 20
1990942.355881439
 10
263667.0304045971
 20
1990944.518721645
 10
263667.0304045971
 20
1990944.518721645
  0
LWPOLYLINE
  5
40
330
2
100
AcDbEntity
  8
الساحات
100
AcDbPolyline
 90
       16
 70
     1
 43
0.2
 10
263741.4784507993
 20
1991036.950212605
 10
263740.4831213164
 20
1991039.098387635
 10
263739.9947663147
 20
1991040.618894848
 10
263738.2574281613
 20
1991043.042833395
 10
263737.4329326901
 20
1991040.401453776
 10
263734.4903433508
 20
1991041.285681635
 10
263732.2378291535
 20
1991035.676697747
 10
263730.9726427099
 20
1991036.118467711
 10
263727.9141426073
 20
1991029.866537965
 42
-0.1243421896028992
 10
263732.9530093571
 20
1991027.615103321
 42
-0.0084528829199906
 10
263735.7562204334
 20
1991026.115369399
 10
263737.30919362
 20
1991026.383828259
 10
263739.8040399807
 20
1991029.366262531
 10
263741.0936928474
 20
1991030.765734058
 10
263745.9124123696
 20
1991030.197109077
 10
263746.43238076
 20
1991031.188367203
  0
LWPOLYLINE
  5
41
330
2
100
AcDbEntity
  8
الساحات
100
AcDbPolyline
 90
       23
 70
     1
 43
0.2
 10
263545.2656711025
 20
1991088.297498391
 42
0.8197134928457801
 10
263545.2656711025
 20
1991088.297498391
 42
1.996030759678277
 10
263545.2656711025
 20
1991088.297498391
 42
2.556127688997035
 10
263545.2656711025
 20
1991088.297498391
 10
263545.2656711025
 20
1991088.297498391
 10
263545.2656711025
 20
1991088.297498391
 10
263545.2656711025
 20
1991088.297498391
 10
263534.8530477506
 20
1991093.547114338
 10
263533.0840967129
 20
1991087.754088199
 10
263534.0741263687
 20
1991087.295497017
 10
263530.5221273089
 20
1991077.602099023
 10
263529.9964788643
 20
1991077.833639115
 10
263525.8441770834
 20
1991068.164713182
 10
263529.1746565132
 20
1991066.712382743
 10
263528.9900870966
 20
1991065.166891359
 10
263535.8904400134
 20
1991062.218114717
 10
263541.8385919909
 20
1991075.056049977
 10
263545.5010941372
 20
1991074.174880268
 10
263546.6970078189
 20
1991077.818957823
 10
263546.6970078189
 20
1991077.818957823
 42
1.627304180144042
 10
263546.6970078189
 20
1991077.818957823
 42
1.380088112879302
 10
263546.6970078189
 20
1991077.818957823
 42
0.0151710943545525
 10
263546.1257395637
 20
1991084.603519765
 42
0.0155189764004912
  0
LWPOLYLINE
  5
42
330
2
100
AcDbEntity
  8
الساحات
100
AcDbPolyline
 90
       15
 70
     1
 43
0.2
 10
263618.0866759195
 20
1991180.726615539
 10
263615.5224854631
 20
1991184.542508827
 10
263612.0749198015
 20
1991181.82978958
 10
263604.9987776875
 20
1991174.189905826
 10
263605.9507047562
 20
1991172.480282451
 10
263610.3490127525
 20
1991169.078337564
 10
263612.2659938379
 20
1991167.171458939
 10
263612.5795148832
 20
1991167.386319516
 10
263616.0969068569
 20
1991165.199008379
 10
263618.4858536701
 20
1991168.030269196
 10
263623.255627377
 20
1991164.615305476
 10
263625.6407871179
 20
1991162.13157007
 10
263632.6682416794
 20
1991154.813679609
 10
263634.7023156109
 20
1991157.368577746
 42
-0.0251500842206822
 10
263626.3522647489
 20
1991168.28203351
 42
-0.002554227520132
  0
LWPOLYLINE
  5
43
330
2
100
AcDbEntity
  8
الساحات
100
AcDbPolyline
 90
       15
 70
     1
 43
0.2
 10
263691.7433662735
 20
1991098.935434116
 10
263695.540217124
 20
1991103.399995875
 10
263664.007714029
 20
1991126.384914211
 10
263656.3362217248
 20
1991111.311244201
 10
263657.7016962072
 20
1991110.443617289
 10
263659.6783342452
 20
1991109.167460599
 10
263659.6783342452
 20
1991109.167460599
 10
263661.5917787918
 20
1991107.919739778
 10
263663.4885308555
 20
1991106.708654418
 10
263666.4016125295
 20
1991104.908067028
 10
263669.1148096257
 20
1991103.283291125
 10
263669.9673844136
 20
1991102.720981974
 10
263670.3828960381
 20
1991102.447223419
 10
263672.2610841401
 20
1991101.790911091
 10
263676.2717082493
 20
1991108.611519961
  0
LWPOLYLINE
  5
44
330
2
100
AcDbEntity
  8
الساحات
100
AcDbPolyline
 90
       25
 70
     1
 43
0.2
 10
263558.2383690806
 20
1991180.320479879
 10
263566.2137504925
 20
1991172.100110447
 10
263571.2111345234
 20
1991167.347740383
 10
263570.7525691834
 20
1991166.626392632
 10
263571.3717457127
 20
1991166.262733181
 10
263564.5774006675
 20
1991155.336970638
 10
263565.2404004403
 20
1991154.892964025
 10
263564.2917585248
 20
1991154.113800039
 10
263561.687652887
 20
1991149.96668848
 10
263561.687652887
 20
1991149.96668848
 10
263560.0342681016
 20
1991150.787870327
 10
263557.9821823303
 20
1991152.219520118
 10
263557.9821823303
 20
1991152.219520118
 10
263550.7071454879
 20
1991144.210376557
 10
263550.7071454879
 20
1991144.210376557
 10
263550.7071454879
 20
1991144.210376557
 10
263539.8134573013
 20
1991164.774159388
 10
263539.8134573013
 20
1991164.774159388
 10
263542.8643162471
 20
1991166.444276772
 10
263543.2502742838
 20
1991167.033827086
 10
263543.386499537
 20
1991167.753561024
 10
263543.3232671203
 20
1991168.353677526
 10
263543.138388808
 20
1991168.917792162
 10
263550.8245956066
 20
1991174.525488276
 10
263551.153079883
 20
1991173.933897544
  0
LWPOLYLINE
  5
45
330
2
100
AcDbEntity
  8
الساحات
100
AcDbPolyline
 90
       15
 70
     1
 43
0.2
 10
263558.3659331572
 20
1991274.537851524
 10
263564.5471152297
 20
1991269.960002983
 10
263569.8833900384
 20
1991265.115484439
 10
263572.8472513459
 20
1991262.608874681
 10
263567.4820659261
 20
1991258.982058632
 10
263562.6349547976
 20
1991255.470894599
 42
-0.1754088677086307
 10
263550.8000612623
 20
1991251.278917746
 10
263550.0057728771
 20
1991254.53754734
 10
263547.0708221806
 20
1991259.026503632
 10
263545.2031246524
 20
1991263.782132175
 10
263540.8896401081
 20
1991270.271117987
 10
263542.4569772059
 20
1991271.966622643
 10
263545.7732632821
 20
1991275.554094982
 10
263549.3387396468
 20
1991277.649008305
 42
-0.2428666093036922
 10
263552.5849710229
 20
1991277.826790554
  0
ENDSEC
  0
SECTION
  2
OBJECTS
  0
DICTIONARY
  5
9
330
0
100
AcDbDictionary
281
     1
  3
ACAD_COLOR
350
2C
  3
ACAD_GROUP
350
29
  3
ACAD_LAYOUT
350
F
  3
ACAD_MATERIAL
350
B
  3
ACAD_MLINESTYLE
350
2A
  3
ACAD_PLOTSETTINGS
350
2B
  3
ACAD_PLOTSTYLENAME
350
8
  3
ACAD_TABLESTYLE
350
2D
  3
ACDB_RECOMPOSE_DATA
350
4C
  3
ACDBHEADERROUNDTRIPXREC
350
49
  3
AcDbVariableDictionary
350
47
  0
DICTIONARY
  5
15
330
14
100
AcDbDictionary
280
     1
281
     1
  3
ACAD_LAYERFILTERS
360
16
  3
ACAD_LAYERSTATES
360
17
  3
ACLYDICTIONARY
360
19
  0
DICTIONARY
  5
3
330
2
100
AcDbDictionary
280
     1
281
     1
  3
ACAD_SORTENTS
360
46
  0
DICTIONARY
  5
2C
102
{ACAD_REACTORS
330
9
102
}
330
9
100
AcDbDictionary
281
     1
  0
DICTIONARY
  5
29
102
{ACAD_REACTORS
330
9
102
}
330
9
100
AcDbDictionary
281
     1
  0
DICTIONARY
  5
F
102
{ACAD_REACTORS
330
9
102
}
330
9
100
AcDbDictionary
281
     1
  3
Layout1
350
13
  3
Model
350
E
  0
DICTIONARY
  5
B
102
{ACAD_REACTORS
330
9
102
}
330
9
100
AcDbDictionary
281
     1
  3
Global
350
A
  0
DICTIONARY
  5
2A
102
{ACAD_REACTORS
330
9
102
}
330
9
100
AcDbDictionary
281
     1
  3
Standard
350
31
  0
DICTIONARY
  5
2B
102
{ACAD_REACTORS
330
9
102
}
330
9
100
AcDbDictionary
281
     1
  0
ACDBDICTIONARYWDFLT
  5
8
102
{ACAD_REACTORS
330
9
102
}
330
9
100
AcDbDictionary
281
     1
  3
Normal
350
7
100
AcDbDictionaryWithDefault
340
7
  0
DICTIONARY
  5
2D
102
{ACAD_REACTORS
330
9
102
}
330
9
100
AcDbDictionary
281
     1
  3
Standard
350
32
  0
XRECORD
  5
4C
102
{ACAD_REACTORS
330
9
102
}
330
9
100
AcDbXrecord
280
     1
 90
        1
330
32
  0
DICTIONARY
  5
49
102
{ACAD_REACTORS
330
9
102
}
330
9
100
AcDbDictionary
281
     1
  0
DICTIONARY
  5
47
102
{ACAD_REACTORS
330
9
102
}
330
9
100
AcDbDictionary
281
     1
  3
CTABLESTYLE
350
48
  0
DICTIONARY
  5
16
102
{ACAD_REACTORS
330
15
102
}
330
15
100
AcDbDictionary
281
     1
  0
DICTIONARY
  5
17
102
{ACAD_REACTORS
330
15
102
}
330
15
100
AcDbDictionary
281
     1
1001
AcLayerTools
1000
22
1000
0
  0
DICTIONARY
  5
19
102
{ACAD_REACTORS
330
15
102
}
330
15
100
AcDbDictionary
281
     1
1001
ACAD
1000
<All
  0
SORTENTSTABLE
  5
46
102
{ACAD_REACTORS
330
3
102
}
330
3
100
AcDbSortentsTable
330
2
331
3F
  5
3A
331
36
  5
43
331
42
  5
37
331
40
  5
39
331
3D
  5
3C
331
3B
  5
3E
331
45
  5
33
331
39
  5
40
331
43
  5
36
331
37
  5
42
331
41
  5
38
331
3E
  5
3B
331
35
  5
44
331
3C
  5
3D
331
33
  5
45
331
3A
  5
3F
331
38
  5
41
331
44
  5
35
  0
LAYOUT
  5
13
102
{ACAD_REACTORS
330
F
102
}
330
F
100
AcDbPlotSettings
  1

  2
none_device
  4

  6

 40
0.0
 41
0.0
 42
0.0
 43
0.0
 44
0.0
 45
0.0
 46
0.0
 47
0.0
 48
0.0
 49
0.0
140
0.0
141
0.0
142
1.0
143
1.0
 70
   688
 72
     0
 73
     0
 74
     5
  7

 75
    16
147
1.0
 76
     0
 77
     2
 78
   300
148
0.0
149
0.0
100
AcDbLayout
  1
Layout1
 70
     1
 71
     1
 10
0.0
 20
0.0
 11
12.0
 21
9.0
 12
0.0
 22
0.0
 32
0.0
 14
1.000000000000000E+20
 24
1.000000000000000E+20
 34
1.000000000000000E+20
 15
-1.000000000000000E+20
 25
-1.000000000000000E+20
 35
-1.000000000000000E+20
146
0.0
 13
0.0
 23
0.0
 33
0.0
 16
1.0
 26
0.0
 36
0.0
 17
0.0
 27
1.0
 37
0.0
 76
     0
330
10
  0
LAYOUT
  5
E
102
{ACAD_REACTORS
330
F
102
}
330
F
100
AcDbPlotSettings
  1

  2
none_device
  4

  6

 40
0.0
 41
0.0
 42
0.0
 43
0.0
 44
0.0
 45
0.0
 46
0.0
 47
0.0
 48
0.0
 49
0.0
140
0.0
141
0.0
142
1.0
143
1.0
 70
  1712
 72
     0
 73
     0
 74
     0
  7

 75
     0
147
1.0
 76
     0
 77
     2
 78
   300
148
0.0
149
0.0
100
AcDbLayout
  1
Model
 70
     1
 71
     0
 10
0.0
 20
0.0
 11
12.0
 21
9.0
 12
0.0
 22
0.0
 32
0.0
 14
30.0
 24
49.75
 34
0.0
 15
130.5
 25
163.1318914119703
 35
0.0
146
0.0
 13
0.0
 23
0.0
 33
0.0
 16
1.0
 26
0.0
 36
0.0
 17
0.0
 27
1.0
 37
0.0
 76
     0
330
2
  0
MATERIAL
  5
A
102
{ACAD_REACTORS
330
B
102
}
330
B
100
AcDbMaterial
  1
Global
  2

  0
MLINESTYLE
  5
31
102
{ACAD_REACTORS
330
2A
102
}
330
2A
100
AcDbMlineStyle
  2
STANDARD
 70
     0
  3

 62
   256
 51
90.0
 52
90.0
 71
     2
 49
0.5
 62
   256
  6
BYLAYER
 49
-0.5
 62
   256
  6
BYLAYER
  0
ACDBPLACEHOLDER
  5
7
102
{ACAD_REACTORS
330
8
102
}
330
8
  0
TABLESTYLE
  5
32
102
{ACAD_XDICTIONARY
360
4A
102
}
102
{ACAD_REACTORS
330
2D
102
}
330
2D
100
AcDbTableStyle
280
     0
  3
Standard
 70
     0
 71
     0
 40
0.06
 41
0.06
280
     0
281
     0
  7
Standard
140
0.18
170
     2
 62
     0
 63
   257
283
     0
 90
        4
 91
        0
  1

274
    -2
284
     1
 64
     0
275
    -2
285
     1
 65
     0
276
    -2
286
     1
 66
     0
277
    -2
287
     1
 67
     0
278
    -2
288
     1
 68
     0
279
    -2
289
     1
 69
     0
  7
Standard
140
0.25
170
     5
 62
     0
 63
   257
283
     0
 90
        4
 91
        0
  1

274
    -2
284
     1
 64
     0
275
    -2
285
     1
 65
     0
276
    -2
286
     1
 66
     0
277
    -2
287
     1
 67
     0
278
    -2
288
     1
 68
     0
279
    -2
289
     1
 69
     0
  7
Standard
140
0.18
170
     5
 62
     0
 63
   257
283
     0
 90
        4
 91
        0
  1

274
    -2
284
     1
 64
     0
275
    -2
285
     1
 65
     0
276
    -2
286
     1
 66
     0
277
    -2
287
     1
 67
     0
278
    -2
288
     1
 68
     0
279
    -2
289
     1
 69
     0
  0
DICTIONARYVAR
  5
48
102
{ACAD_REACTORS
330
47
102
}
330
47
100
DictionaryVariables
280
     0
  1
STANDARD
  0
DICTIONARY
  5
4A
330
32
100
AcDbDictionary
280
     1
281
     1
  3
ACAD_ROUNDTRIP_2008_TABLESTYLE_CELLSTYLEMAP
360
4B
  0
CELLSTYLEMAP
  5
4B
102
{ACAD_REACTORS
330
4A
102
}
330
4A
100
AcDbCellStyleMap
 90
        3
300
CELLSTYLE
  1
TABLEFORMAT_BEGIN
 90
        5
170
     1
 91
        0
 92
        0
 62
   257
 93
        1
300
CONTENTFORMAT
  1
CONTENTFORMAT_BEGIN
 90
        0
 91
        0
 92
        4
 93
        0
300

 40
0.0
140
1.0
 94
        5
 62
     0
340
1C
144
0.25
309
CONTENTFORMAT_END
171
     1
301
MARGIN
  1
CELLMARGIN_BEGIN
 40
0.06
 40
0.06
 40
0.06
 40
0.06
 40
0.18
 40
0.18
309
CELLMARGIN_END
 94
        6
 95
        1
302
GRIDFORMAT
  1
GRIDFORMAT_BEGIN
 90
        0
 91
        1
 62
     0
 92
       -2
340
0
 93
        0
 40
0.045
309
GRIDFORMAT_END
 95
        2
302
GRIDFORMAT
  1
GRIDFORMAT_BEGIN
 90
        0
 91
        1
 62
     0
 92
       -2
340
0
 93
        0
 40
0.045
309
GRIDFORMAT_END
 95
        4
302
GRIDFORMAT
  1
GRIDFORMAT_BEGIN
 90
        0
 91
        1
 62
     0
 92
       -2
340
0
 93
        0
 40
0.045
309
GRIDFORMAT_END
 95
        8
302
GRIDFORMAT
  1
GRIDFORMAT_BEGIN
 90
        0
 91
        1
 62
     0
 92
       -2
340
0
 93
        0
 40
0.045
309
GRIDFORMAT_END
 95
       16
302
GRIDFORMAT
  1
GRIDFORMAT_BEGIN
 90
        0
 91
        1
 62
     0
 92
       -2
340
0
 93
        0
 40
0.045
309
GRIDFORMAT_END
 95
       32
302
GRIDFORMAT
  1
GRIDFORMAT_BEGIN
 90
        0
 91
        1
 62
     0
 92
       -2
340
0
 93
        0
 40
0.045
309
GRIDFORMAT_END
309
TABLEFORMAT_END
  1
CELLSTYLE_BEGIN
 90
        1
 91
        1
300
_TITLE
309
CELLSTYLE_END
300
CELLSTYLE
  1
TABLEFORMAT_BEGIN
 90
        5
170
     1
 91
        0
 92
        0
 62
   257
 93
        1
300
CONTENTFORMAT
  1
CONTENTFORMAT_BEGIN
 90
        0
 91
        0
 92
        4
 93
        0
300

 40
0.0
140
1.0
 94
        5
 62
     0
340
1C
144
0.18
309
CONTENTFORMAT_END
171
     1
301
MARGIN
  1
CELLMARGIN_BEGIN
 40
0.06
 40
0.06
 40
0.06
 40
0.06
 40
0.18
 40
0.18
309
CELLMARGIN_END
 94
        6
 95
        1
302
GRIDFORMAT
  1
GRIDFORMAT_BEGIN
 90
        0
 91
        1
 62
     0
 92
       -2
340
0
 93
        0
 40
0.045
309
GRIDFORMAT_END
 95
        2
302
GRIDFORMAT
  1
GRIDFORMAT_BEGIN
 90
        0
 91
        1
 62
     0
 92
       -2
340
0
 93
        0
 40
0.045
309
GRIDFORMAT_END
 95
        4
302
GRIDFORMAT
  1
GRIDFORMAT_BEGIN
 90
        0
 91
        1
 62
     0
 92
       -2
340
0
 93
        0
 40
0.045
309
GRIDFORMAT_END
 95
        8
302
GRIDFORMAT
  1
GRIDFORMAT_BEGIN
 90
        0
 91
        1
 62
     0
 92
       -2
340
0
 93
        0
 40
0.045
309
GRIDFORMAT_END
 95
       16
302
GRIDFORMAT
  1
GRIDFORMAT_BEGIN
 90
        0
 91
        1
 62
     0
 92
       -2
340
0
 93
        0
 40
0.045
309
GRIDFORMAT_END
 95
       32
302
GRIDFORMAT
  1
GRIDFORMAT_BEGIN
 90
        0
 91
        1
 62
     0
 92
       -2
340
0
 93
        0
 40
0.045
309
GRIDFORMAT_END
309
TABLEFORMAT_END
  1
CELLSTYLE_BEGIN
 90
        2
 91
        1
300
_HEADER
309
CELLSTYLE_END
300
CELLSTYLE
  1
TABLEFORMAT_BEGIN
 90
        5
170
     1
 91
        0
 92
        0
 62
   257
 93
        1
300
CONTENTFORMAT
  1
CONTENTFORMAT_BEGIN
 90
        0
 91
        0
 92
        4
 93
        0
300

 40
0.0
140
1.0
 94
        2
 62
     0
340
1C
144
0.18
309
CONTENTFORMAT_END
171
     1
301
MARGIN
  1
CELLMARGIN_BEGIN
 40
0.06
 40
0.06
 40
0.06
 40
0.06
 40
0.18
 40
0.18
309
CELLMARGIN_END
 94
        6
 95
        1
302
GRIDFORMAT
  1
GRIDFORMAT_BEGIN
 90
        0
 91
        1
 62
     0
 92
       -2
340
0
 93
        0
 40
0.045
309
GRIDFORMAT_END
 95
        2
302
GRIDFORMAT
  1
GRIDFORMAT_BEGIN
 90
        0
 91
        1
 62
     0
 92
       -2
340
0
 93
        0
 40
0.045
309
GRIDFORMAT_END
 95
        4
302
GRIDFORMAT
  1
GRIDFORMAT_BEGIN
 90
        0
 91
        1
 62
     0
 92
       -2
340
0
 93
        0
 40
0.045
309
GRIDFORMAT_END
 95
        8
302
GRIDFORMAT
  1
GRIDFORMAT_BEGIN
 90
        0
 91
        1
 62
     0
 92
       -2
340
0
 93
        0
 40
0.045
309
GRIDFORMAT_END
 95
       16
302
GRIDFORMAT
  1
GRIDFORMAT_BEGIN
 90
        0
 91
        1
 62
     0
 92
       -2
340
0
 93
        0
 40
0.045
309
GRIDFORMAT_END
 95
       32
302
GRIDFORMAT
  1
GRIDFORMAT_BEGIN
 90
        0
 91
        1
 62
     0
 92
       -2
340
0
 93
        0
 40
0.045
309
GRIDFORMAT_END
309
TABLEFORMAT_END
  1
CELLSTYLE_BEGIN
 90
        3
 91
        2
300
_DATA
309
CELLSTYLE_END
  0
ENDSEC
  0
EOF
