  0
SECTION
  2
HEADER
  9
$ACADVER
  1
AC1024
  9
$ACADMAINTVER
 70
   109
  9
$DWGCODEPAGE
  3
ANSI_1256
  9
$INSBASE
 10
0.0
 20
0.0
 30
0.0
  9
$EXTMIN
 10
263180.7561145536
 20
1990583.403966136
 30
-8.576951406134256
  9
$EXTMAX
 10
264827.9160322623
 20
1991559.525594296
 30
0.00000001
  9
$LIMMIN
 10
0.0
 20
0.0
  9
$LIMMAX
 10
12.0
 20
9.0
  9
$ORTHOMODE
 70
     0
  9
$REGENMODE
 70
     1
  9
$FILLMODE
 70
     1
  9
$QTEXTMODE
 70
     0
  9
$MIRRTEXT
 70
     1
  9
$LTSCALE
 40
1.0
  9
$ATTMODE
 70
     1
  9
$TEXTSIZE
 40
0.2
  9
$TRACEWID
 40
0.05
  9
$TEXTSTYLE
  7
Standard
  9
$CLAYER
  8
اسوار
  9
$CELTYPE
  6
ByLayer
  9
$CECOLOR
 62
   256
  9
$CELTSCALE
 40
1.0
  9
$DISPSILH
 70
     0
  9
$DIMSCALE
 40
1.0
  9
$DIMASZ
 40
0.18
  9
$DIMEXO
 40
0.0625
  9
$DIMDLI
 40
0.38
  9
$DIMRND
 40
0.0
  9
$DIMDLE
 40
0.0
  9
$DIMEXE
 40
0.18
  9
$DIMTP
 40
0.0
  9
$DIMTM
 40
0.0
  9
$DIMTXT
 40
0.18
  9
$DIMCEN
 40
0.09
  9
$DIMTSZ
 40
0.0
  9
$DIMTOL
 70
     0
  9
$DIMLIM
 70
     0
  9
$DIMTIH
 70
     1
  9
$DIMTOH
 70
     1
  9
$DIMSE1
 70
     0
  9
$DIMSE2
 70
     0
  9
$DIMTAD
 70
     0
  9
$DIMZIN
 70
     0
  9
$DIMBLK
  1

  9
$DIMASO
 70
     1
  9
$DIMSHO
 70
     1
  9
$DIMPOST
  1

  9
$DIMAPOST
  1

  9
$DIMALT
 70
     0
  9
$DIMALTD
 70
     2
  9
$DIMALTF
 40
25.4
  9
$DIMLFAC
 40
1.0
  9
$DIMTOFL
 70
     0
  9
$DIMTVP
 40
0.0
  9
$DIMTIX
 70
     0
  9
$DIMSOXD
 70
     0
  9
$DIMSAH
 70
     0
  9
$DIMBLK1
  1

  9
$DIMBLK2
  1

  9
$DIMSTYLE
  2
Standard
  9
$DIMCLRD
 70
     0
  9
$DIMCLRE
 70
     0
  9
$DIMCLRT
 70
     0
  9
$DIMTFAC
 40
1.0
  9
$DIMGAP
 40
0.09
  9
$DIMJUST
 70
     0
  9
$DIMSD1
 70
     0
  9
$DIMSD2
 70
     0
  9
$DIMTOLJ
 70
     1
  9
$DIMTZIN
 70
     0
  9
$DIMALTZ
 70
     0
  9
$DIMALTTZ
 70
     0
  9
$DIMUPT
 70
     0
  9
$DIMDEC
 70
     4
  9
$DIMTDEC
 70
     4
  9
$DIMALTU
 70
     2
  9
$DIMALTTD
 70
     2
  9
$DIMTXSTY
  7
Standard
  9
$DIMAUNIT
 70
     0
  9
$DIMADEC
 70
     0
  9
$DIMALTRND
 40
0.0
  9
$DIMAZIN
 70
     0
  9
$DIMDSEP
 70
    46
  9
$DIMATFIT
 70
     3
  9
$DIMFRAC
 70
     0
  9
$DIMLDRBLK
  1

  9
$DIMLUNIT
 70
     2
  9
$DIMLWD
 70
    -2
  9
$DIMLWE
 70
    -2
  9
$DIMTMOVE
 70
     0
  9
$DIMFXL
 40
1.0
  9
$DIMFXLON
 70
     0
  9
$DIMJOGANG
 40
0.7853981633974483
  9
$DIMTFILL
 70
     0
  9
$DIMTFILLCLR
 70
     0
  9
$DIMARCSYM
 70
     0
  9
$DIMLTYPE
  6

  9
$DIMLTEX1
  6

  9
$DIMLTEX2
  6

  9
$DIMTXTDIRECTION
 70
     0
  9
$LUNITS
 70
     2
  9
$LUPREC
 70
     4
  9
$SKETCHINC
 40
0.1
  9
$FILLETRAD
 40
0.5
  9
$AUNITS
 70
     0
  9
$AUPREC
 70
     0
  9
$MENU
  1
.
  9
$ELEVATION
 40
0.0
  9
$PELEVATION
 40
0.0
  9
$THICKNESS
 40
0.0
  9
$LIMCHECK
 70
     0
  9
$CHAMFERA
 40
0.5
  9
$CHAMFERB
 40
0.5
  9
$CHAMFERC
 40
1.0
  9
$CHAMFERD
 40
0.0
  9
$SKPOLY
 70
     0
  9
$TDCREATE
 40
2455347.603969826
  9
$TDUCREATE
 40
2455347.478969827
  9
$TDUPDATE
 40
2458702.496385475
  9
$TDUUPDATE
 40
2458702.371385475
  9
$TDINDWG
 40
5.9577600810
  9
$TDUSRTIMER
 40
5.9577600579
  9
$USRTIMER
 70
     1
  9
$ANGBASE
 50
0.0
  9
$ANGDIR
 70
     0
  9
$PDMODE
 70
     0
  9
$PDSIZE
 40
0.0
  9
$PLINEWID
 40
0.2
  9
$SPLFRAME
 70
     0
  9
$SPLINETYPE
 70
     6
  9
$SPLINESEGS
 70
     8
  9
$HANDSEED
  5
5F
  9
$SURFTAB1
 70
     6
  9
$SURFTAB2
 70
     6
  9
$SURFTYPE
 70
     6
  9
$SURFU
 70
     6
  9
$SURFV
 70
     6
  9
$UCSBASE
  2

  9
$UCSNAME
  2

  9
$UCSORG
 10
0.0
 20
0.0
 30
0.0
  9
$UCSXDIR
 10
1.0
 20
0.0
 30
0.0
  9
$UCSYDIR
 10
0.0
 20
1.0
 30
0.0
  9
$UCSORTHOREF
  2

  9
$UCSORTHOVIEW
 70
     0
  9
$UCSORGTOP
 10
0.0
 20
0.0
 30
0.0
  9
$UCSORGBOTTOM
 10
0.0
 20
0.0
 30
0.0
  9
$UCSORGLEFT
 10
0.0
 20
0.0
 30
0.0
  9
$UCSORGRIGHT
 10
0.0
 20
0.0
 30
0.0
  9
$UCSORGFRONT
 10
0.0
 20
0.0
 30
0.0
  9
$UCSORGBACK
 10
0.0
 20
0.0
 30
0.0
  9
$PUCSBASE
  2

  9
$PUCSNAME
  2

  9
$PUCSORG
 10
0.0
 20
0.0
 30
0.0
  9
$PUCSXDIR
 10
1.0
 20
0.0
 30
0.0
  9
$PUCSYDIR
 10
0.0
 20
1.0
 30
0.0
  9
$PUCSORTHOREF
  2

  9
$PUCSORTHOVIEW
 70
     0
  9
$PUCSORGTOP
 10
0.0
 20
0.0
 30
0.0
  9
$PUCSORGBOTTOM
 10
0.0
 20
0.0
 30
0.0
  9
$PUCSORGLEFT
 10
0.0
 20
0.0
 30
0.0
  9
$PUCSORGRIGHT
 10
0.0
 20
0.0
 30
0.0
  9
$PUCSORGFRONT
 10
0.0
 20
0.0
 30
0.0
  9
$PUCSORGBACK
 10
0.0
 20
0.0
 30
0.0
  9
$USERI1
 70
     0
  9
$USERI2
 70
     0
  9
$USERI3
 70
     0
  9
$USERI4
 70
     0
  9
$USERI5
 70
     0
  9
$USERR1
 40
0.0
  9
$USERR2
 40
0.0
  9
$USERR3
 40
0.0
  9
$USERR4
 40
0.0
  9
$USERR5
 40
0.0
  9
$WORLDVIEW
 70
     1
  9
$SHADEDGE
 70
     3
  9
$SHADEDIF
 70
    70
  9
$TILEMODE
 70
     1
  9
$MAXACTVP
 70
    64
  9
$PINSBASE
 10
0.0
 20
0.0
 30
0.0
  9
$PLIMCHECK
 70
     0
  9
$PEXTMIN
 10
1.000000000000000E+20
 20
1.000000000000000E+20
 30
1.000000000000000E+20
  9
$PEXTMAX
 10
-1.000000000000000E+20
 20
-1.000000000000000E+20
 30
-1.000000000000000E+20
  9
$PLIMMIN
 10
0.0
 20
0.0
  9
$PLIMMAX
 10
12.0
 20
9.0
  9
$UNITMODE
 70
     0
  9
$VISRETAIN
 70
     1
  9
$PLINEGEN
 70
     0
  9
$PSLTSCALE
 70
     1
  9
$TREEDEPTH
 70
  3020
  9
$CMLSTYLE
  2
Standard
  9
$CMLJUST
 70
     0
  9
$CMLSCALE
 40
1.0
  9
$PROXYGRAPHICS
 70
     1
  9
$MEASUREMENT
 70
     0
  9
$CELWEIGHT
370
    -1
  9
$ENDCAPS
280
     0
  9
$JOINSTYLE
280
     0
  9
$LWDISPLAY
290
     0
  9
$INSUNITS
 70
     1
  9
$HYPERLINKBASE
  1

  9
$STYLESHEET
  1

  9
$XEDIT
290
     1
  9
$CEPSNTYPE
380
     0
  9
$PSTYLEMODE
290
     1
  9
$FINGERPRINTGUID
  2
{A7EBAFDE-F218-425F-A35B-0293B4BF5329}
  9
$VERSIONGUID
  2
{84423DCF-FE08-4F0B-887B-6B314C754805}
  9
$EXTNAMES
290
     1
  9
$PSVPSCALE
 40
0.0
  9
$OLESTARTUP
290
     0
  9
$SORTENTS
280
   127
  9
$INDEXCTL
280
     0
  9
$HIDETEXT
280
     1
  9
$XCLIPFRAME
280
     0
  9
$HALOGAP
280
     0
  9
$OBSCOLOR
 70
   257
  9
$OBSLTYPE
280
     0
  9
$INTERSECTIONDISPLAY
280
     0
  9
$INTERSECTIONCOLOR
 70
   257
  9
$DIMASSOC
280
     2
  9
$PROJECTNAME
  1

  9
$CAMERADISPLAY
290
     0
  9
$LENSLENGTH
 40
50.0
  9
$CAMERAHEIGHT
 40
0.0
  9
$STEPSPERSEC
 40
2.0
  9
$STEPSIZE
 40
6.0
  9
$3DDWFPREC
 40
2.0
  9
$PSOLWIDTH
 40
0.25
  9
$PSOLHEIGHT
 40
4.0
  9
$LOFTANG1
 40
1.570796326794896
  9
$LOFTANG2
 40
1.570796326794896
  9
$LOFTMAG1
 40
0.0
  9
$LOFTMAG2
 40
0.0
  9
$LOFTPARAM
 70
     7
  9
$LOFTNORMALS
280
     1
  9
$LATITUDE
 40
0.0
  9
$LONGITUDE
 40
0.0
  9
$NORTHDIRECTION
 40
0.0
  9
$TIMEZONE
 70
 -8000
  9
$LIGHTGLYPHDISPLAY
280
     1
  9
$TILEMODELIGHTSYNCH
280
     1
  9
$SOLIDHIST
280
     1
  9
$SHOWHIST
280
     1
  9
$DWFFRAME
280
     2
  9
$DGNFRAME
280
     0
  9
$REALWORLDSCALE
290
     0
  9
$INTERFERECOLOR
 62
     1
  9
$CSHADOW
280
     0
  9
$SHADOWPLANELOCATION
 40
0.0
  0
ENDSEC
  0
SECTION
  2
CLASSES
  0
CLASS
  1
ACDBDICTIONARYWDFLT
  2
AcDbDictionaryWithDefault
  3
ObjectDBX Classes
 90
        0
 91
        1
280
     0
281
     0
  0
CLASS
  1
VISUALSTYLE
  2
AcDbVisualStyle
  3
ObjectDBX Classes
 90
     4095
 91
        0
280
     0
281
     0
  0
CLASS
  1
SCALE
  2
AcDbScale
  3
ObjectDBX Classes
 90
     1153
 91
        0
280
     0
281
     0
  0
CLASS
  1
MATERIAL
  2
AcDbMaterial
  3
ObjectDBX Classes
 90
        0
 91
        1
280
     0
281
     0
  0
CLASS
  1
TABLESTYLE
  2
AcDbTableStyle
  3
ObjectDBX Classes
 90
     4095
 91
        1
280
     0
281
     0
  0
CLASS
  1
MLEADERSTYLE
  2
AcDbMLeaderStyle
  3
ACDB_MLEADERSTYLE_CLASS
 90
     4095
 91
        0
280
     0
281
     0
  0
CLASS
  1
DICTIONARYVAR
  2
AcDbDictionaryVar
  3
ObjectDBX Classes
 90
        0
 91
        1
280
     0
281
     0
  0
CLASS
  1
SORTENTSTABLE
  2
AcDbSortentsTable
  3
ObjectDBX Classes
 90
        0
 91
        2
280
     0
281
     0
  0
CLASS
  1
RASTERVARIABLES
  2
AcDbRasterVariables
  3
ISM
 90
        0
 91
        0
280
     0
281
     0
  0
CLASS
  1
IMAGEDEF
  2
AcDbRasterImageDef
  3
ISM
 90
        0
 91
        0
280
     0
281
     0
  0
CLASS
  1
IMAGEDEF_REACTOR
  2
AcDbRasterImageDefReactor
  3
ISM
 90
        1
 91
        0
280
     0
281
     0
  0
CLASS
  1
IMAGE
  2
AcDbRasterImage
  3
ISM
 90
     2175
 91
        0
280
     0
281
     1
  0
CLASS
  1
CELLSTYLEMAP
  2
AcDbCellStyleMap
  3
ObjectDBX Classes
 90
     1152
 91
        1
280
     0
281
     0
  0
ENDSEC
  0
SECTION
  2
TABLES
  0
TABLE
  2
VPORT
  5
23
330
0
100
AcDbSymbolTable
 70
     1
  0
VPORT
  5
24
330
23
100
AcDbSymbolTableRecord
100
AcDbViewportTableRecord
  2
*Active
 70
     0
 10
0.0
 20
0.0
 11
1.0
 21
1.0
 12
263600.5932424597
 22
1991051.224314579
 13
0.0
 23
0.0
 14
0.5
 24
0.5
 15
0.5
 25
0.5
 16
0.0
 26
0.0
 36
1.0
 17
0.0
 27
0.0
 37
0.0
 40
1189.153118223185
 41
1.958282208588957
 42
50.0
 43
0.0
 44
0.0
 50
0.0
 51
0.0
 71
     0
 72
  1000
 73
     1
 74
     3
 75
     0
 76
     0
 77
     0
 78
     0
281
     0
 65
     1
110
0.0
120
0.0
130
0.0
111
1.0
121
0.0
131
0.0
112
0.0
122
1.0
132
0.0
 79
     0
146
0.0
 60
     3
 61
     5
292
     1
282
     0
141
0.0
142
0.0
 63
   256
  0
ENDTAB
  0
TABLE
  2
LTYPE
  5
1E
330
0
100
AcDbSymbolTable
 70
     1
  0
LTYPE
  5
1F
330
1E
100
AcDbSymbolTableRecord
100
AcDbLinetypeTableRecord
  2
ByBlock
 70
     0
  3

 72
    65
 73
     0
 40
0.0
  0
LTYPE
  5
20
330
1E
100
AcDbSymbolTableRecord
100
AcDbLinetypeTableRecord
  2
ByLayer
 70
     0
  3

 72
    65
 73
     0
 40
0.0
  0
LTYPE
  5
C
330
1E
100
AcDbSymbolTableRecord
100
AcDbLinetypeTableRecord
  2
Continuous
 70
     0
  3
Solid line
 72
    65
 73
     0
 40
0.0
  0
ENDTAB
  0
TABLE
  2
LAYER
  5
14
102
{ACAD_XDICTIONARY
360
15
102
}
330
0
100
AcDbSymbolTable
 70
     3
  0
LAYER
  5
6
330
14
100
AcDbSymbolTableRecord
100
AcDbLayerTableRecord
  2
0
 70
     0
 62
    -7
  6
Continuous
370
    -3
390
7
347
A
  0
LAYER
  5
2E
330
14
100
AcDbSymbolTableRecord
100
AcDbLayerTableRecord
  2
اسوار
 70
     0
 62
   -30
  6
Continuous
370
    -3
390
7
347
0
1001
ZcCmTransparency
1071
 33554687
1001
AcAecLayerStandard
1000

1000

  0
LAYER
  5
34
330
14
100
AcDbSymbolTableRecord
100
AcDbLayerTableRecord
  2
شداخة
 70
     0
 62
   111
  6
Continuous
370
    -3
390
7
347
0
1001
ZcCmTransparency
1071
 33554687
1001
AcAecLayerStandard
1000

1000

  0
ENDTAB
  0
TABLE
  2
STYLE
  5
1B
330
0
100
AcDbSymbolTable
 70
     1
  0
STYLE
  5
1C
330
1B
100
AcDbSymbolTableRecord
100
AcDbTextStyleTableRecord
  2
Standard
 70
     0
 40
0.0
 41
1.0
 50
0.0
 71
     0
 42
0.2
  3
txt
  4

  0
ENDTAB
  0
TABLE
  2
VIEW
  5
21
330
0
100
AcDbSymbolTable
 70
     0
  0
ENDTAB
  0
TABLE
  2
UCS
  5
22
330
0
100
AcDbSymbolTable
 70
     0
  0
ENDTAB
  0
TABLE
  2
APPID
  5
25
330
0
100
AcDbSymbolTable
 70
     4
  0
APPID
  5
1A
330
25
100
AcDbSymbolTableRecord
100
AcDbRegAppTableRecord
  2
ACAD
 70
     0
  0
APPID
  5
2F
330
25
100
AcDbSymbolTableRecord
100
AcDbRegAppTableRecord
  2
ZcCmTransparency
 70
     0
  0
APPID
  5
30
330
25
100
AcDbSymbolTableRecord
100
AcDbRegAppTableRecord
  2
AcAecLayerStandard
 70
     0
  0
APPID
  5
18
330
25
100
AcDbSymbolTableRecord
100
AcDbRegAppTableRecord
  2
AcLayerTools
 70
     0
  0
ENDTAB
  0
TABLE
  2
DIMSTYLE
  5
26
330
0
100
AcDbSymbolTable
 70
     1
100
AcDbDimStyleTable
 71
     1
340
27
  0
DIMSTYLE
105
27
330
26
100
AcDbSymbolTableRecord
100
AcDbDimStyleTableRecord
  2
Standard
 70
     0
340
1C
  0
ENDTAB
  0
TABLE
  2
BLOCK_RECORD
  5
1
330
0
100
AcDbSymbolTable
 70
     0
  0
BLOCK_RECORD
  5
2
102
{ACAD_XDICTIONARY
360
3
102
}
330
1
100
AcDbSymbolTableRecord
100
AcDbBlockTableRecord
  2
*Model_Space
340
E
 70
     0
280
     1
281
     0
  0
BLOCK_RECORD
  5
10
330
1
100
AcDbSymbolTableRecord
100
AcDbBlockTableRecord
  2
*Paper_Space
340
13
 70
     0
280
     1
281
     0
  0
ENDTAB
  0
ENDSEC
  0
SECTION
  2
BLOCKS
  0
BLOCK
  5
5
330
2
100
AcDbEntity
  8
0
100
AcDbBlockBegin
  2
*Model_Space
 70
     0
 10
0.0
 20
0.0
 30
0.0
  3
*Model_Space
  1

  0
ENDBLK
  5
D
330
2
100
AcDbEntity
  8
0
100
AcDbBlockEnd
  0
BLOCK
  5
11
330
10
100
AcDbEntity
 67
     1
  8
0
100
AcDbBlockBegin
  2
*Paper_Space
 70
     0
 10
0.0
 20
0.0
 30
0.0
  3
*Paper_Space
  1

  0
ENDBLK
  5
12
330
10
100
AcDbEntity
 67
     1
  8
0
100
AcDbBlockEnd
  0
ENDSEC
  0
SECTION
  2
ENTITIES
  0
LWPOLYLINE
  5
33
330
2
100
AcDbEntity
  8
شداخة
100
AcDbPolyline
 90
        8
 70
     1
 43
0.2
 10
263654.0332033258
 20
1990968.14601189
 10
263652.4966937517
 20
1990968.70162242
 10
263652.2810086737
 20
1990967.816888917
 42
-0.0159029182657124
 10
263651.2628538126
 20
1990965.001592131
 10
263651.130650082
 20
1990964.527280189
 10
263650.6546660115
 20
1990963.269498557
 10
263650.3640643692
 20
1990962.498604984
 10
263651.5973481701
 20
1990961.510501889
  0
LWPOLYLINE
  5
35
102
{ACAD_REACTORS
330
36
102
}
330
2
100
AcDbEntity
  8
شداخة
100
AcDbPolyline
 90
        6
 70
     1
 43
0.2
 10
263653.4437923132
 20
1990958.40880776
 10
263638.3783503126
 20
1990969.122096368
 10
263638.9952757152
 20
1990969.9896408
 10
263640.1365376345
 20
1990969.215125349
 10
263650.3640643692
 20
1990962.498604984
 10
263654.2862300893
 20
1990959.356178167
  0
HATCH
  5
36
330
2
100
AcDbEntity
  8
شداخة
100
AcDbHatch
 10
0.0
 20
0.0
 30
0.0
210
0.0
220
0.0
230
1.0
  2
ANSI31
 70
     0
 71
     1
 91
        1
 92
        7
 72
     0
 73
     1
 93
        6
 10
263640.1365376122
 20
1990969.215125369
 10
263638.9952757153
 20
1990969.9896408
 10
263638.3783503126
 20
1990969.122096368
 10
263653.4437923132
 20
1990958.40880776
 10
263654.2862300893
 20
1990959.356178167
 10
263650.3640643697
 20
1990962.498604984
 97
        1
330
35
 75
     0
 76
     1
 52
0.0
 41
0.1
 77
     0
 78
     1
 53
45.0
 43
0.0
 44
0.0
 45
-0.0088388347648318
 46
0.0088388347648318
 79
     0
 47
0.0254097191300497
 98
        1
 10
263645.7729841748
 20
1990964.927793086
1001
ACAD
1010
0.0
1020
0.0
1030
0.0
  0
HATCH
  5
37
330
2
100
AcDbEntity
  8
شداخة
100
AcDbHatch
 10
0.0
 20
0.0
 30
0.0
210
0.0
220
0.0
230
1.0
  2
ANSI31
 70
     0
 71
     0
 91
        1
 92
        7
 72
     1
 73
     1
 93
        8
 10
263654.0332033258
 20
1990968.14601189
 42
0.0
 10
263652.4966937518
 20
1990968.70162242
 42
0.0
 10
263652.2810086737
 20
1990967.816888917
 42
-0.0159029182657124
 10
263651.2628538126
 20
1990965.001592131
 42
0.0
 10
263651.130650082
 20
1990964.527280188
 42
0.0
 10
263650.6546677984
 20
1990963.269503264
 42
0.0
 10
263650.3640643693
 20
1990962.498604984
 42
0.0
 10
263651.5973481702
 20
1990961.510501889
 42
0.0
 97
        0
 75
     0
 76
     1
 52
0.0
 41
0.1
 77
     0
 78
     1
 53
45.0
 43
0.0
 44
0.0
 45
-0.0088388347648318
 46
0.0088388347648318
 79
     0
 47
0.013360686593689
 98
        1
 10
263652.9042182851
 20
1990966.643989915
1001
ACAD
1010
0.0
1020
0.0
1030
0.0
  0
LWPOLYLINE
  5
38
102
{ACAD_REACTORS
330
39
102
}
330
2
100
AcDbEntity
  8
شداخة
100
AcDbPolyline
 90
        5
 70
     1
 43
0.2
 10
263573.7559757703
 20
1991078.44764173
 10
263572.043021083
 20
1991079.323878162
 10
263569.7186142934
 20
1991074.292713989
 10
263572.0177611322
 20
1991073.777033735
 10
263572.0240030446
 20
1991073.838047724
  0
HATCH
  5
39
330
2
100
AcDbEntity
  8
شداخة
100
AcDbHatch
 10
0.0
 20
0.0
 30
0.0
210
0.0
220
0.0
230
1.0
  2
ANSI31
 70
     0
 71
     1
 91
        1
 92
        7
 72
     0
 73
     1
 93
        5
 10
263569.7186142936
 20
1991074.292713989
 10
263572.0177611322
 20
1991073.777033735
 10
263572.0240030447
 20
1991073.838047724
 10
263573.7559757703
 20
1991078.44764173
 10
263572.043021083
 20
1991079.323878162
 97
        1
330
38
 75
     0
 76
     1
 52
0.0
 41
0.1
 77
     0
 78
     1
 53
45.0
 43
0.0
 44
0.0
 45
-0.0088388347648318
 46
0.0088388347648318
 79
     0
 47
0.0203003079951814
 98
        1
 10
263572.1350731184
 20
1991077.215959905
1001
ACAD
1010
0.0
1020
0.0
1030
0.0
  0
LWPOLYLINE
  5
3A
102
{ACAD_REACTORS
330
3B
102
}
330
2
100
AcDbEntity
  8
شداخة
100
AcDbPolyline
 90
       10
 70
     1
 43
0.2
 10
263568.0769187715
 20
1991084.067886917
 10
263562.408032879
 20
1991086.28695618
 10
263562.069820113
 20
1991085.63053295
 10
263561.1169062684
 20
1991083.009326454
 10
263562.2128053093
 20
1991082.635391397
 10
263565.4244719691
 20
1991081.695985398
 10
263569.845840748
 20
1991080.569867823
 10
263572.1919385215
 20
1991079.461339446
 10
263572.1919385215
 20
1991079.461339446
 10
263573.2501625816
 20
1991082.345978456
  0
HATCH
  5
3B
330
2
100
AcDbEntity
  8
شداخة
100
AcDbHatch
 10
0.0
 20
0.0
 30
0.0
210
0.0
220
0.0
230
1.0
  2
ANSI31
 70
     0
 71
     1
 91
        1
 92
        7
 72
     0
 73
     1
 93
        9
 10
263565.4244719666
 20
1991081.695985398
 10
263569.845840746
 20
1991080.569867823
 10
263572.1919385214
 20
1991079.461339446
 10
263573.2501625816
 20
1991082.345978456
 10
263568.0769187697
 20
1991084.067886914
 10
263562.4080328792
 20
1991086.28695618
 10
263562.0698201129
 20
1991085.63053295
 10
263561.1169062684
 20
1991083.009326454
 10
263562.2128053036
 20
1991082.635391398
 97
        1
330
3A
 75
     0
 76
     1
 52
0.0
 41
0.1
 77
     0
 78
     1
 53
45.0
 43
0.0
 44
0.0
 45
-0.0088388347648318
 46
0.0088388347648318
 79
     0
 47
0.0143814594508565
 98
        1
 10
263565.1329638879
 20
1991083.362298742
1001
ACAD
1010
0.0
1020
0.0
1030
0.0
  0
LWPOLYLINE
  5
3C
102
{ACAD_REACTORS
330
3D
102
}
330
2
100
AcDbEntity
  8
شداخة
100
AcDbPolyline
 90
        5
 70
     1
 43
0.2
 10
263637.6580593772
 20
1990916.763289611
 10
263635.278721104
 20
1990917.236572572
 10
263634.2117940012
 20
1990911.301467284
 10
263636.5677005588
 20
1990910.87795659
 10
263637.1222332031
 20
1990913.871108227
  0
HATCH
  5
3D
330
2
100
AcDbEntity
  8
شداخة
100
AcDbHatch
 10
0.0
 20
0.0
 30
0.0
210
0.0
220
0.0
230
1.0
  2
ANSI31
 70
     0
 71
     1
 91
        1
 92
        7
 72
     0
 73
     1
 93
        5
 10
263637.6580593772
 20
1990916.763289611
 10
263635.278721104
 20
1990917.236572572
 10
263634.2117940013
 20
1990911.301467284
 10
263636.5677005588
 20
1990910.87795659
 10
263637.1222332031
 20
1990913.871108227
 97
        1
330
3C
 75
     0
 76
     1
 52
0.0
 41
0.1
 77
     0
 78
     1
 53
45.0
 43
0.0
 44
0.0
 45
-0.0088388347648318
 46
0.0088388347648318
 79
     0
 47
0.0232314115724671
 98
        1
 10
263636.1272442308
 20
1990914.467157102
1001
ACAD
1010
0.0
1020
0.0
1030
0.0
  0
LWPOLYLINE
  5
3E
102
{ACAD_REACTORS
330
3F
102
}
330
2
100
AcDbEntity
  8
شداخة
100
AcDbPolyline
 90
       16
 70
     1
 43
0.2
 10
263443.2488262868
 20
1991151.896757023
 10
263448.4565332681
 20
1991149.2857146
 10
263451.2264762775
 20
1991148.113662625
 10
263450.599697626
 20
1991145.971640036
 10
263450.1360127966
 20
1991144.334142835
 10
263451.7071438496
 20
1991143.889250692
 10
263451.9039467706
 20
1991144.657647367
 10
263452.9711998097
 20
1991149.035523833
 10
263451.5867591485
 20
1991150.297471379
 10
263448.002769394
 20
1991152.264931065
 10
263441.6229418769
 20
1991155.303286418
 10
263439.761208323
 20
1991151.73267436
 10
263427.7407350851
 20
1991155.977451702
 10
263426.9621213894
 20
1991153.202505859
 10
263438.6601618453
 20
1991149.180509895
 10
263441.4204979729
 20
1991147.913504831
  0
HATCH
  5
3F
330
2
100
AcDbEntity
  8
شداخة
100
AcDbHatch
 10
0.0
 20
0.0
 30
0.0
210
0.0
220
0.0
230
1.0
  2
ANSI31
 70
     0
 71
     1
 91
        1
 92
        7
 72
     0
 73
     1
 93
       16
 10
263439.7612083231
 20
1991151.73267436
 10
263427.7407350851
 20
1991155.977451702
 10
263426.9621213895
 20
1991153.202505859
 10
263438.660161847
 20
1991149.180509894
 10
263441.420497973
 20
1991147.913504831
 10
263443.2488262867
 20
1991151.896757023
 10
263448.4565332722
 20
1991149.285714599
 10
263451.2264762775
 20
1991148.113662625
 10
263450.5996976273
 20
1991145.97164004
 10
263450.1360127965
 20
1991144.334142834
 10
263451.7071438496
 20
1991143.889250692
 10
263451.9039467707
 20
1991144.657647369
 10
263452.9711998097
 20
1991149.035523833
 10
263451.586759149
 20
1991150.297471379
 10
263448.002769391
 20
1991152.264931067
 10
263441.6229418768
 20
1991155.303286418
 97
        1
330
3E
 75
     0
 76
     1
 52
0.0
 41
0.1
 77
     0
 78
     1
 53
45.0
 43
0.0
 44
0.0
 45
-0.0088388347648318
 46
0.0088388347648318
 79
     0
 47
0.045510607301979
 98
        1
 10
263441.2080982074
 20
1991152.081150851
1001
ACAD
1010
0.0
1020
0.0
1030
0.0
  0
LWPOLYLINE
  5
40
102
{ACAD_REACTORS
330
41
102
}
330
2
100
AcDbEntity
  8
شداخة
100
AcDbPolyline
 90
        4
 70
     1
 43
0.2
 10
263536.3206369092
 20
1991117.920808583
 10
263535.0608706552
 20
1991119.057428909
 10
263529.9919029919
 20
1991113.401792996
 10
263531.3109520128
 20
1991112.417108244
  0
HATCH
  5
41
330
2
100
AcDbEntity
  8
شداخة
100
AcDbHatch
 10
0.0
 20
0.0
 30
0.0
210
0.0
220
0.0
230
1.0
  2
ANSI31
 70
     0
 71
     1
 91
        1
 92
        7
 72
     0
 73
     1
 93
        4
 10
263536.3206369093
 20
1991117.920808583
 10
263535.0608706553
 20
1991119.057428909
 10
263529.9919029917
 20
1991113.401792996
 10
263531.3109520132
 20
1991112.417108244
 97
        1
330
40
 75
     0
 76
     1
 52
0.0
 41
0.1
 77
     0
 78
     1
 53
45.0
 43
0.0
 44
0.0
 45
-0.0088388347648318
 46
0.0088388347648318
 79
     0
 47
0.0137616145156565
 98
        1
 10
263533.9575992103
 20
1991116.540153434
1001
ACAD
1010
0.0
1020
0.0
1030
0.0
  0
LWPOLYLINE
  5
42
330
2
100
AcDbEntity
  8
شداخة
100
AcDbPolyline
 90
        4
 70
     1
 43
0.2
 10
263546.8409097837
 20
1991112.806355388
 10
263541.7105128716
 20
1991116.483166892
 10
263540.4869971974
 20
1991114.937749446
 10
263545.7371836256
 20
1991111.173791439
  0
LWPOLYLINE
  5
43
102
{ACAD_REACTORS
330
44
102
}
330
2
100
AcDbEntity
  8
شداخة
100
AcDbPolyline
 90
        9
 70
     0
 43
0.2
 10
263634.3777884028
 20
1990906.854562673
 10
263634.0712953734
 20
1990901.005441301
 10
263634.2888939918
 20
1990896.190721235
 10
263636.0488599201
 20
1990896.379395768
 10
263636.567602349
 20
1990896.30326914
 10
263636.5359585751
 20
1990900.672806828
 10
263636.5097424592
 20
1990906.639583967
 10
263636.5097424592
 20
1990906.639583967
 10
263634.3777884029
 20
1990906.854562673
  0
HATCH
  5
44
330
2
100
AcDbEntity
  8
شداخة
100
AcDbHatch
 10
0.0
 20
0.0
 30
0.0
210
0.0
220
0.0
230
1.0
  2
ANSI31
 70
     0
 71
     1
 91
        1
 92
        7
 72
     0
 73
     1
 93
        7
 10
263636.5097424592
 20
1990906.639583967
 10
263634.3777884028
 20
1990906.854562673
 10
263634.0712953733
 20
1990901.005441301
 10
263634.2888939919
 20
1990896.190721235
 10
263636.0488599208
 20
1990896.379395768
 10
263636.5676023491
 20
1990896.30326914
 10
263636.5359585752
 20
1990900.672806834
 97
        1
330
43
 75
     0
 76
     1
 52
0.0
 41
0.1
 77
     0
 78
     1
 53
45.0
 43
0.0
 44
0.0
 45
-0.0088388347648318
 46
0.0088388347648318
 79
     0
 47
0.0472775892292241
 98
        1
 10
263636.1620560638
 20
1990902.994512949
1001
ACAD
1010
0.0
1020
0.0
1030
0.0
  0
LWPOLYLINE
  5
45
102
{ACAD_REACTORS
330
46
102
}
330
2
100
AcDbEntity
  8
شداخة
100
AcDbPolyline
 90
        4
 70
     1
 43
0.2
 10
263622.1762347407
 20
1991082.799515636
 10
263630.2482614155
 20
1991076.631399266
 10
263631.7733278169
 20
1991078.083867817
 10
263623.8315350563
 20
1991084.459333137
  0
HATCH
  5
46
330
2
100
AcDbEntity
  8
شداخة
100
AcDbHatch
 10
0.0
 20
0.0
 30
0.0
210
0.0
220
0.0
230
1.0
  2
ANSI31
 70
     0
 71
     1
 91
        1
 92
        7
 72
     0
 73
     1
 93
        4
 10
263630.2482614157
 20
1991076.631399266
 10
263631.7733278171
 20
1991078.083867817
 10
263623.8315350563
 20
1991084.459333137
 10
263622.1762347407
 20
1991082.799515636
 97
        1
330
45
 75
     0
 76
     1
 52
0.0
 41
0.1
 77
     0
 78
     1
 53
45.0
 43
0.0
 44
0.0
 45
-0.0088388347648318
 46
0.0088388347648318
 79
     0
 47
0.0230142239700224
 98
        1
 10
263624.9213114784
 20
1991081.152065067
1001
ACAD
1010
0.0
1020
0.0
1030
0.0
  0
LWPOLYLINE
  5
47
102
{ACAD_REACTORS
330
48
102
}
330
2
100
AcDbEntity
  8
شداخة
100
AcDbPolyline
 90
        4
 70
     1
 43
0.2
 10
263634.6881136886
 20
1991094.190889786
 10
263638.9137486084
 20
1991090.75383811
 10
263639.74361873
 20
1991091.724685364
 10
263635.5764162278
 20
1991095.243017897
  0
HATCH
  5
48
330
2
100
AcDbEntity
  8
شداخة
100
AcDbHatch
 10
0.0
 20
0.0
 30
0.0
210
0.0
220
0.0
230
1.0
  2
ANSI31
 70
     0
 71
     1
 91
        1
 92
        7
 72
     0
 73
     1
 93
        4
 10
263638.9137486083
 20
1991090.75383811
 10
263639.7436187298
 20
1991091.724685363
 10
263635.5764162279
 20
1991095.243017897
 10
263634.6881136888
 20
1991094.190889786
 97
        1
330
47
 75
     0
 76
     1
 52
0.0
 41
0.1
 77
     0
 78
     1
 53
45.0
 43
0.0
 44
0.0
 45
-0.0088388347648318
 46
0.0088388347648318
 79
     0
 47
0.0102080517701191
 98
        1
 10
263637.0771680815
 20
1991092.960749111
1001
ACAD
1010
0.0
1020
0.0
1030
0.0
  0
LWPOLYLINE
  5
49
102
{ACAD_REACTORS
330
50
102
}
330
2
100
AcDbEntity
  8
شداخة
100
AcDbPolyline
 90
        4
 70
     1
 43
0.2
 10
263685.261241508
 20
1991062.539583386
 10
263683.1028177221
 20
1991063.363964839
 10
263682.0461345528
 20
1991060.472577854
 10
263684.1632723586
 20
1991059.439100754
  0
LWPOLYLINE
  5
4A
330
2
100
AcDbEntity
  8
شداخة
100
AcDbPolyline
 90
        4
 70
     1
 43
0.2
 10
263694.8239986995
 20
1990984.471019643
 10
263694.8203691517
 20
1990991.019358198
 10
263696.7840087997
 20
1990990.776324239
 10
263696.5381720733
 20
1990984.359308234
  0
LWPOLYLINE
  5
4B
330
2
100
AcDbEntity
  8
شداخة
100
AcDbPolyline
 90
        4
 70
     1
 43
0.2
 10
263686.2191344375
 20
1991008.754084614
 10
263699.0676393919
 20
1990999.716919538
 10
263698.6517811989
 20
1990998.999024365
 10
263685.6944742258
 20
1991008.177756583
  0
LWPOLYLINE
  5
4C
330
2
100
AcDbEntity
  8
شداخة
100
AcDbPolyline
 90
       51
 70
     1
 43
0.2
 10
263650.1040925719
 20
1991048.994025828
 10
263650.202561738
 20
1991049.081926218
 10
263654.8140320674
 20
1991052.868340478
 10
263656.6537429622
 20
1991053.940414031
 10
263658.8559173947
 20
1991054.428578661
 10
263660.1170290543
 20
1991055.969014486
 10
263662.645959901
 20
1991059.058079318
 10
263660.3868682766
 20
1991060.704270273
 10
263656.8968093883
 20
1991056.825671463
 10
263655.9084472396
 20
1991056.017897894
 10
263654.7796507568
 20
1991056.546395647
 10
263653.5092066405
 20
1991055.059934992
 10
263652.6608601363
 20
1991054.139877057
 42
-0.0039465186812118
 10
263651.4583637917
 20
1991053.078652685
 42
-0.0179049243044041
 10
263650.5435143562
 20
1991052.271871762
 10
263649.5680527179
 20
1991051.411638581
 10
263643.0836133346
 20
1991047.59921116
 10
263639.8668348541
 20
1991050.958183033
 10
263635.4309690422
 20
1991054.703589705
 10
263630.0540122559
 20
1991058.668474852
 10
263628.1260491537
 20
1991060.207291699
 10
263626.386326116
 20
1991057.889845725
 10
263624.1202403904
 20
1991059.687129051
 10
263621.2131351937
 20
1991061.90859476
 10
263619.1180343636
 20
1991063.155986125
 10
263609.4021509175
 20
1991067.392748913
 10
263603.4539223359
 20
1991070.477100128
 10
263602.3838119232
 20
1991068.954829352
 10
263602.0788506781
 20
1991068.369379971
 10
263608.3729781647
 20
1991065.032616195
 10
263608.1369653308
 20
1991064.595022714
 10
263613.3102932426
 20
1991062.36971153
 10
263617.2523420338
 20
1991061.117729191
 10
263619.9706114767
 20
1991059.91677551
 10
263624.8729268057
 20
1991056.854987587
 10
263628.2908741939
 20
1991055.67722541
 10
263632.1739498985
 20
1991053.317401969
 10
263633.6243650755
 20
1991052.381854103
 10
263637.6354942739
 20
1991048.490473091
 10
263639.7969859023
 20
1991047.272261628
 10
263641.2917930773
 20
1991045.778345985
 10
263643.0749923555
 20
1991043.321393903
 10
263641.2082956314
 20
1991041.695507373
 10
263642.3070135469
 20
1991040.434058253
 10
263645.2688559375
 20
1991042.928820809
 10
263648.6274423217
 20
1991039.6474646
 42
0.0014079655820422
 10
263650.2426820535
 20
1991037.591803672
 10
263652.4199986317
 20
1991038.737455158
 10
263651.4577776081
 20
1991040.566161192
 10
263649.4205473302
 20
1991042.038475715
 10
263645.9502383982
 20
1991045.286008103
  0
LWPOLYLINE
  5
4D
330
2
100
AcDbEntity
  8
شداخة
100
AcDbPolyline
 90
        6
 70
     1
 43
0.2
 10
263650.8432030793
 20
1990946.454938324
 10
263649.0985148453
 20
1990948.049155093
 10
263646.9629293592
 20
1990945.889893847
 10
263645.4609796227
 20
1990946.791787047
 10
263644.4844218536
 20
1990945.311543617
 10
263647.4479856541
 20
1990943.080653841
  0
HATCH
  5
4E
330
2
100
AcDbEntity
  8
شداخة
100
AcDbHatch
 10
0.0
 20
0.0
 30
0.0
210
0.0
220
0.0
230
1.0
  2
ANSI31
 70
     0
 71
     0
 91
        1
 92
        7
 72
     0
 73
     1
 93
        6
 10
263650.8432030794
 20
1990946.454938325
 10
263649.098514845
 20
1990948.049155093
 10
263646.9629293594
 20
1990945.889893847
 10
263645.4609796228
 20
1990946.791787047
 10
263644.4844218535
 20
1990945.311543617
 10
263647.4479856538
 20
1990943.080653841
 97
        0
 75
     0
 76
     1
 52
0.0
 41
0.1
 77
     0
 78
     1
 53
45.0
 43
0.0
 44
0.0
 45
-0.0088388347648318
 46
0.0088388347648318
 79
     0
 47
0.026395065160525
 98
        1
 10
263648.5284701504
 20
1990946.328826713
1001
ACAD
1010
0.0
1020
0.0
1030
0.0
  0
HATCH
  5
4F
330
2
100
AcDbEntity
  8
شداخة
100
AcDbHatch
 10
0.0
 20
0.0
 30
0.0
210
0.0
220
0.0
230
1.0
  2
ANSI31
 70
     0
 71
     0
 91
        2
 92
        7
 72
     0
 73
     1
 93
        4
 10
263686.2191344375
 20
1991008.754084614
 10
263685.6944742259
 20
1991008.177756583
 10
263690.9508539621
 20
1991004.454228064
 10
263691.5118570359
 20
1991005.03137851
 97
        0
 92
        7
 72
     0
 73
     1
 93
        4
 10
263691.5118570357
 20
1991005.03137851
 10
263690.9508539619
 20
1991004.454228065
 10
263698.6517811988
 20
1990998.999024365
 10
263699.0676393918
 20
1990999.716919538
 97
        0
 75
     0
 76
     1
 52
0.0
 41
0.1
 77
     0
 78
     1
 53
45.0
 43
0.0
 44
0.0
 45
-0.0088388347648318
 46
0.0088388347648318
 79
     0
 47
0.0205468968371861
 98
        2
 10
263688.7352343475
 20
1991006.559398361
 10
263692.4975664758
 20
1991003.888302594
1001
ACAD
1010
0.0
1020
0.0
1030
0.0
  0
HATCH
  5
50
330
2
100
AcDbEntity
  8
شداخة
100
AcDbHatch
 10
0.0
 20
0.0
 30
0.0
210
0.0
220
0.0
230
1.0
  2
ANSI31
 70
     0
 71
     1
 91
        1
 92
        7
 72
     0
 73
     1
 93
        4
 10
263682.0461345529
 20
1991060.472577854
 10
263684.1632723586
 20
1991059.439100754
 10
263685.2612415078
 20
1991062.539583386
 10
263683.1028177221
 20
1991063.363964839
 97
        1
330
49
 75
     0
 76
     1
 52
0.0
 41
0.1
 77
     0
 78
     1
 53
45.0
 43
0.0
 44
0.0
 45
-0.0088388347648318
 46
0.0088388347648318
 79
     0
 47
0.0243172101216482
 98
        1
 10
263683.4728706782
 20
1991061.246729851
1001
ACAD
1010
0.0
1020
0.0
1030
0.0
  0
LWPOLYLINE
  5
51
330
2
100
AcDbEntity
  8
شداخة
100
AcDbPolyline
 90
       31
 70
     1
 43
0.2
 10
263663.8363894289
 20
1991071.821513975
 10
263666.2591170051
 20
1991074.837580436
 10
263669.621235787
 20
1991080.437749387
 10
263669.0691297436
 20
1991081.038569678
 10
263665.2107852846
 20
1991077.220886003
 10
263662.5198540966
 20
1991080.235159519
 10
263661.9104983683
 20
1991079.532762583
 10
263663.6058581055
 20
1991077.747884746
 10
263664.691885038
 20
1991076.604513602
 10
263664.172984793
 20
1991075.988141206
 10
263662.4339333681
 20
1991073.485104031
 10
263660.0399338499
 20
1991070.039392369
 10
263658.5754954767
 20
1991068.045883805
 10
263657.0996440225
 20
1991068.966467794
 42
-0.0125642481116211
 10
263656.8918279766
 20
1991069.155274643
 42
0.0125339502601979
 10
263655.3293601564
 20
1991070.687448633
 42
0.0033840547857641
 10
263654.8944912666
 20
1991071.087543346
 10
263654.8381795849
 20
1991071.138652694
 10
263653.4808352073
 20
1991069.185242149
 10
263658.6118699947
 20
1991065.888696073
 10
263659.5637271708
 20
1991065.277154509
 10
263659.0060412398
 20
1991064.409122986
 10
263661.4419781049
 20
1991061.628632794
 10
263660.3868682763
 20
1991060.704270273
 10
263662.6459599018
 20
1991059.058079317
 10
263667.5024993679
 20
1991056.835847269
 10
263668.2571091111
 20
1991058.767363124
 42
-0.0224441593706643
 10
263664.8205906441
 20
1991060.626524667
 42
-0.0623490425526746
 10
263663.9850616234
 20
1991061.282142922
 42
-0.0729390103067668
 10
263663.5522930126
 20
1991061.869119418
 10
263660.6973004429
 20
1991067.225637536
  0
HATCH
  5
52
330
2
100
AcDbEntity
  8
شداخة
100
AcDbHatch
 10
0.0
 20
0.0
 30
0.0
210
0.0
220
0.0
230
1.0
  2
ANSI31
 70
     0
 71
     0
 91
        1
 92
        7
 72
     1
 73
     1
 93
       31
 10
263660.6973004426
 20
1991067.225637536
 42
0.0
 10
263663.8363894285
 20
1991071.821513975
 42
0.0
 10
263666.259117005
 20
1991074.837580436
 42
0.0
 10
263669.621235787
 20
1991080.437749386
 42
0.0
 10
263669.0691297436
 20
1991081.038569678
 42
0.0
 10
263665.2107852846
 20
1991077.220886003
 42
0.0
 10
263662.5198540964
 20
1991080.235159519
 42
0.0
 10
263661.9104983684
 20
1991079.532762582
 42
0.0
 10
263663.6058581055
 20
1991077.747884746
 42
0.0
 10
263664.6918850378
 20
1991076.604513602
 42
0.0
 10
263664.1729848003
 20
1991075.988141216
 42
0.0
 10
263662.4339333681
 20
1991073.485104031
 42
0.0
 10
263660.0399338271
 20
1991070.039392337
 42
0.0
 10
263658.5754954765
 20
1991068.045883805
 42
0.0
 10
263657.0996440225
 20
1991068.966467794
 42
-0.0125642481116211
 10
263656.8918279766
 20
1991069.155274643
 42
0.0125339502601979
 10
263655.3293601564
 20
1991070.687448633
 42
0.0033840547857641
 10
263654.8944912666
 20
1991071.087543346
 42
0.0
 10
263654.8381795849
 20
1991071.138652694
 42
0.0
 10
263653.4808352073
 20
1991069.185242149
 42
0.0
 10
263658.6118699947
 20
1991065.888696073
 42
0.0
 10
263659.5637271705
 20
1991065.277154509
 42
0.0
 10
263659.0060412399
 20
1991064.409122986
 42
0.0
 10
263661.4419781048
 20
1991061.628632793
 42
0.0
 10
263660.3868682761
 20
1991060.704270273
 42
0.0
 10
263662.6459599038
 20
1991059.058079317
 42
0.0
 10
263667.5024993679
 20
1991056.835847268
 42
0.0
 10
263668.2571091111
 20
1991058.767363124
 42
-0.0224441593706643
 10
263664.8205906441
 20
1991060.626524667
 42
-0.0623490425526746
 10
263663.9850616234
 20
1991061.282142922
 42
-0.0729390103067668
 10
263663.5522930126
 20
1991061.869119418
 42
0.0
 97
        0
 75
     0
 76
     1
 52
0.0
 41
0.1
 77
     0
 78
     1
 53
45.0
 43
0.0
 44
0.0
 45
-0.0088388347648318
 46
0.0088388347648318
 79
     0
 47
0.0410550522850827
 98
        1
 10
263659.6784578386
 20
1991067.612253083
1001
ACAD
1010
0.0
1020
0.0
1030
0.0
  0
LWPOLYLINE
  5
53
330
2
100
AcDbEntity
  8
شداخة
100
AcDbPolyline
 90
       11
 70
     1
 43
0.2
 10
263654.9963554252
 20
1991095.861447791
 10
263651.6188020493
 20
1991097.001046192
 10
263650.6149153867
 20
1991094.371399163
 42
0.064837541653304
 10
263652.1559511051
 20
1991094.009085679
 10
263652.9771441498
 20
1991093.852557138
 42
0.0710591814240707
 10
263654.0066581438
 20
1991093.65205461
 42
-0.0177686999599711
 10
263654.7986909926
 20
1991093.409560786
 42
0.0058197094717601
 10
263656.4140407102
 20
1991092.666994558
 42
0.0033728459648777
 10
263657.3580006177
 20
1991092.253910223
 42
-0.0545498638066331
 10
263658.2310256003
 20
1991091.760120581
 10
263659.350219391
 20
1991093.750619594
  0
HATCH
  5
54
330
2
100
AcDbEntity
  8
شداخة
100
AcDbHatch
 10
0.0
 20
0.0
 30
0.0
210
0.0
220
0.0
230
1.0
  2
ANSI31
 70
     0
 71
     0
 91
        1
 92
        7
 72
     0
 73
     1
 93
        5
 10
263541.7105128718
 20
1991116.483166892
 10
263540.6090221104
 20
1991115.087129789
 10
263540.4869972029
 20
1991114.937749443
 10
263545.7371836253
 20
1991111.173791439
 10
263546.8409097837
 20
1991112.806355389
 97
        0
 75
     0
 76
     1
 52
0.0
 41
0.1
 77
     0
 78
     1
 53
45.0
 43
0.0
 44
0.0
 45
-0.0088388347648318
 46
0.0088388347648318
 79
     0
 47
0.0128603278676335
 98
        1
 10
263544.0859468849
 20
1991114.035578659
1001
ACAD
1010
0.0
1020
0.0
1030
0.0
  0
HATCH
  5
55
330
2
100
AcDbEntity
  8
شداخة
100
AcDbHatch
 10
0.0
 20
0.0
 30
0.0
210
0.0
220
0.0
230
1.0
  2
ANSI31
 70
     0
 71
     0
 91
        1
 92
        7
 72
     1
 73
     1
 93
       14
 10
263654.7986909926
 20
1991093.409560786
 42
0.0058197094717601
 10
263656.4140407102
 20
1991092.666994558
 42
0.0033728459648777
 10
263657.3580006177
 20
1991092.253910223
 42
-0.0545498638066331
 10
263658.2310256003
 20
1991091.760120581
 42
0.0
 10
263659.3502193909
 20
1991093.750619594
 42
0.0
 10
263654.9963554256
 20
1991095.861447791
 42
0.0
 10
263651.6188020493
 20
1991097.001046191
 42
0.0
 10
263650.6149246779
 20
1991094.371423504
 42
0.0
 10
263650.6149156446
 20
1991094.371399086
 42
-0.0274310774786827
 10
263650.802123385
 20
1991094.304293474
 42
0.0566960471774221
 10
263652.1559511051
 20
1991094.009085679
 42
0.0
 10
263652.9771441498
 20
1991093.852557138
 42
0.0710591814240707
 10
263654.0066581438
 20
1991093.65205461
 42
-0.0090515289774048
 10
263654.4123131507
 20
1991093.535550241
 42
-0.0637452969431503
 97
        0
 75
     0
 76
     1
 52
0.0
 41
0.1
 77
     0
 78
     1
 53
45.0
 43
0.0
 44
0.0
 45
-0.0088388347648318
 46
0.0088388347648318
 79
     0
 47
0.015235007340486
 98
        1
 10
263655.0413281109
 20
1991094.494287033
1001
ACAD
1010
0.0
1020
0.0
1030
0.0
  0
HATCH
  5
56
330
2
100
AcDbEntity
  8
شداخة
100
AcDbHatch
 10
0.0
 20
0.0
 30
0.0
210
0.0
220
0.0
230
1.0
  2
ANSI31
 70
     0
 71
     0
 91
        2
 92
        7
 72
     1
 73
     1
 93
        8
 10
263694.8239986995
 20
1990984.471019643
 42
0.0
 10
263696.5381720733
 20
1990984.359308234
 42
0.0
 10
263696.5696898595
 20
1990985.182009306
 42
0.0
 10
263696.4813082259
 20
1990985.287190042
 42
0.0
 10
263696.4813082259
 20
1990988.144789858
 42
-0.0545276707012522
 10
263696.7545646133
 20
1990990.643007
 42
0.0002631496093983
 10
263696.7840087996
 20
1990990.776324239
 42
0.0
 10
263694.8203691518
 20
1990991.019358198
 42
0.0
 97
        0
 92
        7
 72
     1
 73
     1
 93
        5
 10
263696.4813082259
 20
1990988.144789858
 42
0.0
 10
263696.4813082259
 20
1990985.287190042
 42
0.0
 10
263696.5696898595
 20
1990985.182009306
 42
0.0
 10
263696.7840087997
 20
1990990.77632424
 42
-0.0002631496102989
 10
263696.7545646133
 20
1990990.643007
 42
0.0545276707012522
 97
        0
 75
     0
 76
     1
 52
0.0
 41
0.1
 77
     0
 78
     1
 53
45.0
 43
0.0
 44
0.0
 45
-0.0088388347648318
 46
0.0088388347648318
 79
     0
 47
0.0201148300439535
 98
        2
 10
263695.3303353774
 20
1990989.164806779
 10
263696.584628008
 20
1990988.410262047
1001
ACAD
1010
0.0
1020
0.0
1030
0.0
  0
HATCH
  5
57
330
2
100
AcDbEntity
  8
شداخة
100
AcDbHatch
 10
0.0
 20
0.0
 30
0.0
210
0.0
220
0.0
230
1.0
  2
ANSI31
 70
     0
 71
     0
 91
        1
 92
        7
 72
     1
 73
     1
 93
       51
 10
263635.4309690059
 20
1991054.70358973
 42
0.0
 10
263630.054012221
 20
1991058.668474879
 42
0.0
 10
263628.1260491207
 20
1991060.207291723
 42
0.0
 10
263626.3863260833
 20
1991057.889845749
 42
0.0
 10
263624.1202403633
 20
1991059.687129073
 42
0.0
 10
263621.2131351622
 20
1991061.908594783
 42
0.0
 10
263619.1180343299
 20
1991063.155986152
 42
0.0
 10
263609.4021508838
 20
1991067.392748938
 42
0.0
 10
263603.4539223028
 20
1991070.477100152
 42
0.0
 10
263602.3838118905
 20
1991068.954829378
 42
0.0
 10
263602.0788506452
 20
1991068.369379995
 42
0.0
 10
263608.3729781316
 20
1991065.032616219
 42
0.0
 10
263608.1369652979
 20
1991064.595022738
 42
0.0
 10
263613.3102932072
 20
1991062.369711555
 42
0.0
 10
263617.252341997
 20
1991061.117729216
 42
0.0
 10
263619.9706114449
 20
1991059.916775535
 42
0.0
 10
263624.8729267732
 20
1991056.854987611
 42
0.0
 10
263628.2908741617
 20
1991055.677225434
 42
0.0
 10
263632.1739498772
 20
1991053.317401988
 42
0.0
 10
263633.6243650429
 20
1991052.381854127
 42
0.0
 10
263637.6354942389
 20
1991048.490473115
 42
0.0
 10
263639.79698587
 20
1991047.272261652
 42
0.0
 10
263641.2917930451
 20
1991045.778346007
 42
0.0
 10
263643.0749923225
 20
1991043.321393927
 42
0.0
 10
263641.2082955983
 20
1991041.695507397
 42
0.0
 10
263642.307013514
 20
1991040.434058277
 42
0.0
 10
263645.2688559046
 20
1991042.928820833
 42
0.0
 10
263648.6274422888
 20
1991039.647464624
 42
0.0014079655820422
 10
263650.2426820206
 20
1991037.591803696
 42
0.0
 10
263652.4199985986
 20
1991038.737455182
 42
0.0
 10
263651.4577775751
 20
1991040.566161216
 42
0.0
 10
263649.4205472949
 20
1991042.038475741
 42
0.0
 10
263645.9502383652
 20
1991045.286008127
 42
0.0
 10
263650.104092539
 20
1991048.994025852
 42
0.0
 10
263650.2025617037
 20
1991049.081926242
 42
0.0
 10
263654.8140320345
 20
1991052.868340502
 42
0.0
 10
263656.653742929
 20
1991053.940414055
 42
0.0
 10
263658.8559173616
 20
1991054.428578685
 42
0.0
 10
263660.1170290214
 20
1991055.96901451
 42
0.0
 10
263662.6459598682
 20
1991059.058079342
 42
0.0
 10
263660.3868682437
 20
1991060.704270297
 42
0.0
 10
263656.8968093556
 20
1991056.825671487
 42
0.0
 10
263655.908447207
 20
1991056.017897918
 42
0.0
 10
263654.7796507241
 20
1991056.546395671
 42
0.0
 10
263653.5092066096
 20
1991055.059935018
 42
0.0
 10
263652.6608601034
 20
1991054.139877081
 42
-0.0039465186812118
 10
263651.4583637588
 20
1991053.078652709
 42
-0.0179049243044041
 10
263650.5435143233
 20
1991052.271871786
 42
0.0
 10
263649.5680526851
 20
1991051.411638605
 42
0.0
 10
263643.0836133016
 20
1991047.599211184
 42
0.0
 10
263639.8668348208
 20
1991050.958183058
 42
0.0
 97
        0
 75
     0
 76
     1
 52
0.0
 41
0.1
 77
     0
 78
     1
 53
45.0
 43
0.0
 44
0.0
 45
-0.0088388347648318
 46
0.0088388347648318
 79
     0
 47
0.0943307070399051
 98
        1
 10
263634.957796284
 20
1991053.678404967
1001
ACAD
1010
0.0
1020
0.0
1030
0.0
  0
ENDSEC
  0
SECTION
  2
OBJECTS
  0
DICTIONARY
  5
9
330
0
100
AcDbDictionary
281
     1
  3
ACAD_COLOR
350
2C
  3
ACAD_GROUP
350
29
  3
ACAD_LAYOUT
350
F
  3
ACAD_MATERIAL
350
B
  3
ACAD_MLINESTYLE
350
2A
  3
ACAD_PLOTSETTINGS
350
2B
  3
ACAD_PLOTSTYLENAME
350
8
  3
ACAD_TABLESTYLE
350
2D
  3
ACDB_RECOMPOSE_DATA
350
5E
  3
ACDBHEADERROUNDTRIPXREC
350
5B
  3
AcDbVariableDictionary
350
59
  0
DICTIONARY
  5
15
330
14
100
AcDbDictionary
280
     1
281
     1
  3
ACAD_LAYERFILTERS
360
16
  3
ACAD_LAYERSTATES
360
17
  3
ACLYDICTIONARY
360
19
  0
DICTIONARY
  5
3
330
2
100
AcDbDictionary
280
     1
281
     1
  3
ACAD_SORTENTS
360
58
  0
DICTIONARY
  5
2C
102
{ACAD_REACTORS
330
9
102
}
330
9
100
AcDbDictionary
281
     1
  0
DICTIONARY
  5
29
102
{ACAD_REACTORS
330
9
102
}
330
9
100
AcDbDictionary
281
     1
  0
DICTIONARY
  5
F
102
{ACAD_REACTORS
330
9
102
}
330
9
100
AcDbDictionary
281
     1
  3
Layout1
350
13
  3
Model
350
E
  0
DICTIONARY
  5
B
102
{ACAD_REACTORS
330
9
102
}
330
9
100
AcDbDictionary
281
     1
  3
Global
350
A
  0
DICTIONARY
  5
2A
102
{ACAD_REACTORS
330
9
102
}
330
9
100
AcDbDictionary
281
     1
  3
Standard
350
31
  0
DICTIONARY
  5
2B
102
{ACAD_REACTORS
330
9
102
}
330
9
100
AcDbDictionary
281
     1
  0
ACDBDICTIONARYWDFLT
  5
8
102
{ACAD_REACTORS
330
9
102
}
330
9
100
AcDbDictionary
281
     1
  3
Normal
350
7
100
AcDbDictionaryWithDefault
340
7
  0
DICTIONARY
  5
2D
102
{ACAD_REACTORS
330
9
102
}
330
9
100
AcDbDictionary
281
     1
  3
Standard
350
32
  0
XRECORD
  5
5E
102
{ACAD_REACTORS
330
9
102
}
330
9
100
AcDbXrecord
280
     1
 90
        1
330
32
  0
DICTIONARY
  5
5B
102
{ACAD_REACTORS
330
9
102
}
330
9
100
AcDbDictionary
281
     1
  0
DICTIONARY
  5
59
102
{ACAD_REACTORS
330
9
102
}
330
9
100
AcDbDictionary
281
     1
  3
CTABLESTYLE
350
5A
  0
DICTIONARY
  5
16
102
{ACAD_REACTORS
330
15
102
}
330
15
100
AcDbDictionary
281
     1
  0
DICTIONARY
  5
17
102
{ACAD_REACTORS
330
15
102
}
330
15
100
AcDbDictionary
281
     1
1001
AcLayerTools
1000
22
1000
0
  0
DICTIONARY
  5
19
102
{ACAD_REACTORS
330
15
102
}
330
15
100
AcDbDictionary
281
     1
1001
ACAD
1000
<All
  0
SORTENTSTABLE
  5
58
102
{ACAD_REACTORS
330
3
102
}
330
3
100
AcDbSortentsTable
330
2
331
52
  5
39
331
49
  5
42
331
40
  5
4B
331
3D
  5
4E
331
45
  5
46
331
57
  5
33
331
39
  5
52
331
4E
  5
3D
331
41
  5
4A
331
53
  5
38
331
3E
  5
4D
331
35
  5
56
331
4A
  5
41
331
3A
  5
51
331
4F
  5
3C
331
46
  5
45
331
54
  5
37
331
3F
  5
4C
331
36
  5
55
331
4B
  5
40
331
42
  5
49
331
50
  5
3B
331
47
  5
44
331
3B
  5
50
331
43
  5
48
331
55
  5
36
331
37
  5
54
331
4C
  5
3F
331
51
  5
3A
331
3C
  5
4F
331
33
  5
57
331
48
  5
43
331
56
  5
35
331
38
  5
53
331
4D
  5
3E
331
44
  5
47
  0
LAYOUT
  5
13
102
{ACAD_REACTORS
330
F
102
}
330
F
100
AcDbPlotSettings
  1

  2
none_device
  4

  6

 40
0.0
 41
0.0
 42
0.0
 43
0.0
 44
0.0
 45
0.0
 46
0.0
 47
0.0
 48
0.0
 49
0.0
140
0.0
141
0.0
142
1.0
143
1.0
 70
   688
 72
     0
 73
     0
 74
     5
  7

 75
    16
147
1.0
 76
     0
 77
     2
 78
   300
148
0.0
149
0.0
100
AcDbLayout
  1
Layout1
 70
     1
 71
     1
 10
0.0
 20
0.0
 11
12.0
 21
9.0
 12
0.0
 22
0.0
 32
0.0
 14
1.000000000000000E+20
 24
1.000000000000000E+20
 34
1.000000000000000E+20
 15
-1.000000000000000E+20
 25
-1.000000000000000E+20
 35
-1.000000000000000E+20
146
0.0
 13
0.0
 23
0.0
 33
0.0
 16
1.0
 26
0.0
 36
0.0
 17
0.0
 27
1.0
 37
0.0
 76
     0
330
10
  0
LAYOUT
  5
E
102
{ACAD_REACTORS
330
F
102
}
330
F
100
AcDbPlotSettings
  1

  2
none_device
  4

  6

 40
0.0
 41
0.0
 42
0.0
 43
0.0
 44
0.0
 45
0.0
 46
0.0
 47
0.0
 48
0.0
 49
0.0
140
0.0
141
0.0
142
1.0
143
1.0
 70
  1712
 72
     0
 73
     0
 74
     0
  7

 75
     0
147
1.0
 76
     0
 77
     2
 78
   300
148
0.0
149
0.0
100
AcDbLayout
  1
Model
 70
     1
 71
     0
 10
0.0
 20
0.0
 11
12.0
 21
9.0
 12
0.0
 22
0.0
 32
0.0
 14
30.0
 24
49.75
 34
0.0
 15
130.5
 25
163.1318914119703
 35
0.0
146
0.0
 13
0.0
 23
0.0
 33
0.0
 16
1.0
 26
0.0
 36
0.0
 17
0.0
 27
1.0
 37
0.0
 76
     0
330
2
  0
MATERIAL
  5
A
102
{ACAD_REACTORS
330
B
102
}
330
B
100
AcDbMaterial
  1
Global
  2

  0
MLINESTYLE
  5
31
102
{ACAD_REACTORS
330
2A
102
}
330
2A
100
AcDbMlineStyle
  2
STANDARD
 70
     0
  3

 62
   256
 51
90.0
 52
90.0
 71
     2
 49
0.5
 62
   256
  6
BYLAYER
 49
-0.5
 62
   256
  6
BYLAYER
  0
ACDBPLACEHOLDER
  5
7
102
{ACAD_REACTORS
330
8
102
}
330
8
  0
TABLESTYLE
  5
32
102
{ACAD_XDICTIONARY
360
5C
102
}
102
{ACAD_REACTORS
330
2D
102
}
330
2D
100
AcDbTableStyle
280
     0
  3
Standard
 70
     0
 71
     0
 40
0.06
 41
0.06
280
     0
281
     0
  7
Standard
140
0.18
170
     2
 62
     0
 63
   257
283
     0
 90
        4
 91
        0
  1

274
    -2
284
     1
 64
     0
275
    -2
285
     1
 65
     0
276
    -2
286
     1
 66
     0
277
    -2
287
     1
 67
     0
278
    -2
288
     1
 68
     0
279
    -2
289
     1
 69
     0
  7
Standard
140
0.25
170
     5
 62
     0
 63
   257
283
     0
 90
        4
 91
        0
  1

274
    -2
284
     1
 64
     0
275
    -2
285
     1
 65
     0
276
    -2
286
     1
 66
     0
277
    -2
287
     1
 67
     0
278
    -2
288
     1
 68
     0
279
    -2
289
     1
 69
     0
  7
Standard
140
0.18
170
     5
 62
     0
 63
   257
283
     0
 90
        4
 91
        0
  1

274
    -2
284
     1
 64
     0
275
    -2
285
     1
 65
     0
276
    -2
286
     1
 66
     0
277
    -2
287
     1
 67
     0
278
    -2
288
     1
 68
     0
279
    -2
289
     1
 69
     0
  0
DICTIONARYVAR
  5
5A
102
{ACAD_REACTORS
330
59
102
}
330
59
100
DictionaryVariables
280
     0
  1
STANDARD
  0
DICTIONARY
  5
5C
330
32
100
AcDbDictionary
280
     1
281
     1
  3
ACAD_ROUNDTRIP_2008_TABLESTYLE_CELLSTYLEMAP
360
5D
  0
CELLSTYLEMAP
  5
5D
102
{ACAD_REACTORS
330
5C
102
}
330
5C
100
AcDbCellStyleMap
 90
        3
300
CELLSTYLE
  1
TABLEFORMAT_BEGIN
 90
        5
170
     1
 91
        0
 92
        0
 62
   257
 93
        1
300
CONTENTFORMAT
  1
CONTENTFORMAT_BEGIN
 90
        0
 91
        0
 92
        4
 93
        0
300

 40
0.0
140
1.0
 94
        5
 62
     0
340
1C
144
0.25
309
CONTENTFORMAT_END
171
     1
301
MARGIN
  1
CELLMARGIN_BEGIN
 40
0.06
 40
0.06
 40
0.06
 40
0.06
 40
0.18
 40
0.18
309
CELLMARGIN_END
 94
        6
 95
        1
302
GRIDFORMAT
  1
GRIDFORMAT_BEGIN
 90
        0
 91
        1
 62
     0
 92
       -2
340
0
 93
        0
 40
0.045
309
GRIDFORMAT_END
 95
        2
302
GRIDFORMAT
  1
GRIDFORMAT_BEGIN
 90
        0
 91
        1
 62
     0
 92
       -2
340
0
 93
        0
 40
0.045
309
GRIDFORMAT_END
 95
        4
302
GRIDFORMAT
  1
GRIDFORMAT_BEGIN
 90
        0
 91
        1
 62
     0
 92
       -2
340
0
 93
        0
 40
0.045
309
GRIDFORMAT_END
 95
        8
302
GRIDFORMAT
  1
GRIDFORMAT_BEGIN
 90
        0
 91
        1
 62
     0
 92
       -2
340
0
 93
        0
 40
0.045
309
GRIDFORMAT_END
 95
       16
302
GRIDFORMAT
  1
GRIDFORMAT_BEGIN
 90
        0
 91
        1
 62
     0
 92
       -2
340
0
 93
        0
 40
0.045
309
GRIDFORMAT_END
 95
       32
302
GRIDFORMAT
  1
GRIDFORMAT_BEGIN
 90
        0
 91
        1
 62
     0
 92
       -2
340
0
 93
        0
 40
0.045
309
GRIDFORMAT_END
309
TABLEFORMAT_END
  1
CELLSTYLE_BEGIN
 90
        1
 91
        1
300
_TITLE
309
CELLSTYLE_END
300
CELLSTYLE
  1
TABLEFORMAT_BEGIN
 90
        5
170
     1
 91
        0
 92
        0
 62
   257
 93
        1
300
CONTENTFORMAT
  1
CONTENTFORMAT_BEGIN
 90
        0
 91
        0
 92
        4
 93
        0
300

 40
0.0
140
1.0
 94
        5
 62
     0
340
1C
144
0.18
309
CONTENTFORMAT_END
171
     1
301
MARGIN
  1
CELLMARGIN_BEGIN
 40
0.06
 40
0.06
 40
0.06
 40
0.06
 40
0.18
 40
0.18
309
CELLMARGIN_END
 94
        6
 95
        1
302
GRIDFORMAT
  1
GRIDFORMAT_BEGIN
 90
        0
 91
        1
 62
     0
 92
       -2
340
0
 93
        0
 40
0.045
309
GRIDFORMAT_END
 95
        2
302
GRIDFORMAT
  1
GRIDFORMAT_BEGIN
 90
        0
 91
        1
 62
     0
 92
       -2
340
0
 93
        0
 40
0.045
309
GRIDFORMAT_END
 95
        4
302
GRIDFORMAT
  1
GRIDFORMAT_BEGIN
 90
        0
 91
        1
 62
     0
 92
       -2
340
0
 93
        0
 40
0.045
309
GRIDFORMAT_END
 95
        8
302
GRIDFORMAT
  1
GRIDFORMAT_BEGIN
 90
        0
 91
        1
 62
     0
 92
       -2
340
0
 93
        0
 40
0.045
309
GRIDFORMAT_END
 95
       16
302
GRIDFORMAT
  1
GRIDFORMAT_BEGIN
 90
        0
 91
        1
 62
     0
 92
       -2
340
0
 93
        0
 40
0.045
309
GRIDFORMAT_END
 95
       32
302
GRIDFORMAT
  1
GRIDFORMAT_BEGIN
 90
        0
 91
        1
 62
     0
 92
       -2
340
0
 93
        0
 40
0.045
309
GRIDFORMAT_END
309
TABLEFORMAT_END
  1
CELLSTYLE_BEGIN
 90
        2
 91
        1
300
_HEADER
309
CELLSTYLE_END
300
CELLSTYLE
  1
TABLEFORMAT_BEGIN
 90
        5
170
     1
 91
        0
 92
        0
 62
   257
 93
        1
300
CONTENTFORMAT
  1
CONTENTFORMAT_BEGIN
 90
        0
 91
        0
 92
        4
 93
        0
300

 40
0.0
140
1.0
 94
        2
 62
     0
340
1C
144
0.18
309
CONTENTFORMAT_END
171
     1
301
MARGIN
  1
CELLMARGIN_BEGIN
 40
0.06
 40
0.06
 40
0.06
 40
0.06
 40
0.18
 40
0.18
309
CELLMARGIN_END
 94
        6
 95
        1
302
GRIDFORMAT
  1
GRIDFORMAT_BEGIN
 90
        0
 91
        1
 62
     0
 92
       -2
340
0
 93
        0
 40
0.045
309
GRIDFORMAT_END
 95
        2
302
GRIDFORMAT
  1
GRIDFORMAT_BEGIN
 90
        0
 91
        1
 62
     0
 92
       -2
340
0
 93
        0
 40
0.045
309
GRIDFORMAT_END
 95
        4
302
GRIDFORMAT
  1
GRIDFORMAT_BEGIN
 90
        0
 91
        1
 62
     0
 92
       -2
340
0
 93
        0
 40
0.045
309
GRIDFORMAT_END
 95
        8
302
GRIDFORMAT
  1
GRIDFORMAT_BEGIN
 90
        0
 91
        1
 62
     0
 92
       -2
340
0
 93
        0
 40
0.045
309
GRIDFORMAT_END
 95
       16
302
GRIDFORMAT
  1
GRIDFORMAT_BEGIN
 90
        0
 91
        1
 62
     0
 92
       -2
340
0
 93
        0
 40
0.045
309
GRIDFORMAT_END
 95
       32
302
GRIDFORMAT
  1
GRIDFORMAT_BEGIN
 90
        0
 91
        1
 62
     0
 92
       -2
340
0
 93
        0
 40
0.045
309
GRIDFORMAT_END
309
TABLEFORMAT_END
  1
CELLSTYLE_BEGIN
 90
        3
 91
        2
300
_DATA
309
CELLSTYLE_END
  0
ENDSEC
  0
EOF
