  0
SECTION
  2
HEADER
  9
$ACADVER
  1
AC1024
  9
$ACADMAINTVER
 70
   109
  9
$DWGCODEPAGE
  3
ANSI_1256
  9
$INSBASE
 10
0.0
 20
0.0
 30
0.0
  9
$EXTMIN
 10
263180.7561145536
 20
1990583.403966136
 30
-8.576951406134256
  9
$EXTMAX
 10
264827.9160322623
 20
1991559.525594296
 30
0.00000001
  9
$LIMMIN
 10
0.0
 20
0.0
  9
$LIMMAX
 10
12.0
 20
9.0
  9
$ORTHOMODE
 70
     0
  9
$REGENMODE
 70
     1
  9
$FILLMODE
 70
     1
  9
$QTEXTMODE
 70
     0
  9
$MIRRTEXT
 70
     1
  9
$LTSCALE
 40
1.0
  9
$ATTMODE
 70
     1
  9
$TEXTSIZE
 40
0.2
  9
$TRACEWID
 40
0.05
  9
$TEXTSTYLE
  7
Standard
  9
$CLAYER
  8
اسوار
  9
$CELTYPE
  6
ByLayer
  9
$CECOLOR
 62
   256
  9
$CELTSCALE
 40
1.0
  9
$DISPSILH
 70
     0
  9
$DIMSCALE
 40
1.0
  9
$DIMASZ
 40
0.18
  9
$DIMEXO
 40
0.0625
  9
$DIMDLI
 40
0.38
  9
$DIMRND
 40
0.0
  9
$DIMDLE
 40
0.0
  9
$DIMEXE
 40
0.18
  9
$DIMTP
 40
0.0
  9
$DIMTM
 40
0.0
  9
$DIMTXT
 40
0.18
  9
$DIMCEN
 40
0.09
  9
$DIMTSZ
 40
0.0
  9
$DIMTOL
 70
     0
  9
$DIMLIM
 70
     0
  9
$DIMTIH
 70
     1
  9
$DIMTOH
 70
     1
  9
$DIMSE1
 70
     0
  9
$DIMSE2
 70
     0
  9
$DIMTAD
 70
     0
  9
$DIMZIN
 70
     0
  9
$DIMBLK
  1

  9
$DIMASO
 70
     1
  9
$DIMSHO
 70
     1
  9
$DIMPOST
  1

  9
$DIMAPOST
  1

  9
$DIMALT
 70
     0
  9
$DIMALTD
 70
     2
  9
$DIMALTF
 40
25.4
  9
$DIMLFAC
 40
1.0
  9
$DIMTOFL
 70
     0
  9
$DIMTVP
 40
0.0
  9
$DIMTIX
 70
     0
  9
$DIMSOXD
 70
     0
  9
$DIMSAH
 70
     0
  9
$DIMBLK1
  1

  9
$DIMBLK2
  1

  9
$DIMSTYLE
  2
Standard
  9
$DIMCLRD
 70
     0
  9
$DIMCLRE
 70
     0
  9
$DIMCLRT
 70
     0
  9
$DIMTFAC
 40
1.0
  9
$DIMGAP
 40
0.09
  9
$DIMJUST
 70
     0
  9
$DIMSD1
 70
     0
  9
$DIMSD2
 70
     0
  9
$DIMTOLJ
 70
     1
  9
$DIMTZIN
 70
     0
  9
$DIMALTZ
 70
     0
  9
$DIMALTTZ
 70
     0
  9
$DIMUPT
 70
     0
  9
$DIMDEC
 70
     4
  9
$DIMTDEC
 70
     4
  9
$DIMALTU
 70
     2
  9
$DIMALTTD
 70
     2
  9
$DIMTXSTY
  7
Standard
  9
$DIMAUNIT
 70
     0
  9
$DIMADEC
 70
     0
  9
$DIMALTRND
 40
0.0
  9
$DIMAZIN
 70
     0
  9
$DIMDSEP
 70
    46
  9
$DIMATFIT
 70
     3
  9
$DIMFRAC
 70
     0
  9
$DIMLDRBLK
  1

  9
$DIMLUNIT
 70
     2
  9
$DIMLWD
 70
    -2
  9
$DIMLWE
 70
    -2
  9
$DIMTMOVE
 70
     0
  9
$DIMFXL
 40
1.0
  9
$DIMFXLON
 70
     0
  9
$DIMJOGANG
 40
0.7853981633974483
  9
$DIMTFILL
 70
     0
  9
$DIMTFILLCLR
 70
     0
  9
$DIMARCSYM
 70
     0
  9
$DIMLTYPE
  6

  9
$DIMLTEX1
  6

  9
$DIMLTEX2
  6

  9
$DIMTXTDIRECTION
 70
     0
  9
$LUNITS
 70
     2
  9
$LUPREC
 70
     4
  9
$SKETCHINC
 40
0.1
  9
$FILLETRAD
 40
0.5
  9
$AUNITS
 70
     0
  9
$AUPREC
 70
     0
  9
$MENU
  1
.
  9
$ELEVATION
 40
0.0
  9
$PELEVATION
 40
0.0
  9
$THICKNESS
 40
0.0
  9
$LIMCHECK
 70
     0
  9
$CHAMFERA
 40
0.5
  9
$CHAMFERB
 40
0.5
  9
$CHAMFERC
 40
1.0
  9
$CHAMFERD
 40
0.0
  9
$SKPOLY
 70
     0
  9
$TDCREATE
 40
2455347.603969826
  9
$TDUCREATE
 40
2455347.478969827
  9
$TDUPDATE
 40
2458702.496385475
  9
$TDUUPDATE
 40
2458702.371385475
  9
$TDINDWG
 40
5.9571543171
  9
$TDUSRTIMER
 40
5.9571542940
  9
$USRTIMER
 70
     1
  9
$ANGBASE
 50
0.0
  9
$ANGDIR
 70
     0
  9
$PDMODE
 70
     0
  9
$PDSIZE
 40
0.0
  9
$PLINEWID
 40
0.2
  9
$SPLFRAME
 70
     0
  9
$SPLINETYPE
 70
     6
  9
$SPLINESEGS
 70
     8
  9
$HANDSEED
  5
49
  9
$SURFTAB1
 70
     6
  9
$SURFTAB2
 70
     6
  9
$SURFTYPE
 70
     6
  9
$SURFU
 70
     6
  9
$SURFV
 70
     6
  9
$UCSBASE
  2

  9
$UCSNAME
  2

  9
$UCSORG
 10
0.0
 20
0.0
 30
0.0
  9
$UCSXDIR
 10
1.0
 20
0.0
 30
0.0
  9
$UCSYDIR
 10
0.0
 20
1.0
 30
0.0
  9
$UCSORTHOREF
  2

  9
$UCSORTHOVIEW
 70
     0
  9
$UCSORGTOP
 10
0.0
 20
0.0
 30
0.0
  9
$UCSORGBOTTOM
 10
0.0
 20
0.0
 30
0.0
  9
$UCSORGLEFT
 10
0.0
 20
0.0
 30
0.0
  9
$UCSORGRIGHT
 10
0.0
 20
0.0
 30
0.0
  9
$UCSORGFRONT
 10
0.0
 20
0.0
 30
0.0
  9
$UCSORGBACK
 10
0.0
 20
0.0
 30
0.0
  9
$PUCSBASE
  2

  9
$PUCSNAME
  2

  9
$PUCSORG
 10
0.0
 20
0.0
 30
0.0
  9
$PUCSXDIR
 10
1.0
 20
0.0
 30
0.0
  9
$PUCSYDIR
 10
0.0
 20
1.0
 30
0.0
  9
$PUCSORTHOREF
  2

  9
$PUCSORTHOVIEW
 70
     0
  9
$PUCSORGTOP
 10
0.0
 20
0.0
 30
0.0
  9
$PUCSORGBOTTOM
 10
0.0
 20
0.0
 30
0.0
  9
$PUCSORGLEFT
 10
0.0
 20
0.0
 30
0.0
  9
$PUCSORGRIGHT
 10
0.0
 20
0.0
 30
0.0
  9
$PUCSORGFRONT
 10
0.0
 20
0.0
 30
0.0
  9
$PUCSORGBACK
 10
0.0
 20
0.0
 30
0.0
  9
$USERI1
 70
     0
  9
$USERI2
 70
     0
  9
$USERI3
 70
     0
  9
$USERI4
 70
     0
  9
$USERI5
 70
     0
  9
$USERR1
 40
0.0
  9
$USERR2
 40
0.0
  9
$USERR3
 40
0.0
  9
$USERR4
 40
0.0
  9
$USERR5
 40
0.0
  9
$WORLDVIEW
 70
     1
  9
$SHADEDGE
 70
     3
  9
$SHADEDIF
 70
    70
  9
$TILEMODE
 70
     1
  9
$MAXACTVP
 70
    64
  9
$PINSBASE
 10
0.0
 20
0.0
 30
0.0
  9
$PLIMCHECK
 70
     0
  9
$PEXTMIN
 10
1.000000000000000E+20
 20
1.000000000000000E+20
 30
1.000000000000000E+20
  9
$PEXTMAX
 10
-1.000000000000000E+20
 20
-1.000000000000000E+20
 30
-1.000000000000000E+20
  9
$PLIMMIN
 10
0.0
 20
0.0
  9
$PLIMMAX
 10
12.0
 20
9.0
  9
$UNITMODE
 70
     0
  9
$VISRETAIN
 70
     1
  9
$PLINEGEN
 70
     0
  9
$PSLTSCALE
 70
     1
  9
$TREEDEPTH
 70
  3020
  9
$CMLSTYLE
  2
Standard
  9
$CMLJUST
 70
     0
  9
$CMLSCALE
 40
1.0
  9
$PROXYGRAPHICS
 70
     1
  9
$MEASUREMENT
 70
     0
  9
$CELWEIGHT
370
    -1
  9
$ENDCAPS
280
     0
  9
$JOINSTYLE
280
     0
  9
$LWDISPLAY
290
     0
  9
$INSUNITS
 70
     1
  9
$HYPERLINKBASE
  1

  9
$STYLESHEET
  1

  9
$XEDIT
290
     1
  9
$CEPSNTYPE
380
     0
  9
$PSTYLEMODE
290
     1
  9
$FINGERPRINTGUID
  2
{649F57DD-34D8-4FF1-8D10-B3801CA76116}
  9
$VERSIONGUID
  2
{84423DCF-FE08-4F0B-887B-6B314C754805}
  9
$EXTNAMES
290
     1
  9
$PSVPSCALE
 40
0.0
  9
$OLESTARTUP
290
     0
  9
$SORTENTS
280
   127
  9
$INDEXCTL
280
     0
  9
$HIDETEXT
280
     1
  9
$XCLIPFRAME
280
     0
  9
$HALOGAP
280
     0
  9
$OBSCOLOR
 70
   257
  9
$OBSLTYPE
280
     0
  9
$INTERSECTIONDISPLAY
280
     0
  9
$INTERSECTIONCOLOR
 70
   257
  9
$DIMASSOC
280
     2
  9
$PROJECTNAME
  1

  9
$CAMERADISPLAY
290
     0
  9
$LENSLENGTH
 40
50.0
  9
$CAMERAHEIGHT
 40
0.0
  9
$STEPSPERSEC
 40
2.0
  9
$STEPSIZE
 40
6.0
  9
$3DDWFPREC
 40
2.0
  9
$PSOLWIDTH
 40
0.25
  9
$PSOLHEIGHT
 40
4.0
  9
$LOFTANG1
 40
1.570796326794896
  9
$LOFTANG2
 40
1.570796326794896
  9
$LOFTMAG1
 40
0.0
  9
$LOFTMAG2
 40
0.0
  9
$LOFTPARAM
 70
     7
  9
$LOFTNORMALS
280
     1
  9
$LATITUDE
 40
0.0
  9
$LONGITUDE
 40
0.0
  9
$NORTHDIRECTION
 40
0.0
  9
$TIMEZONE
 70
 -8000
  9
$LIGHTGLYPHDISPLAY
280
     1
  9
$TILEMODELIGHTSYNCH
280
     1
  9
$SOLIDHIST
280
     1
  9
$SHOWHIST
280
     1
  9
$DWFFRAME
280
     2
  9
$DGNFRAME
280
     0
  9
$REALWORLDSCALE
290
     0
  9
$INTERFERECOLOR
 62
     1
  9
$CSHADOW
280
     0
  9
$SHADOWPLANELOCATION
 40
0.0
  0
ENDSEC
  0
SECTION
  2
CLASSES
  0
CLASS
  1
ACDBDICTIONARYWDFLT
  2
AcDbDictionaryWithDefault
  3
ObjectDBX Classes
 90
        0
 91
        1
280
     0
281
     0
  0
CLASS
  1
VISUALSTYLE
  2
AcDbVisualStyle
  3
ObjectDBX Classes
 90
     4095
 91
        0
280
     0
281
     0
  0
CLASS
  1
SCALE
  2
AcDbScale
  3
ObjectDBX Classes
 90
     1153
 91
        0
280
     0
281
     0
  0
CLASS
  1
MATERIAL
  2
AcDbMaterial
  3
ObjectDBX Classes
 90
        0
 91
        1
280
     0
281
     0
  0
CLASS
  1
TABLESTYLE
  2
AcDbTableStyle
  3
ObjectDBX Classes
 90
     4095
 91
        1
280
     0
281
     0
  0
CLASS
  1
MLEADERSTYLE
  2
AcDbMLeaderStyle
  3
ACDB_MLEADERSTYLE_CLASS
 90
     4095
 91
        0
280
     0
281
     0
  0
CLASS
  1
DICTIONARYVAR
  2
AcDbDictionaryVar
  3
ObjectDBX Classes
 90
        0
 91
        1
280
     0
281
     0
  0
CLASS
  1
SORTENTSTABLE
  2
AcDbSortentsTable
  3
ObjectDBX Classes
 90
        0
 91
        2
280
     0
281
     0
  0
CLASS
  1
RASTERVARIABLES
  2
AcDbRasterVariables
  3
ISM
 90
        0
 91
        0
280
     0
281
     0
  0
CLASS
  1
IMAGEDEF
  2
AcDbRasterImageDef
  3
ISM
 90
        0
 91
        0
280
     0
281
     0
  0
CLASS
  1
IMAGEDEF_REACTOR
  2
AcDbRasterImageDefReactor
  3
ISM
 90
        1
 91
        0
280
     0
281
     0
  0
CLASS
  1
IMAGE
  2
AcDbRasterImage
  3
ISM
 90
     2175
 91
        0
280
     0
281
     1
  0
CLASS
  1
CELLSTYLEMAP
  2
AcDbCellStyleMap
  3
ObjectDBX Classes
 90
     1152
 91
        1
280
     0
281
     0
  0
ENDSEC
  0
SECTION
  2
TABLES
  0
TABLE
  2
VPORT
  5
23
330
0
100
AcDbSymbolTable
 70
     1
  0
VPORT
  5
24
330
23
100
AcDbSymbolTableRecord
100
AcDbViewportTableRecord
  2
*Active
 70
     0
 10
0.0
 20
0.0
 11
1.0
 21
1.0
 12
263577.2148479488
 22
1991058.230405351
 13
0.0
 23
0.0
 14
0.5
 24
0.5
 15
0.5
 25
0.5
 16
0.0
 26
0.0
 36
1.0
 17
0.0
 27
0.0
 37
0.0
 40
2162.491937200306
 41
1.958282208588957
 42
50.0
 43
0.0
 44
0.0
 50
0.0
 51
0.0
 71
     0
 72
  1000
 73
     1
 74
     3
 75
     0
 76
     0
 77
     0
 78
     0
281
     0
 65
     1
110
0.0
120
0.0
130
0.0
111
1.0
121
0.0
131
0.0
112
0.0
122
1.0
132
0.0
 79
     0
146
0.0
 60
     3
 61
     5
292
     1
282
     0
141
0.0
142
0.0
 63
   256
  0
ENDTAB
  0
TABLE
  2
LTYPE
  5
1E
330
0
100
AcDbSymbolTable
 70
     1
  0
LTYPE
  5
1F
330
1E
100
AcDbSymbolTableRecord
100
AcDbLinetypeTableRecord
  2
ByBlock
 70
     0
  3

 72
    65
 73
     0
 40
0.0
  0
LTYPE
  5
20
330
1E
100
AcDbSymbolTableRecord
100
AcDbLinetypeTableRecord
  2
ByLayer
 70
     0
  3

 72
    65
 73
     0
 40
0.0
  0
LTYPE
  5
C
330
1E
100
AcDbSymbolTableRecord
100
AcDbLinetypeTableRecord
  2
Continuous
 70
     0
  3
Solid line
 72
    65
 73
     0
 40
0.0
  0
ENDTAB
  0
TABLE
  2
LAYER
  5
14
102
{ACAD_XDICTIONARY
360
15
102
}
330
0
100
AcDbSymbolTable
 70
     3
  0
LAYER
  5
6
330
14
100
AcDbSymbolTableRecord
100
AcDbLayerTableRecord
  2
0
 70
     0
 62
    -7
  6
Continuous
370
    -3
390
7
347
A
  0
LAYER
  5
34
330
14
100
AcDbSymbolTableRecord
100
AcDbLayerTableRecord
  2
الطرق
 70
     0
 62
   250
  6
Continuous
370
    -3
390
7
347
0
1001
ZcCmTransparency
1071
 33554687
1001
AcAecLayerStandard
1000

1000

  0
LAYER
  5
2E
330
14
100
AcDbSymbolTableRecord
100
AcDbLayerTableRecord
  2
اسوار
 70
     0
 62
   -30
  6
Continuous
370
    -3
390
7
347
0
1001
ZcCmTransparency
1071
 33554687
1001
AcAecLayerStandard
1000

1000

  0
ENDTAB
  0
TABLE
  2
STYLE
  5
1B
330
0
100
AcDbSymbolTable
 70
     1
  0
STYLE
  5
1C
330
1B
100
AcDbSymbolTableRecord
100
AcDbTextStyleTableRecord
  2
Standard
 70
     0
 40
0.0
 41
1.0
 50
0.0
 71
     0
 42
0.2
  3
txt
  4

  0
ENDTAB
  0
TABLE
  2
VIEW
  5
21
330
0
100
AcDbSymbolTable
 70
     0
  0
ENDTAB
  0
TABLE
  2
UCS
  5
22
330
0
100
AcDbSymbolTable
 70
     0
  0
ENDTAB
  0
TABLE
  2
APPID
  5
25
330
0
100
AcDbSymbolTable
 70
     4
  0
APPID
  5
1A
330
25
100
AcDbSymbolTableRecord
100
AcDbRegAppTableRecord
  2
ACAD
 70
     0
  0
APPID
  5
2F
330
25
100
AcDbSymbolTableRecord
100
AcDbRegAppTableRecord
  2
ZcCmTransparency
 70
     0
  0
APPID
  5
30
330
25
100
AcDbSymbolTableRecord
100
AcDbRegAppTableRecord
  2
AcAecLayerStandard
 70
     0
  0
APPID
  5
18
330
25
100
AcDbSymbolTableRecord
100
AcDbRegAppTableRecord
  2
AcLayerTools
 70
     0
  0
ENDTAB
  0
TABLE
  2
DIMSTYLE
  5
26
330
0
100
AcDbSymbolTable
 70
     1
100
AcDbDimStyleTable
 71
     1
340
27
  0
DIMSTYLE
105
27
330
26
100
AcDbSymbolTableRecord
100
AcDbDimStyleTableRecord
  2
Standard
 70
     0
340
1C
  0
ENDTAB
  0
TABLE
  2
BLOCK_RECORD
  5
1
330
0
100
AcDbSymbolTable
 70
     0
  0
BLOCK_RECORD
  5
2
102
{ACAD_XDICTIONARY
360
3
102
}
330
1
100
AcDbSymbolTableRecord
100
AcDbBlockTableRecord
  2
*Model_Space
340
E
 70
     0
280
     1
281
     0
  0
BLOCK_RECORD
  5
10
330
1
100
AcDbSymbolTableRecord
100
AcDbBlockTableRecord
  2
*Paper_Space
340
13
 70
     0
280
     1
281
     0
  0
ENDTAB
  0
ENDSEC
  0
SECTION
  2
BLOCKS
  0
BLOCK
  5
5
330
2
100
AcDbEntity
  8
0
100
AcDbBlockBegin
  2
*Model_Space
 70
     0
 10
0.0
 20
0.0
 30
0.0
  3
*Model_Space
  1

  0
ENDBLK
  5
D
330
2
100
AcDbEntity
  8
0
100
AcDbBlockEnd
  0
BLOCK
  5
11
330
10
100
AcDbEntity
 67
     1
  8
0
100
AcDbBlockBegin
  2
*Paper_Space
 70
     0
 10
0.0
 20
0.0
 30
0.0
  3
*Paper_Space
  1

  0
ENDBLK
  5
12
330
10
100
AcDbEntity
 67
     1
  8
0
100
AcDbBlockEnd
  0
ENDSEC
  0
SECTION
  2
ENTITIES
  0
LWPOLYLINE
  5
33
330
2
100
AcDbEntity
  8
الطرق
100
AcDbPolyline
 90
        8
 70
     1
 43
0.2
 10
263603.9987351442
 20
1991209.922959547
 42
-0.0060832889724223
 10
263600.8956973568
 20
1991217.16649444
 10
263566.2137504925
 20
1991172.100110447
 10
263571.1202619106
 20
1991167.428413832
 10
263580.7725414775
 20
1991181.300102329
 42
-0.0470904628834537
 10
263582.5057635836
 20
1991183.058999366
 42
0.0254188220998676
 10
263584.4840305763
 20
1991184.203168789
 42
0.0805380344257408
 10
263586.6044802792
 20
1991186.355332686
  0
LWPOLYLINE
  5
35
330
2
100
AcDbEntity
  8
الطرق
100
AcDbPolyline
 90
        7
 70
     1
 43
0.2
 10
263582.7913761934
 20
1990742.945675114
 42
0.0248817141092602
 10
263585.6178257653
 20
1990745.36164041
 10
263582.6573289285
 20
1990747.373569563
 10
263570.8499213659
 20
1990755.397786039
 10
263566.1559938319
 20
1990739.698309412
 10
263565.4855770234
 20
1990737.45600956
 42
0.069002961223129
 10
263574.799783645
 20
1990739.141431559
 42
0.063423976093618
  0
LWPOLYLINE
  5
36
330
2
100
AcDbEntity
  8
الطرق
100
AcDbPolyline
 90
       16
 70
     1
 43
0.2
 10
263625.0369678901
 20
1990769.069515725
 42
-0.0244841702694946
 10
263620.124117563
 20
1990772.640354514
 42
-0.0057130467949622
 10
263616.1486767106
 20
1990776.380831646
 42
0.0415315588761072
 10
263612.3962113178
 20
1990779.505712663
 10
263609.175629712
 20
1990781.586341774
 10
263606.8288541345
 20
1990773.399987983
 10
263609.0151689931
 20
1990773.125106671
 42
-0.0695655262496918
 10
263613.5434880753
 20
1990772.104640289
 42
-0.1030235689570386
 10
263617.6168242577
 20
1990769.523708836
 42
0.0244841702691112
 10
263622.846370192
 20
1990765.72268413
 42
0.0180104778167772
 10
263634.0434090808
 20
1990758.95692491
 42
0.0069805174281252
 10
263638.5099810469
 20
1990756.554059515
 42
-0.0031067741825081
 10
263646.4374609447
 20
1990752.40921634
 10
263648.6474679785
 20
1990756.060191099
 42
-0.0129836298250706
 10
263640.3556663184
 20
1990760.102784058
 42
-0.0069805174282242
 10
263635.987448186
 20
1990762.4527384
 42
0.0330781498707301
  0
LWPOLYLINE
  5
37
330
2
100
AcDbEntity
  8
الطرق
100
AcDbPolyline
 90
       35
 70
     1
 43
0.2
 10
263487.0009277443
 20
1991436.627274079
 42
0.037617762362463
 10
263437.3908944873
 20
1991436.627274079
 42
-0.054055785546953
 10
263335.1337027162
 20
1991439.983167142
 10
263311.604419926
 20
1991443.318465879
 10
263288.6553473187
 20
1991447.393268119
 10
263271.5739926471
 20
1991450.898157667
 10
263257.9428463195
 20
1991454.176925375
 10
263241.0877337231
 20
1991458.303649416
 10
263235.607516035
 20
1991449.953180593
 10
263294.8637352929
 20
1991436.364880702
 42
0.0608414206051967
 10
263462.4128523451
 20
1991427.884636612
 42
-0.2505188531069196
 10
263529.9331345183
 20
1991402.383287339
 42
-0.0666796344762855
 10
263536.3098936953
 20
1991393.507142205
 42
0.0545113854843079
 10
263541.3509221198
 20
1991383.591999014
 10
263550.234631154
 20
1991358.699705458
 10
263565.9631121965
 20
1991315.66465535
 10
263590.9916661359
 20
1991244.49569421
 42
0.0483686268145246
 10
263615.303054031
 20
1991186.904732466
 42
0.079153557841026
 10
263649.4657800922
 20
1991144.295414672
 42
0.0326467869668845
 10
263687.0568568952
 20
1991111.270918492
 10
263699.7288564682
 20
1991101.670290481
 10
263702.6297281054
 20
1991097.73880803
 10
263711.1623070691
 20
1991091.143480201
 42
0.0000212309896671
 10
263719.8885443353
 20
1991084.441302989
 42
-0.0250869587755816
 10
263735.1789916169
 20
1991072.73013246
 10
263730.9296738068
 20
1991086.658617929
 42
-0.0737771592924296
 10
263703.2169549743
 20
1991110.859712906
 42
0.0503712055114802
 10
263672.3259657115
 20
1991137.620794519
 42
-0.1113890314840076
 10
263618.9086309695
 20
1991200.797673952
 42
-0.0209336226364488
 10
263601.9379650254
 20
1991242.25117786
 10
263584.3321659745
 20
1991290.978966732
 10
263565.4833290423
 20
1991345.950391579
 10
263556.48078583
 20
1991371.151241759
 10
263550.6881307216
 20
1991386.323857481
 10
263545.6944628319
 20
1991396.705121464
 42
0.2530101119112829
  0
LWPOLYLINE
  5
38
330
2
100
AcDbEntity
  8
الطرق
100
AcDbPolyline
 90
      153
 70
     1
 43
0.2
 10
263551.9673249611
 20
1991043.382803828
 42
-0.0399664425571989
 10
263551.9673249611
 20
1991043.382803828
 42
-0.0543171257813718
 10
263551.9673249611
 20
1991043.382803828
 10
263551.9673249611
 20
1991043.382803828
 10
263545.6244422038
 20
1991044.459566648
 10
263545.6244422038
 20
1991044.459566648
 10
263545.6244422038
 20
1991044.459566648
 10
263545.6244422038
 20
1991044.459566648
 10
263545.6244422038
 20
1991044.459566648
 10
263545.6244422038
 20
1991044.459566648
 42
0.5336001546418013
 10
263545.6244422038
 20
1991044.459566648
 42
-0.0958632191139383
 10
263545.6244422038
 20
1991044.459566648
 42
-0.1143703777310459
 10
263545.6244422038
 20
1991044.459566648
 42
-0.539180116862894
 10
263545.6244422038
 20
1991044.459566648
 42
-1.318531826955639
 10
263545.6244422038
 20
1991044.459566648
 10
263545.6244422038
 20
1991044.459566648
 42
-0.4855597774084936
 10
263545.6244422038
 20
1991044.459566648
 42
-0.0846353761816439
 10
263541.9359573488
 20
1991038.952561376
 42
0.0032666022483645
 10
263534.5685730585
 20
1991032.740787002
 42
-0.0154495943249736
 10
263526.8867736014
 20
1991025.721072555
 42
0.0245567760278178
 10
263522.1852191765
 20
1991021.533311823
 10
263521.1615382323
 20
1991020.712664621
 42
0.0688680300377323
 10
263518.4070855985
 20
1991017.187251599
 42
0.0376464752606213
 10
263516.5857143838
 20
1991013.731008166
 42
0.1530526436450167
 10
263515.4545620146
 20
1991008.656065243
 42
0.0839171572487221
 10
263517.0636720367
 20
1991001.940522974
 42
-0.0449300841168798
 10
263521.5669859969
 20
1990994.841051216
 42
0.1556536331943357
 10
263526.3241506275
 20
1990989.078954358
 42
0.0326987274317941
 10
263530.2499616331
 20
1990986.63680607
 42
0.0009009691907065
 10
263536.0568038183
 20
1990984.849271995
 42
-0.004310249289769
 10
263543.1852891178
 20
1990982.186137473
 42
-0.0041727636249247
 10
263550.0416699941
 20
1990979.491239853
 42
0.0244183665102654
 10
263590.715112935
 20
1990959.768351755
 42
0.0427385256588002
 10
263596.3976578498
 20
1990957.260698584
 42
-0.0504633742932724
 10
263601.2604259691
 20
1990954.44513703
 42
-0.1479567294027955
 10
263604.5719219956
 20
1990949.988195026
 42
0.2133234054568992
 10
263607.9747500128
 20
1990946.782926159
 42
-0.0117725319229273
 10
263612.1418640037
 20
1990944.678419199
 42
-0.1216625710872924
 10
263614.5164120116
 20
1990941.839543091
 42
-0.1501523618016245
 10
263615.6052048343
 20
1990937.49160242
 42
0.0013523222940098
 10
263616.3733844606
 20
1990931.800049839
 42
-0.1093494043016475
 10
263616.6650819701
 20
1990926.535296597
 42
0.2657715625320014
 10
263616.7859092393
 20
1990922.78775022
 42
0.0374403676794445
 10
263617.7419862676
 20
1990920.331735265
 42
0.0375152800864341
 10
263618.9113031898
 20
1990917.22796168
 10
263621.8704617667
 20
1990917.610304305
 10
263623.7001469007
 20
1990908.28681479
 10
263624.1160700408
 20
1990907.811845814
 42
0.0244457969122247
 10
263626.4839817863
 20
1990900.309109071
 42
0.0298061374638402
 10
263627.3802444714
 20
1990893.6860925
 42
-0.0158900044196117
 10
263628.5375283769
 20
1990889.712088615
 42
0.0486011210029027
 10
263629.5217888634
 20
1990885.138895061
 42
-0.0078589263207768
 10
263631.3044516499
 20
1990879.238336273
 42
-0.0350257545001484
 10
263632.3611596479
 20
1990874.222998629
 42
-0.0293897485634898
 10
263632.7001391624
 20
1990869.934101051
 42
-0.0569794152608257
 10
263632.3641209756
 20
1990866.359484483
 42
0.0258053547076293
 10
263631.141432694
 20
1990862.311372571
 42
-0.0283788793809216
 10
263629.508861724
 20
1990858.181646137
 42
-0.0259097042888409
 10
263626.2185568559
 20
1990849.979877156
 10
263623.9181030771
 20
1990844.813825423
 10
263621.1549937812
 20
1990836.586252656
 10
263618.1935200492
 20
1990828.278552689
 10
263615.9655012357
 20
1990822.260740501
 10
263613.8060474703
 20
1990815.590469561
 10
263611.4539501829
 20
1990809.173051632
 10
263609.1787511373
 20
1990800.545190968
 10
263604.9467451455
 20
1990785.80104339
 10
263600.8073306338
 20
1990770.839906598
 42
0.0103731197696471
 10
263599.010030883
 20
1990765.380520437
 42
-0.0421257198191502
 10
263596.3783850256
 20
1990758.799932248
 42
-0.0254475788326748
 10
263593.3393566595
 20
1990753.985457281
 42
-0.0465320104325788
 10
263588.0341624727
 20
1990747.867517445
 42
-0.0482023988874494
 10
263582.7913761934
 20
1990742.945675114
 42
-0.063423976093618
 10
263574.799783645
 20
1990739.141431559
 42
-0.0944882486503717
 10
263561.9981355432
 20
1990737.488800943
 42
0.0219294565091139
 10
263555.5552926275
 20
1990737.637285044
 10
263549.4884222789
 20
1990738.308436689
 10
263542.0075800376
 20
1990739.257004961
 10
263535.895373516
 20
1990740.115822793
 10
263526.9919341088
 20
1990741.13978709
 10
263517.1033291171
 20
1990742.808660981
 10
263496.2548622238
 20
1990745.662687579
 42
-0.0292045313988103
 10
263496.2548622238
 20
1990745.662687579
 10
263487.07442348
 20
1990746.481846896
 10
263480.6914490809
 20
1990747.112895338
 10
263479.546885825
 20
1990738.57124357
 10
263486.214560394
 20
1990737.784110633
 10
263495.7392267744
 20
1990737.232000102
 42
-0.0163388296161296
 10
263502.1737168511
 20
1990736.968924555
 10
263516.1958019266
 20
1990735.077374816
 10
263526.2120143285
 20
1990734.420201424
 10
263534.9885140578
 20
1990733.138908039
 10
263541.1340319443
 20
1990732.222651553
 10
263548.7774901687
 20
1990731.37311538
 10
263555.1070455868
 20
1990730.870508515
 42
0.0463498058448796
 10
263562.2403140931
 20
1990730.578552844
 42
0.0672639490897818
 10
263576.2835619934
 20
1990732.842755608
 42
0.0678489932464141
 10
263585.9779960066
 20
1990737.300319262
 42
0.0381327314719458
 10
263592.3229635289
 20
1990742.959102487
 42
0.0348006788087137
 10
263598.412215674
 20
1990750.016497539
 42
0.0553748844234396
 10
263601.9729955735
 20
1990756.156089959
 42
0.0574569524158458
 10
263604.347656898
 20
1990763.913689847
 42
-0.0019991045821518
 10
263605.6816496392
 20
1990769.47434446
 10
263610.0319759465
 20
1990784.554894277
 10
263613.4860180958
 20
1990799.36866573
 10
263616.1378111328
 20
1990807.728201706
 10
263618.8593838668
 20
1990813.95612022
 10
263621.5147091024
 20
1990819.293706683
 10
263623.5074088772
 20
1990825.530191765
 10
263625.9600629542
 20
1990834.840173249
 10
263628.4204591973
 20
1990843.403834349
 10
263630.8959178385
 20
1990848.003821913
 42
0.0388666495599468
 10
263634.2482377273
 20
1990856.009126777
 42
0.0412177960708471
 10
263636.2733720863
 20
1990861.358193388
 42
0.0528633139704028
 10
263636.6933547986
 20
1990865.535187019
 42
0.0701633935204331
 10
263636.6993303678
 20
1990870.014535517
 42
0.0293897485637667
 10
263636.3233325577
 20
1990874.771802632
 42
0.0350257544996261
 10
263635.1512266452
 20
1990880.334840781
 42
0.0078589263207728
 10
263633.3322003887
 20
1990886.355761532
 42
-0.0486011210045186
 10
263632.51116975
 20
1990890.170536255
 42
-0.022559723787225
 10
263631.4119741375
 20
1990894.788279646
 42
-0.0353936261563938
 10
263630.1214991459
 20
1990900.969483823
 42
0.0548160551149959
 10
263628.5558419028
 20
1990909.012479953
 42
0.0118524963866831
 10
263626.2266047284
 20
1990916.871089349
 42
0.000384228551092
 10
263624.18386279
 20
1990922.37997951
 42
-0.0264125311734024
 10
263622.4738582124
 20
1990927.248318604
 42
-0.1024721442061648
 10
263621.9822034034
 20
1990932.603715918
 42
-0.0023601520063115
 10
263622.7053525767
 20
1990937.891071351
 42
0.0222144190682645
 10
263624.0783203911
 20
1990945.202232442
 42
-0.0180500408427826
 10
263614.2391405146
 20
1990948.52389982
 42
-0.0444251125580405
 10
263609.8982307656
 20
1990950.838209022
 42
-0.1232641831022426
 10
263608.4539107868
 20
1990952.175495058
 42
0.0666928641996528
 10
263603.9155176795
 20
1990957.436873651
 42
-0.0084165855119542
 10
263598.185553994
 20
1990961.621838704
 42
0.0120505353740394
 10
263593.3364983215
 20
1990964.418042543
 42
0.0366696915327816
 10
263551.5359169931
 20
1990983.20166111
 42
0.0041727636249513
 10
263544.6174003734
 20
1990985.920981158
 42
0.0043102492897752
 10
263537.4243133923
 20
1990988.608250256
 42
-0.000789593721078
 10
263532.397606989
 20
1990990.445950949
 42
-0.0785324243709
 10
263528.7941450995
 20
1990992.455978531
 42
-0.216240803154923
 10
263525.8516982223
 20
1990996.653318351
 42
-0.0175231600529693
 10
263523.1215703847
 20
1991004.559295693
 42
-0.1304514772956826
 10
263522.2743497014
 20
1991009.13176367
 42
-0.0983709499005866
 10
263522.564390891
 20
1991011.013738438
 42
-0.0591106286723955
 10
263524.3316811104
 20
1991013.986112667
 42
-0.0771520461520731
 10
263526.1600922099
 20
1991015.937049381
 10
263526.7414375043
 20
1991016.501849874
 42
-0.0052250277755495
 10
263531.038903002
 20
1991020.669645681
 42
-0.0677390136366709
 10
263538.4731520712
 20
1991027.50322448
 42
0.0486587116875839
 10
263546.3062475872
 20
1991034.686777566
 42
0.0915343868791008
 10
263550.8972772812
 20
1991041.029663869
 42
0.0274729914841023
 10
263551.9673249611
 20
1991043.382803828
 42
-6.877329471416316
 10
263551.9673249611
 20
1991043.382803828
 42
0.0831372329727513
  0
LWPOLYLINE
  5
39
330
2
100
AcDbEntity
  8
الطرق
100
AcDbPolyline
 90
       10
 70
     1
 43
0.2
 10
263446.0279490257
 20
1991327.461087632
 10
263445.4402311682
 20
1991325.516035685
 42
-0.3358947880108489
 10
263441.0315234322
 20
1991322.306640585
 42
0.1662995624327409
 10
263422.023173089
 20
1991314.500044417
 10
263417.3111603009
 20
1991310.134766446
 10
263419.7999774444
 20
1991306.334088337
 10
263425.1148732791
 20
1991311.347603388
 42
-0.2358972198542975
 10
263448.1794622366
 20
1991317.137366768
 10
263446.9814536605
 20
1991321.076859501
 10
263446.364375626
 20
1991324.722942887
  0
LWPOLYLINE
  5
3A
330
2
100
AcDbEntity
  8
الطرق
100
AcDbPolyline
 90
        8
 70
     1
 43
0.2
 10
263568.4639544912
 20
1991308.553483505
 10
263568.8756173672
 20
1991305.964087327
 42
-0.2153433112173942
 10
263566.115820322
 20
1991299.262690504
 10
263562.9673910406
 20
1991297.187607656
 10
263559.3265007833
 20
1991295.426838174
 10
263561.1296320568
 20
1991291.473760902
 10
263569.3518900318
 20
1991295.623531398
 42
-0.2903472048347691
 10
263573.3331229076
 20
1991294.707950973
  0
LWPOLYLINE
  5
3B
330
2
100
AcDbEntity
  8
الطرق
100
AcDbPolyline
 90
       19
 70
     1
 43
0.2
 10
263472.3652129126
 20
1991273.234521041
 10
263473.1556093667
 20
1991269.347876593
 10
263473.0012427564
 20
1991266.178952699
 10
263476.9611369674
 20
1991269.990438276
 10
263476.9611369674
 20
1991269.990438276
 42
-0.0187076938457225
 10
263480.6145371797
 20
1991272.887734525
 42
-0.2063711682367789
 10
263480.6145371797
 20
1991272.887734525
 42
-0.1791009556649677
 10
263488.0571587039
 20
1991274.529373509
 10
263503.4579559623
 20
1991263.922508604
 10
263505.0686000987
 20
1991266.131521462
 10
263506.0781189385
 20
1991265.53895513
 10
263508.0689288569
 20
1991268.93057563
 10
263507.078715402
 20
1991268.888412603
 10
263506.0414121485
 20
1991271.422689997
 10
263509.1150592544
 20
1991273.666855289
 10
263507.3437309567
 20
1991276.7410469
 10
263506.1319648074
 20
1991275.866470885
 42
-0.234940754133659
 10
263493.1596833324
 20
1991274.957167643
 42
0.167762019655157
 10
263480.6722249568
 20
1991276.738125131
 42
0.1165549413329751
  0
LWPOLYLINE
  5
3C
330
2
100
AcDbEntity
  8
الطرق
100
AcDbPolyline
 90
       38
 70
     1
 43
0.2
 10
263567.0078956599
 20
1991312.693802384
 42
0.2097953389737997
 10
263558.9292557987
 20
1991312.035605417
 42
0.0157469001140502
 10
263539.9029585168
 20
1991298.580459739
 10
263538.765244
 20
1991300.517527625
 10
263554.3485750507
 20
1991312.006667976
 42
0.6273451489196801
 10
263554.0827526128
 20
1991313.113662438
 42
-0.3278154720580983
 10
263549.4752040422
 20
1991318.338670369
 42
0.1916793313267158
 10
263545.0448614632
 20
1991327.106059681
 42
0.2401969506104056
 10
263542.4006570004
 20
1991327.788773723
 42
-0.3434652807720667
 10
263541.1165950543
 20
1991328.397832261
 42
-0.0000000000710598
 10
263539.8772367861
 20
1991330.860697993
 42
-0.4801739217030818
 10
263540.9416891
 20
1991333.187181654
 42
0.5223980357102266
 10
263541.6163622202
 20
1991334.97085389
 42
0.0000000000424167
 10
263539.8828356185
 20
1991337.498263876
 42
0.4820085762213244
 10
263538.7992962807
 20
1991337.575651838
 42
-0.5823900356487141
 10
263538.0615985521
 20
1991337.746620251
 10
263537.0780030752
 20
1991339.3387702
 10
263535.9976939448
 20
1991340.708002976
 10
263532.6383527429
 20
1991342.697537569
 42
-0.2805456153638957
 10
263530.9691981994
 20
1991345.833875431
 42
-0.3063110009510788
 10
263532.3712883747
 20
1991347.668966063
 42
0.4470057977560668
 10
263532.8551704877
 20
1991348.794019889
 42
0.000000000167317
 10
263532.1498343818
 20
1991350.313713397
 42
-0.3924006420704893
 10
263532.5547219525
 20
1991351.563338724
 42
-0.4689214571855346
 10
263534.664335798
 20
1991350.619112249
 10
263535.4590548037
 20
1991348.710606576
 10
263537.3952737154
 20
1991345.791142878
 10
263539.1311965928
 20
1991343.772541609
 10
263540.1184057735
 20
1991341.73121332
 10
263541.6874122998
 20
1991339.495737888
 10
263542.7835396209
 20
1991337.934007164
 42
-0.0518473575210049
 10
263546.1318510138
 20
1991331.925140951
 42
0.220939115066164
 10
263547.4409712609
 20
1991330.750918285
 10
263549.0186219819
 20
1991328.737966747
 10
263550.059202788
 20
1991325.886284091
 10
263551.223981124
 20
1991320.640164954
 42
0.163072975763883
 10
263555.4829193651
 20
1991317.092940625
 42
0.4694255485493784
 10
263563.9593783609
 20
1991321.147116484
  0
LWPOLYLINE
  5
3D
330
2
100
AcDbEntity
  8
الطرق
100
AcDbPolyline
 90
       12
 70
     1
 43
0.2
 10
263579.2554991381
 20
1991277.867610743
 42
-0.3539492206357091
 10
263573.1573660301
 20
1991262.351370368
 10
263562.2210193524
 20
1991254.65274657
 42
-0.1686154274380227
 10
263550.7683092149
 20
1991250.901345365
 10
263549.9242717508
 20
1991248.702707797
 10
263558.2952596918
 20
1991243.022413344
 10
263559.2735031011
 20
1991244.46403998
 10
263562.1211094308
 20
1991242.932792968
 10
263566.0067377216
 20
1991249.355584337
 10
263576.2452483341
 20
1991256.989024981
 10
263578.06083386
 20
1991258.007526243
 42
-0.3946604134203953
 10
263588.266496752
 20
1991252.244742535
  0
LWPOLYLINE
  5
3E
330
2
100
AcDbEntity
  8
الطرق
100
AcDbPolyline
 90
        9
 70
     1
 43
0.2
 10
263482.8505475729
 20
1991424.67314743
 42
-0.2720699754167616
 10
263485.8403350279
 20
1991427.325460993
 42
0.0385623301783666
 10
263474.2067082278
 20
1991428.505462558
 42
-0.4000477898398216
 10
263478.5976733878
 20
1991420.837967187
 10
263477.5942046643
 20
1991411.169215957
 10
263478.1472063041
 20
1991402.870836002
 10
263481.7092448612
 20
1991403.0700905
 10
263482.020100535
 20
1991407.260288843
 10
263482.3312009474
 20
1991413.391942414
  0
LWPOLYLINE
  5
3F
330
2
100
AcDbEntity
  8
الطرق
100
AcDbPolyline
 90
       29
 70
     1
 43
0.2
 10
263416.6246200353
 20
1991392.4275177
 42
-0.345782110569328
 10
263407.9426921608
 20
1991392.471041305
 10
263401.9476472178
 20
1991400.584518068
 10
263398.6525501383
 20
1991405.477434627
 10
263391.8092711735
 20
1991414.02232027
 10
263385.6378591475
 20
1991419.775283683
 42
-0.41252973667094
 10
263387.678382518
 20
1991426.619864339
 10
263378.3803187702
 20
1991427.027795505
 10
263373.2130702584
 20
1991427.308704777
 42
0.1284105620623763
 10
263383.3463086415
 20
1991417.970954171
 42
-0.1602472674958792
 10
263390.6943404286
 20
1991410.299394697
 10
263395.3941326002
 20
1991404.738254736
 10
263400.0399030363
 20
1991397.935306584
 10
263407.6965523033
 20
1991387.928572126
 42
-0.021542133316826
 10
263411.8131617264
 20
1991378.573918664
 10
263413.7933180074
 20
1991373.20686169
 10
263417.2886762192
 20
1991373.730121506
 10
263416.5068095559
 20
1991378.952964889
 42
0.1275902280608895
 10
263415.6954901586
 20
1991380.033776362
 42
-0.3421383495118415
 10
263414.3381274141
 20
1991382.281809748
 10
263414.4644097731
 20
1991385.03778632
 42
-0.3610171761925862
 10
263418.1675953403
 20
1991389.10404879
 10
263420.3009539009
 20
1991389.459417774
 10
263424.8516785492
 20
1991389.72745414
 10
263427.4421410139
 20
1991389.657987603
 42
-0.3178334310556408
 10
263429.4601686539
 20
1991388.170330726
 42
0.4198293088138755
 10
263431.088115317
 20
1991387.038454074
 10
263433.6007663888
 20
1991386.283989874
 10
263436.4248684184
 20
1991390.300798468
 42
0.2405626634062866
  0
LWPOLYLINE
  5
40
330
2
100
AcDbEntity
  8
الطرق
100
AcDbPolyline
 90
       80
 70
     1
 43
0.2
 10
263498.5319103821
 20
1991423.886441528
 42
-0.0770271025873219
 10
263499.1764598157
 20
1991419.607187304
 10
263498.6973302164
 20
1991411.274753123
 10
263498.194316994
 20
1991396.419027981
 10
263497.3495307848
 20
1991391.232410805
 10
263495.7640787678
 20
1991386.16056587
 42
-0.2193638835458973
 10
263493.5565451264
 20
1991383.717823514
 42
-0.0150043797069541
 10
263478.3405434721
 20
1991378.678377153
 10
263455.6139169593
 20
1991371.779928277
 10
263452.8361170484
 20
1991371.461376933
 10
263447.4954220729
 20
1991373.372031033
 10
263445.8816162581
 20
1991371.141416828
 10
263449.4436011766
 20
1991369.591839571
 42
-0.3406591340467029
 10
263452.118866962
 20
1991363.815425528
 10
263452.118866962
 20
1991363.815425528
 10
263452.118866962
 20
1991363.815425528
 10
263452.118866962
 20
1991363.815425528
 10
263452.118866962
 20
1991363.815425528
 10
263449.1208412597
 20
1991360.262145318
 42
0.2187100092874646
 10
263445.8509741261
 20
1991348.469059223
 42
0.0503786853731098
 10
263445.547526127
 20
1991337.604689299
 42
0.0374810847023446
 10
263446.364375626
 20
1991324.722942887
 42
-0.0315966270446315
 10
263446.9814536605
 20
1991321.076859501
 42
0.0910321452350432
 10
263451.2177905605
 20
1991311.255116658
 42
-0.0559444634729295
 10
263453.374584393
 20
1991307.065856799
 10
263454.5140264509
 20
1991303.161303835
 10
263457.9126565936
 20
1991291.689578831
 10
263459.7766216656
 20
1991285.397957259
 10
263465.099963748
 20
1991273.960983418
 42
0.1140532444936607
 10
263467.6397249972
 20
1991270.707070923
 42
-0.2486323254037988
 10
263469.2943619564
 20
1991266.820559343
 42
0.0232159475380292
 10
263469.1671649628
 20
1991263.51516328
 42
-0.0976118312494076
 10
263467.5026822299
 20
1991254.701113122
 10
263466.4160889968
 20
1991251.119196817
 10
263469.8093730342
 20
1991249.901091267
 10
263470.1639060719
 20
1991253.823676627
 10
263471.1578763758
 20
1991257.92160366
 10
263472.96116274
 20
1991265.356167763
 10
263473.1556093667
 20
1991269.347876593
 10
263472.3652129126
 20
1991273.234521041
 10
263469.5736528387
 20
1991277.561525118
 10
263464.0940628413
 20
1991286.53269578
 42
-0.1375864750842518
 10
263461.8095205441
 20
1991294.633774148
 10
263459.5528387376
 20
1991301.97512774
 10
263457.2370060697
 20
1991309.325526744
 10
263457.1234658276
 20
1991309.984050768
 42
0.1763737015223983
 10
263455.2886772151
 20
1991313.189362992
 42
-0.134963341827096
 10
263453.3153169605
 20
1991316.069208905
 10
263451.22489243
 20
1991323.008919205
 42
-0.0414942393851926
 10
263451.1004752084
 20
1991323.593677607
 42
0.015040548134869
 10
263450.0743469475
 20
1991328.04133513
 42
-0.1157597292552337
 10
263449.6896583585
 20
1991329.834401112
 10
263449.7869835455
 20
1991343.822764438
 10
263449.6177761241
 20
1991349.284643074
 42
-0.1714380057685638
 10
263452.1811385357
 20
1991357.32555203
 42
0.0430071446437857
 10
263455.8807086101
 20
1991363.511467602
 42
-0.2445062725115055
 10
263464.3843965926
 20
1991369.613013702
 10
263480.8609714863
 20
1991374.421440488
 10
263491.9111172833
 20
1991378.058161591
 10
263502.8592647634
 20
1991382.300055638
 10
263512.3379821758
 20
1991387.313286098
 10
263520.8964145773
 20
1991391.153172913
 10
263527.6369508091
 20
1991394.611887113
 42
-0.3454344575949708
 10
263536.3098936953
 20
1991393.507142205
 10
263533.9948437222
 20
1991397.332994249
 10
263530.6766109978
 20
1991401.573587487
 10
263528.8859049884
 20
1991403.57520367
 42
-0.5852239991345331
 10
263527.5106505161
 20
1991398.460279862
 10
263523.3988097454
 20
1991396.675643531
 10
263519.3434198742
 20
1991394.921700925
 10
263515.6218967777
 20
1991393.112202631
 10
263506.2821178883
 20
1991388.339229368
 42
-0.6274903462402294
 10
263502.3877422821
 20
1991391.289550846
 42
0.0244164921266518
 10
263503.1346087754
 20
1991396.248219127
 42
0.0477977942956995
 10
263503.1667106602
 20
1991402.48338504
 42
-0.1024379541659503
 10
263505.0219081807
 20
1991418.71674564
 42
-0.309065595871692
 10
263507.9802393448
 20
1991419.703554097
 10
263498.5319103821
 20
1991423.886441528
 10
263498.5319103821
 20
1991423.886441528
 10
263498.5319103821
 20
1991423.886441528
  0
LWPOLYLINE
  5
41
330
2
100
AcDbEntity
  8
الطرق
100
AcDbPolyline
 90
       88
 70
     1
 43
0.2
 10
263560.3351668434
 20
1990826.340534649
 42
0.0381131908338424
 10
263565.059296582
 20
1990828.961374757
 42
0.0962153848675391
 10
263568.2099866325
 20
1990831.39736723
 42
0.0595598643930731
 10
263569.9238249753
 20
1990833.289100575
 42
-0.0058499308296023
 10
263572.2971942833
 20
1990836.552322212
 42
0.0255702531762003
 10
263575.8885556144
 20
1990841.923202595
 42
0.025299254026481
 10
263578.8839413813
 20
1990847.57058094
 42
0.0490390470765232
 10
263581.2742840573
 20
1990854.347685042
 42
0.0292360163106621
 10
263582.3992400002
 20
1990860.438776248
 42
-0.0220267437580889
 10
263583.2177520662
 20
1990865.25846488
 42
-0.014088662341084
 10
263584.9123502953
 20
1990872.169919464
 42
0.0197826889052763
 10
263586.7929743709
 20
1990880.23604617
 42
0.0178083809276996
 10
263587.9358877464
 20
1990887.604358919
 42
0.0158180168063482
 10
263587.8353010735
 20
1990892.961310255
 42
0.0270969192924499
 10
263587.0656586066
 20
1990897.44407964
 42
-0.0133724050241948
 10
263586.5239961032
 20
1990901.563108735
 42
0.0182835581225251
 10
263585.0708336475
 20
1990908.751715861
 42
0.0184574623078604
 10
263583.8880761614
 20
1990912.977067821
 42
0.0466057289553163
 10
263581.0532484798
 20
1990919.626589191
 42
0.0294338568047681
 10
263577.0819823219
 20
1990926.032033175
 42
0.0426957182059226
 10
263571.7466267589
 20
1990932.377022989
 42
0.0181726681616295
 10
263566.0497969197
 20
1990937.683548465
 42
0.0172624808419157
 10
263560.2947886939
 20
1990942.328639173
 42
0.0104531487935025
 10
263551.3114655762
 20
1990948.791567758
 42
0.0583228089261271
 10
263540.613499945
 20
1990954.446068473
 42
0.0096425618976306
 10
263536.2505289498
 20
1990956.040825246
 42
0.018874542441629
 10
263530.7936530103
 20
1990957.689484208
 42
0.0645021038080137
 10
263526.6602014272
 20
1990958.216579638
 42
0.0140399944409215
 10
263520.807641543
 20
1990958.040546022
 42
0.0038921109537779
 10
263514.9851716799
 20
1990957.656105715
 42
0.0162962060594344
 10
263511.6020291209
 20
1990957.295099752
 10
263512.1558227149
 20
1990953.333621157
 42
-0.0162962060598115
 10
263515.2797667006
 20
1990953.666968744
 42
-0.0038921109538258
 10
263521.0400990308
 20
1990954.047306295
 42
-0.014039994440847
 10
263526.6681648025
 20
1990954.216587565
 42
-0.0645021038074721
 10
263529.7821144716
 20
1990953.819498448
 42
-0.0188745424417777
 10
263534.9500064649
 20
1990952.258148777
 42
-0.0096425618974485
 10
263539.1680865728
 20
1990950.716352641
 42
-0.0583228089264041
 10
263549.0438381966
 20
1990945.496440133
 42
-0.0104531487936064
 10
263557.8914104384
 20
1990939.131175653
 42
-0.0172624808420881
 10
263563.431557443
 20
1990934.659507783
 42
-0.0181726681613595
 10
263568.9156981301
 20
1990929.551099583
 42
-0.0584428572594963
 10
263574.093288296
 20
1990923.944588324
 42
-0.0374989073955077
 10
263577.787914987
 20
1990917.802942151
 42
-0.0058566813868995
 10
263580.0785522852
 20
1990911.757425318
 42
-0.0184574623085829
 10
263581.1817312216
 20
1990907.816364418
 42
-0.0185569574701244
 10
263582.593969295
 20
1990900.810488917
 42
-0.0355470300202525
 10
263583.1653411066
 20
1990896.948880772
 42
-0.0110285300870096
 10
263583.8484261503
 20
1990892.597053404
 42
-0.014660866719908
 10
263583.938651019
 20
1990887.866317581
 42
-0.0172831077344559
 10
263582.8645791649
 20
1990880.989512231
 42
-0.0197826889051065
 10
263581.0557970222
 20
1990873.231520543
 42
0.0140886623410587
 10
263579.3075297298
 20
1990866.101175554
 42
0.0220267437592767
 10
263578.4300394562
 20
1990860.934202369
 42
-0.0292360163100438
 10
263577.3899671902
 20
1990855.302715134
 42
-0.0490390470767972
 10
263575.2599842375
 20
1990849.263783415
 42
-0.0760583026108776
 10
263570.9484187238
 20
1990844.545180842
 42
0.0960686522723253
 10
263568.453420463
 20
1990838.942770431
 42
-0.0836142309514032
 10
263566.8367736056
 20
1990835.461875139
 42
-0.0510522346446647
 10
263566.0555640291
 20
1990834.164884311
 42
-0.0836024849914844
 10
263562.5056922493
 20
1990833.732032659
 42
0.0303835183226173
 10
263557.1767498863
 20
1990831.693762955
 42
0.098049231011321
 10
263549.7839241004
 20
1990826.824989222
 42
-0.0492155396237795
 10
263542.0108785018
 20
1990818.373441001
 42
0.5934397758116203
 10
263542.0108785018
 20
1990818.373441001
 10
263539.6633596687
 20
1990820.060584638
 10
263535.1960009415
 20
1990814.557027437
 10
263535.6018485676
 20
1990814.247263039
 10
263533.4059567905
 20
1990810.396742114
 10
263532.0270388346
 20
1990810.835881732
 10
263528.1678094785
 20
1990805.495161214
 10
263524.2021558612
 20
1990808.222175457
 10
263521.971936659
 20
1990805.10464756
 10
263520.2131434295
 20
1990806.264658254
 10
263515.3756981477
 20
1990799.536893772
 10
263510.2556587378
 20
1990803.205926663
 10
263507.0358026639
 20
1990799.165056372
 10
263505.9305140729
 20
1990798.991941928
 10
263503.9456410988
 20
1990795.765821885
 10
263504.7249754296
 20
1990795.24886475
 42
-1.996329496688503
 10
263504.7249754296
 20
1990795.24886475
 10
263487.4976957122
 20
1990771.828782425
 10
263472.9760248988
 20
1990759.162525977
 10
263476.3346666882
 20
1990755.169665131
 10
263491.0871950446
 20
1990767.601896092
 42
0.0316898636192188
 10
263520.0226513089
 20
1990789.444863569
 42
0.0247523148725983
 10
263546.7152535271
 20
1990813.783387928
 42
0.0152245861018922
 10
263554.4434913218
 20
1990822.07872449
 42
-0.0794806973323913
  0
ENDSEC
  0
SECTION
  2
OBJECTS
  0
DICTIONARY
  5
9
330
0
100
AcDbDictionary
281
     1
  3
ACAD_COLOR
350
2C
  3
ACAD_GROUP
350
29
  3
ACAD_LAYOUT
350
F
  3
ACAD_MATERIAL
350
B
  3
ACAD_MLINESTYLE
350
2A
  3
ACAD_PLOTSETTINGS
350
2B
  3
ACAD_PLOTSTYLENAME
350
8
  3
ACAD_TABLESTYLE
350
2D
  3
ACDB_RECOMPOSE_DATA
350
48
  3
ACDBHEADERROUNDTRIPXREC
350
45
  3
AcDbVariableDictionary
350
43
  0
DICTIONARY
  5
15
330
14
100
AcDbDictionary
280
     1
281
     1
  3
ACAD_LAYERFILTERS
360
16
  3
ACAD_LAYERSTATES
360
17
  3
ACLYDICTIONARY
360
19
  0
DICTIONARY
  5
3
330
2
100
AcDbDictionary
280
     1
281
     1
  3
ACAD_SORTENTS
360
42
  0
DICTIONARY
  5
2C
102
{ACAD_REACTORS
330
9
102
}
330
9
100
AcDbDictionary
281
     1
  0
DICTIONARY
  5
29
102
{ACAD_REACTORS
330
9
102
}
330
9
100
AcDbDictionary
281
     1
  0
DICTIONARY
  5
F
102
{ACAD_REACTORS
330
9
102
}
330
9
100
AcDbDictionary
281
     1
  3
Layout1
350
13
  3
Model
350
E
  0
DICTIONARY
  5
B
102
{ACAD_REACTORS
330
9
102
}
330
9
100
AcDbDictionary
281
     1
  3
Global
350
A
  0
DICTIONARY
  5
2A
102
{ACAD_REACTORS
330
9
102
}
330
9
100
AcDbDictionary
281
     1
  3
Standard
350
31
  0
DICTIONARY
  5
2B
102
{ACAD_REACTORS
330
9
102
}
330
9
100
AcDbDictionary
281
     1
  0
ACDBDICTIONARYWDFLT
  5
8
102
{ACAD_REACTORS
330
9
102
}
330
9
100
AcDbDictionary
281
     1
  3
Normal
350
7
100
AcDbDictionaryWithDefault
340
7
  0
DICTIONARY
  5
2D
102
{ACAD_REACTORS
330
9
102
}
330
9
100
AcDbDictionary
281
     1
  3
Standard
350
32
  0
XRECORD
  5
48
102
{ACAD_REACTORS
330
9
102
}
330
9
100
AcDbXrecord
280
     1
 90
        1
330
32
  0
DICTIONARY
  5
45
102
{ACAD_REACTORS
330
9
102
}
330
9
100
AcDbDictionary
281
     1
  0
DICTIONARY
  5
43
102
{ACAD_REACTORS
330
9
102
}
330
9
100
AcDbDictionary
281
     1
  3
CTABLESTYLE
350
44
  0
DICTIONARY
  5
16
102
{ACAD_REACTORS
330
15
102
}
330
15
100
AcDbDictionary
281
     1
  0
DICTIONARY
  5
17
102
{ACAD_REACTORS
330
15
102
}
330
15
100
AcDbDictionary
281
     1
1001
AcLayerTools
1000
22
1000
0
  0
DICTIONARY
  5
19
102
{ACAD_REACTORS
330
15
102
}
330
15
100
AcDbDictionary
281
     1
1001
ACAD
1000
<All
  0
SORTENTSTABLE
  5
42
102
{ACAD_REACTORS
330
3
102
}
330
3
100
AcDbSortentsTable
330
2
331
3D
  5
38
331
3B
  5
3A
331
39
  5
3C
331
37
  5
3E
331
35
  5
40
331
33
  5
41
331
40
  5
35
331
3E
  5
37
331
3C
  5
39
331
3A
  5
3B
331
38
  5
3D
331
36
  5
3F
331
41
  5
33
331
3F
  5
36
  0
LAYOUT
  5
13
102
{ACAD_REACTORS
330
F
102
}
330
F
100
AcDbPlotSettings
  1

  2
none_device
  4

  6

 40
0.0
 41
0.0
 42
0.0
 43
0.0
 44
0.0
 45
0.0
 46
0.0
 47
0.0
 48
0.0
 49
0.0
140
0.0
141
0.0
142
1.0
143
1.0
 70
   688
 72
     0
 73
     0
 74
     5
  7

 75
    16
147
1.0
 76
     0
 77
     2
 78
   300
148
0.0
149
0.0
100
AcDbLayout
  1
Layout1
 70
     1
 71
     1
 10
0.0
 20
0.0
 11
12.0
 21
9.0
 12
0.0
 22
0.0
 32
0.0
 14
1.000000000000000E+20
 24
1.000000000000000E+20
 34
1.000000000000000E+20
 15
-1.000000000000000E+20
 25
-1.000000000000000E+20
 35
-1.000000000000000E+20
146
0.0
 13
0.0
 23
0.0
 33
0.0
 16
1.0
 26
0.0
 36
0.0
 17
0.0
 27
1.0
 37
0.0
 76
     0
330
10
  0
LAYOUT
  5
E
102
{ACAD_REACTORS
330
F
102
}
330
F
100
AcDbPlotSettings
  1

  2
none_device
  4

  6

 40
0.0
 41
0.0
 42
0.0
 43
0.0
 44
0.0
 45
0.0
 46
0.0
 47
0.0
 48
0.0
 49
0.0
140
0.0
141
0.0
142
1.0
143
1.0
 70
  1712
 72
     0
 73
     0
 74
     0
  7

 75
     0
147
1.0
 76
     0
 77
     2
 78
   300
148
0.0
149
0.0
100
AcDbLayout
  1
Model
 70
     1
 71
     0
 10
0.0
 20
0.0
 11
12.0
 21
9.0
 12
0.0
 22
0.0
 32
0.0
 14
30.0
 24
49.75
 34
0.0
 15
130.5
 25
163.1318914119703
 35
0.0
146
0.0
 13
0.0
 23
0.0
 33
0.0
 16
1.0
 26
0.0
 36
0.0
 17
0.0
 27
1.0
 37
0.0
 76
     0
330
2
  0
MATERIAL
  5
A
102
{ACAD_REACTORS
330
B
102
}
330
B
100
AcDbMaterial
  1
Global
  2

  0
MLINESTYLE
  5
31
102
{ACAD_REACTORS
330
2A
102
}
330
2A
100
AcDbMlineStyle
  2
STANDARD
 70
     0
  3

 62
   256
 51
90.0
 52
90.0
 71
     2
 49
0.5
 62
   256
  6
BYLAYER
 49
-0.5
 62
   256
  6
BYLAYER
  0
ACDBPLACEHOLDER
  5
7
102
{ACAD_REACTORS
330
8
102
}
330
8
  0
TABLESTYLE
  5
32
102
{ACAD_XDICTIONARY
360
46
102
}
102
{ACAD_REACTORS
330
2D
102
}
330
2D
100
AcDbTableStyle
280
     0
  3
Standard
 70
     0
 71
     0
 40
0.06
 41
0.06
280
     0
281
     0
  7
Standard
140
0.18
170
     2
 62
     0
 63
   257
283
     0
 90
        4
 91
        0
  1

274
    -2
284
     1
 64
     0
275
    -2
285
     1
 65
     0
276
    -2
286
     1
 66
     0
277
    -2
287
     1
 67
     0
278
    -2
288
     1
 68
     0
279
    -2
289
     1
 69
     0
  7
Standard
140
0.25
170
     5
 62
     0
 63
   257
283
     0
 90
        4
 91
        0
  1

274
    -2
284
     1
 64
     0
275
    -2
285
     1
 65
     0
276
    -2
286
     1
 66
     0
277
    -2
287
     1
 67
     0
278
    -2
288
     1
 68
     0
279
    -2
289
     1
 69
     0
  7
Standard
140
0.18
170
     5
 62
     0
 63
   257
283
     0
 90
        4
 91
        0
  1

274
    -2
284
     1
 64
     0
275
    -2
285
     1
 65
     0
276
    -2
286
     1
 66
     0
277
    -2
287
     1
 67
     0
278
    -2
288
     1
 68
     0
279
    -2
289
     1
 69
     0
  0
DICTIONARYVAR
  5
44
102
{ACAD_REACTORS
330
43
102
}
330
43
100
DictionaryVariables
280
     0
  1
STANDARD
  0
DICTIONARY
  5
46
330
32
100
AcDbDictionary
280
     1
281
     1
  3
ACAD_ROUNDTRIP_2008_TABLESTYLE_CELLSTYLEMAP
360
47
  0
CELLSTYLEMAP
  5
47
102
{ACAD_REACTORS
330
46
102
}
330
46
100
AcDbCellStyleMap
 90
        3
300
CELLSTYLE
  1
TABLEFORMAT_BEGIN
 90
        5
170
     1
 91
        0
 92
        0
 62
   257
 93
        1
300
CONTENTFORMAT
  1
CONTENTFORMAT_BEGIN
 90
        0
 91
        0
 92
        4
 93
        0
300

 40
0.0
140
1.0
 94
        5
 62
     0
340
1C
144
0.25
309
CONTENTFORMAT_END
171
     1
301
MARGIN
  1
CELLMARGIN_BEGIN
 40
0.06
 40
0.06
 40
0.06
 40
0.06
 40
0.18
 40
0.18
309
CELLMARGIN_END
 94
        6
 95
        1
302
GRIDFORMAT
  1
GRIDFORMAT_BEGIN
 90
        0
 91
        1
 62
     0
 92
       -2
340
0
 93
        0
 40
0.045
309
GRIDFORMAT_END
 95
        2
302
GRIDFORMAT
  1
GRIDFORMAT_BEGIN
 90
        0
 91
        1
 62
     0
 92
       -2
340
0
 93
        0
 40
0.045
309
GRIDFORMAT_END
 95
        4
302
GRIDFORMAT
  1
GRIDFORMAT_BEGIN
 90
        0
 91
        1
 62
     0
 92
       -2
340
0
 93
        0
 40
0.045
309
GRIDFORMAT_END
 95
        8
302
GRIDFORMAT
  1
GRIDFORMAT_BEGIN
 90
        0
 91
        1
 62
     0
 92
       -2
340
0
 93
        0
 40
0.045
309
GRIDFORMAT_END
 95
       16
302
GRIDFORMAT
  1
GRIDFORMAT_BEGIN
 90
        0
 91
        1
 62
     0
 92
       -2
340
0
 93
        0
 40
0.045
309
GRIDFORMAT_END
 95
       32
302
GRIDFORMAT
  1
GRIDFORMAT_BEGIN
 90
        0
 91
        1
 62
     0
 92
       -2
340
0
 93
        0
 40
0.045
309
GRIDFORMAT_END
309
TABLEFORMAT_END
  1
CELLSTYLE_BEGIN
 90
        1
 91
        1
300
_TITLE
309
CELLSTYLE_END
300
CELLSTYLE
  1
TABLEFORMAT_BEGIN
 90
        5
170
     1
 91
        0
 92
        0
 62
   257
 93
        1
300
CONTENTFORMAT
  1
CONTENTFORMAT_BEGIN
 90
        0
 91
        0
 92
        4
 93
        0
300

 40
0.0
140
1.0
 94
        5
 62
     0
340
1C
144
0.18
309
CONTENTFORMAT_END
171
     1
301
MARGIN
  1
CELLMARGIN_BEGIN
 40
0.06
 40
0.06
 40
0.06
 40
0.06
 40
0.18
 40
0.18
309
CELLMARGIN_END
 94
        6
 95
        1
302
GRIDFORMAT
  1
GRIDFORMAT_BEGIN
 90
        0
 91
        1
 62
     0
 92
       -2
340
0
 93
        0
 40
0.045
309
GRIDFORMAT_END
 95
        2
302
GRIDFORMAT
  1
GRIDFORMAT_BEGIN
 90
        0
 91
        1
 62
     0
 92
       -2
340
0
 93
        0
 40
0.045
309
GRIDFORMAT_END
 95
        4
302
GRIDFORMAT
  1
GRIDFORMAT_BEGIN
 90
        0
 91
        1
 62
     0
 92
       -2
340
0
 93
        0
 40
0.045
309
GRIDFORMAT_END
 95
        8
302
GRIDFORMAT
  1
GRIDFORMAT_BEGIN
 90
        0
 91
        1
 62
     0
 92
       -2
340
0
 93
        0
 40
0.045
309
GRIDFORMAT_END
 95
       16
302
GRIDFORMAT
  1
GRIDFORMAT_BEGIN
 90
        0
 91
        1
 62
     0
 92
       -2
340
0
 93
        0
 40
0.045
309
GRIDFORMAT_END
 95
       32
302
GRIDFORMAT
  1
GRIDFORMAT_BEGIN
 90
        0
 91
        1
 62
     0
 92
       -2
340
0
 93
        0
 40
0.045
309
GRIDFORMAT_END
309
TABLEFORMAT_END
  1
CELLSTYLE_BEGIN
 90
        2
 91
        1
300
_HEADER
309
CELLSTYLE_END
300
CELLSTYLE
  1
TABLEFORMAT_BEGIN
 90
        5
170
     1
 91
        0
 92
        0
 62
   257
 93
        1
300
CONTENTFORMAT
  1
CONTENTFORMAT_BEGIN
 90
        0
 91
        0
 92
        4
 93
        0
300

 40
0.0
140
1.0
 94
        2
 62
     0
340
1C
144
0.18
309
CONTENTFORMAT_END
171
     1
301
MARGIN
  1
CELLMARGIN_BEGIN
 40
0.06
 40
0.06
 40
0.06
 40
0.06
 40
0.18
 40
0.18
309
CELLMARGIN_END
 94
        6
 95
        1
302
GRIDFORMAT
  1
GRIDFORMAT_BEGIN
 90
        0
 91
        1
 62
     0
 92
       -2
340
0
 93
        0
 40
0.045
309
GRIDFORMAT_END
 95
        2
302
GRIDFORMAT
  1
GRIDFORMAT_BEGIN
 90
        0
 91
        1
 62
     0
 92
       -2
340
0
 93
        0
 40
0.045
309
GRIDFORMAT_END
 95
        4
302
GRIDFORMAT
  1
GRIDFORMAT_BEGIN
 90
        0
 91
        1
 62
     0
 92
       -2
340
0
 93
        0
 40
0.045
309
GRIDFORMAT_END
 95
        8
302
GRIDFORMAT
  1
GRIDFORMAT_BEGIN
 90
        0
 91
        1
 62
     0
 92
       -2
340
0
 93
        0
 40
0.045
309
GRIDFORMAT_END
 95
       16
302
GRIDFORMAT
  1
GRIDFORMAT_BEGIN
 90
        0
 91
        1
 62
     0
 92
       -2
340
0
 93
        0
 40
0.045
309
GRIDFORMAT_END
 95
       32
302
GRIDFORMAT
  1
GRIDFORMAT_BEGIN
 90
        0
 91
        1
 62
     0
 92
       -2
340
0
 93
        0
 40
0.045
309
GRIDFORMAT_END
309
TABLEFORMAT_END
  1
CELLSTYLE_BEGIN
 90
        3
 91
        2
300
_DATA
309
CELLSTYLE_END
  0
ENDSEC
  0
EOF
